<?xml version="1.0" encoding="utf-8"?>
<!-- Generator: Adobe Illustrator 21.0.0, SVG Export Plug-In . SVG Version: 6.00 Build 0)  -->
<svg version="1.1" id="Layer_1" xmlns="http://www.w3.org/2000/svg" xmlns:xlink="http://www.w3.org/1999/xlink" x="0px" y="0px"
	 viewBox="0 0 34 34" enable-background="new 0 0 34 34" xml:space="preserve">
<g>
	<defs>
		<path id="SVGID_1_" d="M27.594,11.88c5.642,2.839,5.592,8.38,4.655,12.345c2.65-5.265,2.27-11.548-0.995-16.455
			c-1.273,1.491-2.484,2.859-3.631,4.103"/>
	</defs>
	<clipPath id="SVGID_2_">
		<use xlink:href="#SVGID_1_"  overflow="visible"/>
	</clipPath>
	<g clip-path="url(#SVGID_2_)">
		
			<linearGradient id="SVGID_3_" gradientUnits="userSpaceOnUse" x1="-331.8946" y1="-351.9821" x2="-331.1684" y2="-351.9821" gradientTransform="matrix(1.415079e-15 23.11 23.59 -1.444471e-15 8334.0801 7679.7598)">
			<stop  offset="0" style="stop-color:#134F8B"/>
			<stop  offset="1" style="stop-color:#1B93D1"/>
		</linearGradient>
		<rect x="27.594" y="7.777" fill="url(#SVGID_3_)" width="6.456" height="16.455"/>
	</g>
</g>
<g>
	<defs>
		<path id="SVGID_4_" d="M0.595,12.476L0.595,12.476c0.712,3.987,4.074,16.462,17.145,8.031c-2.396-4.219-3.181-7.618-2.963-10.355
			C9.994,10.532,5.25,11.309,0.595,12.476"/>
	</defs>
	<clipPath id="SVGID_5_">
		<use xlink:href="#SVGID_4_"  overflow="visible"/>
	</clipPath>
	<g clip-path="url(#SVGID_5_)">
		
			<linearGradient id="SVGID_6_" gradientUnits="userSpaceOnUse" x1="-341.1999" y1="-344.9362" x2="-340.4737" y2="-344.9362" gradientTransform="matrix(-11.81 19.37 19.76 11.58 2802.76 10611.0596)">
			<stop  offset="0" style="stop-color:#1F4888"/>
			<stop  offset="0.16" style="stop-color:#1F4888"/>
			<stop  offset="0.21" style="stop-color:#1B5191"/>
			<stop  offset="0.54" style="stop-color:#1282C3"/>
			<stop  offset="0.79" style="stop-color:#1BA0DB"/>
			<stop  offset="0.92" style="stop-color:#29ABE2"/>
			<stop  offset="1" style="stop-color:#29ABE2"/>
		</linearGradient>
		<polygon fill="url(#SVGID_6_)" points="26.135,15.09 13.209,36.287 -7.828,23.964 5.105,2.767 		"/>
	</g>
</g>
<g>
	<defs>
		<path id="SVGID_7_" d="M14.749,10.152c5.998-0.392,10.094,0.349,12.846,1.728c1.172-1.244,2.382-2.612,3.631-4.103
			c-2.171-3.249-5.394-5.652-9.128-6.804c-3.348,1.51-6.979,4.27-7.371,9.186"/>
	</defs>
	<clipPath id="SVGID_8_">
		<use xlink:href="#SVGID_7_"  overflow="visible"/>
	</clipPath>
	<g clip-path="url(#SVGID_8_)">
		
			<linearGradient id="SVGID_9_" gradientUnits="userSpaceOnUse" x1="-331.5003" y1="-372.0905" x2="-330.7741" y2="-372.0905" gradientTransform="matrix(25.4 13.31 13.58 -24.89 13483.7002 -4849.1401)">
			<stop  offset="0" style="stop-color:#29ABE2"/>
			<stop  offset="0.34" style="stop-color:#29ABE2"/>
			<stop  offset="0.45" style="stop-color:#1CA1DB"/>
			<stop  offset="0.65" style="stop-color:#1285C4"/>
			<stop  offset="0.9" style="stop-color:#1F5697"/>
			<stop  offset="1" style="stop-color:#284180"/>
		</linearGradient>
		<polygon fill="url(#SVGID_9_)" points="18.423,-5.758 35.887,3.391 27.587,18.605 10.123,9.455 		"/>
	</g>
</g>
<g>
	<defs>
		<path id="SVGID_10_" d="M17.74,20.507c2.269,3.826,4.961,7.385,8.024,10.609c2.778-1.625,5.033-4.011,6.499-6.877
			c0.937-3.972,0.988-9.513-4.655-12.345C24.676,15.151,21.363,18.042,17.74,20.507"/>
	</defs>
	<clipPath id="SVGID_11_">
		<use xlink:href="#SVGID_10_"  overflow="visible"/>
	</clipPath>
	<g clip-path="url(#SVGID_11_)">
		
			<linearGradient id="SVGID_12_" gradientUnits="userSpaceOnUse" x1="-354.9431" y1="-357.9117" x2="-354.217" y2="-357.9117" gradientTransform="matrix(-46.83 0 0 45.89 -16588.6387 16446.0801)">
			<stop  offset="0" style="stop-color:#29ABE2"/>
			<stop  offset="0.12" style="stop-color:#29ABE2"/>
			<stop  offset="0.21" style="stop-color:#23A5DE"/>
			<stop  offset="0.33" style="stop-color:#1297D4"/>
			<stop  offset="0.46" style="stop-color:#187CBA"/>
			<stop  offset="0.55" style="stop-color:#1D69A5"/>
			<stop  offset="1" style="stop-color:#1D69A5"/>
		</linearGradient>
		<rect x="17.711" y="11.88" fill="url(#SVGID_12_)" width="15.526" height="19.258"/>
	</g>
</g>
<g>
	<defs>
		<path id="SVGID_13_" d="M0,16.804v0.109c0,0.08,0,0.167,0,0.247c0.265,9.294,8.01,16.617,17.305,16.361
			c2.981-0.055,5.896-0.883,8.46-2.404c-3.064-3.225-5.755-6.784-8.024-10.609C4.669,28.938,1.307,16.455,0.595,12.476
			C0.202,13.895,0.001,15.36,0,16.833"/>
	</defs>
	<clipPath id="SVGID_14_">
		<use xlink:href="#SVGID_13_"  overflow="visible"/>
	</clipPath>
	<g clip-path="url(#SVGID_14_)">
		
			<linearGradient id="SVGID_15_" gradientUnits="userSpaceOnUse" x1="-337.6601" y1="-373.6058" x2="-336.9339" y2="-373.6058" gradientTransform="matrix(38.41 7.43 7.58 -37.64 15799.3496 -11533.5303)">
			<stop  offset="0" style="stop-color:#264285"/>
			<stop  offset="0.24" style="stop-color:#264285"/>
			<stop  offset="0.5" style="stop-color:#18559A"/>
			<stop  offset="0.93" style="stop-color:#0C7DC2"/>
			<stop  offset="1" style="stop-color:#0C7DC2"/>
		</linearGradient>
		<polygon fill="url(#SVGID_15_)" points="0.966,7.676 29.882,13.267 24.806,38.48 -4.11,32.888 		"/>
	</g>
</g>
<g>
	<defs>
		<path id="SVGID_16_" d="M17.014,0.204h-0.29C9.225,0.276,2.664,5.267,0.595,12.476c4.648-1.162,9.384-1.937,14.16-2.316
			c0.385-4.916,4.016-7.676,7.342-9.186C20.451,0.465,18.737,0.206,17.014,0.204L17.014,0.204z"/>
	</defs>
	<clipPath id="SVGID_17_">
		<use xlink:href="#SVGID_16_"  overflow="visible"/>
	</clipPath>
	<g clip-path="url(#SVGID_17_)">
		
			<linearGradient id="SVGID_18_" gradientUnits="userSpaceOnUse" x1="-352.5576" y1="-396.7504" x2="-351.8315" y2="-396.7504" gradientTransform="matrix(10.44 -12.19 -12.44 -10.23 -1249.8 -8342.7598)">
			<stop  offset="0" style="stop-color:#264285"/>
			<stop  offset="0.24" style="stop-color:#264285"/>
			<stop  offset="0.5" style="stop-color:#18559A"/>
			<stop  offset="0.93" style="stop-color:#0C7DC2"/>
			<stop  offset="1" style="stop-color:#0C7DC2"/>
		</linearGradient>
		<polygon fill="url(#SVGID_18_)" points="-5.57,7.4 9.491,-10.188 28.284,5.265 13.231,22.853 		"/>
	</g>
</g>
</svg>
