<svg id="Layer_1" data-name="Layer 1" xmlns="http://www.w3.org/2000/svg" viewBox="0 0 33.63 33.63"><defs><style>.cls-1{fill:#fff;}</style></defs><title>logo</title><path class="cls-1" d="M29.14,11.67l.28.18.24.16.26.19.22.17.24.19.21.18.22.2.19.18.2.21.18.19.19.22.16.19.17.23.15.2.16.23.13.2.15.24.12.2.14.26.1.19L33,16l.07.16q.1.23.18.46l0,.1.12.37,0,.17.09.31,0,.19.07.29,0,.2.05.28v0a17,17,0,0,0,.07-1.84,16.79,16.79,0,0,0-2.21-8l-.22.26-.22.26q-.85,1-1.69,1.93l-.22.25-.21.24.14.09" transform="translate(-0.15 -0.18)"/><path class="cls-1" d="M13.47,10.75l-.66.06-.91.1-.67.08-1,.13-.65.09-1.15.18-.55.09-1.75.31-.16,0-1.65.33-.63.13-1.24.27-.75.17-.82.19,0,.13,0,.22,0,.16,0,.21,0,.17.05.22,0,.18.06.22.05.19.06.22.06.2.07.22.06.2.07.23.07.21.08.23.08.21.08.23.08.21.09.23.09.21.1.23.09.21.11.23.1.2.12.23.1.2.13.24.1.19.21.34.14.22.17.25.13.18.16.21.14.18.16.19.16.18.17.18.16.17.17.17.17.16.18.16.18.15.19.15.19.14.2.13.2.12.21.12.21.11.23.11.22.09.24.09.22.08.26.08.23.06.28.06.22,0,.33,0,.2,0,.54,0h.56l.29,0,.16,0,.26,0L11,23l.26,0,.19,0,.25-.06.2,0,.25-.07.2-.06.25-.08.21-.07.26-.09.21-.08.26-.1.22-.09.27-.12.22-.1.27-.13.22-.1.28-.14.21-.11.3-.16.2-.11.34-.2.17-.1.52-.31a21,21,0,0,1-2.86-9.88l-.44,0" transform="translate(-0.15 -0.18)"/><path class="cls-1" d="M27.72,10.89l.38-.42.26-.29.82-.93,0,0,.87-1,.25-.29.43-.51A16.89,16.89,0,0,0,22.29,1l-.35.17-.3.15-.48.27-.25.14-.56.35-.12.08-.64.45-.15.12L19,3.11l-.2.18-.35.31-.21.2-.3.31-.2.22-.26.31-.18.24-.24.32-.17.24-.21.33L16.53,6l-.19.35-.12.25c-.06.13-.11.26-.17.39l-.1.23c-.06.15-.11.31-.16.47l-.06.17c-.07.22-.12.44-.17.67v0q-.07.3-.11.61c.82,0,1.61-.06,2.37-.06a23.84,23.84,0,0,1,9.9,1.77" transform="translate(-0.15 -0.18)"/><path class="cls-1" d="M18.63,21.05v0c.2.35.42.71.64,1.06l.09.14.68,1.05.12.17.73,1.07.12.17.81,1.11.09.11.88,1.16,0,0,.94,1.18.13.16,1,1.14.18.21L26,31l.09.1A16.85,16.85,0,0,0,32,24.51l0-.19,0-.14c0-.08,0-.16,0-.25l0-.14,0-.27,0-.13,0-.28,0-.12c0-.11,0-.21,0-.32V22.6c0-.27.06-.54.08-.82,0,0,0-.07,0-.11l0-.3c0-.05,0-.1,0-.15s0-.17,0-.26,0-.11,0-.17,0-.16,0-.24,0-.12,0-.18,0-.16,0-.24,0-.12,0-.19,0-.15,0-.23,0-.13,0-.19l0-.23,0-.19,0-.22,0-.19,0-.22,0-.19,0-.22,0-.19L32,17.67,32,17.48l-.07-.21-.07-.19-.08-.21-.08-.18-.09-.2-.09-.18-.1-.2-.09-.18-.11-.2-.11-.17L31,15.36l-.11-.17L30.73,15l-.13-.17-.15-.19-.14-.16-.17-.18L30,14.15,29.82,14l-.16-.15-.2-.17-.16-.14-.22-.17-.17-.13L28.66,13l-.17-.12-.29-.18-.16-.1h0a58.94,58.94,0,0,1-9.39,8.41" transform="translate(-0.15 -0.18)"/><path class="cls-1" d="M17,22.12l-.05,0-.55.32-.17.09-.38.2-.22.11-.32.16-.23.11-.3.14-.24.1-.29.12-.24.1-.28.11-.24.09-.27.09-.24.08-.26.08-.24.07-.26.07-.24.06-.25.06-.24,0-.25,0-.23,0-.26,0-.21,0-.28,0H9.55l-.61,0-.17,0-.44,0-.16,0a8.14,8.14,0,0,1-1.09-.25l-.13,0L6.57,24l-.13,0a7.64,7.64,0,0,1-.95-.46l-.11-.06L5,23.2l-.11-.07a8.87,8.87,0,0,1-.81-.63L4,22.41l-.3-.28L3.64,22l-.34-.36h0L3,21.28l-.08-.1-.24-.32-.08-.11-.27-.39,0,0L2,19.91l-.07-.11-.2-.34-.07-.12-.21-.4,0-.05-.22-.45-.06-.12L1,18l-.06-.14-.16-.38,0-.07-.17-.45,0-.13-.12-.32-.05-.15L.22,16l0-.1v0c0,.47,0,.95,0,1.43A16.89,16.89,0,0,0,17,33.81h.31a16.87,16.87,0,0,0,7.63-2l0,0-1-1.18-.16-.19-.95-1.14-.16-.2L21.66,28l-.1-.13-.85-1.12-.05-.07-.81-1.11-.13-.18q-.37-.53-.72-1.05l-.13-.2-.67-1-.1-.16c-.22-.36-.43-.71-.64-1.06h0l-.48.29" transform="translate(-0.15 -0.18)"/><path class="cls-1" d="M3.53,10.87l.69-.14,1.19-.23.65-.12,1.26-.22.52-.09,1.72-.27h.12l1.53-.2.53-.06,1.07-.12.59-.05L14,9.28l0-.12c0-.1,0-.19,0-.29s.05-.31.09-.47l.06-.29c0-.16.08-.31.12-.46l.08-.26c.06-.18.12-.35.18-.53l.06-.17c.09-.23.19-.45.29-.68L15,5.85c.08-.16.16-.32.25-.48l.14-.23.26-.41.16-.23.29-.4.16-.21.38-.45.12-.14c.17-.19.35-.38.54-.56l.15-.14.44-.4L18.15,2l.42-.33.25-.19.45-.32L19.51,1l.55-.34.19-.12,0,0A16.86,16.86,0,0,0,17,.18h-.3A16.92,16.92,0,0,0,1.1,11.41l.52-.12.68-.15,1.23-.26" transform="translate(-0.15 -0.18)"/></svg>