<svg xmlns="http://www.w3.org/2000/svg" xmlns:xlink="http://www.w3.org/1999/xlink" viewBox="0 0 154.47 67.02"><defs><clipPath id="a" transform="translate(10.21 13.88)"><path d="M38.57,16.51c7.77,3.91,7.7,11.54,6.41,17a22.58,22.58,0,0,0-1.37-22.66q-2.63,3.08-5,5.65" style="fill:none"/></clipPath><linearGradient id="b" x1="-336.87" y1="380.86" x2="-335.87" y2="380.86" gradientTransform="translate(9035.78 7812.42) rotate(90) scale(23.11 23.59)" gradientUnits="userSpaceOnUse"><stop offset="0" stop-color="#134f8b"/><stop offset="1" stop-color="#1b93d1"/></linearGradient><clipPath id="c" transform="translate(10.21 13.88)"><path d="M1.39,17.33h0C2.37,22.82,7,40,25,28.39c-3.3-5.81-4.38-10.49-4.08-14.26A119.13,119.13,0,0,0,1.39,17.33" style="fill:none"/></clipPath><linearGradient id="d" x1="-346.84" y1="373.57" x2="-345.84" y2="373.57" gradientTransform="matrix(-11.81, 19.37, -19.76, -11.58, 3318.7, 11068.68)" gradientUnits="userSpaceOnUse"><stop offset="0" stop-color="#1f4888"/><stop offset="0.16" stop-color="#1f4888"/><stop offset="0.21" stop-color="#1b5191"/><stop offset="0.54" stop-color="#1282c3"/><stop offset="0.79" stop-color="#1ba0db"/><stop offset="0.92" stop-color="#29abe2"/><stop offset="1" stop-color="#29abe2"/></linearGradient><clipPath id="e" transform="translate(10.21 13.88)"><path d="M20.88,14.13c8.26-.54,13.9.48,17.69,2.38q2.42-2.57,5-5.65A23.43,23.43,0,0,0,31,1.49c-4.61,2.08-9.61,5.88-10.15,12.65" style="fill:none"/></clipPath><linearGradient id="f" x1="-336.53" y1="402.4" x2="-335.53" y2="402.4" gradientTransform="matrix(25.4, 13.31, -13.58, 24.89, 14037.5, -5521.98)" gradientUnits="userSpaceOnUse"><stop offset="0" stop-color="#29abe2"/><stop offset="0.34" stop-color="#29abe2"/><stop offset="0.45" stop-color="#1ca1db"/><stop offset="0.65" stop-color="#1285c4"/><stop offset="0.9" stop-color="#1f5697"/><stop offset="1" stop-color="#284180"/></linearGradient><clipPath id="g" transform="translate(10.21 13.88)"><path d="M25,28.39A81.77,81.77,0,0,0,36.05,43,23.23,23.23,0,0,0,45,33.53c1.29-5.47,1.36-13.1-6.41-17A75.32,75.32,0,0,1,25,28.39" style="fill:none"/></clipPath><linearGradient id="h" x1="-361.57" y1="387.26" x2="-360.57" y2="387.26" gradientTransform="translate(-16875.62 17816.78) rotate(180) scale(46.83 45.89)" gradientUnits="userSpaceOnUse"><stop offset="0" stop-color="#29abe2"/><stop offset="0.12" stop-color="#29abe2"/><stop offset="0.21" stop-color="#23a5de"/><stop offset="0.33" stop-color="#1297d4"/><stop offset="0.46" stop-color="#187cba"/><stop offset="0.55" stop-color="#1d69a5"/><stop offset="1" stop-color="#1d69a5"/></linearGradient><clipPath id="i" transform="translate(10.21 13.88)"><path d="M.57,23.29v.15c0,.11,0,.23,0,.34A23.2,23.2,0,0,0,24.4,46.31,23.69,23.69,0,0,0,36.05,43,81.77,81.77,0,0,1,25,28.39C7,40,2.37,22.81,1.39,17.33a22.51,22.51,0,0,0-.82,6" style="fill:none"/></clipPath><linearGradient id="j" x1="-343.12" y1="404.23" x2="-342.12" y2="404.23" gradientTransform="matrix(38.41, 7.43, -7.58, 37.64, 16251.21, -12624.15)" gradientUnits="userSpaceOnUse"><stop offset="0" stop-color="#264285"/><stop offset="0.24" stop-color="#264285"/><stop offset="0.5" stop-color="#18559a"/><stop offset="0.93" stop-color="#0c7dc2"/><stop offset="1" stop-color="#0c7dc2"/></linearGradient><clipPath id="k" transform="translate(10.21 13.88)"><path d="M24,.43h-.4A23.34,23.34,0,0,0,1.39,17.33a119.34,119.34,0,0,1,19.5-3.19C21.42,7.37,26.42,3.57,31,1.49A23.83,23.83,0,0,0,24,.43h0Z" style="fill:none"/></clipPath><linearGradient id="l" x1="-359.03" y1="428.64" x2="-358.03" y2="428.64" gradientTransform="matrix(10.44, -12.19, 12.44, 10.23, -1566.36, -8728.8)" xlink:href="#j"/></defs><title>logo-aap</title><g style="clip-path:url(#a)"><rect x="48.78" y="24.74" width="8.89" height="22.66" style="fill:url(#b)"/></g><g style="clip-path:url(#c)"><polygon points="46.77 34.81 28.97 64 0 47.03 17.81 17.84 46.77 34.81" style="fill:url(#d)"/></g><g style="clip-path:url(#e)"><polygon points="36.15 6.1 60.2 18.7 48.77 39.65 24.72 27.05 36.15 6.1" style="fill:url(#f)"/></g><g style="clip-path:url(#g)"><rect x="35.17" y="30.39" width="21.38" height="26.52" style="fill:url(#h)"/></g><g style="clip-path:url(#i)"><polygon points="12.11 24.6 51.93 32.3 44.94 67.02 5.12 59.32 12.11 24.6" style="fill:url(#j)"/></g><g style="clip-path:url(#k)"><polygon points="3.11 24.22 23.85 0 49.73 21.28 29 45.5 3.11 24.22" style="fill:url(#l)"/></g><path d="M51.15,33.36c0-9.12,5-11.77,20.53-11.77h1.68c-.11-4.62-1.17-6.69-7.78-6.69a17.31,17.31,0,0,0-9.17,2.71l-2.85-4.39A24,24,0,0,1,66.09,9.64c10.63,0,12.53,3.75,12.53,12.87V33.94c0,3.12.22,3.58,3.08,3.58v4.9a10.22,10.22,0,0,1-2.24.12c-3.41,0-4.53-1-5.31-3.64-1.85,2.71-5.2,4.15-11.86,4.15-9,0-11.13-4.27-11.13-9.69m22.21-5v-2H72c-12.81,0-15.61,1.5-15.61,6.58,0,3.41,1.51,5.25,6.83,5.25,7.22,0,10.18-3,10.18-9.87" transform="translate(10.21 13.88)" style="fill:#213f7e"/><path d="M82.19,33.36c0-9.12,5-11.77,20.54-11.77h1.68c-.11-4.62-1.17-6.69-7.78-6.69a17.3,17.3,0,0,0-9.17,2.71L84.6,13.22A24,24,0,0,1,97.13,9.64c10.63,0,12.53,3.75,12.53,12.87V33.94c0,3.12.22,3.58,3.08,3.58v4.9a10.22,10.22,0,0,1-2.24.12c-3.41,0-4.53-1-5.31-3.64-1.85,2.71-5.2,4.15-11.86,4.15-9,0-11.13-4.27-11.13-9.69m22.21-5v-2H103c-12.81,0-15.61,1.5-15.61,6.58,0,3.41,1.51,5.25,6.83,5.25,7.22,0,10.18-3,10.18-9.87" transform="translate(10.21 13.88)" style="fill:#213f7e"/><path d="M114.1,10.68l4.31-.29.45,3.4c1.68-2.71,5.15-4.16,12.08-4.16,10.46,0,13.32,6.87,13.32,16.74S141.29,43,130.72,43c-6.49,0-9.57-1.27-11.14-3.87V52H114.1V10.68Zm24.62,15.87c0-7-1.79-11.54-9-11.54-7.33,0-10.18,3-10.18,11.54s2.69,11.37,10.18,11.37c7.05,0,9-4.33,9-11.37" transform="translate(10.21 13.88)" style="fill:#213f7e"/></svg>