<?xml version="1.0" encoding="utf-8"?>
<!-- Generator: Adobe Illustrator 21.0.0, SVG Export Plug-In . SVG Version: 6.00 Build 0)  -->
<svg version="1.1" id="Layer_1" xmlns="http://www.w3.org/2000/svg" xmlns:xlink="http://www.w3.org/1999/xlink" x="0px" y="0px"
	 width="480px" height="70px" viewBox="0 0 480 70" style="enable-background:new 0 0 480 70;" xml:space="preserve">
<style type="text/css">
	.st0{fill:url(#SVGID_1_);}
	.st1{fill:url(#SVGID_2_);}
	.st2{fill:url(#SVGID_3_);}
	.st3{fill:url(#SVGID_4_);}
	.st4{fill:url(#SVGID_5_);}
	.st5{fill:url(#SVGID_6_);}
	.st6{fill:#FFFFFF;}
</style>
<g>
	<g>
		<linearGradient id="SVGID_1_" gradientUnits="userSpaceOnUse" x1="50.2632" y1="20.4181" x2="50.2632" y2="47.5119">
			<stop  offset="0" style="stop-color:#144E8B"/>
			<stop  offset="1" style="stop-color:#0094D9"/>
		</linearGradient>
		<path class="st0" d="M52.6,45c1.8-3.7,2.8-7.9,2.8-12.4c-0.1-5.2-1.7-10.1-4.3-14.2C49,20.8,47,23,45.2,25
			C54.1,29.6,54,38.6,52.6,45z"/>
		<linearGradient id="SVGID_2_" gradientUnits="userSpaceOnUse" x1="24.7329" y1="17.8969" x2="11.1599" y2="40.6033">
			<stop  offset="0.1612" style="stop-color:#204788"/>
			<stop  offset="0.2095" style="stop-color:#1D4F90"/>
			<stop  offset="0.5377" style="stop-color:#0E82C3"/>
			<stop  offset="0.7856" style="stop-color:#04A2E3"/>
			<stop  offset="0.9227" style="stop-color:#00AEEF"/>
		</linearGradient>
		<path class="st1" d="M29.6,39c-3.8-6.8-5-12.3-4.7-16.7c-6.1,0.4-13.5,1.6-22.4,3.7v0C3.6,32.4,8.9,52.5,29.6,39z"/>
		<linearGradient id="SVGID_3_" gradientUnits="userSpaceOnUse" x1="17.3984" y1="7.4543" x2="46.5739" y2="23.0568">
			<stop  offset="0.3447" style="stop-color:#00AEEF"/>
			<stop  offset="0.4523" style="stop-color:#04A3E4"/>
			<stop  offset="0.6411" style="stop-color:#0E86C7"/>
			<stop  offset="0.8872" style="stop-color:#1F5898"/>
			<stop  offset="1" style="stop-color:#284180"/>
		</linearGradient>
		<path class="st2" d="M24.9,22.2c9.5-0.6,16,0.6,20.3,2.8c1.9-2,3.8-4.2,5.8-6.6c-3.4-5.2-8.5-9.1-14.5-11
			C31.2,9.9,25.5,14.3,24.9,22.2z"/>
		<linearGradient id="SVGID_4_" gradientUnits="userSpaceOnUse" x1="55.3499" y1="40.5788" x2="1.547" y2="40.5788">
			<stop  offset="0.1193" style="stop-color:#00AEEF"/>
			<stop  offset="0.2066" style="stop-color:#02A8E9"/>
			<stop  offset="0.3259" style="stop-color:#0997D7"/>
			<stop  offset="0.4631" style="stop-color:#137DBB"/>
			<stop  offset="0.5497" style="stop-color:#1B68A5"/>
		</linearGradient>
		<path class="st3" d="M45.2,25C39.2,31.6,34,36,29.6,39c2.8,5,6.9,10.7,12.7,17.2c4.4-2.7,8-6.5,10.3-11.2
			C54,38.6,54.1,29.6,45.2,25z"/>
		
			<linearGradient id="SVGID_5_" gradientUnits="userSpaceOnUse" x1="39.0596" y1="-79.8741" x2="84.0333" y2="-79.8741" gradientTransform="matrix(0.9811 0.1936 -0.1936 0.9811 -54.1605 110.9176)">
			<stop  offset="0.2424" style="stop-color:#274084"/>
			<stop  offset="0.5035" style="stop-color:#1A5499"/>
			<stop  offset="0.9273" style="stop-color:#007DC4"/>
		</linearGradient>
		<path class="st4" d="M29.6,39C8.9,52.5,3.6,32.4,2.5,26c-0.7,2.4-1,4.9-0.9,7.6C1.8,48.4,14.1,60.2,28.9,60
			c4.9-0.1,9.5-1.5,13.4-3.8C36.4,49.6,32.3,43.9,29.6,39z"/>
		<linearGradient id="SVGID_6_" gradientUnits="userSpaceOnUse" x1="9.6441" y1="27.0102" x2="21.6352" y2="12.7198">
			<stop  offset="0.2424" style="stop-color:#274084"/>
			<stop  offset="0.5035" style="stop-color:#1A5499"/>
			<stop  offset="0.9273" style="stop-color:#007DC4"/>
		</linearGradient>
		<path class="st5" d="M28,6.2C15.7,6.4,5.5,14.7,2.5,26c8.9-2.2,16.3-3.3,22.4-3.7c0.6-7.9,6.4-12.4,11.7-14.8
			C33.8,6.6,30.9,6.1,28,6.2z"/>
	</g>
	<path class="st6" d="M60.7,45.3c0-10.7,5.7-13.8,23.6-13.8h1.9c-0.1-5.4-1.3-7.8-8.9-7.8c-4.5,0-8.3,1.7-10.5,3.2l-3.3-5.1
		c2.4-1.7,8-4.2,14.4-4.2c12.2,0,14.4,4.4,14.4,15.1v13.4c0,3.7,0.3,4.2,3.5,4.2v5.8C95.3,56,94.5,56,93.2,56
		c-3.9,0-5.2-1.2-6.1-4.3c-2.1,3.2-6,4.9-13.6,4.9C63.2,56.6,60.7,51.6,60.7,45.3z M86.2,39.4v-2.3h-1.6c-14.7,0-17.9,1.8-17.9,7.7
		c0,4,1.7,6.2,7.8,6.2C82.8,50.9,86.2,47.4,86.2,39.4z"/>
	<path class="st6" d="M97.1,45.3c0-10.7,5.7-13.8,23.6-13.8h1.9c-0.1-5.4-1.3-7.8-8.9-7.8c-4.5,0-8.3,1.7-10.5,3.2l-3.3-5.1
		c2.4-1.7,8-4.2,14.4-4.2c12.2,0,14.4,4.4,14.4,15.1v13.4c0,3.7,0.3,4.2,3.5,4.2v5.8c-0.4,0.1-1.3,0.1-2.6,0.1
		c-3.9,0-5.2-1.2-6.1-4.3c-2.1,3.2-6,4.9-13.6,4.9C99.6,56.6,97.1,51.6,97.1,45.3z M122.6,39.4v-2.3H121c-14.7,0-17.9,1.8-17.9,7.7
		c0,4,1.7,6.2,7.8,6.2C119.2,50.9,122.6,47.4,122.6,39.4z"/>
	<path class="st6" d="M134.5,18.7l4.9-0.3l0.5,4c1.9-3.2,5.9-4.9,13.9-4.9c12,0,15.3,8.1,15.3,19.6c0,11.4-3.4,19.5-15.6,19.5
		c-7.5,0-11-1.5-12.8-4.5v15.1h-6.3V18.7z M162.7,37.3c0-8.3-2.1-13.5-10.3-13.5c-8.4,0-11.7,3.5-11.7,13.5
		c0,9.9,3.1,13.3,11.7,13.3C160.6,50.6,162.7,45.5,162.7,37.3z"/>
</g>
<g>
	<path class="st6" d="M181.8,18.9l3.9-0.3l0.5,3.9c1.6-2.6,5-4.8,13.2-4.8c11.5,0,12.9,6.3,12.9,15.5v22.9h-4.9v-22
		c0-6.7-0.6-11.3-9.4-11.3c-9.5,0-11.2,5.2-11.2,12.2v21.1h-4.9V18.9z"/>
	<path class="st6" d="M215.4,37.3c0-10.9,3.1-19.6,16.9-19.6c14.3,0,14.8,10.4,14.7,21.4h-26.9c0.3,7.9,2.5,13.3,12.4,13.3
		c5.9,0,8.7-1.6,11.5-3.8l2.6,3.6c-3.6,2.9-7.6,4.7-14.1,4.7C218.2,56.9,215.4,48.2,215.4,37.3z M220.2,34.4h22.2
		c-0.3-6.7-0.8-12-10.1-12C223.3,22.3,220.7,27.1,220.2,34.4z"/>
	<path class="st6" d="M246.9,18.6h5.1L262.3,49l9.6-30.4h4.8l9.6,30.3l10.3-30.3h5l-12.9,37.9h-4.8l-9.6-30.1l-9.6,30.1h-4.8
		L246.9,18.6z"/>
	<path class="st6" d="M299.8,52.6l2.6-4c4.2,2.9,8.8,3.7,12.5,3.7c6.5,0,9.4-1.3,9.4-6.6c0-4.2-2.6-5-9.4-6.5
		c-8.3-1.7-13.4-3.2-13.4-11.3c0-6.5,3.6-10.3,13.4-10.3c5.4,0,9.8,1.2,13.1,3.3l-2.3,4.2c-2.7-1.6-6.3-2.7-10.7-2.7
		c-6.7,0-8.7,2.1-8.7,5.5c0,4.1,2.6,5.2,8.9,6.5c8.7,1.8,13.9,3.1,13.9,11.1c0,8.6-4.5,11.3-14.4,11.3
		C309.9,56.8,304.7,55.9,299.8,52.6z"/>
	<path class="st6" d="M331.8,18.9l3.9-0.3l0.5,5c1.4-2.9,5.7-5.4,12.3-5.5v5.2c-8.7,0-11.8,5.2-11.8,12.6v20.3h-4.9V18.9z"/>
	<path class="st6" d="M348.6,37.3c0-12.9,4.8-19.6,17.2-19.6s17.3,6.7,17.3,19.6c0,12.9-4.9,19.6-17.3,19.6S348.6,50.2,348.6,37.3z
		 M378.1,37.4c0-9.7-3.3-14.8-12.3-14.8c-9,0-12.3,5.2-12.3,14.8c0,9.6,3.3,14.8,12.3,14.8C374.8,52.2,378.1,47,378.1,37.4z"/>
	<path class="st6" d="M384.8,37.3c0-12.9,4.8-19.6,17.2-19.6s17.3,6.7,17.3,19.6c0,12.9-4.9,19.6-17.3,19.6S384.8,50.2,384.8,37.3z
		 M414.2,37.4c0-9.7-3.3-14.8-12.3-14.8c-9,0-12.3,5.2-12.3,14.8c0,9.6,3.3,14.8,12.3,14.8C410.9,52.2,414.2,47,414.2,37.4z"/>
	<path class="st6" d="M422.6,18.9l3.9-0.3l0.5,3.9c1.4-2.6,4.8-4.8,12.9-4.8c7.9,0,10.1,2.1,11,5.1c1.6-2.9,5.6-5.1,13.8-5.1
		c11.5,0,12.5,6.3,12.5,15.5v22.9h-4.9v-22c0-6.7-0.3-11.3-9-11.3c-9.5,0-10.9,5.2-10.9,12.2v21.1h-4.8v-22c0-6.7-0.3-11.3-9-11.3
		c-9.5,0-10.9,5.2-10.9,12.2v21.1h-4.9V18.9z"/>
</g>
</svg>
