<?xml version="1.0" encoding="utf-8"?>
<!-- Generator: Adobe Illustrator 16.0.3, SVG Export Plug-In . SVG Version: 6.00 Build 0)  -->
<!DOCTYPE svg PUBLIC "-//W3C//DTD SVG 1.1//EN" "http://www.w3.org/Graphics/SVG/1.1/DTD/svg11.dtd">
<svg version="1.1" id="Layer_1" xmlns="http://www.w3.org/2000/svg" xmlns:xlink="http://www.w3.org/1999/xlink" x="0px" y="0px"
	 width="739.52px" height="739.52px" viewBox="110.24 -89.76 739.52 739.52" enable-background="new 110.24 -89.76 739.52 739.52"
	 xml:space="preserve">
<path fill="#FFFFFF" d="M448.638,133.764L448.638,133.764l67.168,195.149H367.521L448.638,133.764 M172.35,489.551
	c-7.533,4.465-16.512,6.37-27.856,6.37h-34.251V560h136.83h136.918v-64.079h-32.937c-17.083,0-29.171-1.905-34.274-5.846
	c-5.584-3.723-6.942-9.987-3.832-18.922l28.602-78.621h197.098l24.134,78.621c3.68,8.935,1.796,15.199-3.92,18.922
	c-6.307,3.94-18.461,5.846-35.391,5.846h-33.069V560h180.083h179.273v-64.079h-33.551c-15.135,0-25.383-1.905-29.762-4.4
	c-5.146-2.629-9.551-8.804-14.631-26.785L593.178,0H389.005l-200.23,464.735C185.577,478.73,179.95,485.037,172.35,489.551
	L172.35,489.551z"/>
<title>logo</title>
</svg>
