<?xml version="1.0" encoding="utf-8"?>
<!-- Generator: Adobe Illustrator 21.0.0, SVG Export Plug-In . SVG Version: 6.00 Build 0)  -->
<svg version="1.1" id="Layer_1" xmlns="http://www.w3.org/2000/svg" xmlns:xlink="http://www.w3.org/1999/xlink" x="0px" y="0px"
	 width="48px" height="48px" viewBox="0 0 48 48" style="enable-background:new 0 0 48 48;" xml:space="preserve">
<style type="text/css">
	.st0{fill:#FFFFFF;}
</style>
<path class="st0" d="M24,10.7c8.8,0,16.1,8.5,19.1,12.6c-3,4.1-10.5,12.6-19.1,12.6c-9.4,0-16.5-8.6-19.2-12.6
	C7.5,19.3,14.6,10.7,24,10.7 M24,6.7C9.4,6.7,0,23.3,0,23.3s9.3,16.6,24,16.6c13.7,0,24-16.6,24-16.6S37.9,6.7,24,6.7L24,6.7z"/>
<path class="st0" d="M24,17.7c2.9,0,5.2,2.3,5.2,5.2s-2.3,5.2-5.2,5.2s-5.2-2.3-5.2-5.2S21.1,17.7,24,17.7 M24,13.7
	c-5.1,0-9.2,4.1-9.2,9.2s4.1,9.2,9.2,9.2s9.2-4.1,9.2-9.2S29.1,13.7,24,13.7L24,13.7z"/>
</svg>
