<?xml version="1.0" standalone="no"?>
<!DOCTYPE svg PUBLIC "-//W3C//DTD SVG 1.1//EN" "http://www.w3.org/Graphics/SVG/1.1/DTD/svg11.dtd" >
<svg xmlns="http://www.w3.org/2000/svg">
<metadata>Generated by IcoMoon</metadata>
<defs>
<font id="aap_newsroom_icons" horiz-adv-x="1024">
<font-face units-per-em="1024" ascent="960" descent="-64" />
<missing-glyph horiz-adv-x="1024" />
<glyph unicode="&#x20;" horiz-adv-x="512" d="" />
<glyph unicode="&#xe600;" glyph-name="ICON-Alert" d="M533.333 42.667c21.12 0 39.168 7.467 54.187 22.443 14.976 14.933 22.485 32.981 22.485 54.016h-153.344c0-21.035 7.509-39.040 22.485-54.016 15.019-14.933 33.067-22.443 54.187-22.443zM746.667 331.947v155.392c0 31.019-2.517 60.16-7.509 87.296-4.875 27.446-13.577 51.989-25.65 74.449l0.647-1.318c-11.849 21.823-27.499 40.102-46.239 54.575l-0.396 0.294c-19.456 14.933-43.947 25.728-73.387 32.427v14.933c0 16.64-5.973 30.891-17.92 42.795-10.674 11.033-25.613 17.882-42.153 17.882-0.256 0-0.511-0.002-0.766-0.005h0.039c-16.64 0-30.976-5.973-42.923-17.877-11.947-11.947-17.92-26.155-17.92-42.795v-14.933c-29.44-6.699-53.888-17.493-73.344-32.427-19.413-14.976-34.987-33.28-46.635-54.869-11.426-21.142-20.128-45.684-24.78-71.631l-0.223-1.499c-4.781-25.489-7.516-54.813-7.516-84.776 0-0.886 0.002-1.771 0.007-2.656l-0.001 0.136v-155.435l-106.667-93.099v-66.475h640v66.475l-106.667 93.099z" />
<glyph unicode="&#xe601;" glyph-name="ICON-Bookmark" d="M245.333 896c-38.571 0-74.667-34.133-74.667-74.667v-821.333c0.005-23.56 19.106-42.658 42.667-42.658 11.78 0 22.445 4.774 30.165 12.492l268.501 268.501 268.501-268.501c7.72-7.791 18.422-12.614 30.251-12.614 23.517 0 42.581 19.064 42.581 42.581 0 0.070 0 0.139-0.001 0.209v-0.011 821.333c0 40.405-34.261 74.667-70.4 74.667h-537.6zM768 102.998l-225.835 225.835c-7.689 7.723-18.329 12.501-30.086 12.501-0.028 0-0.056 0-0.084 0h0.004c-0.024 0-0.051 0-0.079 0-11.756 0-22.397-4.779-30.084-12.5l-225.837-225.837v707.669h512v-707.669z" />
<glyph unicode="&#xe602;" glyph-name="ICON-Bookmark-Add" d="M768 102.4l-226.133 226.133c-8.533 8.533-17.067 12.8-29.867 12.8s-21.333-4.267-29.867-12.8l-226.133-226.133v708.267h597.333v8.533c0 42.667-34.133 76.8-72.533 76.8h-533.333c-42.667 0-76.8-34.133-76.8-76.8v-819.2c0-25.6 17.067-42.667 42.667-42.667 12.8 0 21.333 4.267 29.867 12.8l268.8 268.8 268.8-268.8c17.067-17.067 42.667-17.067 59.733 0 8.533 8.533 12.8 17.067 12.8 29.867v213.333h-85.333v-110.933zM768 554.667h-170.667v-85.333h170.667v-170.667h85.333v170.667h170.667v85.333h-170.667v170.667h-85.333v-170.667z" />
<glyph unicode="&#xe603;" glyph-name="ICON-Calendar" d="M256 597.334h256v-256h-256v256zM725.333 682.667c25.6 0 42.667 17.067 42.667 42.667v170.667c0 25.6-17.067 42.667-42.667 42.667s-42.667-17.067-42.667-42.667v-170.667c0-25.6 17.067-42.667 42.667-42.667zM384 853.334h256v-85.333h-256v85.333zM896 853.334h-85.333v-85.333h42.667v-768h-682.667v768h42.667v85.333h-85.333c-21.333 0-42.667-21.333-42.667-42.667v-853.333c0-21.333 21.333-42.667 42.667-42.667h768c21.333 0 42.667 21.333 42.667 42.667v853.333c0 21.333-21.333 42.667-42.667 42.667zM298.667 682.667c25.6 0 42.667 17.067 42.667 42.667v170.667c0 25.6-17.067 42.667-42.667 42.667s-42.667-17.067-42.667-42.667v-170.667c0-25.6 17.067-42.667 42.667-42.667z" />
<glyph unicode="&#xe604;" glyph-name="ICON-Check" d="M372.053 254.080l-182.059 185.728-61.995-62.805 244.053-249.003 523.947 534.528-61.568 62.805z" />
<glyph unicode="&#xe605;" glyph-name="ICON-Close-THIN" d="M512 487.339l-268.288 268.245c-7.721 7.718-18.386 12.492-30.165 12.492s-22.445-4.774-30.165-12.492l-0.299-0.299c-7.718-7.721-12.492-18.386-12.492-30.165s4.774-22.445 12.492-30.165l268.245-268.288-268.245-268.288c-7.718-7.721-12.492-18.386-12.492-30.165s4.774-22.445 12.492-30.165l0.299-0.299c7.721-7.718 18.386-12.492 30.165-12.492s22.445 4.774 30.165 12.492l268.288 268.245 268.288-268.245c7.721-7.718 18.386-12.492 30.165-12.492s22.445 4.774 30.165 12.492l0.299 0.299c7.718 7.721 12.492 18.386 12.492 30.165s-4.774 22.445-12.492 30.165l-268.245 268.288 268.245 268.288c7.718 7.721 12.492 18.386 12.492 30.165s-4.774 22.445-12.492 30.165l-0.299 0.299c-7.721 7.718-18.386 12.492-30.165 12.492s-22.445-4.774-30.165-12.492l-268.288-268.245z" />
<glyph unicode="&#xe606;" glyph-name="ICON-Close-LARGE" d="M512 517.803l402.432 402.432c8.68 8.686 19.831 14.903 32.307 17.506l0.418 0.073c4.096 0.811 5.163 0.811 9.301 1.195l4.736 0.085c4.139-0.256 5.205-0.171 9.344-0.853 30.772-5.232 53.908-31.695 53.908-63.562 0-14.488-4.782-27.859-12.854-38.621l0.12 0.167c-2.517-3.371-3.285-4.053-6.144-7.125l-402.432-402.432 402.432-402.432c11.623-11.685 18.807-27.794 18.807-45.581 0-13.641-4.225-26.295-11.438-36.725l0.141 0.215c-11.606-16.571-30.428-27.402-51.806-27.903l-0.076-0.001c-0.331-0.006-0.721-0.010-1.112-0.010-14.51 0-27.904 4.778-38.694 12.845l0.169-0.121c-3.371 2.517-4.053 3.328-7.125 6.144l-402.432 402.432-402.432-402.432c-3.072-2.816-3.755-3.627-7.125-6.144-10.578-7.947-23.932-12.727-38.401-12.727-0.435 0-0.868 0.004-1.301 0.013l0.065-0.001c-28.018 0.699-51.574 19.039-60.027 44.299l-0.133 0.458c-1.931 5.861-3.045 12.607-3.045 19.613 0 12.843 3.743 24.811 10.197 34.874l-0.155-0.258c2.56 4.011 5.547 7.509 8.789 11.008l402.432 402.432-402.432 402.432c-2.816 3.072-3.627 3.755-6.144 7.125-7.26 9.664-11.888 21.678-12.622 34.733l-0.008 0.168c-0.062 1.062-0.098 2.304-0.098 3.554 0 31.864 23.132 58.326 53.52 63.507l0.381 0.054c4.139 0.683 5.205 0.597 9.344 0.853l4.736-0.085c4.139-0.384 5.205-0.384 9.301-1.195 12.895-2.676 24.045-8.892 32.725-17.578l402.432-402.432z" />
<glyph unicode="&#xe607;" glyph-name="ICON-Cog" d="M512 640c-119.467 0-213.333-93.867-213.333-213.333s93.867-213.333 213.333-213.333 213.333 93.867 213.333 213.333-93.867 213.333-213.333 213.333zM512 298.667c-72.533 0-128 55.467-128 128s55.467 128 128 128 128-55.467 128-128-55.467-128-128-128zM913.067 465.067l98.133 76.8c-21.333 102.4-76.8 192-153.6 264.533l-115.2-46.933-64 38.4-17.067 123.733c-46.933 8.533-98.133 17.067-149.333 17.067s-102.4-8.533-153.6-21.333l-17.067-123.733c-21.333-12.8-42.667-21.333-64-38.4l-110.933 46.933c-76.8-68.267-132.267-162.133-153.6-264.533l98.133-76.8c-4.267-25.6-4.267-46.933 0-72.533l-98.133-76.8c21.333-102.4 76.8-192 153.6-264.533l115.2 46.933 64-38.4 17.067-123.733c46.933-8.533 98.133-17.067 149.333-17.067s102.4 8.533 153.6 21.333l17.067 123.733c21.333 8.533 42.667 21.333 64 38.4l115.2-46.933c76.8 72.533 128 162.133 153.6 264.533l-98.133 76.8c0 21.333 0 46.933-4.267 72.533zM827.733 456.534v-55.467l-4.267-46.933 38.4-29.867 51.2-38.4c-17.067-46.933-42.667-93.867-76.8-132.267l-59.733 25.6-42.667 17.067-38.4-25.6c-17.067-12.8-34.133-21.333-51.2-29.867l-42.667-21.333-4.267-46.933-8.533-64c-25.6-4.267-51.2-8.533-76.8-8.533s-51.2 4.267-76.8 8.533l-8.533 64-8.533 46.933-42.667 21.333c-17.067 8.533-34.133 17.067-51.2 29.867l-38.4 25.6-42.667-17.067-59.733-25.6c-34.133 38.4-59.733 85.333-76.8 132.267l51.2 38.4 38.4 29.867-4.267 46.933v55.467l4.267 46.933-34.133 25.6-51.2 42.667c17.067 46.933 42.667 93.867 76.8 132.267l59.733-25.6 42.667-17.067 38.4 25.6c17.067 12.8 34.133 21.333 51.2 29.867l42.667 21.333 4.267 42.667 8.533 64c25.6 4.267 51.2 8.533 76.8 8.533s51.2-4.267 76.8-8.533l8.533-64 8.533-46.933 42.667-21.333c17.067-8.533 34.133-17.067 51.2-29.867l38.4-25.6 42.667 17.067 59.733 25.6c34.133-38.4 59.733-85.333 76.8-132.267l-51.2-38.4-38.4-29.867v-42.667z" />
<glyph unicode="&#xe608;" glyph-name="ICON-Copy" d="M384 853.334h426.667c46.933 0 85.333-38.4 85.333-85.333v-597.333h-85.333v597.333h-426.667v85.333zM645.675 682.667h-438.016c-43.819 0-79.659-34.133-79.659-75.861v-530.944c0-41.728 35.84-75.861 79.659-75.861h438.016c43.819 0 79.659 34.133 79.659 75.861v530.944c0 41.728-35.84 75.861-79.659 75.861zM640 85.334h-426.667v512h426.667v-512z" />
<glyph unicode="&#xe609;" glyph-name="ICON-Dashboard" d="M170.667 469.334v341.333h213.333v-341.333h-213.333zM446.72 896h-338.773c-12.531-0.191-22.615-10.394-22.615-22.952 0-0.106 0.001-0.212 0.002-0.317v0.016-465.493c0-12.8 10.112-23.253 22.613-23.253h338.773c12.501 0 22.613 10.411 22.613 23.253v465.493c0.001 0.090 0.002 0.195 0.002 0.301 0 12.558-10.085 22.761-22.597 22.952h-0.018zM640 42.667v341.333h213.333v-341.333h-213.333zM916.053 469.334h-338.773c-12.531-0.191-22.615-10.394-22.615-22.952 0-0.106 0.001-0.212 0.002-0.317v0.016-465.493c0-12.8 10.112-23.253 22.613-23.253h338.773c12.501 0 22.613 10.411 22.613 23.253v465.493c0.001 0.090 0.002 0.195 0.002 0.301 0 12.558-10.085 22.761-22.597 22.952h-0.018zM170.667 42.667v170.667h213.333v-170.667h-213.333zM446.72 298.667h-338.773c-12.501 0-22.613-6.955-22.613-15.531v-310.272c0-8.576 10.112-15.531 22.613-15.531h338.773c12.501 0 22.613 6.955 22.613 15.531v310.272c0 8.576-10.112 15.531-22.613 15.531zM640 640v170.667h213.333v-170.667h-213.333zM916.053 896h-338.773c-12.501 0-22.613-6.955-22.613-15.531v-310.272c0-8.576 10.112-15.531 22.613-15.531h338.773c12.501 0 22.613 6.955 22.613 15.531v310.272c0 8.576-10.112 15.531-22.613 15.531z" />
<glyph unicode="&#xe60a;" glyph-name="ICON-Download" d="M469.333 334.080v519.253h85.333v-519.253l238.507 238.080 60.16-60.16-341.333-341.333-341.333 341.333 60.16 60.587 238.507-238.507zM938.667-0h-853.333v85.333h853.333v-85.333z" />
<glyph unicode="&#xe60b;" glyph-name="ICON-Edit" d="M760.747 719.488l-83.925 83.883 49.323 49.365c1.696 1.684 4.033 2.725 6.613 2.725s4.917-1.041 6.614-2.726l70.698-70.74c1.679-1.683 2.718-4.005 2.718-6.571s-1.039-4.888-2.718-6.571v0l-49.323-49.365zM313.173 272.043l-83.883 83.925 391.552 391.467 83.925-83.883-391.595-391.509zM89.429 132.224l83.925 167.765 83.883-83.883-167.808-83.883zM872.96 830.891l-84.736 84.736c-14.204 14.192-33.821 22.969-55.488 22.969s-41.284-8.777-55.489-22.97l-529.45-529.322c-19.596-19.564-36.124-42.195-48.803-67.112l-0.691-1.496c274.761 598.847 243.789 538.061 212.868 477.245l-305.71-662.674c-10.837-22.699-5.461-50.475 13.995-69.931 19.456-19.413 47.147-25.173 69.973-13.952l185.472 92.715c26.429 13.385 49.073 29.926 68.647 49.533l529.454 529.283c14.19 14.198 22.966 33.807 22.966 55.467s-8.776 41.269-22.966 55.467v0zM0-0h1024v-85.333h-1024z" />
<glyph unicode="&#xe60c;" glyph-name="ICON-Grid-View" d="M85.333 853.334h341.333v-341.333h-341.333v341.333zM85.333 384h341.333v-341.333h-341.333v341.333zM554.667 853.334h341.333v-341.333h-341.333v341.333zM554.667 384h341.333v-341.333h-341.333v341.333z" />
<glyph unicode="&#xe60d;" glyph-name="ICON-Hamburger" d="M128 853.334h768c23.564 0 42.667-19.103 42.667-42.667s-19.103-42.667-42.667-42.667v0h-768c-23.564 0-42.667 19.103-42.667 42.667s19.103 42.667 42.667 42.667v0zM128 469.334h768c23.564 0 42.667-19.103 42.667-42.667s-19.103-42.667-42.667-42.667v0h-768c-23.564 0-42.667 19.103-42.667 42.667s19.103 42.667 42.667 42.667v0zM128 85.334h768c23.564 0 42.667-19.103 42.667-42.667s-19.103-42.667-42.667-42.667v0h-768c-23.564 0-42.667 19.103-42.667 42.667s19.103 42.667 42.667 42.667v0z" />
<glyph unicode="&#xe60e;" glyph-name="ICON-List-View-Compact" d="M256 810.667h682.667v-85.333h-682.667v85.333zM256 640h682.667v-85.333h-682.667v85.333zM256 469.334h682.667v-85.333h-682.667v85.333zM256 298.667h682.667v-85.333h-682.667v85.333zM256 128h682.667v-85.333h-682.667v85.333zM85.333 810.667h85.333v-85.333h-85.333v85.333zM85.333 640h85.333v-85.333h-85.333v85.333zM85.333 469.334h85.333v-85.333h-85.333v85.333zM85.333 298.667h85.333v-85.333h-85.333v85.333zM85.333 128h85.333v-85.333h-85.333v85.333z" />
<glyph unicode="&#xe60f;" glyph-name="ICON-List-View" d="M384 853.334h554.667v-213.333h-554.667v213.333zM384 554.667h554.667v-213.333h-554.667v213.333zM384 256h554.667v-213.333h-554.667v213.333zM85.333 853.334h213.333v-213.333h-213.333v213.333zM85.333 554.667h213.333v-213.333h-213.333v213.333zM85.333 256h213.333v-213.333h-213.333v213.333z" />
<glyph unicode="&#xe610;" glyph-name="ICON-More" d="M512 640c-47.128 0-85.333 38.205-85.333 85.333s38.205 85.333 85.333 85.333v0c47.128 0 85.333-38.205 85.333-85.333s-38.205-85.333-85.333-85.333v0zM512 341.334c-47.128 0-85.333 38.205-85.333 85.333s38.205 85.333 85.333 85.333v0c47.128 0 85.333-38.205 85.333-85.333s-38.205-85.333-85.333-85.333v0zM512 42.667c-47.128 0-85.333 38.205-85.333 85.333s38.205 85.333 85.333 85.333v0c47.128 0 85.333-38.205 85.333-85.333s-38.205-85.333-85.333-85.333v0z" />
<glyph unicode="&#xe611;" glyph-name="ICON-Personal" d="M344.235 392.96c-42.313 29.096-76.156 67.583-99.008 112.592l-0.789 1.712c-12.895 25.311-22.559 54.691-27.431 85.661l-0.217 1.677c-2.233 13.696-3.509 29.482-3.509 45.567 0 48.308 11.51 93.927 31.937 134.266l-0.78-1.699c48.274 95.743 144.015 161.253 255.465 165.699l0.577 0.018c3.298 0.127 7.171 0.199 11.061 0.199 16.183 0 32.075-1.251 47.582-3.663l-1.726 0.221c27.947-4.267 55.211-12.544 80.811-24.491 60.574-28.903 108.795-75.515 138.943-133.084l0.79-1.657c20.678-39.43 32.812-86.141 32.812-135.687 0-13.491-0.9-26.773-2.642-39.787l0.167 1.522c-9.082-69.43-40.902-130.142-87.615-175.638l-0.065-0.063c-12.587-12.288-26.283-23.467-40.832-33.365 14.037-5.888 27.733-12.459 41.131-19.712 61.118-33.977 112.242-78.605 152.553-131.869l0.876-1.208c27.171-35.677 50.451-76.506 67.965-120.266l1.24-3.51c18.627-45.849 31.441-98.957 35.888-154.426l0.123-1.904 1.749-45.397h-85.248l-1.664 39.936c-4.688 54.648-18.11 105.026-38.898 151.383l1.181-2.946c-38.656 87.040-106.069 161.792-192.384 203.349-20.327 10.091-44.066 18.796-68.834 24.884l-2.419 0.503c-24.35 6.091-52.303 9.585-81.073 9.585-41.298 0-80.914-7.201-117.661-20.416l2.425 0.761c-43.16-15.509-80.446-37.060-113.045-64.071l0.618 0.497c-39.037-32.403-71.574-71.019-96.463-114.569l-1.073-2.039c-20.308-35.25-36.558-76.075-46.594-119.284l-0.595-3.042c-4.48-19.84-7.552-39.936-9.557-60.203l-0.341-3.797-0.512-40.533h-85.333c-0.427 19.285-0.171 29.44 0.597 44.8 1.147 14.838 2.645 27.698 4.596 40.41l-0.372-2.949c4.096 27.435 10.197 54.528 18.347 81.024 17.108 54.867 40.771 102.639 70.69 145.74l-1.143-1.74c43.989 63.872 102.741 117.675 171.435 153.899 11.819 6.229 23.936 11.947 36.267 17.109zM509.227 853.334c-31.769-0.508-61.712-7.8-88.612-20.483l1.316 0.558c-42.552-20.304-76.541-52.796-98.167-92.935l-0.564-1.145c-9.344-17.707-16.171-36.693-20.181-56.32-2.751-12.884-4.326-27.686-4.326-42.856 0-33.653 7.752-65.495 21.567-93.839l-0.559 1.27c23.401-47.604 62.439-84.529 110.286-104.645l1.416-0.528c23.841-9.967 51.543-15.756 80.597-15.756s56.756 5.79 82.015 16.278l-1.418-0.522c49.266 20.637 88.307 57.565 111.14 103.912l0.561 1.261c13.257 27.073 21.009 58.915 21.009 92.568 0 15.17-1.575 29.972-4.571 44.251l0.245-1.396c-4.431 21.239-11.404 40.072-20.736 57.45l0.554-1.13c-22.189 41.284-56.179 73.776-97.434 93.521l-1.297 0.559c-25.584 12.125-55.527 19.417-87.119 19.923l-0.177 0.002h-5.547z" />
<glyph unicode="&#xe612;" glyph-name="ICON-Photo" d="M682.667 682.667c46.933 0 85.333-38.4 85.333-85.333s-38.4-85.333-85.333-85.333-85.333 38.4-85.333 85.333 38.4 85.333 85.333 85.333zM170.667 42.667v213.333l213.333 213.333 256-256 85.333 85.333 128-128v-128h-682.667zM853.333 810.667v-554.667l-128 128-85.333-85.333-256 256-213.333-213.333v469.333h682.667zM896 896h-768c-21.333 0-42.667-21.333-42.667-42.667v-853.333c0-21.333 21.333-42.667 42.667-42.667h768c21.333 0 42.667 21.333 42.667 42.667v853.333c0 21.333-21.333 42.667-42.667 42.667z" />
<glyph unicode="&#xe613;" glyph-name="ICON-Print" d="M42.667 85.334h128v-128c0-23.564 19.103-42.667 42.667-42.667v0h597.333c23.564 0 42.667 19.103 42.667 42.667v0 128h128c23.564 0 42.667 19.103 42.667 42.667v0 512c0 23.564-19.103 42.667-42.667 42.667v0h-128v213.333c0 23.564-19.103 42.667-42.667 42.667v0h-597.333c-23.564 0-42.667-19.103-42.667-42.667v0-213.333h-128c-23.564 0-42.667-19.103-42.667-42.667v0-512c0-23.564 19.103-42.667 42.667-42.667v0zM768-0h-512v298.667h512v-298.667zM256 853.334h512v-170.667h-512v170.667zM85.333 597.334h853.333v-426.667h-85.333v170.667c0 23.564-19.103 42.667-42.667 42.667v0h-597.333c-23.564 0-42.667-19.103-42.667-42.667v0-170.667h-85.333v426.667zM243.413 520.747c-15.787 16-44.373 16-60.16 0-7.77-7.619-12.587-18.225-12.587-29.956 0-0.043 0-0.087 0-0.13v0.007c0-0.023 0-0.050 0-0.077 0-23.541 19.083-42.624 42.624-42.624s42.624 19.083 42.624 42.624c0 11.779-4.778 22.442-12.501 30.156v0zM689.792 256h-355.584c-19.627 0-35.541-19.115-35.541-42.667s15.915-42.667 35.541-42.667h355.584c19.627 0 35.541 19.115 35.541 42.667s-15.915 42.667-35.541 42.667zM689.792 128h-355.584c-19.627 0-35.541-19.115-35.541-42.667s15.915-42.667 35.541-42.667h355.584c19.627 0 35.541 19.115 35.541 42.667s-15.915 42.667-35.541 42.667z" />
<glyph unicode="&#xe614;" glyph-name="ICON-Resize" d="M426.667 341.334l-171.008-170.624 171.008-0.043v-85.333h-298.795v298.667h85.419v-171.051l170.581 171.051h42.837v-42.667zM554.325 554.667l171.093 170.624-171.136 0.043v85.333h298.88v-298.667h-85.461v171.051l-170.667-171.051h-42.752v42.667z" />
<glyph unicode="&#xe615;" glyph-name="ICON-Search" d="M691.2 337.067c38.4 55.467 55.467 119.467 55.467 183.467 0 42.667-8.533 89.6-25.6 128s-42.667 76.8-72.533 106.667-64 55.467-106.667 72.533c-42.667 17.067-85.333 25.6-128 25.6s-89.6-8.533-128-25.6c-38.4-17.067-72.533-42.667-102.4-72.533s-55.467-64-72.533-106.667c-17.067-42.667-25.6-85.333-25.6-128 0-46.933 8.533-89.6 25.6-128s42.667-76.8 72.533-106.667 64-51.2 102.4-68.267c42.667-17.067 85.333-25.6 128-25.6 34.133 0 64 4.267 93.867 12.8s59.733 21.333 85.333 38.4l192-192c25.6-25.6 68.267-25.6 93.867 0s25.6 68.267 0 93.867l-187.733 192zM418.133 298.667c-29.867 0-59.733 4.267-85.333 17.067s-51.2 25.6-68.267 46.933c-21.333 21.333-34.133 42.667-46.933 68.267s-17.067 55.467-17.067 85.333 4.267 59.733 17.067 85.333c12.8 25.6 25.6 51.2 46.933 68.267 21.333 21.333 42.667 34.133 68.267 46.933s55.467 17.067 85.333 17.067 59.733-4.267 85.333-17.067c25.6-12.8 51.2-25.6 68.267-46.933 21.333-21.333 38.4-42.667 46.933-68.267 12.8-25.6 17.067-55.467 17.067-85.333s-4.267-59.733-17.067-85.333c-21.333-46.933-64-89.6-115.2-115.2-29.867-8.533-59.733-17.067-85.333-17.067z" />
<glyph unicode="&#xe616;" glyph-name="ICON-Settings" d="M133.803 170.667h463.531v-85.333h-463.531c-26.795 0-48.469 19.115-48.469 42.667s21.675 42.667 48.469 42.667zM890.197 170.667c26.795 0 48.469-19.115 48.469-42.667s-21.675-42.667-48.469-42.667h-122.197v85.333h122.197zM768 208.384v-160.768c0-26.283-19.115-47.616-42.667-47.616s-42.667 21.333-42.667 47.616v160.768c0 26.283 19.115 47.616 42.667 47.616s42.667-21.333 42.667-47.616zM133.803 768h79.531v-85.333h-79.531c-26.795 0-48.469 19.115-48.469 42.667s21.675 42.667 48.469 42.667zM890.197 768c26.795 0 48.469-19.115 48.469-42.667s-21.675-42.667-48.469-42.667h-505.472v85.333h505.472zM256 853.334c23.552 0 42.667-21.333 42.667-47.616v-160.768c0-26.283-19.115-47.616-42.667-47.616s-42.667 21.333-42.667 47.616v160.768c0 26.283 19.115 47.616 42.667 47.616zM133.803 469.334h292.864v-85.333h-292.864c-26.795 0-48.469 19.115-48.469 42.667s21.675 42.667 48.469 42.667zM890.197 469.334c26.795 0 48.469-19.115 48.469-42.667s-21.675-42.667-48.469-42.667h-292.864v85.333h292.864zM469.333 554.667c23.552 0 42.667-21.333 42.667-47.616v-160.768c0-26.283-19.115-47.616-42.667-47.616s-42.667 21.333-42.667 47.616v160.768c0 26.283 19.115 47.616 42.667 47.616z" />
<glyph unicode="&#xe617;" glyph-name="ICON-Share" d="M684.715 745.174c-1.365 7.381-2.048 15.019-2.048 22.827 0 70.656 57.344 128 128 128s128-57.344 128-128c0-70.656-57.344-128-128-128-31.957 0-61.141 11.733-83.584 31.104l-387.797-221.611c1.365-7.381 2.048-15.019 2.048-22.827s-0.683-15.445-2.048-22.827l387.797-221.611c22.443 19.371 51.627 31.104 83.584 31.104 70.656 0 128-57.344 128-128s-57.344-128-128-128c-70.656 0-128 57.344-128 128 0 7.808 0.683 15.445 2.048 22.827l-387.797 221.611c-22.443-19.371-51.627-31.104-83.584-31.104-70.656 0-128 57.344-128 128s57.344 128 128 128c31.957 0 61.141-11.733 83.584-31.104l387.797 221.611z" />
<glyph unicode="&#xe618;" glyph-name="ICON-Sort" d="M128 170.667h256v85.333h-256v-85.333zM128 682.667v-85.333h768v85.333h-768zM128 384h512v85.333h-512v-85.333z" />
<glyph unicode="&#xe619;" glyph-name="ICON-Text" d="M712.533 285.867c17.067-17.067 17.067-42.667 0-59.733s-42.667-17.067-59.733 0c-8.533 8.533-12.8 17.067-12.8 29.867s4.267 21.333 12.8 29.867c17.067 17.067 42.667 17.067 59.733 0zM298.667 597.334c0 25.6 21.333 42.667 46.933 42.667h328.533c29.867 0 51.2-17.067 51.2-42.667s-21.333-42.667-46.933-42.667h-332.8c-25.6 0-46.933 17.067-46.933 42.667zM345.6 469.334h328.533c25.6 0 46.933-17.067 46.933-42.667s-21.333-42.667-46.933-42.667h-328.533c-25.6 0-46.933 17.067-46.933 42.667s21.333 42.667 46.933 42.667zM298.667 256c0 25.6 21.333 42.667 46.933 42.667h162.133c25.6 0 46.933-17.067 46.933-42.667s-21.333-42.667-46.933-42.667h-162.133c-25.6 0-46.933 17.067-46.933 42.667zM896 896h-768c-21.333 0-42.667-21.333-42.667-42.667v-853.333c0-21.333 21.333-42.667 42.667-42.667h768c21.333 0 42.667 21.333 42.667 42.667v853.333c0 21.333-21.333 42.667-42.667 42.667zM853.333 42.667h-682.667v768h682.667v-768z" />
<glyph unicode="&#xe61a;" glyph-name="ICON-Trash" d="M639.872 938.667h-255.744c-23.564 0-42.667-19.103-42.667-42.667v0-128h-213.461c-23.564 0-42.667-19.103-42.667-42.667s19.103-42.667 42.667-42.667v0h42.667v-725.333c0-23.564 19.103-42.667 42.667-42.667v0h597.333c23.564 0 42.667 19.103 42.667 42.667v0 725.333h42.667c23.564 0 42.667 19.103 42.667 42.667s-19.103 42.667-42.667 42.667v0h-213.461v128c0 23.564-19.103 42.667-42.667 42.667v0zM768 682.667v-682.667h-512v682.667h512zM426.795 768v85.333h170.539v-85.333h-170.581zM426.667 85.334c23.552 0 42.667 12.075 42.667 26.965v458.069c0 14.933-19.115 26.965-42.667 26.965s-42.667-12.075-42.667-26.965v-458.069c0-14.933 19.115-26.965 42.667-26.965zM597.333 85.334c23.552 0 42.667 12.075 42.667 26.965v458.069c0 14.933-19.115 26.965-42.667 26.965s-42.667-12.075-42.667-26.965v-458.069c0-14.933 19.115-26.965 42.667-26.965z" />
<glyph unicode="&#xe61b;" glyph-name="ICON-Bookmark-Remove" d="M768 102.4l-226.133 226.133c-8.533 8.533-17.067 12.8-29.867 12.8s-21.333-4.267-29.867-12.8l-226.133-226.133v708.267h512v-170.667h85.333v179.2c0 42.667-34.133 76.8-72.533 76.8h-533.333c-42.667 0-76.8-34.133-76.8-76.8v-819.2c0-25.6 17.067-42.667 42.667-42.667 12.8 0 21.333 4.267 29.867 12.8l268.8 268.8 268.8-268.8c17.067-17.067 42.667-17.067 59.733 0 8.533 8.533 12.8 17.067 12.8 29.867v384h-85.333v-281.6zM597.333 554.667v-85.333h426.667v85.333h-426.667z" />
<glyph unicode="&#xe61c;" glyph-name="ICON-Refresh" d="M477.867 904.534c0-17.067 12.8-34.133 34.133-34.133 119.467 0 230.4-46.933 315.733-132.267s132.267-196.267 132.267-315.733c0-119.467-46.933-238.933-128-324.267v119.467c0 17.067-12.8 34.133-34.133 34.133s-29.867-8.533-29.867-29.867v-221.867h221.867c17.067 0 34.133 12.8 34.133 34.133s-12.8 34.133-34.133 34.133h-106.667c89.6 93.867 140.8 230.4 140.8 362.667 0 136.533-51.2 264.533-149.333 362.667-98.133 93.867-226.133 145.067-362.667 145.067-17.067 0-34.133-12.8-34.133-34.133zM149.333 64c98.133-98.133 226.133-149.333 362.667-149.333 17.067 0 34.133 12.8 34.133 34.133s-12.8 34.133-34.133 34.133c-119.467 0-230.4 46.933-315.733 132.267s-132.267 196.267-132.267 315.733c0 119.467 89.6 238.933 170.667 324.267v-119.467c0-25.6 12.8-38.4 29.867-38.4s34.133 12.8 34.133 34.133v221.867h-221.867c-17.067 0-34.133-17.067-34.133-34.133s12.8-34.133 34.133-34.133h106.667c-89.6-93.867-183.467-226.133-183.467-358.4 0-136.533 51.2-264.533 149.333-362.667z" />
<glyph unicode="&#xe61d;" glyph-name="ICON-Detach" d="M597.333 896v-85.333h238.933l-413.867-413.867c-17.067-17.067-17.067-42.667 0-59.733s42.667-17.067 59.733 0l413.867 413.867v-238.933h85.333v384h-384zM128 42.667v768h341.333v85.333h-345.6c-46.933 0-81.067-34.133-81.067-76.8v-785.067c0-42.667 34.133-76.8 81.067-76.8h776.533c42.667 0 81.067 34.133 81.067 76.8v349.867h-85.333v-341.333h-768z" />
<glyph unicode="&#xe61e;" glyph-name="ICON-Report" d="M256 234.667c0-58.91-47.756-106.667-106.667-106.667s-106.667 47.756-106.667 106.667c0 58.91 47.756 106.667 106.667 106.667s106.667-47.756 106.667-106.667zM469.333 448c0-58.91-47.756-106.667-106.667-106.667s-106.667 47.756-106.667 106.667c0 58.91 47.756 106.667 106.667 106.667s106.667-47.756 106.667-106.667zM682.667 234.667c0-58.91-47.756-106.667-106.667-106.667s-106.667 47.756-106.667 106.667c0 58.91 47.756 106.667 106.667 106.667s106.667-47.756 106.667-106.667zM1024 576c0-58.91-47.756-106.667-106.667-106.667s-106.667 47.756-106.667 106.667c0 58.91 47.756 106.667 106.667 106.667s106.667-47.756 106.667-106.667zM553.387 212.054l-190.72 190.677-190.72-190.677-45.227 45.227 213.333 213.333 22.613-22.613 22.613 22.613 213.333-213.333zM553.387 257.28l341.333 341.333 45.227-45.227-341.333-341.333z" />
<glyph unicode="&#xe61f;" glyph-name="ICON-Home" d="M913.067 512l-371.2 371.2c-17.067 17.067-42.667 17.067-59.733 0l-371.2-371.2c-17.067-17.067-25.6-38.4-25.6-59.733v-452.267c0-25.6 21.333-42.667 42.667-42.667h256c25.6 0 42.667 17.067 42.667 42.667v256h170.667v-256c0-25.6 17.067-42.667 42.667-42.667h256c25.6 0 42.667 21.333 42.667 42.667v452.267c0 21.333-8.533 42.667-25.6 59.733zM853.333 42.667h-170.667v256c0 21.333-17.067 42.667-42.667 42.667h-256c-21.333 0-42.667-17.067-42.667-42.667v-256h-170.667v392.533c0 12.8 4.267 21.333 12.8 29.867l328.533 328.533 328.533-328.533c8.533-8.533 12.8-17.067 12.8-29.867v-392.533z" />
<glyph unicode="&#xe620;" glyph-name="ICON-Coverage-text" d="M298.667 469.334h469.333v-85.333h-469.333v85.333zM298.667 253.099h469.333v-85.333h-469.333v85.333zM298.667 682.667h469.333v-85.333h-469.333v85.333zM853.333 896v0h-640c-5.973 0-11.52-0.427-17.067-1.707-16.64-3.413-31.573-11.947-43.093-23.467-7.68-7.68-14.080-17.067-18.347-27.307-4.267-9.813-6.827-20.907-6.827-32.853v-768c0-11.52 2.56-23.040 6.827-33.28s10.667-19.2 18.347-27.307c11.52-11.52 26.453-20.053 43.093-23.467 5.547-0.853 11.093-1.28 17.067-1.28v0h640c46.933 0 85.333 38.4 85.333 85.333v768c0 46.933-38.4 85.333-85.333 85.333zM853.333 42.667h-640v768h640v-768z" />
<glyph unicode="&#xe621;" glyph-name="ICON-Coverage-photo" d="M597.333 810.667l81.067-128h260.267v-640h-853.333v640h260.267l81.067 128zM640 896h-256l-76.8-128h-221.867c-46.933 0-85.333-38.4-85.333-85.333v-640c0-46.933 38.4-85.333 85.333-85.333h853.333c46.933 0 85.333 38.4 85.333 85.333v640c0 46.933-38.4 85.333-85.333 85.333h-221.867l-76.8 128zM512 554.667c93.867 0 170.667-76.8 170.667-170.667s-76.8-170.667-170.667-170.667-170.667 76.8-170.667 170.667 76.8 170.667 170.667 170.667zM512 640c-140.8 0-256-115.2-256-256s115.2-256 256-256 256 115.2 256 256-115.2 256-256 256v0z" />
<glyph unicode="&#xe622;" glyph-name="ICON-Coverage-video" d="M768 640v-469.333h-682.667v469.333h682.667zM810.667 725.334h-768c-23.467 0-42.667-19.2-42.667-42.667v-554.667c0-23.467 19.2-42.667 42.667-42.667h768c23.467 0 42.667 19.2 42.667 42.667v192l170.667-149.333v469.333l-170.667-149.333v192c0 23.467-19.2 42.667-42.667 42.667v0z" />
<glyph unicode="&#xe623;" glyph-name="ICON-Coverage-explainer" d="M725.333 896h-512c-4.267 0-12.8 0-17.067 0-17.067-4.267-29.867-12.8-42.667-25.6-8.533-8.533-12.8-17.067-17.067-25.6-4.267-12.8-8.533-21.333-8.533-34.133v-768c0-12.8 4.267-21.333 8.533-34.133 4.267-8.533 12.8-21.333 17.067-25.6 12.8-12.8 25.6-21.333 42.667-21.333 4.267 0 12.8 0 17.067 0v0h640c46.933 0 85.333 38.4 85.333 85.333v635.733l-213.333 213.333zM853.333 42.667h-640v768h469.333l170.667-170.667v-597.333zM384 640v-426.667l341.333 213.333z" />
<glyph unicode="&#xe624;" glyph-name="ICON-Arrow" d="M328.533 857.6l-59.733-64 366.933-366.933-366.933-366.933 59.733-64 426.667 430.933z" />
<glyph unicode="&#xe625;" glyph-name="ICON-Coverage-infographics" d="M362.667 512c128 0 234.667-106.667 234.667-234.667s-106.667-234.667-234.667-234.667-234.667 106.667-234.667 234.667 106.667 234.667 234.667 234.667zM362.667 597.334c-174.933 0-320-145.067-320-320s145.067-320 320-320 320 145.067 320 320-145.067 320-320 320v0zM341.333 896v-213.333c8.533 0 12.8 0 21.333 0 21.333 0 42.667-4.267 64-4.267v132.267h469.333v-469.333h-132.267c4.267-21.333 4.267-42.667 4.267-64 0-8.533 0-12.8 0-21.333h213.333v640h-640z" />
<glyph unicode="&#xe626;" glyph-name="ICON-watch" d="M512 490.667c59.733 0 110.933-51.2 110.933-110.933s-51.2-110.933-110.933-110.933-110.933 51.2-110.933 110.933 51.2 110.933 110.933 110.933zM512 576c-106.667 0-196.267-89.6-196.267-196.267s89.6-196.267 196.267-196.267 196.267 89.6 196.267 196.267-89.6 196.267-196.267 196.267v0zM768 725.334h-170.667v-85.333h170.667v-170.667h85.333v170.667h170.667v85.333h-170.667v170.667h-85.333v-170.667zM964.267 456.534l-72.533-46.933c12.8-12.8 21.333-29.867 29.867-38.4-64-85.333-221.867-268.8-409.6-268.8-200.533 0-349.867 183.467-409.6 268.8 55.467 81.067 187.733 243.2 366.933 268.8v85.333c-285.867-29.867-469.333-354.133-469.333-354.133s196.267-354.133 512-354.133c294.4 0 512 354.133 512 354.133s-21.333 38.4-59.733 85.333z" />
<glyph unicode="&#xe627;" glyph-name="ICON-unwatch" d="M597.333 725.334v-85.333h426.667v85.333h-426.667zM512 490.667c59.733 0 110.933-51.2 110.933-110.933s-51.2-110.933-110.933-110.933-110.933 51.2-110.933 110.933 51.2 110.933 110.933 110.933zM512 576c-106.667 0-196.267-89.6-196.267-196.267s89.6-196.267 196.267-196.267 196.267 89.6 196.267 196.267-89.6 196.267-196.267 196.267v0zM870.4 554.667h-132.267c81.067-59.733 145.067-136.533 179.2-183.467-64-85.333-221.867-268.8-409.6-268.8-200.533 0-349.867 183.467-409.6 268.8 55.467 76.8 187.733 243.2 366.933 264.533v85.333c-281.6-29.867-465.067-349.867-465.067-349.867s196.267-354.133 512-354.133c294.4 0 512 354.133 512 354.133s-55.467 93.867-153.6 183.467z" />
<glyph unicode="&#xe628;" glyph-name="ICON-watched" d="M512 640c187.733 0 345.6-183.467 409.6-268.8-64-85.333-221.867-268.8-409.6-268.8-200.533 0-349.867 183.467-409.6 268.8 59.733 85.333 209.067 268.8 409.6 268.8zM512 725.334c-311.467 0-512-354.133-512-354.133s196.267-354.133 512-354.133c294.4 0 512 354.133 512 354.133s-217.6 354.133-512 354.133v0zM512 490.667c59.733 0 110.933-51.2 110.933-110.933s-51.2-110.933-110.933-110.933-110.933 51.2-110.933 110.933 51.2 110.933 110.933 110.933zM512 576c-106.667 0-196.267-89.6-196.267-196.267s89.6-196.267 196.267-196.267 196.267 89.6 196.267 196.267-89.6 196.267-196.267 196.267v0z" />
<glyph unicode="&#xe629;" glyph-name="ICON-Coverage-live-video" d="M768 640v-469.333h-682.667v469.333h682.667zM810.667 725.334h-768c-25.6 0-42.667-17.067-42.667-42.667v-554.667c0-21.333 17.067-42.667 42.667-42.667h768c21.333 0 42.667 21.333 42.667 42.667v192l170.667-149.333v469.333l-170.667-149.333v192c0 25.6-21.333 42.667-42.667 42.667v0zM426.667 588.8c-162.133 0-264.533-183.467-264.533-183.467s102.4-183.467 264.533-183.467c149.333 0 264.533 183.467 264.533 183.467s-110.933 183.467-264.533 183.467zM426.667 281.6c-68.267 0-123.733 55.467-123.733 123.733s55.467 123.733 123.733 123.733 123.733-55.467 123.733-123.733-55.467-123.733-123.733-123.733zM486.4 405.334c0-32.99-26.744-59.733-59.733-59.733s-59.733 26.744-59.733 59.733c0 32.99 26.744 59.733 59.733 59.733s59.733-26.744 59.733-59.733z" />
<glyph unicode="&#xe62a;" glyph-name="ICON-Coverage-audio" d="M341.333 768v-448c-25.6 12.8-55.467 21.333-85.333 21.333-93.867 0-170.667-76.8-170.667-170.667s76.8-170.667 170.667-170.667 170.667 76.8 170.667 170.667v469.333l426.667 68.267v-302.933c-25.6 12.8-55.467 21.333-85.333 21.333-93.867 0-170.667-76.8-170.667-170.667s76.8-170.667 170.667-170.667 170.667 76.8 170.667 170.667v597.333l-597.333-85.333zM256 85.334c-46.933 0-85.333 38.4-85.333 85.333s38.4 85.333 85.333 85.333 85.333-38.4 85.333-85.333-38.4-85.333-85.333-85.333zM768 170.667c-46.933 0-85.333 38.4-85.333 85.333s38.4 85.333 85.333 85.333 85.333-38.4 85.333-85.333-38.4-85.333-85.333-85.333z" />
<glyph unicode="&#xe62b;" glyph-name="ICON-Coverage-Live-blog" d="M896 810.667v0h-768c-4.267 0-12.8 0-17.067 0-17.067-4.267-29.867-12.8-42.667-25.6-8.533-8.533-12.8-17.067-17.067-25.6-4.267-12.8-8.533-21.333-8.533-34.133v-597.333c0-12.8 4.267-21.333 8.533-34.133 4.267-8.533 12.8-21.333 17.067-25.6 12.8-12.8 25.6-21.333 42.667-21.333 4.267 0 12.8 0 17.067 0v0h768c46.933 0 85.333 38.4 85.333 85.333v593.067c0 46.933-38.4 85.333-85.333 85.333zM896 128h-768v597.333h768v-597.333zM341.333 320h128v-64h-213.333v341.333h85.333v-277.333zM512 256v341.333h115.2c42.667 0 76.8-8.533 98.133-25.6 25.6-17.067 34.133-38.4 34.133-68.267 0-17.067-4.267-29.867-12.8-42.667s-21.333-21.333-34.133-29.867c21.333-4.267 34.133-12.8 42.667-25.6s12.8-29.867 12.8-46.933c0-34.133-12.8-59.733-34.133-76.8s-55.467-25.6-98.133-25.6h-123.733zM593.067 456.534h38.4c17.067 0 29.867 4.267 38.4 8.533 8.533 8.533 12.8 17.067 12.8 29.867s-4.267 25.6-12.8 29.867c-8.533 8.533-21.333 8.533-42.667 8.533h-38.4v-76.8zM593.067 401.067v-85.333h55.467c17.067 0 29.867 4.267 38.4 8.533 8.533 8.533 12.8 17.067 12.8 29.867s-4.267 25.6-12.8 34.133c-8.533 8.533-17.067 12.8-34.133 12.8h-59.733z" />
<glyph unicode="&#xe62c;" glyph-name="ICON-Coverage-unrecognized" d="M170.667 640v-550.4c0-46.933 38.4-89.6 85.333-89.6v0h512c4.267 0 12.8 0 17.067 0 17.067 0 29.867 8.533 42.667 21.333 4.267 4.267 12.8 17.067 17.067 25.6 4.267 12.8 8.533 25.6 8.533 38.4v682.667c0 12.8-4.267 21.333-8.533 34.133-4.267 8.533-8.533 17.067-17.067 25.6-12.8 12.8-25.6 21.333-42.667 25.6-4.267 0-12.8 0-17.067 0v0h-384l-213.333-213.333zM256 597.334l170.667 170.667h341.333v-682.667h-512v512z" />
<glyph unicode="&#xe62d;" glyph-name="ICON-Features" d="M247.467 896c-42.667 0-76.8-34.133-76.8-72.533v-823.467c0-25.6 17.067-42.667 42.667-42.667 12.8 0 21.333 4.267 29.867 12.8l268.8 268.8 268.8-268.8c17.067-17.067 42.667-17.067 59.733 0 8.533 8.533 12.8 17.067 12.8 29.867v823.467c0 38.4-34.133 72.533-68.267 72.533h-537.6zM768 102.4l-226.133 226.133c-8.533 8.533-17.067 12.8-29.867 12.8s-21.333-4.267-29.867-12.8l-226.133-226.133v708.267h512v-708.267zM512 746.667l46.933-149.333h157.867l-128-89.6 46.933-149.333-123.733 89.6-123.733-89.6 46.933 149.333-123.733 89.6h153.6z" />
<glyph unicode="&#xe62e;" glyph-name="ICON-AM" d="M554.667 640h-85.333v-213.333h-128v-85.333h213.333v298.667zM550.4 896h-81.067v-89.6c-38.4-4.267-76.8-17.067-115.2-29.867l-46.933 76.8-72.533-42.667 46.933-72.533c-29.867-25.6-59.733-51.2-85.333-85.333l-68.267 42.667-42.667-72.533 72.533-46.933c-12.8-34.133-25.6-68.267-25.6-106.667h-89.6v-85.333h89.6c4.267-38.4 17.067-76.8 29.867-115.2l-76.8-46.933 46.933-68.267 72.533 46.933c21.333-29.867 51.2-59.733 81.067-81.067l-46.933-76.8 72.533-42.667 51.2 81.067c34.133-17.067 72.533-25.6 110.933-29.867v-93.867h81.067v89.6c42.667 4.267 81.067 17.067 115.2 29.867l51.2-81.067 72.533 42.667-51.2 81.067c29.867 21.333 59.733 51.2 81.067 81.067l72.533-46.933 46.933 68.267-76.8 51.2c17.067 34.133 25.6 72.533 29.867 110.933h85.333v85.333h-89.6c-4.267 38.4-12.8 76.8-29.867 110.933l76.8 42.667-42.667 72.533-72.533-46.933c-21.333 34.133-51.2 59.733-81.067 85.333l46.933 72.533-72.533 42.667-46.933-76.8c-38.4 17.067-76.8 29.867-119.467 34.133v89.6zM512 128c-166.4 0-298.667 132.267-298.667 298.667s132.267 298.667 298.667 298.667 298.667-132.267 298.667-298.667-132.267-298.667-298.667-298.667v0z" />
<glyph unicode="&#xe62f;" glyph-name="ICON-AM-traffic" d="M806.4 725.334c-8.533 25.6-34.133 42.667-59.733 42.667h-469.333c-29.867 0-51.2-17.067-59.733-42.667l-89.6-256v-341.333c0-21.333 21.333-42.667 42.667-42.667h42.667c25.6 0 42.667 21.333 42.667 42.667v42.667h512v-42.667c0-21.333 21.333-42.667 42.667-42.667h42.667c21.333 0 42.667 21.333 42.667 42.667v341.333l-89.6 256zM290.133 682.667h439.467l46.933-132.267h-529.067l42.667 132.267zM810.667 256h-597.333v213.333h597.333v-213.333zM384 358.4c0-35.346-28.654-64-64-64s-64 28.654-64 64c0 35.346 28.654 64 64 64s64-28.654 64-64zM768 358.4c0-35.346-28.654-64-64-64s-64 28.654-64 64c0 35.346 28.654 64 64 64s64-28.654 64-64z" />
<glyph unicode="&#xe630;" glyph-name="ICON-AM-quote" d="M793.6 170.667h-221.867l85.333 170.667h-102.4v341.333h341.333v-307.2l-102.4-204.8zM691.2 256h51.2l68.267 136.533v204.8h-170.667v-170.667h136.533c0 0-85.333-170.667-85.333-170.667zM366.933 170.667h-221.867l85.333 170.667h-102.4v341.333h341.333v-307.2c0 0-102.4-204.8-102.4-204.8zM264.533 256h51.2l68.267 136.533v204.8h-170.667v-170.667h136.533c0 0-85.333-170.667-85.333-170.667z" />
<glyph unicode="&#xe631;" glyph-name="ICON-AM-fuel" d="M866.133 631.467v0l-157.867 157.867-46.933-46.933 89.6-89.6c-38.4-12.8-68.267-51.2-68.267-98.133 0-59.733 46.933-106.667 106.667-106.667 17.067 0 29.867 4.267 42.667 8.533v-221.867c0-21.333-21.333-42.667-42.667-42.667s-42.667 21.333-42.667 42.667v106.667c0 46.933-38.4 85.333-85.333 85.333h-21.333v298.667c0 46.933-38.4 85.333-85.333 85.333h-256c-46.933 0-85.333-38.4-85.333-85.333v-640h-85.333v-85.333h597.333v85.333h-85.333v277.333h42.667v-128c0-59.733 46.933-106.667 106.667-106.667s106.667 46.933 106.667 106.667v320c0 29.867-12.8 55.467-29.867 76.8zM554.667 128h-256v298.667h256v-298.667zM554.667 512h-256v213.333h256v-213.333zM789.333 512c-21.333 0-42.667 21.333-42.667 42.667s21.333 42.667 42.667 42.667 42.667-21.333 42.667-42.667-21.333-42.667-42.667-42.667z" />
<glyph unicode="&#xe632;" glyph-name="ICON-AM-announce" d="M981.333 490.667c0 81.067-55.467 145.067-128 166.4v196.267l-810.667-213.333v-298.667l98.133-25.6 59.733-341.333 217.6 38.4-42.667 238.933 477.867-123.733v196.267c72.533 21.333 128 85.333 128 166.4zM273.067 72.534l-38.4 217.6h4.267l46.933-12.8 34.133-196.267-46.933-8.533zM768 238.934l-640 166.4v170.667l640 166.4v-503.467zM853.333 418.134v145.067c25.6-12.8 42.667-42.667 42.667-72.533s-17.067-59.733-42.667-72.533z" />
<glyph unicode="&#xe633;" glyph-name="ICON-AM-alert" d="M512 682.667l320-554.667h-640l320 554.667zM512 853.334l-469.333-810.667h938.667l-469.333 810.667zM554.667 554.667h-85.333v-256h85.333v256zM554.667 256h-85.333v-85.333h85.333v85.333z" />
<glyph unicode="&#xe634;" glyph-name="ICON-AM-weather" d="M503.467 712.534l-76.8 76.8-59.733-64 76.8-76.8 59.733 64zM682.667 896h85.333v-128h-85.333v128zM1024 785.067l-72.533-72.533 59.733-59.733 12.8 12.8zM960 324.267c12.8 29.867 21.333 68.267 21.333 102.4 0 140.8-115.2 256-256 256-55.467 0-106.667-17.067-149.333-51.2-21.333 4.267-42.667 8.533-64 8.533-123.733 0-230.4-68.267-285.867-170.667-128-12.8-226.133-123.733-226.133-256 0-140.8 115.2-256 256-256h554.667c119.467 0 213.333 93.867 213.333 213.333 0 59.733-25.6 115.2-64 153.6zM725.333 597.334c93.867 0 170.667-76.8 170.667-170.667 0-21.333-4.267-38.4-8.533-59.733-17.067 8.533-38.4 12.8-59.733 12.8-21.333 89.6-72.533 166.4-145.067 213.333 12.8 0 25.6 4.267 42.667 4.267zM810.667 42.667h-554.667c-93.867 0-170.667 76.8-170.667 170.667 0 85.333 64 162.133 153.6 170.667l46.933 4.267 21.333 42.667c42.667 76.8 119.467 128 209.067 128 110.933 0 209.067-81.067 230.4-187.733l12.8-64 64-4.267c68.267-4.267 119.467-59.733 119.467-128-4.267-76.8-59.733-132.267-132.267-132.267z" />
<glyph unicode="&#xe635;" glyph-name="ICON-AM-headlines" d="M896 768v-682.667h-554.667v682.667h554.667zM981.333 853.334h-725.333v-853.333h725.333v853.333zM256 512v-426.667h-85.333v426.667h85.333zM341.333 597.334h-256v-597.333h256v597.333zM426.667 682.667h384v-170.667h-384v170.667zM426.667 426.667h384v-85.333h-384v85.333zM426.667 256h384v-85.333h-384v85.333z" />
<glyph unicode="&#xe636;" glyph-name="ICON-Info" d="M490.667 768c200.533 0 362.667-162.133 362.667-362.667s-162.133-362.667-362.667-362.667-362.667 162.133-362.667 362.667 162.133 362.667 362.667 362.667zM490.667 853.334c-247.467 0-448-200.533-448-448s200.533-448 448-448 448 200.533 448 448-200.533 448-448 448v0zM469.333 554.667h42.667c21.333 0 42.667 17.067 42.667 42.667v42.667c0 21.333-17.067 42.667-42.667 42.667h-42.667c-21.333 0-42.667-17.067-42.667-42.667v-42.667c0-25.6 17.067-42.667 42.667-42.667zM469.333 170.667h42.667c21.333 0 42.667 17.067 42.667 42.667v256c0 21.333-17.067 42.667-42.667 42.667h-42.667c-21.333 0-42.667-17.067-42.667-42.667v-256c0-25.6 17.067-42.667 42.667-42.667z" />
<glyph unicode="&#xe637;" glyph-name="ICON-Archive" d="M846.507 938.667h-669.013c-38.4 0-95.573-25.6-95.573-94.72v-833.707c0-38.4 25.6-94.72 95.573-94.72h669.867c38.4 0 95.573 25.6 95.573 94.72v833.707c-0.853 37.547-26.453 94.72-96.427 94.72zM177.493 872.96h669.013c23.893 0 29.013-16.213 29.867-29.867v-219.307h-728.747v220.16c0 23.040 16.213 29.013 29.867 29.013zM876.373 558.934v-270.507h-728.747v270.507h728.747zM846.507-19.626h-669.013c-23.893 0-29.013 16.213-29.867 29.867v213.333h728.747v-213.333c0-24.747-16.213-29.867-29.867-29.867zM452.267 704.854h119.467c23.893 0 43.52 19.627 43.52 43.52s-19.627 43.52-43.52 43.52h-119.467c-23.893 0-43.52-19.627-43.52-43.52s19.627-43.52 43.52-43.52zM452.267 390.827h119.467c23.893 0 43.52 19.627 43.52 43.52s-19.627 43.52-43.52 43.52h-119.467c-23.893 0-43.52-19.627-43.52-43.52s19.627-43.52 43.52-43.52zM571.733 142.507h-119.467c-23.893 0-43.52-19.627-43.52-43.52s19.627-43.52 43.52-43.52h119.467c23.893 0 43.52 19.627 43.52 43.52s-19.627 43.52-43.52 43.52z" />
<glyph unicode="&#xe638;" glyph-name="ICON-aapX" d="M8.533-85.333l375.467 537.6-336.213 486.4h253.44l220.16-314.88 206.507 314.88h250.027l-341.333-482.133 378.88-541.867h-256.853l-256.853 368.64-243.2-368.64h-250.027z" />
<glyph unicode="&#xe639;" glyph-name="ICON-Clock" d="M564.907 367.787v225.28c0 29.013-23.893 52.907-52.907 52.907s-52.907-23.893-52.907-52.907v-239.787c0-9.387 2.56-18.773 6.827-26.453l93.013-161.28c10.24-17.067 28.16-26.453 46.080-26.453 9.387 0 17.92 2.56 26.453 6.827 25.6 14.507 34.133 46.933 19.627 72.533l-86.187 149.333zM424.107 825.174c-44.373 75.947-141.653 102.4-217.6 58.027s-102.4-141.653-58.027-217.6l275.627 159.573zM817.493 883.2c-75.947 44.373-174.080 17.92-217.6-58.027l276.48-159.573c44.373 75.947 17.92 173.227-58.88 217.6zM512 792.747c-242.347 0-438.613-197.12-438.613-438.613s196.267-439.467 438.613-439.467 438.613 197.12 438.613 438.613-196.267 439.467-438.613 439.467zM512-5.12c-197.973 0-359.253 161.28-359.253 359.253s161.28 358.4 359.253 358.4 359.253-161.28 359.253-359.253-161.28-358.4-359.253-358.4zM564.907 885.76c0-29.227-23.68-52.907-52.907-52.907s-52.907 23.68-52.907 52.907c0 29.227 23.68 52.907 52.907 52.907s52.907-23.68 52.907-52.907z" />
<glyph unicode="&#xe63a;" glyph-name="ICON-Explainers" d="M628.053 30.72c0-64.085-51.968-116.053-116.053-116.053s-116.053 51.968-116.053 116.053c0 64.085 51.968 116.053 116.053 116.053s116.053-51.968 116.053-116.053zM651.947 798.72c0-76.8-62.293-605.013-139.947-605.013s-139.947 528.213-139.947 605.013 63.147 139.947 139.947 139.947 139.947-62.293 139.947-139.947z" />
<glyph unicode="&#xe63b;" glyph-name="ICON-Backstory" d="M935.253 765.44v115.2l-80.213-56.32v106.667l-343.040-343.040-344.747 350.72v-112.64l-78.507 54.613v-115.2l-60.587 36.693v-645.12l403.627-242.347h161.28l402.773 241.493v645.12l-60.587-35.84zM814.080 796.16l-125.44-87.893 125.44 125.44v-37.547zM207.36 840.534l135.68-137.387-135.68 94.72v42.667zM128.853 740.694v62.293l348.16-243.2h-45.227l-302.933 180.907zM546.987 559.787l348.16 243.2v-62.293l-302.933-180.907h-45.227z" />
<glyph unicode="&#xe63c;" glyph-name="ICON-Factory" d="M682.667 631.467v170.667l-341.333-170.667v170.667l-341.333-170.667v-580.267h1024v750.933l-341.333-170.667zM153.6 307.2h-102.4v102.4h102.4v-102.4zM153.6 443.734h-102.4v102.4h102.4v-102.4zM290.133 307.2h-102.4v102.4h102.4v-102.4zM290.133 443.734h-102.4v102.4h102.4v-102.4zM494.933 307.2h-102.4v102.4h102.4v-102.4zM494.933 443.734h-102.4v102.4h102.4v-102.4zM631.467 307.2h-102.4v102.4h102.4v-102.4zM631.467 443.734h-102.4v102.4h102.4v-102.4zM836.267 307.2h-102.4v102.4h102.4v-102.4zM836.267 443.734h-102.4v102.4h102.4v-102.4zM972.8 307.2h-102.4v102.4h102.4v-102.4zM972.8 443.734h-102.4v102.4h102.4v-102.4z" />
<glyph unicode="&#xe63d;" glyph-name="ICON-Factcheck" d="M151.040-85.333l-112.64 619.52h221.867l58.88-360.107 449.707 764.587h216.747l-610.987-1024h-223.573z" />
<glyph unicode="&#xe63e;" glyph-name="ICON-Attachment" d="M942.933 332.8l-328.533-328.533c-119.467-119.467-315.733-119.467-439.467 0s-119.467 315.733 0 439.467l384 384c89.6 89.6 238.933 89.6 328.533 0s89.6-238.933 0-328.533l-366.933-366.933c-59.733-59.733-157.867-59.733-217.6 4.267-59.733 59.733-59.733 157.867 0 217.6l366.933 366.933 55.467-55.467-366.933-366.933c-29.867-29.867-29.867-81.067 0-110.933s76.8-29.867 106.667 0l366.933 366.933c59.733 59.733 55.467 162.133-4.267 217.6-59.733 59.733-153.6 59.733-213.333 0l-384-384c-89.6-89.6-89.6-238.933 0-328.533s238.933-89.6 328.533 0v0l328.533 328.533 55.467-55.467z" />
<glyph unicode="&#xe63f;" glyph-name="ICON-Monitoring" d="M964.267 477.867v0c0 0-76.8 89.6-140.8 166.4l-4.267 4.267c-42.667 51.2-76.8 89.6-149.333 89.6-34.133 0-64-12.8-89.6-38.4s-38.4-64-38.4-106.667c0-12.8 0-25.6 0-42.667h-68.267c0 12.8 0 29.867 0 42.667 0 42.667-12.8 76.8-38.4 106.667-17.067 25.6-46.933 38.4-81.067 38.4-72.533 0-102.4-38.4-149.333-89.6l-4.267-4.267c-64-76.8-140.8-166.4-140.8-166.4v0c-38.4-42.667-59.733-98.133-59.733-157.867 0-128 106.667-234.667 234.667-234.667s230.4 102.4 234.667 230.4c0 8.533 0 17.067 0 25.6h85.333c0-4.267 0-12.8 0-17.067 0 0 0-4.267 0-4.267 0-128 106.667-234.667 234.667-234.667s234.667 106.667 234.667 234.667c0 59.733-21.333 115.2-59.733 157.867zM234.667 170.667c-81.067 0-149.333 68.267-149.333 149.333s68.267 149.333 149.333 149.333 149.333-68.267 149.333-149.333c0-81.067-68.267-149.333-149.333-149.333zM789.333 170.667c-81.067 0-149.333 68.267-149.333 149.333 0 0 0 4.267 0 4.267v0c0 0 0 0 0 0 4.267 81.067 68.267 145.067 149.333 145.067s149.333-68.267 149.333-149.333c0-81.067-68.267-149.333-149.333-149.333z" />
</font>
</defs>
</svg>
