<?xml version="1.0" encoding="utf-8"?>
<!-- Generator: Adobe Illustrator 21.0.0, SVG Export Plug-In . SVG Version: 6.00 Build 0)  -->
<svg version="1.1" id="Layer_1" xmlns="http://www.w3.org/2000/svg" xmlns:xlink="http://www.w3.org/1999/xlink" x="0px" y="0px"
	 width="163.5px" height="40px" viewBox="0 0 163.5 40" style="enable-background:new 0 0 163.5 40;" xml:space="preserve">
<style type="text/css">
	.st0{fill:#FFFFFF;}
</style>
<g>
	<g>
		<path class="st0" d="M15.7,30.3h-1.8V13.7h1.6l0.1,2h0.1c1.1-1.4,2.9-2.3,5-2.3c3.6,0,5.5,2.4,5.5,5.9v10.9h-1.8V19.4
			c0-2.7-1.3-4.3-4-4.3c-2.1,0-3.7,1.1-4.5,2.3V30.3z"/>
		<path class="st0" d="M29.7,21.8v2.9c0,2.7,1.6,4.4,4.3,4.4c2.1,0,3.3-0.9,4.2-3.1l1.4,0.5c-0.9,2.7-2.8,4-5.7,4
			c-3.9,0-6-2.4-6-5.8v-5.5c0-3.4,2.2-5.8,5.9-5.8c3.7,0,5.8,2.5,5.8,5.9v2.5C39.5,21.8,29.7,21.8,29.7,21.8z M29.7,20.5h8.2v-1.4
			c0-2.5-1.6-4.2-4.1-4.2c-2.8,0-4.1,1.8-4.1,4.2V20.5z"/>
		<path class="st0" d="M50.5,15.8L50.5,15.8l-4.1,14.5h-2l-4.8-16.5h1.9l3.9,14.5h0.1l4.1-14.5h1.8l4,14.6h0.1l3.9-14.6h1.9
			l-4.9,16.5h-1.9L50.5,15.8z"/>
		<path class="st0" d="M61.8,27.1l1.3-0.7c0.9,2,2.5,2.8,4.2,2.8c2.3,0,3.5-1.3,3.5-3.2c0-4.3-8.8-2.6-8.8-8.1
			c0-2.3,1.7-4.4,5.2-4.4c2.3,0,4.2,1.1,5.1,3.3l-1.3,0.7c-0.8-1.7-2.1-2.5-3.9-2.5c-2.3,0-3.5,1.2-3.5,2.8c0,4.2,8.8,2.5,8.8,8.2
			c0,2.8-2.1,4.7-5.2,4.7C64.9,30.5,62.9,29.5,61.8,27.1z"/>
		<path class="st0" d="M90,17.6C89.3,15.8,87.8,15,86,15c-2.7,0-4.1,1.6-4.1,4.3v5.4c0,2.7,1.6,4.3,4.1,4.3c2,0,3.3-0.9,4.1-2.8
			l1.4,0.5c-0.9,2.2-2.7,3.7-5.5,3.7c-3.8,0-5.9-2.4-5.9-5.8v-5.5c0-3.4,2.1-5.8,5.9-5.8c2.5,0,4.5,1.4,5.5,3.5L90,17.6z"/>
		<path class="st0" d="M93.8,21.8v2.9c0,2.7,1.6,4.4,4.3,4.4c2.1,0,3.3-0.9,4.2-3.1l1.4,0.5c-0.9,2.7-2.8,4-5.7,4
			c-3.9,0-6-2.4-6-5.8v-5.5c0-3.4,2.2-5.8,5.9-5.8c3.7,0,5.8,2.5,5.8,5.9v2.5C103.7,21.8,93.8,21.8,93.8,21.8z M93.8,20.5h8.2v-1.4
			c0-2.5-1.6-4.2-4.1-4.2c-2.8,0-4.1,1.8-4.1,4.2V20.5z"/>
		<path class="st0" d="M107.4,30.3h-1.8V13.7h1.6l0.1,2h0.1c1.1-1.4,2.9-2.3,5-2.3c3.6,0,5.5,2.4,5.5,5.9v10.9H116V19.4
			c0-2.7-1.3-4.3-4-4.3c-2.1,0-3.7,1.1-4.5,2.3L107.4,30.3L107.4,30.3z"/>
		<path class="st0" d="M127.4,15.2h-4.5v10.9c0,2.1,1,2.8,2.4,2.8c0.7,0,1.2-0.1,1.7-0.4l0.3,1.2c-0.7,0.4-1.5,0.7-2.6,0.7
			c-2.5,0-3.7-1.6-3.7-4.4V15.3l-2.3-0.4v-1.1l2.4-0.1l0.4-4.8h1.4v4.8h4.5V15.2z"/>
		<path class="st0" d="M137.1,15.6c-0.5-0.3-1.1-0.4-1.7-0.4c-2.7,0-4.2,2.4-4.5,5.5v9.6h-1.8V13.7h1.6l0.1,3.4h0.1
			c0.9-2.5,2.5-3.7,4.5-3.7c0.7,0,1.5,0.2,2.1,0.5L137.1,15.6z"/>
		<path class="st0" d="M139.2,21.8v2.9c0,2.7,1.6,4.4,4.3,4.4c2.1,0,3.3-0.9,4.2-3.1l1.4,0.5c-0.9,2.7-2.8,4-5.7,4
			c-3.9,0-6-2.4-6-5.8v-5.5c0-3.4,2.2-5.8,5.9-5.8c3.7,0,5.8,2.5,5.8,5.9v2.5C149,21.8,139.2,21.8,139.2,21.8z M139.2,20.5h8.2v-1.4
			c0-2.5-1.6-4.2-4.1-4.2c-2.8,0-4.1,1.8-4.1,4.2V20.5z"/>
	</g>
</g>
</svg>
