<?xml version="1.0" encoding="utf-8"?>
<!-- Generator: Adobe Illustrator 21.0.0, SVG Export Plug-In . SVG Version: 6.00 Build 0)  -->
<svg version="1.1" id="Layer_1" xmlns="http://www.w3.org/2000/svg" xmlns:xlink="http://www.w3.org/1999/xlink" x="0px" y="0px"
	 width="260px" height="40px" viewBox="0 0 260 40" style="enable-background:new 0 0 260 40;" xml:space="preserve">
<style type="text/css">
	.st0{fill:#FFFFFF;}
</style>
<g>
	<g>
		<g>
			<rect x="149.9" y="5.3" class="st0" width="0.8" height="30"/>
		</g>
	</g>
	<g>
		<path class="st0" d="M77.1,7.5h4.5v1h-3.4v1.7h3v0.9h-3v2.9h-1.1L77.1,7.5L77.1,7.5z"/>
		<path class="st0" d="M82.4,7.5h1v1h-1V7.5z M82.4,9.3h1v4.7h-1V9.3z"/>
		<path class="st0" d="M84.6,9.3h1V10l0,0c0.3-0.5,0.8-0.8,1.5-0.8c1,0,1.7,0.6,1.7,1.6v3.3h-1v-3c0-0.7-0.3-1.1-0.9-1.1
			c-0.7,0-1.2,0.6-1.2,1.3v2.8h-1L84.6,9.3L84.6,9.3z"/>
		<path class="st0" d="M93.8,13c0,0.3,0.1,0.4,0.3,0.4c0.1,0,0.2,0,0.3,0v0.7c-0.2,0.1-0.5,0.1-0.7,0.1c-0.4,0-0.7-0.1-0.8-0.6
			c-0.4,0.4-1.1,0.6-1.6,0.6c-0.8,0-1.6-0.5-1.6-1.4c0-1.2,0.9-1.4,1.8-1.5c0.8-0.1,1.4-0.1,1.4-0.7c0-0.5-0.6-0.6-1-0.6
			c-0.6,0-1,0.2-1,0.8h-1c0.1-1.2,1.1-1.6,2.2-1.6c0.9,0,1.9,0.4,1.9,1.4L93.8,13L93.8,13L93.8,13z M92.8,11.7
			c-0.3,0.2-0.8,0.2-1.3,0.3c-0.5,0.1-0.8,0.2-0.8,0.8c0,0.5,0.6,0.6,1,0.6c0.5,0,1.2-0.2,1.2-0.9C92.8,12.5,92.8,11.7,92.8,11.7z"
			/>
		<path class="st0" d="M95,9.3h1V10l0,0c0.3-0.5,0.8-0.8,1.5-0.8c1,0,1.7,0.6,1.7,1.6v3.3h-1v-3c0-0.7-0.3-1.1-0.9-1.1
			c-0.7,0-1.2,0.6-1.2,1.3v2.8h-1L95,9.3L95,9.3z"/>
		<path class="st0" d="M103.4,10.9c-0.1-0.6-0.5-0.9-1.1-0.9c-0.5,0-1.3,0.3-1.3,1.7c0,0.8,0.3,1.6,1.3,1.6c0.6,0,1-0.4,1.1-1.1h1
			c-0.2,1.2-1,1.9-2.2,1.9c-1.5,0-2.3-1.1-2.3-2.4c0-1.4,0.8-2.6,2.3-2.6c1.1,0,2,0.6,2.1,1.7C104.5,10.9,103.4,10.9,103.4,10.9z"/>
		<path class="st0" d="M106.1,12c0,0.7,0.4,1.4,1.3,1.4c0.6,0,1-0.3,1.2-0.8h1c-0.2,1-1.1,1.6-2.1,1.6c-1.5,0-2.3-1-2.3-2.5
			c0-1.4,0.9-2.5,2.3-2.5c1.5,0,2.4,1.4,2.2,2.8C109.6,12,106.1,12,106.1,12z M108.6,11.3c0-0.7-0.5-1.3-1.2-1.3
			c-0.7,0-1.2,0.6-1.3,1.3H108.6z M107.5,7.4h1.2l-1.3,1.3h-0.8L107.5,7.4z"/>
		<path class="st0" d="M113,9.3h1V10h0c0.3-0.5,0.9-0.8,1.5-0.8c1.5,0,2.2,1.1,2.2,2.5c0,1.3-0.6,2.5-2,2.5c-0.6,0-1.3-0.2-1.6-0.7
			h0v2.4h-1L113,9.3L113,9.3z M115.3,10c-0.9,0-1.3,0.7-1.3,1.7c0,0.9,0.5,1.7,1.3,1.7c1,0,1.3-0.8,1.3-1.7
			C116.7,10.8,116.2,10,115.3,10z"/>
		<path class="st0" d="M122.5,13c0,0.3,0.1,0.4,0.3,0.4c0.1,0,0.2,0,0.3,0v0.7c-0.2,0.1-0.5,0.1-0.7,0.1c-0.4,0-0.7-0.1-0.8-0.6
			c-0.4,0.4-1.1,0.6-1.6,0.6c-0.8,0-1.6-0.5-1.6-1.4c0-1.2,0.9-1.4,1.8-1.5c0.8-0.1,1.4-0.1,1.4-0.7c0-0.5-0.6-0.6-1-0.6
			c-0.6,0-1,0.2-1,0.8h-1c0.1-1.2,1.1-1.6,2.2-1.6c0.9,0,1.9,0.4,1.9,1.4L122.5,13L122.5,13L122.5,13z M121.5,11.7
			c-0.3,0.2-0.8,0.2-1.3,0.3c-0.5,0.1-0.8,0.2-0.8,0.8c0,0.5,0.6,0.6,1,0.6c0.5,0,1.2-0.2,1.2-0.9L121.5,11.7L121.5,11.7z"/>
		<path class="st0" d="M123.7,9.3h1v0.9h0c0.1-0.5,0.7-1,1.4-1c0.2,0,0.3,0,0.4,0v1c-0.2,0-0.3-0.1-0.5-0.1c-0.7,0-1.3,0.6-1.3,1.6
			v2.3h-1V9.3L123.7,9.3z"/>
		<path class="st0" d="M129.5,7.5h1v6.5h-1V7.5z"/>
		<path class="st0" d="M132.5,12c0,0.7,0.4,1.4,1.3,1.4c0.6,0,1-0.3,1.2-0.8h1c-0.2,1-1.1,1.6-2.1,1.6c-1.5,0-2.3-1-2.3-2.5
			c0-1.4,0.9-2.5,2.3-2.5c1.5,0,2.4,1.4,2.2,2.8C136,12,132.5,12,132.5,12z M134.9,11.3c0-0.7-0.5-1.3-1.2-1.3
			c-0.7,0-1.2,0.6-1.3,1.3H134.9z"/>
		<path class="st0" d="M80,23c0,1.4-0.8,2.1-2.3,2.1c-1,0-2-0.4-2.1-1.5h1c0.1,0.6,0.6,0.7,1.1,0.7c0.8,0,1.2-0.4,1.2-1.2v-0.7h0
			c-0.3,0.5-0.8,0.8-1.4,0.8c-1.5,0-2.1-1.1-2.1-2.5c0-1.3,0.8-2.4,2.1-2.4c0.6,0,1.1,0.3,1.4,0.8h0v-0.6h1L80,23L80,23z M79,20.8
			c0-0.8-0.4-1.6-1.3-1.6c-0.9,0-1.3,0.9-1.3,1.6c0,0.8,0.4,1.6,1.3,1.6C78.6,22.4,79,21.6,79,20.8z"/>
		<path class="st0" d="M80.8,20.9c0-1.5,0.9-2.5,2.4-2.5c1.5,0,2.4,1,2.4,2.5c0,1.5-0.9,2.5-2.4,2.5S80.8,22.3,80.8,20.9z
			 M84.6,20.9c0-0.8-0.4-1.7-1.3-1.7s-1.3,0.9-1.3,1.7c0,0.8,0.4,1.7,1.3,1.7C84.2,22.5,84.6,21.7,84.6,20.9z"/>
		<path class="st0" d="M90.7,23.2h-1v-0.7h0c-0.3,0.5-0.8,0.8-1.3,0.8c-1.2,0-1.8-0.6-1.8-1.9v-3h1v2.9c0,0.8,0.3,1.1,0.9,1.1
			c0.9,0,1.2-0.6,1.2-1.3v-2.8h1L90.7,23.2z"/>
		<path class="st0" d="M91.3,18.5h1.1l1.2,3.6h0l1.2-3.6h1.1l-1.7,4.7H93L91.3,18.5z"/>
		<path class="st0" d="M97.3,21.1c0,0.7,0.4,1.4,1.3,1.4c0.6,0,1-0.3,1.2-0.8h1c-0.2,1-1.1,1.6-2.1,1.6c-1.5,0-2.3-1-2.3-2.5
			c0-1.4,0.9-2.5,2.3-2.5c1.5,0,2.4,1.4,2.2,2.8L97.3,21.1L97.3,21.1z M99.8,20.4c0-0.7-0.5-1.3-1.2-1.3c-0.7,0-1.2,0.5-1.3,1.3
			H99.8z"/>
		<path class="st0" d="M101.6,18.5h1v0.9h0c0.1-0.5,0.7-1,1.4-1c0.2,0,0.3,0,0.4,0v1c-0.2,0-0.3,0-0.5,0c-0.7,0-1.3,0.6-1.3,1.6v2.3
			h-1V18.5z"/>
		<path class="st0" d="M105,18.5h1v0.7l0,0c0.3-0.5,0.8-0.8,1.5-0.8c1,0,1.7,0.5,1.7,1.6v3.3h-1v-3c0-0.7-0.3-1.1-0.9-1.1
			c-0.7,0-1.2,0.5-1.2,1.3v2.8h-1C105,23.2,105,18.5,105,18.5z"/>
		<path class="st0" d="M111.1,21.1c0,0.7,0.4,1.4,1.3,1.4c0.6,0,1-0.3,1.2-0.8h1c-0.2,1-1.1,1.6-2.1,1.6c-1.5,0-2.3-1-2.3-2.5
			c0-1.4,0.9-2.5,2.3-2.5c1.5,0,2.4,1.4,2.2,2.8L111.1,21.1L111.1,21.1z M113.5,20.4c0-0.7-0.5-1.3-1.2-1.3c-0.7,0-1.2,0.5-1.3,1.3
			H113.5z"/>
		<path class="st0" d="M115.4,18.5h1v0.7h0c0.3-0.5,0.7-0.8,1.5-0.8c0.6,0,1.1,0.3,1.3,0.8c0.3-0.5,0.8-0.8,1.5-0.8
			c1,0,1.6,0.4,1.6,1.6v3.3h-1v-2.8c0-0.8,0-1.3-0.9-1.3c-0.7,0-1,0.5-1,1.3v2.8h-1v-3c0-0.6-0.2-1-0.8-1c-0.5,0-1,0.4-1,1.2v2.8h-1
			L115.4,18.5L115.4,18.5z"/>
		<path class="st0" d="M124.2,21.1c0,0.7,0.4,1.4,1.3,1.4c0.6,0,1-0.3,1.2-0.8h1c-0.2,1-1.1,1.6-2.1,1.6c-1.5,0-2.3-1-2.3-2.5
			c0-1.4,0.9-2.5,2.3-2.5c1.5,0,2.4,1.4,2.2,2.8L124.2,21.1L124.2,21.1z M126.6,20.4c0-0.7-0.5-1.3-1.2-1.3c-0.7,0-1.2,0.5-1.3,1.3
			H126.6z"/>
		<path class="st0" d="M128.4,18.5h1v0.7l0,0c0.3-0.5,0.8-0.8,1.5-0.8c1,0,1.7,0.5,1.7,1.6v3.3h-1v-3c0-0.7-0.3-1.1-0.9-1.1
			c-0.7,0-1.2,0.5-1.2,1.3v2.8h-1L128.4,18.5L128.4,18.5z"/>
		<path class="st0" d="M133.2,18.5h0.8v-1.4h1v1.4h0.9v0.8h-0.9v2.5c0,0.4,0,0.6,0.5,0.6c0.2,0,0.3,0,0.4,0v0.8
			c-0.2,0-0.5,0.1-0.7,0.1c-1.1,0-1.3-0.4-1.3-1.2v-2.8h-0.8L133.2,18.5L133.2,18.5z"/>
		<path class="st0" d="M95,32.4h-1v-0.6h0c-0.3,0.5-0.9,0.8-1.5,0.8c-1.5,0-2.2-1.1-2.2-2.5c0-1.7,1-2.5,2-2.5
			c0.6,0,1.3,0.2,1.6,0.7h0v-2.4h1L95,32.4L95,32.4z M92.7,31.7c0.9,0,1.3-0.9,1.3-1.7c0-1-0.5-1.7-1.3-1.7c-1,0-1.3,0.9-1.3,1.7
			C91.4,30.9,91.8,31.7,92.7,31.7z"/>
		<path class="st0" d="M100.3,32.4h-1v-0.7h0c-0.3,0.5-0.8,0.8-1.3,0.8c-1.2,0-1.8-0.6-1.8-1.9v-3h1v2.9c0,0.8,0.3,1.1,0.9,1.1
			c0.9,0,1.2-0.6,1.2-1.3v-2.8h1C100.3,27.7,100.3,32.4,100.3,32.4z"/>
		<path class="st0" d="M108.5,27.9c-0.2-0.8-0.7-1.3-1.6-1.3c-1.4,0-2,1.2-2,2.5c0,1.3,0.6,2.5,2,2.5c1,0,1.6-0.8,1.7-1.7h1.1
			c-0.1,1.6-1.2,2.6-2.8,2.6c-2,0-3.1-1.6-3.1-3.4s1.2-3.4,3.1-3.4c1.5,0,2.6,0.8,2.8,2.2L108.5,27.9L108.5,27.9z"/>
		<path class="st0" d="M114.6,31.3c0,0.3,0.1,0.4,0.3,0.4c0.1,0,0.2,0,0.3,0v0.7c-0.2,0.1-0.5,0.1-0.7,0.1c-0.4,0-0.7-0.2-0.8-0.6
			c-0.4,0.4-1.1,0.6-1.6,0.6c-0.8,0-1.6-0.5-1.6-1.4c0-1.2,0.9-1.4,1.8-1.5c0.8-0.1,1.4-0.1,1.4-0.7c0-0.5-0.6-0.6-1-0.6
			c-0.6,0-1,0.2-1,0.8h-1c0.1-1.2,1.1-1.6,2.2-1.6c0.9,0,1.9,0.4,1.9,1.4L114.6,31.3L114.6,31.3L114.6,31.3z M113.5,30
			c-0.3,0.2-0.8,0.2-1.3,0.3s-0.8,0.2-0.8,0.8c0,0.5,0.6,0.6,1,0.6c0.5,0,1.2-0.2,1.2-0.9V30z"/>
		<path class="st0" d="M115.7,27.7h1v0.7l0,0c0.3-0.5,0.8-0.8,1.5-0.8c1,0,1.7,0.5,1.7,1.6v3.3h-1v-3c0-0.7-0.3-1.1-0.9-1.1
			c-0.7,0-1.2,0.5-1.2,1.3v2.8h-1L115.7,27.7L115.7,27.7z"/>
		<path class="st0" d="M124.9,31.3c0,0.3,0.1,0.4,0.3,0.4c0.1,0,0.2,0,0.3,0v0.7c-0.2,0.1-0.5,0.1-0.7,0.1c-0.4,0-0.7-0.2-0.8-0.6
			c-0.4,0.4-1.1,0.6-1.6,0.6c-0.8,0-1.6-0.5-1.6-1.4c0-1.2,0.9-1.4,1.8-1.5c0.8-0.1,1.4-0.1,1.4-0.7c0-0.5-0.6-0.6-1-0.6
			c-0.6,0-1,0.2-1,0.8h-1c0.1-1.2,1.1-1.6,2.2-1.6c0.9,0,1.9,0.4,1.9,1.4L124.9,31.3L124.9,31.3L124.9,31.3z M123.9,30
			c-0.3,0.2-0.8,0.2-1.3,0.3s-0.8,0.2-0.8,0.8c0,0.5,0.6,0.6,1,0.6c0.5,0,1.2-0.2,1.2-0.9V30z"/>
		<path class="st0" d="M130.5,32.4h-1v-0.6h0c-0.3,0.5-0.9,0.8-1.5,0.8c-1.5,0-2.2-1.1-2.2-2.5c0-1.7,1-2.5,2-2.5
			c0.6,0,1.3,0.2,1.6,0.7h0v-2.4h1L130.5,32.4L130.5,32.4z M128.2,31.7c0.9,0,1.3-0.9,1.3-1.7c0-1-0.5-1.7-1.3-1.7
			c-1,0-1.3,0.9-1.3,1.7C126.9,30.9,127.3,31.7,128.2,31.7z"/>
		<path class="st0" d="M135.6,31.3c0,0.3,0.1,0.4,0.3,0.4c0.1,0,0.2,0,0.3,0v0.7c-0.2,0.1-0.5,0.1-0.7,0.1c-0.4,0-0.7-0.2-0.8-0.6
			c-0.4,0.4-1.1,0.6-1.6,0.6c-0.8,0-1.6-0.5-1.6-1.4c0-1.2,0.9-1.4,1.8-1.5c0.8-0.1,1.4-0.1,1.4-0.7c0-0.5-0.6-0.6-1-0.6
			c-0.6,0-1,0.2-1,0.8h-1c0.1-1.2,1.1-1.6,2.2-1.6c0.9,0,1.9,0.4,1.9,1.4L135.6,31.3L135.6,31.3L135.6,31.3z M134.6,30
			c-0.3,0.2-0.8,0.2-1.3,0.3s-0.8,0.2-0.8,0.8c0,0.5,0.6,0.6,1,0.6c0.5,0,1.2-0.2,1.2-0.9V30z"/>
	</g>
	<g>
		<path class="st0" d="M0.6,7.5h4.5v1H1.8v1.7h3v0.9h-3v2.9H0.6L0.6,7.5L0.6,7.5z"/>
		<path class="st0" d="M10.1,14.1h-1v-0.7h0c-0.3,0.5-0.8,0.8-1.4,0.8c-1.2,0-1.8-0.6-1.8-1.9v-3h1v2.9c0,0.8,0.3,1.1,0.9,1.1
			c0.9,0,1.2-0.6,1.2-1.3V9.3h1L10.1,14.1L10.1,14.1z"/>
		<path class="st0" d="M11.2,9.3h1V10l0,0c0.3-0.5,0.9-0.8,1.5-0.8c1,0,1.7,0.6,1.7,1.6v3.3h-1v-3c0-0.7-0.3-1.1-0.9-1.1
			c-0.7,0-1.1,0.6-1.1,1.3v2.8h-1C11.2,14.1,11.2,9.3,11.2,9.3z"/>
		<path class="st0" d="M20.9,14.1h-1v-0.6h0c-0.3,0.5-0.9,0.8-1.5,0.8c-1.5,0-2.2-1.1-2.2-2.5c0-1.7,1-2.5,2-2.5
			c0.6,0,1.3,0.2,1.6,0.7h0V7.5h1L20.9,14.1L20.9,14.1z M18.6,13.4c0.9,0,1.3-0.9,1.3-1.7c0-1-0.5-1.7-1.3-1.7c-1,0-1.3,0.9-1.3,1.7
			C17.2,12.6,17.6,13.4,18.6,13.4z"/>
		<path class="st0" d="M22.8,12c0,0.7,0.4,1.4,1.3,1.4c0.6,0,1-0.3,1.2-0.8h1c-0.2,1-1.1,1.6-2.1,1.6c-1.5,0-2.3-1-2.3-2.5
			c0-1.4,0.9-2.5,2.3-2.5c1.5,0,2.4,1.4,2.2,2.8C26.3,12,22.8,12,22.8,12z M25.3,11.3c0-0.7-0.5-1.3-1.2-1.3c-0.7,0-1.2,0.6-1.3,1.3
			H25.3z"/>
		<path class="st0" d="M31.6,14.1h-1v-0.6h0c-0.3,0.5-0.9,0.8-1.5,0.8c-1.5,0-2.2-1.1-2.2-2.5c0-1.7,1-2.5,2-2.5
			c0.6,0,1.3,0.2,1.6,0.7h0V7.5h1L31.6,14.1L31.6,14.1z M29.3,13.4c0.9,0,1.3-0.9,1.3-1.7c0-1-0.5-1.7-1.3-1.7c-1,0-1.3,0.9-1.3,1.7
			C27.9,12.6,28.3,13.4,29.3,13.4z"/>
		<path class="st0" d="M35.3,7.5h1v2.4h0c0.3-0.4,0.9-0.7,1.4-0.7c1.5,0,2.2,1.1,2.2,2.5c0,1.3-0.6,2.5-2,2.5
			c-0.6,0-1.3-0.2-1.6-0.8h0v0.6h-1C35.3,14.1,35.3,7.5,35.3,7.5z M37.6,10c-0.9,0-1.3,0.7-1.3,1.7c0,0.9,0.5,1.7,1.3,1.7
			c1,0,1.3-0.8,1.3-1.7C39,10.8,38.5,10,37.6,10z"/>
		<path class="st0" d="M40.4,9.3h1.1l1.2,3.5h0L44,9.3H45l-1.8,5c-0.3,0.9-0.6,1.6-1.7,1.6c-0.3,0-0.5,0-0.7-0.1V15
			c0.2,0,0.3,0.1,0.5,0.1c0.5,0,0.6-0.3,0.7-0.7l0.1-0.4L40.4,9.3z"/>
		<path class="st0" d="M47.7,9.3h0.8V7.9h1v1.4h0.9v0.8h-0.9v2.5c0,0.4,0,0.6,0.5,0.6c0.1,0,0.3,0,0.4,0v0.8c-0.2,0-0.5,0.1-0.7,0.1
			c-1.1,0-1.3-0.4-1.3-1.2v-2.8h-0.8L47.7,9.3L47.7,9.3z"/>
		<path class="st0" d="M51.2,7.5h1v2.4h0c0.3-0.4,0.8-0.8,1.4-0.8c1,0,1.7,0.6,1.7,1.6v3.3h-1v-3c0-0.7-0.3-1.1-0.9-1.1
			c-0.7,0-1.1,0.6-1.1,1.3v2.8h-1V7.5z"/>
		<path class="st0" d="M57.3,12c0,0.7,0.4,1.4,1.3,1.4c0.6,0,1-0.3,1.2-0.8h1c-0.2,1-1.1,1.6-2.1,1.6c-1.5,0-2.3-1-2.3-2.5
			c0-1.4,0.9-2.5,2.3-2.5c1.5,0,2.4,1.4,2.2,2.8C60.8,12,57.3,12,57.3,12z M59.8,11.3c0-0.7-0.5-1.3-1.2-1.3c-0.7,0-1.2,0.6-1.3,1.3
			H59.8z"/>
		<path class="st0" d="M15.2,23.2h-0.7l-0.2-0.8c-0.6,0.7-1.2,0.9-2,0.9c-2,0-3.1-1.6-3.1-3.4s1.2-3.4,3.1-3.4
			c1.4,0,2.6,0.8,2.8,2.2H14c-0.1-0.9-0.9-1.3-1.7-1.3c-1.4,0-2,1.2-2,2.5c0,1.3,0.6,2.5,2,2.5c1.2,0,1.8-0.7,1.8-1.8h-1.7v-0.9h2.8
			C15.2,19.8,15.2,23.2,15.2,23.2z"/>
		<path class="st0" d="M16,20.9c0-1.5,0.9-2.5,2.4-2.5c1.5,0,2.4,1,2.4,2.5c0,1.5-0.9,2.5-2.4,2.5C16.9,23.4,16,22.3,16,20.9z
			 M19.8,20.9c0-0.8-0.4-1.7-1.4-1.7s-1.4,0.9-1.4,1.7c0,0.8,0.4,1.7,1.4,1.7C19.4,22.5,19.8,21.7,19.8,20.9z"/>
		<path class="st0" d="M21.2,18.5h1.1l1.2,3.6h0l1.2-3.6h1.1l-1.7,4.7h-1.2L21.2,18.5z"/>
		<path class="st0" d="M27.3,21.1c0,0.7,0.4,1.4,1.3,1.4c0.6,0,1-0.3,1.2-0.8h1c-0.2,1-1.1,1.6-2.1,1.6c-1.5,0-2.3-1-2.3-2.5
			c0-1.4,0.9-2.5,2.3-2.5c1.5,0,2.4,1.4,2.2,2.8L27.3,21.1L27.3,21.1z M29.7,20.4c0-0.7-0.5-1.3-1.2-1.3c-0.7,0-1.2,0.5-1.3,1.3
			H29.7z"/>
		<path class="st0" d="M31.5,18.5h1v0.9h0c0.1-0.5,0.7-1,1.4-1c0.2,0,0.3,0,0.4,0v1c-0.1,0-0.3,0-0.5,0c-0.7,0-1.3,0.6-1.3,1.6v2.3
			h-1V18.5z"/>
		<path class="st0" d="M34.9,18.5h1v0.7l0,0c0.3-0.5,0.9-0.8,1.5-0.8c1,0,1.7,0.5,1.7,1.6v3.3h-1v-3c0-0.7-0.3-1.1-0.9-1.1
			c-0.7,0-1.1,0.5-1.1,1.3v2.8h-1V18.5z"/>
		<path class="st0" d="M40.2,18.5h1v0.7h0c0.3-0.5,0.7-0.8,1.5-0.8c0.6,0,1.1,0.3,1.3,0.8c0.4-0.5,0.8-0.8,1.5-0.8
			c1,0,1.6,0.4,1.6,1.6v3.3h-1v-2.8c0-0.8,0-1.3-0.9-1.3c-0.7,0-1,0.5-1,1.3v2.8h-1v-3c0-0.6-0.2-1-0.8-1c-0.5,0-1,0.4-1,1.2v2.8h-1
			L40.2,18.5L40.2,18.5z"/>
		<path class="st0" d="M49,21.1c0,0.7,0.4,1.4,1.3,1.4c0.6,0,1-0.3,1.2-0.8h1c-0.2,1-1.1,1.6-2.1,1.6c-1.5,0-2.3-1-2.3-2.5
			c0-1.4,0.9-2.5,2.3-2.5c1.5,0,2.4,1.4,2.2,2.8L49,21.1L49,21.1z M51.4,20.4c0-0.7-0.5-1.3-1.2-1.3c-0.7,0-1.2,0.5-1.3,1.3H51.4z"
			/>
		<path class="st0" d="M53.3,18.5h1v0.7l0,0c0.3-0.5,0.9-0.8,1.5-0.8c1,0,1.7,0.5,1.7,1.6v3.3h-1v-3c0-0.7-0.3-1.1-0.9-1.1
			c-0.7,0-1.1,0.5-1.1,1.3v2.8h-1L53.3,18.5L53.3,18.5z"/>
		<path class="st0" d="M58.1,18.5h0.8v-1.4h1v1.4h0.9v0.8h-0.9v2.5c0,0.4,0,0.6,0.5,0.6c0.1,0,0.3,0,0.4,0v0.8
			c-0.2,0-0.5,0.1-0.7,0.1c-1.1,0-1.3-0.4-1.3-1.2v-2.8h-0.8L58.1,18.5L58.1,18.5z"/>
		<path class="st0" d="M17.7,30c0-1.5,0.9-2.5,2.4-2.5s2.4,1,2.4,2.5c0,1.5-0.9,2.5-2.4,2.5S17.7,31.5,17.7,30z M21.5,30
			c0-0.8-0.4-1.7-1.4-1.7s-1.4,0.9-1.4,1.7s0.4,1.7,1.4,1.7S21.5,30.9,21.5,30z"/>
		<path class="st0" d="M22.9,27.7h0.8v-0.4c0-1.2,0.6-1.4,1.3-1.4c0.3,0,0.6,0,0.7,0.1v0.8c-0.1,0-0.3-0.1-0.5-0.1
			c-0.3,0-0.5,0.1-0.5,0.5v0.5h0.9v0.8h-0.9v4h-1v-4h-0.8V27.7z"/>
		<path class="st0" d="M33.4,27.9c-0.2-0.8-0.7-1.3-1.6-1.3c-1.4,0-2,1.2-2,2.5c0,1.3,0.6,2.5,2,2.5c1,0,1.6-0.8,1.7-1.7h1.1
			c-0.1,1.6-1.2,2.6-2.8,2.6c-2,0-3.1-1.6-3.1-3.4s1.2-3.4,3.1-3.4c1.5,0,2.6,0.8,2.8,2.2L33.4,27.9L33.4,27.9z"/>
		<path class="st0" d="M39.4,31.3c0,0.3,0.1,0.4,0.3,0.4c0.1,0,0.1,0,0.3,0v0.7c-0.2,0.1-0.5,0.1-0.7,0.1c-0.4,0-0.7-0.2-0.8-0.6
			c-0.4,0.4-1.1,0.6-1.6,0.6c-0.9,0-1.6-0.5-1.6-1.4c0-1.2,0.9-1.4,1.8-1.5c0.8-0.1,1.4-0.1,1.4-0.7c0-0.5-0.6-0.6-1-0.6
			c-0.6,0-1,0.2-1,0.8h-1c0.1-1.2,1.1-1.6,2.2-1.6c0.9,0,1.9,0.4,1.9,1.4L39.4,31.3L39.4,31.3z M38.4,30c-0.3,0.2-0.8,0.2-1.3,0.3
			c-0.5,0.1-0.9,0.2-0.9,0.8c0,0.5,0.6,0.6,1,0.6c0.5,0,1.2-0.2,1.2-0.9V30z"/>
		<path class="st0" d="M40.5,27.7h1v0.7l0,0c0.3-0.5,0.9-0.8,1.5-0.8c1,0,1.7,0.5,1.7,1.6v3.3h-1v-3c0-0.7-0.3-1.1-0.9-1.1
			c-0.7,0-1.1,0.5-1.1,1.3v2.8h-1C40.5,32.4,40.5,27.7,40.5,27.7z"/>
		<path class="st0" d="M49.8,31.3c0,0.3,0.1,0.4,0.3,0.4c0.1,0,0.1,0,0.3,0v0.7c-0.2,0.1-0.5,0.1-0.7,0.1c-0.4,0-0.7-0.2-0.8-0.6
			c-0.4,0.4-1.1,0.6-1.6,0.6c-0.9,0-1.6-0.5-1.6-1.4c0-1.2,0.9-1.4,1.8-1.5c0.8-0.1,1.4-0.1,1.4-0.7c0-0.5-0.6-0.6-1-0.6
			c-0.6,0-1,0.2-1,0.8h-1c0.1-1.2,1.1-1.6,2.2-1.6c0.9,0,1.9,0.4,1.9,1.4L49.8,31.3L49.8,31.3L49.8,31.3z M48.7,30
			c-0.3,0.2-0.8,0.2-1.3,0.3s-0.9,0.2-0.9,0.8c0,0.5,0.6,0.6,1,0.6c0.5,0,1.2-0.2,1.2-0.9V30z"/>
		<path class="st0" d="M55.4,32.4h-1v-0.6h0c-0.3,0.5-0.9,0.8-1.5,0.8c-1.5,0-2.2-1.1-2.2-2.5c0-1.7,1-2.5,2-2.5
			c0.6,0,1.3,0.2,1.6,0.7h0v-2.4h1L55.4,32.4L55.4,32.4z M53,31.7c0.9,0,1.3-0.9,1.3-1.7c0-1-0.5-1.7-1.3-1.7c-1,0-1.3,0.9-1.3,1.7
			C51.7,30.9,52.1,31.7,53,31.7z"/>
		<path class="st0" d="M60.5,31.3c0,0.3,0.1,0.4,0.3,0.4c0.1,0,0.1,0,0.3,0v0.7c-0.2,0.1-0.5,0.1-0.7,0.1c-0.4,0-0.7-0.2-0.8-0.6
			c-0.4,0.4-1.1,0.6-1.6,0.6c-0.9,0-1.6-0.5-1.6-1.4c0-1.2,0.9-1.4,1.8-1.5c0.8-0.1,1.4-0.1,1.4-0.7c0-0.5-0.6-0.6-1-0.6
			c-0.6,0-1,0.2-1,0.8h-1c0.1-1.2,1.1-1.6,2.2-1.6c0.9,0,1.9,0.4,1.9,1.4L60.5,31.3L60.5,31.3L60.5,31.3z M59.4,30
			c-0.3,0.2-0.8,0.2-1.3,0.3s-0.9,0.2-0.9,0.8c0,0.5,0.6,0.6,1,0.6c0.5,0,1.2-0.2,1.2-0.9C59.4,30.8,59.4,30,59.4,30z"/>
	</g>
	<g>
		<g>
			<path class="st0" d="M242,10c0-0.2,0-0.7-0.6-0.7c-0.6,0-4.6,0.2-4.8,0.2c-0.3,0-0.5,0.3,0,0.3s2.6,0.2,2.6,3.7
				c0,0.2,0,13.5,0,11.4c0,4.2-1.6,5.8-3.4,5.8c-2.9,0-4.4-3.4-4.4-6.7c0-3.6,2-6.1,4.2-5.9c3,0.2,3.6,2.6,3.6,6.9l0-7.1
				c0,0.9,0,1-0.4,0.7c-0.3-0.3-1.8-1.2-3.7-1.2c-3.1,0-6.9,2.2-6.9,6.9c0,4.9,3.5,7.3,7.1,7.3c1.8,0,3-0.8,3.5-1.1
				c0.5-0.3,0.5-0.3,0.5,0.2c0.1,0.4,0,1,0.9,0.9c1-0.1,3.3-0.4,3.8-0.5c0.5-0.1,0.4-0.4-0.1-0.5c-0.3,0-1.9,0.2-1.9-4.8
				S242,10,242,10z"/>
		</g>
		<g>
			<path class="st0" d="M180.6,10.1c0.2,0.1,1,0.4,1.2-0.2c0.2-0.6,0.1-0.2,0.2-0.4c0.1-0.3,0.7-0.5,0.8,0.1
				c0.1,0.7,0.5,6.3,0.5,6.6c0,0.7-0.9,0.7-0.9,0.1c-0.1-0.9-1.8-6.6-6.6-6.5c-4.3,0.1-7.1,5-6.9,11.4c0.2,6,3,9.2,7.7,9.1
				c4.5-0.1,5.8-3.5,6.5-5.6c0.3-0.9,1.1-0.6,0.9,0.2c-0.8,3.5-3.5,6.5-8.3,6.6c-5.3,0.1-10.9-3.9-11.1-10.9
				c-0.2-7.2,5.6-11.4,11.2-11.5C178.2,9.1,179.7,9.9,180.6,10.1z"/>
		</g>
		<g>
			<rect x="243.8" y="9.4" class="st0" width="3.4" height="6.9"/>
		</g>
		<g>
			<path class="st0" d="M250.8,15.8c0,0,0-1.2,0-1.3c0-0.1,0.1-0.2,0.2-0.1c0.1,0,1.2,0.2,1.2,0.2s-0.1-0.2-0.1-0.4s0-0.2,0.1-0.2
				l1.2-1l-0.2-0.1c-0.1-0.1-0.1-0.1-0.1-0.2l0.2-0.7c0,0-0.5,0.1-0.6,0.1c-0.1,0-0.1,0-0.2-0.1l-0.2-0.4l-0.6,0.7
				c-0.1,0.1-0.2,0-0.2-0.1c0-0.1,0.3-1.5,0.3-1.5s-0.3,0.2-0.4,0.3s-0.2,0.1-0.2-0.1c-0.1-0.1-0.5-0.9-0.5-0.9l0,0
				c0,0-0.4,0.8-0.5,0.9c-0.1,0.1-0.1,0.1-0.2,0.1s-0.4-0.3-0.4-0.3s0.3,1.4,0.3,1.5c0,0.1-0.1,0.2-0.2,0.1l-0.6-0.7l-0.2,0.4
				c0,0.1-0.1,0.1-0.2,0.1c-0.1,0-0.6-0.1-0.6-0.1l0.2,0.7c0,0.1,0,0.2-0.1,0.2l-0.2,0.1l1.2,1c0,0,0.1,0.1,0.1,0.2
				s-0.1,0.4-0.1,0.4s1.1-0.2,1.2-0.2c0.1,0,0.2,0,0.2,0.1c0,0.1,0,1.3,0,1.3L250.8,15.8L250.8,15.8z"/>
		</g>
		<g>
			<rect x="254" y="9.4" class="st0" width="3.4" height="6.9"/>
		</g>
		<g>
			<path class="st0" d="M192,21.3c0,1.4-0.2,1.9-1.1,2.3c-0.8,0.4-3.1,0.7-3.4,0.8c-0.9,0.2-3.5,0.9-3.4,3.5
				c0.1,2.7,2.7,3.5,4.5,3.5c1.8,0,2.8-0.8,3.3-1.2c0.3-0.2,0.3-0.2,0.5,0.1c0.3,0.3,1.1,1.1,3.2,1.1c2.1,0,2.4-1,2.5-1.3
				c0.2-0.4-0.3-0.6-0.4-0.3c-0.3,0.6-0.8,0.8-1.1,0.8c-0.4,0-1.6-0.1-1.6-3.1c0,0,0-6.3,0-6.6c0-2-1.6-3.7-5.7-3.7
				c-4.4,0-4.5,2.2-4.5,2.7c0,0.6,0.3,1.3,1.4,1.3c1,0,1.2-1.1,1.4-1.5c0.2-0.4,0.2-1.8,2-1.8C191,18,192,19.4,192,21.3l0,5.7
				c0,2-1,3.6-2.6,3.6c-1.8,0-2.3-1.5-2.3-2.3c0-0.7,0.4-2.3,2.2-3.3c0,0,0.8-0.5,2.5-1.2c0.2,0,0.2,0,0.2,0.3L192,21.3L192,21.3z"
				/>
		</g>
		<g>
			<path class="st0" d="M222.5,21.3c0,1.4-0.2,1.9-1.1,2.3c-0.8,0.4-3.1,0.7-3.4,0.8c-0.9,0.2-3.5,0.9-3.4,3.5
				c0.1,2.7,2.7,3.5,4.5,3.5c1.8,0,2.8-0.8,3.3-1.2c0.3-0.2,0.3-0.2,0.5,0.1c0.3,0.3,1.1,1.1,3.2,1.1c2.1,0,2.4-1,2.5-1.3
				c0.2-0.4-0.3-0.6-0.4-0.3c-0.3,0.6-0.8,0.8-1.1,0.8c-0.4,0-1.6-0.1-1.6-3.1c0,0,0-6.3,0-6.6c0-2-1.6-3.7-5.7-3.7
				c-4.4,0-4.5,2.2-4.5,2.7c0,0.6,0.3,1.3,1.4,1.3c1,0,1.2-1.1,1.4-1.5c0.2-0.4,0.2-1.8,2-1.8C221.5,18,222.5,19.4,222.5,21.3l0,5.7
				c0,2-1,3.6-2.6,3.6c-1.8,0-2.3-1.5-2.3-2.3c0-0.7,0.4-2.3,2.2-3.3c0,0,0.8-0.5,2.5-1.2c0.2,0,0.2,0,0.2,0.3L222.5,21.3z"/>
		</g>
		<g>
			<path class="st0" d="M252.6,21.3c0,1.4-0.2,1.9-1.1,2.3c-0.8,0.4-3.1,0.7-3.4,0.8c-0.9,0.2-3.5,0.9-3.4,3.5
				c0.1,2.7,2.7,3.5,4.5,3.5c1.8,0,2.8-0.8,3.3-1.2c0.3-0.2,0.3-0.2,0.5,0.1c0.3,0.3,1.1,1.1,3.2,1.1c2.1,0,2.4-1,2.5-1.3
				c0.2-0.4-0.3-0.6-0.4-0.3c-0.3,0.6-0.8,0.8-1.1,0.8c-0.4,0-1.6-0.1-1.6-3.1c0,0,0-6.3,0-6.6c0-2-1.6-3.7-5.7-3.7
				c-4.4,0-4.5,2.2-4.5,2.7c0,0.6,0.3,1.3,1.4,1.3c1,0,1.2-1.1,1.4-1.5c0.2-0.4,0.2-1.8,2-1.8C251.6,18,252.6,19.4,252.6,21.3l0,5.7
				c0,2-1,3.6-2.6,3.6c-1.8,0-2.3-1.5-2.3-2.3c0-0.7,0.4-2.3,2.2-3.3c0,0,0.8-0.5,2.5-1.2c0.2,0,0.2,0,0.2,0.3L252.6,21.3z"/>
		</g>
		<g>
			<path class="st0" d="M209.2,27.9c0,2.3-0.7,3-1.4,3.2c-0.7,0.1-0.6,0.5-0.2,0.5c0.2,0,6.1,0,6.1,0c0.5,0,0.8-0.3,0-0.5
				c-0.5-0.1-1.4-0.7-1.4-3.6l0-5.3c0-1.3,0.1-4.5-4.8-4.5c-2.5,0-4,1.3-4.2,1.4c-0.2,0.2-0.3,0.3-0.4-0.1c-0.1-0.3-0.2-0.7-0.3-0.9
				s-0.2-0.4-0.7-0.3c-0.5,0.1-3.4,0.5-3.9,0.6s-0.3,0.3,0,0.4c0.3,0.1,1.9,0.2,1.9,2.9c0,2.7,0,5.6,0,5.6c0,3.3-0.7,3.6-1.3,3.7
				c-0.8,0.2-0.4,0.5,0,0.5c0,0,5.8,0,6,0c0.4,0,0.6-0.4-0.2-0.5c-0.8-0.1-1.5-0.6-1.5-3.1c0-0.3,0-3.1,0-3.6c0-1.4-0.3-5.6,3.5-5.6
				c2.7-0.1,2.9,2.1,3,3.6L209.2,27.9z"/>
		</g>
	</g>
</g>
</svg>
