<?xml version="1.0" encoding="utf-8"?>
<!-- Generator: Adobe Illustrator 21.0.0, SVG Export Plug-In . SVG Version: 6.00 Build 0)  -->
<svg version="1.1" id="Layer_1" xmlns="http://www.w3.org/2000/svg" xmlns:xlink="http://www.w3.org/1999/xlink" x="0px" y="0px"
	 width="50px" height="40px" viewBox="0 0 50 40" style="enable-background:new 0 0 50 40;" xml:space="preserve">
<style type="text/css">
	.st0{fill:#00AEEF;}
	.st1{fill:#FFFFFF;}
</style>
<g>
	<path class="st0" d="M43.5,32.6H12.1C6,32.6,1,27.6,1,21.5V0.6h42.5c3.1,0,5.5,2.5,5.5,5.5v20.9C49,30.1,46.5,32.6,43.5,32.6z"/>
	<path class="st1" d="M24.1,4.8v18.7c0,0.8,0.1,1.4,0.2,1.7s0.4,0.5,0.8,0.5c0.2,0,0.4,0,0.6-0.1s0.5-0.1,0.8-0.2l0.4,3.3
		c-0.3,0.2-0.8,0.4-1.4,0.5c-0.7,0.2-1.4,0.2-2,0.2c-1.2,0-2-0.3-2.6-0.9c-0.6-0.6-0.9-1.6-0.9-3V4.8H24.1"/>
	<path class="st1" d="M39.8,4.6c0.8,0,1.5,0.2,2,0.7s0.7,1,0.7,1.7s-0.2,1.3-0.7,1.7c-0.5,0.4-1.1,0.6-2,0.6s-1.4-0.2-1.9-0.6
		c-0.4-0.4-0.7-1-0.7-1.7s0.2-1.3,0.7-1.7C38.3,4.8,39,4.6,39.8,4.6"/>
	<polyline class="st1" points="41.8,11.9 41.8,29.3 37.7,29.3 37.7,11.9 41.8,11.9 	"/>
	<path class="st0" d="M31.5,2.7c-1.7,0-2.7,0.7-3.2,1.3c-0.8,0.8-1.2,1.9-1.2,3c0,1.2,0.4,2.2,1.2,3h-0.7v1.9v16.9
		c0,1-0.1,1.6-0.2,1.9c0,0-0.1,0-0.2,0l-2.1-0.2v2.1v3.7v1.5l1.5,0.3c0.8,0.2,1.6,0.3,2.4,0.3c2.8,0,4.3-1.4,5.1-2.5
		c1-1.4,1.4-3.4,1.4-5.9V11.9V10h-0.7c0.8-0.8,1.3-1.8,1.3-3c0-1.3-0.5-2.3-1.3-3.1C33.9,3.1,32.8,2.7,31.5,2.7L31.5,2.7z"/>
	<path class="st1" d="M31.5,4.6c0.8,0,1.5,0.2,2,0.7s0.7,1,0.7,1.7S34,8.3,33.5,8.7c-0.5,0.4-1.1,0.6-2,0.6s-1.4-0.2-1.9-0.6
		S29,7.7,29,7s0.2-1.3,0.7-1.7C30.1,4.8,30.7,4.6,31.5,4.6"/>
	<path class="st1" d="M33.6,11.9V30c0,2.1-0.4,3.7-1.1,4.8c-0.7,1.1-1.9,1.7-3.5,1.7c-0.6,0-1.3-0.1-2-0.2v-3.7c0.1,0,0.2,0,0.4,0
		c0.8,0,1.3-0.3,1.6-0.9c0.3-0.7,0.5-1.6,0.5-2.9V11.9H33.6"/>
</g>
</svg>
