<?xml version="1.0" encoding="utf-8"?>
<!-- Generator: Adobe Illustrator 21.0.0, SVG Export Plug-In . SVG Version: 6.00 Build 0)  -->
<svg version="1.1" id="Layer_1" xmlns="http://www.w3.org/2000/svg" xmlns:xlink="http://www.w3.org/1999/xlink" x="0px" y="0px"
	 width="342.5px" height="40px" viewBox="0 0 342.5 40" style="enable-background:new 0 0 342.5 40;" xml:space="preserve">
<style type="text/css">
	.st0{fill:#FFFFFF;}
</style>
<g>
	<polygon class="st0" points="173.3,19.8 170.3,19.8 170.3,18.2 178,18.2 178,19.8 175.1,19.8 175.1,27.3 173.3,27.3 	"/>
	<polygon class="st0" points="179.6,18.2 181.4,18.2 181.4,21.7 185.5,21.7 185.5,18.2 187.3,18.2 187.3,27.3 185.5,27.3 
		185.5,23.4 181.4,23.4 181.4,27.3 179.6,27.3 	"/>
	<polygon class="st0" points="189.5,18.2 195.5,18.2 195.5,19.8 191.3,19.8 191.3,21.8 194.6,21.8 194.6,23.4 191.3,23.4 
		191.3,25.7 195.5,25.7 195.5,27.3 189.5,27.3 	"/>
	<path class="st0" d="M200.3,22.7c0-3.9,1.6-4.7,4.1-4.7c1.5,0,2.2,0.2,2.6,0.3l-0.3,1.6c-0.7-0.1-1.3-0.2-2.3-0.2
		c-1.6,0-2.1,0.6-2.1,2.7v0.7c0,2,0.6,2.8,2.2,2.8c1.2,0,2-0.2,2.3-0.3l0.3,1.5c-0.5,0.1-1.2,0.3-2.6,0.3
		C201.8,27.4,200.3,26.7,200.3,22.7"/>
	<path class="st0" d="M209.9,27.3h-1.8l3.5-9.1h1.7l3.5,9.1h-1.9l-0.6-1.6h-3.8L209.9,27.3z M212.4,20.6l-1.3,3.6h2.7L212.4,20.6z"
		/>
	<polygon class="st0" points="218.1,18.2 219.9,18.2 223.9,24 223.9,18.2 225.6,18.2 225.6,27.3 224.1,27.3 219.8,21.1 219.8,27.3 
		218.1,27.3 	"/>
	<path class="st0" d="M228.7,27.3h-1.8l3.5-9.1h1.7l3.5,9.1h-1.9l-0.6-1.6h-3.8L228.7,27.3z M231.2,20.6l-1.3,3.6h2.7L231.2,20.6z"
		/>
	<path class="st0" d="M236.9,18.2h3.4c2.7,0,4.1,0.6,4.1,4.5c0,3.9-1.4,4.5-4.1,4.5h-3.4V18.2z M240.2,25.8c1.6,0,2.2-0.7,2.2-2.8
		v-0.6c0-2.1-0.6-2.8-2.2-2.8h-1.6v6.1L240.2,25.8L240.2,25.8z"/>
	<rect x="246" y="18.2" class="st0" width="1.8" height="9.1"/>
	<path class="st0" d="M251,27.3h-1.8l3.5-9.1h1.7l3.5,9.1H256l-0.6-1.6h-3.8L251,27.3z M253.5,20.6l-1.3,3.6h2.7L253.5,20.6z"/>
	<polygon class="st0" points="259.1,18.2 260.9,18.2 264.9,24 264.9,18.2 266.6,18.2 266.6,27.3 265.1,27.3 260.9,21.1 260.9,27.3 
		259.1,27.3 	"/>
	<path class="st0" d="M272.1,18.2h3.7c2.2,0,3.3,0.6,3.3,3.1c0,2.6-1.1,3.2-3.4,3.2h-1.9v2.8h-1.8L272.1,18.2L272.1,18.2z M275.8,23
		c0.8,0,1.5-0.1,1.5-1.7s-0.7-1.7-1.6-1.7h-1.9V23H275.8z"/>
	<path class="st0" d="M288.5,27.3h-2.1l-2-2.9h-1.7v2.9h-1.8v-9.1h3.6c2.2,0,3.3,0.5,3.3,3.1c0,1.8-0.6,2.4-1.6,2.7L288.5,27.3z
		 M284.5,22.9c1,0,1.5-0.2,1.5-1.6c0-1.4-0.6-1.6-1.6-1.6h-1.8v3.2H284.5z"/>
	<polygon class="st0" points="290.1,18.2 296.1,18.2 296.1,19.8 291.9,19.8 291.9,21.8 295.2,21.8 295.2,23.4 291.9,23.4 
		291.9,25.7 296.1,25.7 296.1,27.3 290.1,27.3 	"/>
	<path class="st0" d="M297.8,27l0.3-1.5c0.4,0.1,2,0.3,2.9,0.3c1.3,0,1.7-0.2,1.7-1.1c0-0.8-0.3-0.9-1.8-1.2
		c-2.5-0.5-3.1-0.9-3.1-2.8c0-1.9,1.2-2.5,3.3-2.5c1.1,0,2.6,0.2,3,0.3l-0.3,1.5c-0.6-0.1-1.7-0.3-2.8-0.3c-1.1,0-1.4,0.2-1.4,1
		c0,0.9,0.3,0.9,1.7,1.2c2.4,0.5,3.1,0.8,3.1,2.8c0,2-1.1,2.6-3.6,2.6C299.6,27.4,298.2,27.1,297.8,27"/>
	<path class="st0" d="M306,27l0.3-1.5c0.4,0.1,2,0.3,2.9,0.3c1.3,0,1.7-0.2,1.7-1.1c0-0.8-0.3-0.9-1.8-1.2c-2.5-0.5-3.1-0.9-3.1-2.8
		c0-1.9,1.2-2.5,3.3-2.5c1.1,0,2.6,0.2,3,0.3l-0.3,1.5c-0.6-0.1-1.7-0.3-2.8-0.3c-1.1,0-1.4,0.2-1.4,1c0,0.9,0.3,0.9,1.7,1.2
		c2.4,0.5,3.1,0.8,3.1,2.8c0,2-1.1,2.6-3.6,2.6C307.8,27.4,306.4,27.1,306,27"/>
	<path class="st0" d="M317.5,17.7V11h4.7v7.2h-2.7c0.3,1.8,2.7,2.5,2.7,2.5v1C322.2,21.7,318.1,20.9,317.5,17.7"/>
	<path class="st0" d="M339.8,17.7V11h-4.7v7.2h2.7c-0.3,1.8-2.7,2.5-2.7,2.5v1C335.2,21.7,339.3,20.9,339.8,17.7"/>
	<g>
		<g>
			<g>
				<path class="st0" d="M330.6,18.3C330.6,18.3,330.6,18.2,330.6,18.3C330.6,18.2,330.6,18.2,330.6,18.3l2.4-1.8l-0.5-0.5
					c0,0,0,0,0,0c0,0,0,0,0,0l0,0l0.4-1.2l-1.2,0.3c0,0,0,0,0,0c0,0,0,0,0,0l0,0l-0.4-0.6l-1.2,1.2c0,0,0,0-0.1,0c0,0,0,0,0-0.1
					l0.5-2.6l-0.8,0.5c0,0,0,0-0.1,0s0,0,0,0l0,0l-0.9-1.9l-0.9,1.9c0,0,0,0,0,0c0,0,0,0-0.1,0l-0.8-0.5l0.5,2.6c0,0,0,0.1,0,0.1
					c0,0-0.1,0-0.1,0l-1.2-1.2l-0.4,0.6l0,0c0,0,0,0,0,0c0,0,0,0,0,0l-1.2-0.3l0.5,1.2l0,0c0,0,0,0,0,0c0,0,0,0,0,0l-0.5,0.5
					l2.4,1.8c0,0,0,0,0,0c0,0,0,0,0,0l0,0l-0.5,0.9l2.1-0.3c0,0,0.1,0,0.1,0.1v1.8h0.5v-1.8c0-0.1,0-0.1,0.1-0.1l2.1,0.3L330.6,18.3
					L330.6,18.3z"/>
			</g>
		</g>
	</g>
</g>
<g>
	<g>
		<g>
			<rect x="64.9" y="9.3" class="st0" width="0.7" height="23.8"/>
		</g>
	</g>
	<g>
		<path class="st0" d="M5.8,11h3.6v0.8H6.7v1.4H9v0.7H6.7v2.3H5.8L5.8,11L5.8,11z"/>
		<path class="st0" d="M13.3,16.2h-0.8v-0.5h0c-0.2,0.4-0.7,0.6-1.1,0.6c-1,0-1.4-0.5-1.4-1.5v-2.4h0.8v2.3c0,0.7,0.3,0.9,0.7,0.9
			c0.7,0,0.9-0.4,0.9-1v-2.2h0.8L13.3,16.2L13.3,16.2z"/>
		<path class="st0" d="M14.2,12.5H15V13l0,0c0.3-0.4,0.7-0.7,1.2-0.7c0.8,0,1.3,0.4,1.3,1.3v2.6h-0.8v-2.4c0-0.6-0.3-0.8-0.7-0.8
			c-0.5,0-0.9,0.4-0.9,1v2.2h-0.8L14.2,12.5L14.2,12.5z"/>
		<path class="st0" d="M21.9,16.2h-0.8v-0.5h0c-0.2,0.4-0.7,0.6-1.2,0.6c-1.2,0-1.8-0.9-1.8-2c0-1.4,0.8-2,1.6-2
			c0.5,0,1,0.2,1.2,0.6h0V11h0.8L21.9,16.2L21.9,16.2z M20,15.7c0.7,0,1.1-0.7,1.1-1.3c0-0.8-0.4-1.3-1-1.3c-0.8,0-1.1,0.7-1.1,1.4
			C19,15,19.3,15.7,20,15.7z"/>
		<path class="st0" d="M23.4,14.6c0,0.6,0.3,1.1,1,1.1c0.5,0,0.8-0.2,0.9-0.6h0.8c-0.2,0.8-0.9,1.3-1.7,1.3c-1.2,0-1.8-0.8-1.8-2
			c0-1.1,0.7-2,1.8-2c1.2,0,1.9,1.1,1.8,2.2C26.2,14.6,23.4,14.6,23.4,14.6z M25.4,14c0-0.5-0.4-1-0.9-1c-0.6,0-1,0.4-1,1H25.4z"/>
		<path class="st0" d="M30.4,16.2h-0.8v-0.5h0c-0.2,0.4-0.7,0.6-1.2,0.6c-1.2,0-1.8-0.9-1.8-2c0-1.4,0.8-2,1.6-2
			c0.5,0,1,0.2,1.2,0.6h0V11h0.8L30.4,16.2L30.4,16.2z M28.5,15.7c0.7,0,1.1-0.7,1.1-1.3c0-0.8-0.4-1.3-1-1.3
			c-0.8,0-1.1,0.7-1.1,1.4C27.5,15,27.8,15.7,28.5,15.7z"/>
		<path class="st0" d="M33.3,11h0.8V13h0c0.2-0.4,0.7-0.6,1.1-0.6c1.2,0,1.8,0.9,1.8,2c0,1-0.5,2-1.6,2c-0.5,0-1.1-0.1-1.3-0.6h0
			v0.5h-0.8L33.3,11L33.3,11z M35.1,13c-0.7,0-1.1,0.5-1.1,1.3c0,0.7,0.4,1.3,1.1,1.3c0.7,0,1-0.7,1-1.3C36.2,13.7,35.8,13,35.1,13z
			"/>
		<path class="st0" d="M37.3,12.5h0.9l1,2.8h0l0.9-2.8H41l-1.5,4c-0.3,0.7-0.5,1.3-1.3,1.3c-0.2,0-0.4,0-0.6,0V17
			c0.1,0,0.3,0.1,0.4,0.1c0.4,0,0.5-0.2,0.6-0.5l0.1-0.3L37.3,12.5z"/>
		<path class="st0" d="M43.1,12.5h0.6v-1.1h0.8v1.1h0.7v0.6h-0.7v2c0,0.3,0,0.5,0.4,0.5c0.1,0,0.2,0,0.3,0v0.6c-0.2,0-0.4,0-0.5,0
			c-0.9,0-1-0.3-1-1v-2.2h-0.6V12.5z"/>
		<path class="st0" d="M45.9,11h0.8V13h0c0.2-0.3,0.6-0.6,1.1-0.6c0.8,0,1.3,0.4,1.3,1.3v2.6h-0.8v-2.4c0-0.6-0.3-0.8-0.7-0.8
			c-0.5,0-0.9,0.4-0.9,1v2.2H46L45.9,11L45.9,11z"/>
		<path class="st0" d="M50.8,14.6c0,0.6,0.3,1.1,1,1.1c0.5,0,0.8-0.2,0.9-0.6h0.8c-0.2,0.8-0.9,1.3-1.7,1.3c-1.2,0-1.8-0.8-1.8-2
			c0-1.1,0.7-2,1.8-2c1.2,0,1.9,1.1,1.8,2.2C53.5,14.6,50.8,14.6,50.8,14.6z M52.7,14c0-0.5-0.4-1-0.9-1c-0.6,0-1,0.4-1,1H52.7z"/>
		<path class="st0" d="M17.3,23.5h-0.6l-0.1-0.6c-0.5,0.5-0.9,0.7-1.6,0.7c-1.6,0-2.5-1.2-2.5-2.7c0-1.5,0.9-2.7,2.5-2.7
			c1.1,0,2.1,0.6,2.2,1.8h-0.9c-0.1-0.7-0.7-1-1.3-1c-1.1,0-1.6,1-1.6,2c0,1,0.5,2,1.6,2c0.9,0,1.4-0.5,1.5-1.4h-1.4v-0.7h2.2
			L17.3,23.5L17.3,23.5z"/>
		<path class="st0" d="M18,21.6c0-1.2,0.7-2,1.9-2s1.9,0.8,1.9,2c0,1.2-0.7,2-1.9,2S18,22.8,18,21.6z M21,21.6
			c0-0.6-0.3-1.3-1.1-1.3c-0.7,0-1.1,0.7-1.1,1.3c0,0.7,0.3,1.3,1.1,1.3C20.7,23,21,22.3,21,21.6z"/>
		<path class="st0" d="M22.1,19.7H23l0.9,2.9h0l0.9-2.9h0.9l-1.4,3.8h-0.9L22.1,19.7z"/>
		<path class="st0" d="M26.9,21.8c0,0.6,0.3,1.1,1,1.1c0.5,0,0.8-0.2,0.9-0.6h0.8c-0.2,0.8-0.9,1.3-1.7,1.3c-1.2,0-1.8-0.8-1.8-2
			c0-1.1,0.7-2,1.8-2c1.2,0,1.9,1.1,1.8,2.2C29.7,21.8,26.9,21.8,26.9,21.8z M28.9,21.3c0-0.5-0.4-1-0.9-1c-0.6,0-1,0.4-1,1H28.9z"
			/>
		<path class="st0" d="M30.3,19.7h0.8v0.7h0c0.1-0.4,0.6-0.8,1.1-0.8c0.2,0,0.2,0,0.3,0v0.8c-0.1,0-0.2,0-0.4,0c-0.6,0-1,0.5-1,1.3
			v1.8h-0.8V19.7z"/>
		<path class="st0" d="M33,19.7h0.8v0.5l0,0c0.3-0.4,0.7-0.7,1.2-0.7c0.8,0,1.3,0.4,1.3,1.3v2.6h-0.8v-2.4c0-0.6-0.3-0.8-0.7-0.8
			c-0.5,0-0.9,0.4-0.9,1v2.2H33L33,19.7L33,19.7z"/>
		<path class="st0" d="M37.2,19.7H38v0.5h0c0.3-0.4,0.6-0.6,1.2-0.6c0.5,0,0.9,0.2,1.1,0.6c0.3-0.4,0.6-0.6,1.2-0.6
			c0.8,0,1.3,0.3,1.3,1.3v2.6h-0.8v-2.2c0-0.6,0-1-0.7-1c-0.6,0-0.8,0.4-0.8,1v2.2h-0.8v-2.4c0-0.5-0.2-0.8-0.7-0.8
			c-0.4,0-0.8,0.3-0.8,1v2.2h-0.8L37.2,19.7L37.2,19.7z"/>
		<path class="st0" d="M44.2,21.8c0,0.6,0.3,1.1,1,1.1c0.5,0,0.8-0.2,0.9-0.6h0.8c-0.2,0.8-0.9,1.3-1.7,1.3c-1.2,0-1.8-0.8-1.8-2
			c0-1.1,0.7-2,1.8-2c1.2,0,1.9,1.1,1.8,2.2C46.9,21.8,44.2,21.8,44.2,21.8z M46.1,21.3c0-0.5-0.4-1-0.9-1c-0.6,0-1,0.4-1,1H46.1z"
			/>
		<path class="st0" d="M47.6,19.7h0.8v0.5l0,0c0.3-0.4,0.7-0.7,1.2-0.7c0.8,0,1.3,0.4,1.3,1.3v2.6H50v-2.4c0-0.6-0.3-0.8-0.7-0.8
			c-0.5,0-0.9,0.4-0.9,1v2.2h-0.8L47.6,19.7L47.6,19.7z"/>
		<path class="st0" d="M51.3,19.7H52v-1.1h0.8v1.1h0.7v0.6h-0.7v2c0,0.3,0,0.5,0.4,0.5c0.1,0,0.2,0,0.3,0v0.6c-0.2,0-0.4,0-0.5,0
			c-0.9,0-1-0.3-1-1v-2.2h-0.6L51.3,19.7L51.3,19.7z"/>
		<path class="st0" d="M19.4,28.9c0-1.2,0.7-2,1.9-2c1.2,0,1.9,0.8,1.9,2s-0.7,2-1.9,2C20,30.9,19.4,30,19.4,28.9z M22.3,28.9
			c0-0.6-0.3-1.3-1.1-1.3s-1.1,0.7-1.1,1.3c0,0.7,0.3,1.3,1.1,1.3S22.3,29.5,22.3,28.9z"/>
		<path class="st0" d="M23.5,27h0.6v-0.3c0-1,0.5-1.1,1-1.1c0.3,0,0.5,0,0.6,0.1v0.6c-0.1,0-0.2,0-0.4,0c-0.2,0-0.4,0.1-0.4,0.4V27
			h0.7v0.6h-0.7v3.1h-0.8v-3.1h-0.6L23.5,27L23.5,27z"/>
		<path class="st0" d="M31.8,27.2c-0.1-0.6-0.5-1-1.3-1c-1.1,0-1.6,1-1.6,2c0,1,0.5,2,1.6,2c0.8,0,1.2-0.6,1.3-1.4h0.9
			c-0.1,1.2-0.9,2.1-2.2,2.1c-1.6,0-2.5-1.2-2.5-2.7s0.9-2.7,2.5-2.7c1.2,0,2.1,0.7,2.2,1.8L31.8,27.2L31.8,27.2z"/>
		<path class="st0" d="M36.6,29.9c0,0.2,0,0.3,0.2,0.3c0.1,0,0.1,0,0.2,0v0.6c-0.1,0-0.4,0.1-0.5,0.1c-0.3,0-0.6-0.1-0.6-0.5
			c-0.3,0.3-0.9,0.5-1.3,0.5c-0.7,0-1.3-0.4-1.3-1.1c0-0.9,0.7-1.1,1.4-1.2c0.6-0.1,1.1,0,1.1-0.5c0-0.4-0.4-0.5-0.8-0.5
			c-0.5,0-0.8,0.2-0.8,0.6h-0.8c0.1-1,0.9-1.2,1.7-1.2c0.7,0,1.5,0.3,1.5,1.1L36.6,29.9L36.6,29.9z M35.7,28.9
			c-0.3,0.2-0.7,0.2-1,0.2c-0.4,0.1-0.7,0.2-0.7,0.6c0,0.4,0.5,0.5,0.8,0.5c0.4,0,0.9-0.2,0.9-0.7V28.9z"/>
		<path class="st0" d="M37.4,27h0.8v0.5l0,0c0.3-0.4,0.7-0.7,1.2-0.7c0.8,0,1.3,0.4,1.3,1.3v2.6h-0.8v-2.4c0-0.6-0.3-0.8-0.7-0.8
			c-0.5,0-0.9,0.4-0.9,1v2.2h-0.8L37.4,27L37.4,27z"/>
		<path class="st0" d="M44.8,29.9c0,0.2,0,0.3,0.2,0.3c0.1,0,0.1,0,0.2,0v0.6c-0.1,0-0.4,0.1-0.5,0.1c-0.3,0-0.6-0.1-0.6-0.5
			c-0.3,0.3-0.9,0.5-1.3,0.5c-0.7,0-1.3-0.4-1.3-1.1c0-0.9,0.7-1.1,1.4-1.2c0.6-0.1,1.1,0,1.1-0.5c0-0.4-0.4-0.5-0.8-0.5
			c-0.5,0-0.8,0.2-0.8,0.6h-0.8c0.1-1,0.9-1.2,1.7-1.2c0.7,0,1.5,0.3,1.5,1.1L44.8,29.9L44.8,29.9z M43.9,28.9
			c-0.3,0.2-0.7,0.2-1,0.2c-0.4,0.1-0.7,0.2-0.7,0.6c0,0.4,0.5,0.5,0.8,0.5c0.4,0,0.9-0.2,0.9-0.7V28.9z"/>
		<path class="st0" d="M49.2,30.8h-0.8v-0.5h0c-0.2,0.4-0.7,0.6-1.2,0.6c-1.2,0-1.8-0.9-1.8-2c0-1.4,0.8-2,1.6-2
			c0.5,0,1,0.2,1.2,0.6h0v-1.9h0.8L49.2,30.8L49.2,30.8z M47.3,30.2c0.7,0,1.1-0.7,1.1-1.3c0-0.8-0.4-1.3-1-1.3
			c-0.8,0-1.1,0.7-1.1,1.4C46.3,29.6,46.6,30.2,47.3,30.2z"/>
		<path class="st0" d="M53.3,29.9c0,0.2,0,0.3,0.2,0.3c0.1,0,0.1,0,0.2,0v0.6c-0.1,0-0.4,0.1-0.5,0.1c-0.3,0-0.6-0.1-0.6-0.5
			c-0.3,0.3-0.9,0.5-1.3,0.5c-0.7,0-1.3-0.4-1.3-1.1c0-0.9,0.7-1.1,1.4-1.2c0.6-0.1,1.1,0,1.1-0.5c0-0.4-0.4-0.5-0.8-0.5
			c-0.5,0-0.8,0.2-0.8,0.6h-0.8c0.1-1,0.9-1.2,1.7-1.2c0.7,0,1.5,0.3,1.5,1.1L53.3,29.9L53.3,29.9z M52.4,28.9
			c-0.3,0.2-0.7,0.2-1,0.2c-0.4,0.1-0.7,0.2-0.7,0.6c0,0.4,0.5,0.5,0.8,0.5c0.4,0,0.9-0.2,0.9-0.7V28.9z"/>
	</g>
	<g>
		<g>
			<path class="st0" d="M137.9,13c0-0.2,0-0.6-0.5-0.5c-0.5,0-3.6,0.2-3.8,0.2c-0.2,0-0.4,0.2,0,0.3c0.4,0,2.1,0.2,2.1,2.9
				c0,0.2,0,10.7,0,9.1c0,3.4-1.3,4.6-2.7,4.6c-2.3,0-3.5-2.7-3.5-5.3c0-2.9,1.6-4.8,3.3-4.7c2.3,0.1,2.8,2.1,2.8,5.5l0-5.7
				c0,0.7,0,0.8-0.3,0.5c-0.3-0.2-1.5-0.9-3-0.9c-2.5,0-5.5,1.8-5.5,5.4c0,3.9,2.8,5.8,5.6,5.8c1.4,0,2.4-0.6,2.7-0.8
				c0.4-0.2,0.4-0.2,0.4,0.1c0.1,0.3,0,0.8,0.7,0.7c0.8-0.1,2.6-0.3,3-0.4c0.4-0.1,0.3-0.3-0.1-0.4c-0.2,0-1.5,0.1-1.5-3.8
				S137.9,13,137.9,13z"/>
		</g>
		<g>
			<path class="st0" d="M89.2,13.1c0.2,0.1,0.8,0.3,1-0.1c0.2-0.5,0.1-0.1,0.1-0.3c0.1-0.2,0.5-0.4,0.6,0.1c0.1,0.5,0.4,5,0.4,5.3
				c0,0.5-0.7,0.6-0.7,0.1c-0.1-0.7-1.4-5.3-5.2-5.2c-3.4,0.1-5.6,4-5.5,9c0.1,4.7,2.4,7.3,6.1,7.2c3.6-0.1,4.6-2.8,5.1-4.5
				c0.2-0.7,0.9-0.5,0.7,0.1c-0.7,2.8-2.8,5.1-6.6,5.2c-4.2,0.1-8.7-3.1-8.8-8.6c-0.1-5.7,4.4-9.1,8.9-9.1
				C87.3,12.2,88.5,12.9,89.2,13.1z"/>
		</g>
		<g>
			<rect x="139.3" y="12.5" class="st0" width="2.7" height="5.4"/>
		</g>
		<g>
			<path class="st0" d="M144.9,17.6c0,0,0-0.9,0-1s0.1-0.1,0.2-0.1c0.1,0,0.9,0.2,0.9,0.2s-0.1-0.2-0.1-0.3c0-0.1,0-0.2,0.1-0.2
				l0.9-0.8l-0.1-0.1c-0.1,0-0.1-0.1-0.1-0.2l0.2-0.6c0,0-0.4,0.1-0.5,0.1c-0.1,0-0.1,0-0.1-0.1l-0.1-0.3l-0.5,0.5
				c-0.1,0.1-0.2,0-0.2-0.1c0-0.1,0.3-1.2,0.3-1.2s-0.3,0.1-0.3,0.2c-0.1,0.1-0.1,0-0.2,0c-0.1-0.1-0.4-0.7-0.4-0.7l0,0
				c0,0-0.3,0.6-0.4,0.7c-0.1,0.1-0.1,0.1-0.2,0c-0.1-0.1-0.3-0.2-0.3-0.2s0.2,1.1,0.3,1.2c0,0.1-0.1,0.2-0.2,0.1l-0.5-0.5l-0.1,0.3
				c0,0.1-0.1,0.1-0.1,0.1c-0.1,0-0.5-0.1-0.5-0.1l0.2,0.6c0,0.1,0,0.1-0.1,0.2l-0.1,0.1l0.9,0.8c0,0,0.1,0.1,0.1,0.2
				c-0.1,0.1-0.1,0.3-0.1,0.3s0.9-0.2,0.9-0.2c0.1,0,0.2,0,0.2,0.1s0,1,0,1H144.9z"/>
		</g>
		<g>
			<rect x="147.5" y="12.5" class="st0" width="2.7" height="5.4"/>
		</g>
		<g>
			<path class="st0" d="M98.2,22c0,1.1-0.2,1.5-0.9,1.8c-0.6,0.3-2.4,0.6-2.7,0.6c-0.7,0.2-2.8,0.7-2.7,2.8c0,2.1,2.1,2.8,3.6,2.8
				c1.4,0,2.2-0.6,2.6-0.9c0.2-0.2,0.2-0.1,0.4,0.1c0.2,0.2,0.9,0.9,2.5,0.9c1.6,0,1.9-0.8,2-1c0.1-0.3-0.2-0.5-0.3-0.2
				c-0.2,0.5-0.6,0.6-0.9,0.6c-0.3,0-1.2-0.1-1.3-2.5c0,0,0-5,0-5.2c0-1.6-1.2-2.9-4.5-2.9c-3.5,0-3.5,1.7-3.6,2.2
				c0,0.5,0.2,1,1.1,1c0.8,0,1-0.9,1.1-1.2c0.1-0.3,0.1-1.4,1.6-1.4C97.4,19.4,98.2,20.4,98.2,22l0,4.6c0,1.6-0.8,2.9-2,2.9
				c-1.5,0-1.8-1.2-1.8-1.8c0-0.6,0.3-1.8,1.8-2.6c0,0,0.7-0.4,2-0.9c0.1,0,0.2,0,0.2,0.3L98.2,22z"/>
		</g>
		<g>
			<path class="st0" d="M122.4,22c0,1.1-0.2,1.5-0.9,1.8c-0.6,0.3-2.4,0.6-2.7,0.6c-0.7,0.2-2.8,0.7-2.7,2.8c0,2.1,2.1,2.8,3.6,2.8
				c1.4,0,2.2-0.6,2.6-0.9c0.2-0.2,0.2-0.1,0.4,0.1c0.2,0.2,0.9,0.9,2.5,0.9c1.6,0,1.9-0.8,2-1c0.1-0.3-0.2-0.5-0.3-0.2
				c-0.2,0.5-0.6,0.6-0.9,0.6c-0.3,0-1.2-0.1-1.3-2.5c0,0,0-5,0-5.2c0-1.6-1.2-2.9-4.5-2.9c-3.5,0-3.5,1.7-3.6,2.2
				c0,0.5,0.2,1,1.1,1c0.8,0,1-0.9,1.1-1.2c0.1-0.3,0.1-1.4,1.6-1.4C121.6,19.4,122.4,20.4,122.4,22l0,4.6c0,1.6-0.8,2.9-2,2.9
				c-1.5,0-1.8-1.2-1.8-1.8c0-0.6,0.3-1.8,1.8-2.6c0,0,0.7-0.4,2-0.9c0.1,0,0.2,0,0.2,0.3L122.4,22z"/>
		</g>
		<g>
			<path class="st0" d="M146.3,22c0,1.1-0.2,1.5-0.9,1.8c-0.6,0.3-2.4,0.6-2.7,0.6c-0.7,0.2-2.8,0.7-2.7,2.8c0,2.1,2.1,2.8,3.6,2.8
				c1.4,0,2.2-0.6,2.6-0.9c0.2-0.2,0.2-0.1,0.4,0.1c0.2,0.2,0.9,0.9,2.5,0.9c1.6,0,1.9-0.8,2-1c0.1-0.3-0.2-0.5-0.3-0.2
				c-0.2,0.5-0.6,0.6-0.9,0.6c-0.3,0-1.2-0.1-1.3-2.5c0,0,0-5,0-5.2c0-1.6-1.2-2.9-4.5-2.9c-3.5,0-3.5,1.7-3.6,2.2
				c0,0.5,0.2,1,1.1,1c0.8,0,1-0.9,1.1-1.2c0.1-0.3,0.1-1.4,1.6-1.4C145.5,19.4,146.3,20.4,146.3,22l0,4.6c0,1.6-0.8,2.9-2,2.9
				c-1.5,0-1.8-1.2-1.8-1.8c0-0.6,0.3-1.8,1.8-2.6c0,0,0.7-0.4,2-0.9c0.1,0,0.2,0,0.2,0.3L146.3,22z"/>
		</g>
		<g>
			<path class="st0" d="M111.9,27.2c0,1.8-0.5,2.4-1.1,2.5c-0.6,0.1-0.5,0.4-0.2,0.4c0.1,0,4.8,0,4.8,0c0.4,0,0.7-0.3,0-0.4
				c-0.4-0.1-1.2-0.6-1.2-2.8l0-4.2c0-1,0.1-3.5-3.8-3.5c-2,0-3.2,1-3.3,1.1c-0.2,0.1-0.3,0.2-0.3-0.1c-0.1-0.2-0.2-0.5-0.2-0.7
				c-0.1-0.2-0.1-0.3-0.5-0.3c-0.4,0.1-2.7,0.4-3.1,0.5c-0.4,0.1-0.3,0.3,0,0.3c0.3,0.1,1.5,0.1,1.5,2.3c0,2.1,0,4.5,0,4.5
				c0,2.6-0.5,2.8-1,3c-0.6,0.2-0.3,0.4,0,0.4c0,0,4.6,0,4.8,0c0.3,0,0.5-0.3-0.2-0.4c-0.6-0.1-1.2-0.5-1.2-2.5c0-0.2,0-2.4,0-2.9
				c0-1.1-0.3-4.5,2.8-4.5c2.1-0.1,2.3,1.7,2.3,2.9L111.9,27.2z"/>
		</g>
	</g>
</g>
</svg>
