<?xml version="1.0" encoding="utf-8"?>
<!-- Generator: Adobe Illustrator 21.0.0, SVG Export Plug-In . SVG Version: 6.00 Build 0)  -->
<svg version="1.1" id="Layer_1" xmlns="http://www.w3.org/2000/svg" xmlns:xlink="http://www.w3.org/1999/xlink" x="0px" y="0px"
	 width="160px" height="40px" viewBox="0 0 160 40" style="enable-background:new 0 0 160 40;" xml:space="preserve">
<style type="text/css">
	.st0{fill:#FFFFFF;}
</style>
<g>
	<path class="st0" d="M16.8,30.8h-1.9V13.6h1.7l0.1,2.1h0.1c1.2-1.5,3-2.4,5.2-2.4c3.8,0,5.7,2.5,5.7,6.1v11.3h-1.9V19.5
		c0-2.8-1.4-4.5-4.2-4.5c-2.2,0-3.8,1.1-4.7,2.4L16.8,30.8L16.8,30.8z"/>
	<path class="st0" d="M31.4,22v3c0,2.8,1.6,4.5,4.4,4.5c2.2,0,3.4-0.9,4.4-3.2l1.4,0.5c-1,2.8-2.9,4.2-5.9,4.2c-4,0-6.2-2.5-6.2-6
		v-5.7c0-3.5,2.3-6,6.1-6s6,2.6,6,6.1V22H31.4L31.4,22z M31.4,20.6h8.5v-1.4c0-2.6-1.6-4.3-4.3-4.3c-2.9,0-4.2,1.8-4.2,4.4V20.6
		L31.4,20.6z"/>
	<path class="st0" d="M53,15.7L53,15.7l-4.2,15h-2.1l-5-17.1h2l4,15h0.1l4.2-15h1.9l4.2,15.2h0.1l4.1-15.2h2l-5.1,17.1h-2.1L53,15.7
		z"/>
	<path class="st0" d="M64.8,27.5l1.4-0.8c0.9,2.1,2.6,2.9,4.3,2.9c2.4,0,3.7-1.3,3.7-3.3c0-4.5-9.2-2.7-9.2-8.4
		c0-2.4,1.8-4.5,5.4-4.5c2.4,0,4.3,1.2,5.3,3.4l-1.3,0.7c-0.8-1.8-2.2-2.6-4-2.6c-2.4,0-3.6,1.2-3.6,2.9c0,4.4,9.2,2.6,9.2,8.5
		c0,2.9-2.2,4.9-5.4,4.9C67.9,31.1,65.9,30,64.8,27.5z"/>
	<path class="st0" d="M94.1,17.6c-0.8-1.8-2.3-2.7-4.2-2.7c-2.8,0-4.3,1.7-4.3,4.5V25c0,2.8,1.6,4.5,4.3,4.5c2.1,0,3.4-0.9,4.3-2.9
		l1.4,0.5c-0.9,2.3-2.8,3.9-5.7,3.9c-4,0-6.1-2.5-6.1-6v-5.7c0-3.5,2.2-6.1,6.1-6.1c2.6,0,4.6,1.4,5.7,3.6L94.1,17.6z"/>
	<path class="st0" d="M98,22v3c0,2.8,1.6,4.5,4.4,4.5c2.1,0,3.4-0.9,4.4-3.2l1.4,0.5c-1,2.8-2.9,4.2-5.9,4.2c-4,0-6.2-2.5-6.2-6
		v-5.7c0-3.5,2.3-6,6.1-6c3.8,0,6,2.6,6,6.1V22H98L98,22z M98,20.6h8.5v-1.4c0-2.6-1.6-4.3-4.3-4.3c-2.9,0-4.2,1.8-4.2,4.4V20.6
		L98,20.6z"/>
	<path class="st0" d="M112.1,30.8h-1.9V13.6h1.7l0.1,2.1h0.1c1.2-1.5,3-2.4,5.2-2.4c3.8,0,5.7,2.5,5.7,6.1v11.3h-2V19.5
		c0-2.8-1.4-4.5-4.2-4.5c-2.1,0-3.8,1.1-4.7,2.4C112.1,17.4,112.1,30.8,112.1,30.8z"/>
	<path class="st0" d="M132.9,15.1h-4.7v11.3c0,2.2,1,2.9,2.5,2.9c0.7,0,1.2-0.1,1.8-0.4l0.3,1.2c-0.7,0.4-1.5,0.7-2.7,0.7
		c-2.6,0-3.9-1.6-3.9-4.5V15.2l-2.4-0.4v-1.2l2.5-0.1l0.4-4.9h1.4v5h4.7L132.9,15.1L132.9,15.1z"/>
	<path class="st0" d="M143,15.5c-0.6-0.3-1.1-0.4-1.8-0.4c-2.8,0-4.4,2.5-4.6,5.7v9.9h-1.9V13.6h1.6l0.1,3.5h0.1
		c0.9-2.6,2.6-3.8,4.7-3.8c0.7,0,1.5,0.2,2.1,0.5L143,15.5z"/>
	<path class="st0" d="M145.1,22v3c0,2.8,1.6,4.5,4.4,4.5c2.1,0,3.4-0.9,4.4-3.2l1.4,0.5c-1,2.8-2.9,4.2-5.9,4.2c-4,0-6.2-2.5-6.2-6
		v-5.7c0-3.5,2.3-6,6.1-6s6,2.6,6,6.1V22H145.1L145.1,22z M145.1,20.6h8.5v-1.4c0-2.6-1.6-4.3-4.3-4.3c-2.9,0-4.2,1.8-4.2,4.4V20.6
		L145.1,20.6z"/>
</g>
</svg>
