<?xml version="1.0" encoding="utf-8"?>
<!-- Generator: Adobe Illustrator 21.0.0, SVG Export Plug-In . SVG Version: 6.00 Build 0)  -->
<svg version="1.1" id="Layer_1" xmlns="http://www.w3.org/2000/svg" xmlns:xlink="http://www.w3.org/1999/xlink" x="0px" y="0px"
	 width="690.7px" height="40px" viewBox="0 0 690.7 40" style="enable-background:new 0 0 690.7 40;" xml:space="preserve">
<style type="text/css">
	.st0{fill:#00AEEF;}
	.st1{fill:#FFFFFF;}
	.st2{fill:#313F85;}
	.st3{fill:#42BD83;}
	.st4{fill:#1D2E49;}
	.st5{fill:none;stroke:#000000;stroke-miterlimit:10;}
</style>
<g>
	<g>
		<g>
			<path class="st0" d="M57.8,29.8h-1.9V12.6h1.7l0.1,2.1h0.1c1.2-1.5,3-2.4,5.2-2.4c3.8,0,5.7,2.5,5.7,6.1v11.3h-1.9V18.5
				c0-2.8-1.4-4.5-4.2-4.5c-2.2,0-3.8,1.1-4.7,2.4L57.8,29.8L57.8,29.8z"/>
			<path class="st0" d="M72.4,21v3c0,2.8,1.6,4.5,4.4,4.5c2.2,0,3.4-0.9,4.4-3.2l1.4,0.5c-1,2.8-2.9,4.2-5.9,4.2c-4,0-6.2-2.5-6.2-6
				v-5.7c0-3.5,2.3-6,6.1-6c3.8,0,6,2.6,6,6.1V21H72.4L72.4,21z M72.4,19.6h8.5v-1.4c0-2.6-1.6-4.3-4.3-4.3c-2.9,0-4.2,1.8-4.2,4.4
				V19.6L72.4,19.6z"/>
			<path class="st0" d="M94,14.7L94,14.7l-4.2,15h-2.1l-5-17.1h2l4,15h0.1l4.2-15h1.9l4.2,15.2h0.1l4.1-15.2h2l-5.1,17.1h-2.1
				L94,14.7z"/>
			<path class="st0" d="M105.8,26.5l1.4-0.8c0.9,2.1,2.6,2.9,4.3,2.9c2.4,0,3.7-1.3,3.7-3.3c0-4.5-9.2-2.7-9.2-8.4
				c0-2.4,1.8-4.5,5.4-4.5c2.4,0,4.3,1.2,5.3,3.4l-1.3,0.7c-0.8-1.8-2.2-2.6-4-2.6c-2.4,0-3.6,1.2-3.6,2.9c0,4.4,9.2,2.6,9.2,8.5
				c0,2.9-2.2,4.9-5.4,4.9C108.9,30.1,106.9,29,105.8,26.5z"/>
			<path class="st0" d="M135.1,16.6c-0.8-1.8-2.3-2.7-4.2-2.7c-2.8,0-4.3,1.7-4.3,4.5V24c0,2.8,1.6,4.5,4.3,4.5
				c2.1,0,3.4-0.9,4.3-2.9l1.4,0.5c-0.9,2.3-2.8,3.9-5.7,3.9c-4,0-6.1-2.5-6.1-6v-5.7c0-3.5,2.2-6.1,6.1-6.1c2.6,0,4.6,1.4,5.7,3.6
				L135.1,16.6z"/>
			<path class="st0" d="M139,21v3c0,2.8,1.6,4.5,4.4,4.5c2.1,0,3.4-0.9,4.4-3.2l1.4,0.5c-1,2.8-2.9,4.2-5.9,4.2c-4,0-6.2-2.5-6.2-6
				v-5.7c0-3.5,2.3-6,6.1-6s6,2.6,6,6.1V21H139L139,21z M139,19.6h8.5v-1.4c0-2.6-1.6-4.3-4.3-4.3c-2.9,0-4.2,1.8-4.2,4.4V19.6
				L139,19.6z"/>
			<path class="st0" d="M153.1,29.8h-1.9V12.6h1.7l0.1,2.1h0.1c1.2-1.5,3-2.4,5.2-2.4c3.8,0,5.7,2.5,5.7,6.1v11.3h-2V18.5
				c0-2.8-1.4-4.5-4.2-4.5c-2.1,0-3.8,1.1-4.7,2.4L153.1,29.8L153.1,29.8z"/>
			<path class="st0" d="M173.9,14.1h-4.7v11.3c0,2.2,1,2.9,2.5,2.9c0.7,0,1.2-0.1,1.8-0.4l0.3,1.2c-0.7,0.4-1.5,0.7-2.7,0.7
				c-2.6,0-3.9-1.6-3.9-4.5V14.2l-2.4-0.4v-1.2l2.5-0.1l0.4-4.9h1.4v5h4.7L173.9,14.1L173.9,14.1z"/>
			<path class="st0" d="M184,14.5c-0.6-0.3-1.1-0.4-1.8-0.4c-2.8,0-4.4,2.5-4.6,5.7v9.9h-1.9V12.6h1.6l0.1,3.5h0.1
				c0.9-2.6,2.6-3.8,4.7-3.8c0.7,0,1.5,0.2,2.1,0.5L184,14.5z"/>
			<path class="st0" d="M186.1,21v3c0,2.8,1.6,4.5,4.4,4.5c2.1,0,3.4-0.9,4.4-3.2l1.4,0.5c-1,2.8-2.9,4.2-5.9,4.2
				c-4,0-6.2-2.5-6.2-6v-5.7c0-3.5,2.3-6,6.1-6s6,2.6,6,6.1V21H186.1L186.1,21z M186.1,19.6h8.5v-1.4c0-2.6-1.6-4.3-4.3-4.3
				c-2.9,0-4.2,1.8-4.2,4.4V19.6L186.1,19.6z"/>
		</g>
		<g>
			<path class="st0" d="M42.5,33.6H11.1C5,33.6,0,28.6,0,22.5V1.6h42.5c3.1,0,5.5,2.5,5.5,5.5V28C48,31.1,45.5,33.6,42.5,33.6z"/>
			<path class="st1" d="M23.1,5.8v18.7c0,0.8,0.1,1.4,0.2,1.7s0.4,0.5,0.8,0.5c0.2,0,0.4,0,0.6-0.1s0.5-0.1,0.8-0.2l0.4,3.3
				c-0.3,0.2-0.8,0.4-1.4,0.5c-0.7,0.2-1.4,0.2-2,0.2c-1.2,0-2-0.3-2.6-0.9s-0.9-1.6-0.9-3V5.8H23.1"/>
			<path class="st1" d="M38.8,5.6c0.8,0,1.5,0.2,2,0.7s0.7,1,0.7,1.7s-0.2,1.3-0.7,1.7s-1.1,0.6-2,0.6s-1.4-0.2-1.9-0.6
				c-0.4-0.4-0.7-1-0.7-1.7s0.2-1.3,0.7-1.7C37.3,5.8,38,5.6,38.8,5.6"/>
			<polyline class="st1" points="40.8,12.9 40.8,30.3 36.7,30.3 36.7,12.9 40.8,12.9 			"/>
			<path class="st0" d="M30.5,3.7c-1.7,0-2.7,0.7-3.2,1.3c-0.8,0.8-1.2,1.9-1.2,3c0,1.2,0.4,2.2,1.2,3h-0.7v1.9v16.9
				c0,1-0.1,1.6-0.2,1.9c0,0-0.1,0-0.2,0l-2.1-0.2v2.1v3.7v1.5l1.5,0.3c0.8,0.2,1.6,0.3,2.4,0.3c2.8,0,4.3-1.4,5.1-2.5
				c1-1.4,1.4-3.4,1.4-5.9V12.9V11h-0.7c0.8-0.8,1.3-1.8,1.3-3c0-1.3-0.5-2.3-1.3-3.1C32.9,4.1,31.8,3.7,30.5,3.7L30.5,3.7z"/>
			<path class="st1" d="M30.5,5.6c0.8,0,1.5,0.2,2,0.7s0.7,1,0.7,1.7S33,9.3,32.5,9.7s-1.1,0.6-2,0.6s-1.4-0.2-1.9-0.6S28,8.7,28,8
				s0.2-1.3,0.7-1.7C29.1,5.8,29.7,5.6,30.5,5.6"/>
			<path class="st1" d="M32.6,12.9V31c0,2.1-0.4,3.7-1.1,4.8c-0.7,1.1-1.9,1.7-3.5,1.7c-0.6,0-1.3-0.1-2-0.2v-3.7c0.1,0,0.2,0,0.4,0
				c0.8,0,1.3-0.3,1.6-0.9c0.3-0.7,0.5-1.6,0.5-2.9V12.9H32.6"/>
		</g>
	</g>
	<g>
		<polygon class="st2" points="283.3,15.6 278.7,9.7 278.7,15.6 277.1,15.6 277.1,6.7 278.4,6.7 283,12.6 283,6.7 284.5,6.7 
			284.5,15.6 		"/>
		<path class="st2" d="M290.4,11.5L290.4,11.5h-2.7c0.1-1,0.7-1.4,1.5-1.4C290.1,10.1,290.5,10.8,290.4,11.5 M292,11.5L292,11.5
			c0-1.5-1.2-2.5-2.8-2.5s-3.2,1.3-3.2,3.3s1.4,3.4,3.3,3.4c1,0,2-0.3,2.6-0.8v-1.3c-0.5,0.4-1.3,0.8-2.1,0.8
			c-1.7,0-2.2-1.1-2.1-2.1h4.2C291.9,12.2,292,11.8,292,11.5"/>
		<polygon class="st2" points="302.7,9.2 302.7,9.2 301.1,9.2 299.6,13.4 298.1,9.2 297,9.2 295.5,13.4 294,9.2 292.3,9.2 
			294.9,15.6 296,15.6 297.5,11.8 299,15.6 300.1,15.6 		"/>
		<path class="st2" d="M308.1,13.6L308.1,13.6c0-0.9-0.7-1.6-2.3-2c-0.7-0.2-1.1-0.4-1.1-0.8c0-0.4,0.3-0.6,1-0.6
			c0.6,0,1.3,0.2,1.8,0.5l0.3-1.1c-0.2-0.1-1.1-0.6-2.1-0.6c-1.7,0-2.5,0.9-2.5,2c0,0.9,0.5,1.7,2.1,2c0.9,0.2,1.4,0.4,1.4,0.9
			s-0.5,0.7-1.1,0.7c-0.9,0-1.7-0.4-2.2-0.7l-0.3,1.2c0.3,0.2,1.3,0.8,2.5,0.8C307.1,15.8,308.1,14.9,308.1,13.6"/>
		<path class="st2" d="M321.8,15.6L321.8,15.6V6.7H320l-2.9,6.5l-2.9-6.5h-1.9v8.8h1.6v-5.4c0-0.2-0.1-0.8-0.1-0.9
			c0,0.1,0.2,0.6,0.3,0.9l2.4,5.4h1.1l2.4-5.4l0.3-0.9c0,0.1,0,0.6,0,0.9v5.4C320.2,15.6,321.8,15.6,321.8,15.6z"/>
		<path class="st2" d="M327.7,11.5L327.7,11.5H325c0.2-1,0.8-1.4,1.5-1.4C327.3,10.1,327.9,10.8,327.7,11.5 M329.2,11.5L329.2,11.5
			c0-1.5-1.2-2.5-2.8-2.5c-1.6,0-3.2,1.3-3.2,3.3s1.4,3.4,3.3,3.4c1.1,0,2-0.3,2.6-0.8v-1.3c-0.5,0.4-1.4,0.8-2.1,0.8
			c-1.7,0-2.2-1.1-2.2-2.1h4.2C329.2,12.2,329.2,11.8,329.2,11.5"/>
		<path class="st2" d="M335.5,12.4L335.5,12.4c0,1.3-0.8,2.1-1.8,2.1s-1.8-0.8-1.8-2.1s0.8-2.1,1.8-2.1
			C334.7,10.3,335.5,11.1,335.5,12.4 M337.2,15.6L337.2,15.6V6.7h-1.7v3.4C335,9.4,334.1,9,333.2,9c-1.7,0-3,1.4-3,3.4
			c0,1.9,1.3,3.4,3,3.4c0.9,0,1.9-0.4,2.4-1.2l0.1,1L337.2,15.6L337.2,15.6z"/>
		<path class="st2" d="M340.4,15.6L340.4,15.6V9.2h-1.7v6.4C338.7,15.6,340.4,15.6,340.4,15.6z M340.4,8.1L340.4,8.1V6.7h-1.7v1.4
			C338.7,8.1,340.4,8.1,340.4,8.1z"/>
		<path class="st2" d="M347,12.4L347,12.4c0,1.3-0.8,2.1-1.8,2.1s-1.8-0.8-1.8-2.1s0.8-2.1,1.8-2.1C346.1,10.3,347,11.1,347,12.4
			 M348.6,15.6L348.6,15.6V9.2h-1.5l-0.1,1c-0.5-0.8-1.5-1.2-2.4-1.2c-1.7,0-3,1.4-3,3.4c0,1.9,1.3,3.4,3,3.4c0.9,0,1.9-0.4,2.4-1.2
			l0.1,1L348.6,15.6L348.6,15.6z"/>
		<path class="st2" d="M352.9,11.1L352.9,11.1c0,2.9,2,4.6,4.5,4.6c1,0,2.2-0.3,2.9-0.9V14c-0.7,0.5-1.6,1-2.9,1
			c-2.1,0-3.7-1.6-3.7-3.9s1.5-3.8,3.7-3.8c1.3,0,2.2,0.4,2.9,1V7.4c-0.7-0.5-1.8-0.9-2.9-0.9C354.9,6.5,352.9,8.3,352.9,11.1"/>
		<path class="st2" d="M361.9,12.4L361.9,12.4c0-1.7,1.1-2.7,2.5-2.7c1.3,0,2.4,1,2.4,2.7s-1.1,2.6-2.4,2.6
			C363,15.1,361.9,14.1,361.9,12.4 M361.1,12.4L361.1,12.4c0,1.9,1.3,3.4,3.1,3.4c0.9,0,2.1-0.5,2.6-1.5v1.3h0.7V9.2h-0.7v1.3
			c-0.5-1-1.6-1.5-2.6-1.5C362.4,9,361.1,10.5,361.1,12.4"/>
		<path class="st2" d="M374.8,15.6L374.8,15.6v-3.7c0-1.8-0.8-2.8-2.4-2.8c-1,0-2.1,0.6-2.5,1.5V9.3h-0.7v6.4h0.8V12
			c0-1.1,1.1-2.2,2.3-2.2c1.1,0,1.8,0.5,1.8,2.2v3.6C374.1,15.6,374.8,15.6,374.8,15.6z"/>
		<path class="st2" d="M376.9,12.4L376.9,12.4c0-1.7,1.1-2.7,2.5-2.7s2.5,1,2.5,2.7s-1.1,2.6-2.5,2.6S376.9,14.1,376.9,12.4
			 M376.1,12.4L376.1,12.4c0,1.9,1.4,3.4,3.2,3.4c0.9,0,2.1-0.5,2.6-1.5v1.3h0.7V9.2h-0.7v1.3c-0.5-1-1.6-1.5-2.6-1.5
			C377.5,9,376.1,10.5,376.1,12.4"/>
		<path class="st2" d="M384.7,12.4L384.7,12.4c0-1.7,1.1-2.7,2.5-2.7s2.5,1,2.5,2.7s-1.1,2.6-2.5,2.6S384.7,14.1,384.7,12.4
			 M384,12.4L384,12.4c0,1.9,1.3,3.4,3.1,3.4c1,0,2.1-0.5,2.6-1.5v1.3h0.7V6.7h-0.8v3.6C389.1,9.5,388,9,387.1,9
			C385.3,9,384,10.5,384,12.4"/>
		<path class="st2" d="M392.5,12.4L392.5,12.4c0-1.7,1.1-2.7,2.5-2.7s2.5,1,2.5,2.7S396.4,15,395,15S392.5,14.1,392.5,12.4
			 M391.7,12.4L391.7,12.4c0,1.9,1.3,3.4,3.2,3.4c0.9,0,2.1-0.5,2.6-1.5v1.3h0.6V9.2h-0.6v1.3c-0.5-1-1.6-1.5-2.6-1.5
			C393,9,391.7,10.5,391.7,12.4"/>
		<path class="st2" d="M286.6,34.2L286.6,34.2v-8.9h-1.8l-2.9,6.5l-2.9-6.5h-1.9v8.9h1.5v-5.4c0-0.2,0-0.8,0-0.9
			c0,0.1,0.2,0.6,0.3,0.9l2.4,5.4h1.1l2.4-5.4l0.3-0.9c0,0.1-0.1,0.6-0.1,0.9v5.4H286.6z"/>
		<path class="st2" d="M292.8,25.7L292.8,25.7l-0.6-1l-2.1,1.8l0.2,0.4L292.8,25.7z M292.5,30.1L292.5,30.1h-2.7
			c0.1-1,0.8-1.4,1.5-1.4C292.1,28.8,292.6,29.4,292.5,30.1 M294,30.2L294,30.2c0-1.5-1.2-2.5-2.8-2.5c-1.6,0-3.2,1.3-3.2,3.3
			s1.4,3.4,3.3,3.4c1,0,2-0.3,2.6-0.8v-1.3c-0.5,0.4-1.3,0.8-2,0.8c-1.7,0-2.2-1.1-2.2-2.1h4.2C294,30.9,294,30.5,294,30.2"/>
		<path class="st2" d="M300.3,31L300.3,31c0,1.3-0.8,2.1-1.8,2.1s-1.8-0.8-1.8-2.1c0-1.3,0.8-2.1,1.8-2.1
			C299.6,28.9,300.3,29.7,300.3,31 M302,34.2L302,34.2v-8.9h-1.7v3.4c-0.5-0.7-1.4-1-2.3-1c-1.7,0-3,1.4-3,3.4c0,1.9,1.3,3.4,3,3.4
			c0.9,0,1.9-0.4,2.4-1.2l0.1,1L302,34.2L302,34.2z"/>
		<path class="st2" d="M305.3,34.2L305.3,34.2v-6.4h-1.7v6.4H305.3z M305.3,26.8L305.3,26.8v-1.4h-1.7v1.4H305.3z"/>
		<path class="st2" d="M311.8,31L311.8,31c0,1.3-0.8,2.1-1.8,2.1s-1.8-0.8-1.8-2.1c0-1.3,0.8-2.1,1.8-2.1
			C311,28.9,311.8,29.7,311.8,31 M313.4,34.2L313.4,34.2v-6.4h-1.5l-0.1,1c-0.5-0.8-1.5-1.2-2.4-1.2c-1.7,0-3,1.4-3,3.4
			c0,1.9,1.3,3.4,3,3.4c0.9,0,1.9-0.4,2.4-1.2l0.1,1H313.4L313.4,34.2z"/>
		<path class="st2" d="M319.8,32.2L319.8,32.2c0-0.9-0.7-1.7-2.3-2c-0.7-0.2-1.1-0.3-1.1-0.8c0-0.4,0.3-0.6,1-0.6
			c0.6,0,1.3,0.2,1.8,0.5l0.3-1.1c-0.2-0.1-1.1-0.6-2.2-0.6c-1.7,0-2.5,1-2.5,2c0,0.9,0.5,1.7,2.1,2c0.9,0.2,1.4,0.4,1.4,0.8
			c0,0.5-0.4,0.7-1.1,0.7c-1,0-1.7-0.4-2.2-0.7l-0.3,1.2c0.3,0.2,1.3,0.8,2.5,0.8C318.8,34.4,319.8,33.6,319.8,32.2"/>
		<path class="st2" d="M328.8,31L328.8,31c0,1.3-0.8,2.1-1.8,2.1s-1.8-0.8-1.8-2.1c0-1.3,0.8-2.1,1.8-2.1
			C328,28.9,328.8,29.7,328.8,31 M330.5,34.2L330.5,34.2v-8.9h-1.7v3.4c-0.5-0.7-1.4-1-2.2-1c-1.7,0-3,1.4-3,3.4
			c0,1.9,1.3,3.4,3,3.4c0.9,0,1.8-0.4,2.4-1.2v1L330.5,34.2L330.5,34.2z"/>
		<path class="st2" d="M333.6,26.8L333.6,26.8v-1.4H332V27h0.8c0,0.6-0.2,1.2-0.8,1.5l0.3,0.4C333.1,28.7,333.6,27.8,333.6,26.8"/>
		<polygon class="st2" points="337.2,34.2 337.2,34.2 337.2,25.4 335.4,25.4 335.4,34.2 		"/>
		<path class="st2" d="M345.1,34.2L345.1,34.2v-3.8c0-1.6-0.6-2.8-2.3-2.8c-1,0-1.9,0.5-2.4,1.4l-0.1-1.2h-1.5v6.4h1.7v-3.6
			c0-0.9,0.9-1.6,1.7-1.6c0.8,0,1.2,0.4,1.2,1.7v3.5H345.1L345.1,34.2L345.1,34.2z"/>
		<path class="st2" d="M350.3,29L350.3,29v-1.1h-1.6v-0.1c0-1.1,0.3-1.4,1-1.4c0.2,0,0.4,0.1,0.6,0.1v-1.1c-0.2,0-0.6-0.1-0.9-0.1
			c-1.5,0-2.5,0.7-2.5,2.5v0.1h-1.2V29h1.2v5.3h1.7V29H350.3L350.3,29z"/>
		<path class="st2" d="M356.1,31L356.1,31c0,1.3-0.8,2.2-1.9,2.2s-1.9-0.9-1.9-2.2s0.7-2.2,1.9-2.2C355.3,28.9,356.1,29.7,356.1,31
			 M357.7,31L357.7,31c0-1.9-1.5-3.4-3.5-3.4c-2.1,0-3.5,1.5-3.5,3.4c0,1.9,1.5,3.4,3.5,3.4S357.7,33,357.7,31"/>
		<path class="st2" d="M361.6,29.8L361.6,29.8c0,2.9,2,4.6,4.5,4.6c1,0,2.2-0.3,2.9-0.9v-0.8c-0.7,0.5-1.6,1-2.9,1
			c-2.1,0-3.7-1.6-3.7-3.9s1.5-3.8,3.7-3.8c1.3,0,2.2,0.4,2.9,1v-0.9c-0.7-0.5-1.8-0.9-2.9-0.9C363.6,25.1,361.6,26.9,361.6,29.8"/>
		<path class="st2" d="M370.6,31L370.6,31c0-1.7,1.1-2.7,2.5-2.7s2.5,1,2.5,2.7s-1.1,2.6-2.5,2.6C371.7,33.7,370.6,32.7,370.6,31
			 M369.8,31L369.8,31c0,1.9,1.3,3.4,3.1,3.4c0.9,0,2.1-0.5,2.6-1.5v1.3h0.7v-6.4h-0.7v1.3c-0.5-1-1.6-1.5-2.6-1.5
			C371.1,27.7,369.8,29.1,369.8,31"/>
		<path class="st2" d="M383.5,34.2L383.5,34.2v-3.8c0-1.8-0.8-2.8-2.4-2.8c-1,0-2.1,0.6-2.5,1.5v-1.3H378v6.4h0.8v-3.6
			c0-1.1,1.1-2.2,2.3-2.2c1.1,0,1.8,0.5,1.8,2.2v3.6C382.8,34.2,383.5,34.2,383.5,34.2z"/>
		<path class="st2" d="M385.7,31L385.7,31c0-1.7,1.1-2.7,2.4-2.7c1.4,0,2.5,1,2.5,2.7s-1.1,2.6-2.5,2.6
			C386.8,33.7,385.7,32.7,385.7,31 M384.9,31L384.9,31c0,1.9,1.3,3.4,3.1,3.4c0.9,0,2.1-0.5,2.6-1.5v1.3h0.7v-6.4h-0.7v1.3
			c-0.5-1-1.6-1.5-2.6-1.5C386.2,27.7,384.9,29.1,384.9,31"/>
		<path class="st2" d="M393.4,31L393.4,31c0-1.7,1.1-2.7,2.5-2.7s2.5,1,2.5,2.7s-1.1,2.6-2.5,2.6S393.4,32.7,393.4,31 M392.7,31
			L392.7,31c0,1.9,1.3,3.4,3.1,3.4c1,0,2.1-0.5,2.6-1.5v1.3h0.7v-8.9h-0.8V29c-0.5-0.9-1.5-1.3-2.5-1.3
			C394,27.7,392.7,29.1,392.7,31"/>
		<path class="st2" d="M401.2,31L401.2,31c0-1.7,1.1-2.7,2.5-2.7s2.5,1,2.5,2.7s-1.1,2.6-2.5,2.6S401.2,32.7,401.2,31 M400.4,31
			L400.4,31c0,1.9,1.4,3.4,3.2,3.4c0.9,0,2.1-0.5,2.6-1.5v1.3h0.7v-6.4h-0.7v1.3c-0.5-1-1.6-1.5-2.6-1.5
			C401.8,27.7,400.4,29.1,400.4,31"/>
		<polygon class="st2" points="276.2,20.6 276.2,20.6 408.1,20.6 408.1,20.8 276.2,20.8 		"/>
		<path class="st2" d="M255.2,15.1L255.2,15.1h7.7V8.2L262.5,8c-2.9-2.1-5.3-1.3-7.7-0.5c-2.1,0.7-4.3,1.4-7.2,0.3l-1.2-0.4V27
			l0.3,0.3c1.4,1,2.6,1.3,3.9,1.3c0.6,0,1.3-0.1,1.9-0.2c0.2-0.1,0.4-0.1,0.6-0.2V17.1C253.1,16,254,15.1,255.2,15.1"/>
		<path class="st3" d="M268.1,15.1L268.1,15.1h-5.2v12.4c0,0.2-0.2,0.4-0.4,0.3l-0.8-0.3c-2.9-1.1-5.1-0.3-7.2,0.4
			c-0.4,0.1-0.7,0.2-1.1,0.4c-0.1,0-0.2,0.2-0.2,0.3v4.8c0,0.8,0.7,1.5,1.5,1.5h13.5c0.8,0,1.5-0.7,1.5-1.5V16.6
			C269.6,15.8,268.9,15.1,268.1,15.1"/>
		<path class="st2" d="M261.7,27.4L261.7,27.4l1.2,0.4V15.1h-7.7c-1.1,0-2.1,1-2.1,2.1v11.1c0.5-0.1,0.9-0.3,1.4-0.4
			C256.6,27.1,258.8,26.3,261.7,27.4"/>
		<path class="st4" d="M261.7,27.4L261.7,27.4l1.2,0.4V15.1h-8.3c-0.8,0-1.5,0.7-1.5,1.5v11.7c0.5-0.1,0.9-0.3,1.4-0.4
			C256.6,27.1,258.8,26.3,261.7,27.4"/>
	</g>
	<g>
		<g>
			<g>
				<rect x="581.9" y="5.3" width="0.8" height="30"/>
			</g>
		</g>
		<g>
			<path d="M509.1,7.5h4.5v1h-3.4v1.7h3v0.9h-3V14h-1.1L509.1,7.5L509.1,7.5z"/>
			<path d="M514.4,7.5h1v1h-1V7.5z M514.4,9.3h1V14h-1V9.3z"/>
			<path d="M516.6,9.3h1V10l0,0c0.3-0.5,0.8-0.8,1.5-0.8c1,0,1.7,0.6,1.7,1.6v3.3h-1v-3c0-0.7-0.3-1.1-0.9-1.1
				c-0.7,0-1.2,0.6-1.2,1.3v2.8h-1L516.6,9.3L516.6,9.3z"/>
			<path d="M525.8,13c0,0.3,0.1,0.4,0.3,0.4c0.1,0,0.2,0,0.3,0v0.7c-0.2,0.1-0.5,0.1-0.7,0.1c-0.4,0-0.7-0.1-0.8-0.6
				c-0.4,0.4-1.1,0.6-1.6,0.6c-0.8,0-1.6-0.5-1.6-1.4c0-1.2,0.9-1.4,1.8-1.5c0.8-0.1,1.4-0.1,1.4-0.7c0-0.5-0.6-0.6-1-0.6
				c-0.6,0-1,0.2-1,0.8h-1c0.1-1.2,1.1-1.6,2.2-1.6c0.9,0,1.9,0.4,1.9,1.4L525.8,13L525.8,13L525.8,13z M524.8,11.7
				c-0.3,0.2-0.8,0.2-1.3,0.3s-0.8,0.2-0.8,0.8c0,0.5,0.6,0.6,1,0.6c0.5,0,1.2-0.2,1.2-0.9C524.8,12.5,524.8,11.7,524.8,11.7z"/>
			<path d="M527,9.3h1V10l0,0c0.3-0.5,0.8-0.8,1.5-0.8c1,0,1.7,0.6,1.7,1.6v3.3h-1v-3c0-0.7-0.3-1.1-0.9-1.1c-0.7,0-1.2,0.6-1.2,1.3
				v2.8h-1L527,9.3L527,9.3z"/>
			<path d="M535.4,10.9c-0.1-0.6-0.5-0.9-1.1-0.9c-0.5,0-1.3,0.3-1.3,1.7c0,0.8,0.3,1.6,1.3,1.6c0.6,0,1-0.4,1.1-1.1h1
				c-0.2,1.2-1,1.9-2.2,1.9c-1.5,0-2.3-1.1-2.3-2.4c0-1.4,0.8-2.6,2.3-2.6c1.1,0,2,0.6,2.1,1.7C536.5,10.9,535.4,10.9,535.4,10.9z"
				/>
			<path d="M538.1,12c0,0.7,0.4,1.4,1.3,1.4c0.6,0,1-0.3,1.2-0.8h1c-0.2,1-1.1,1.6-2.1,1.6c-1.5,0-2.3-1-2.3-2.5
				c0-1.4,0.9-2.5,2.3-2.5c1.5,0,2.4,1.4,2.2,2.8C541.6,12,538.1,12,538.1,12z M540.6,11.3c0-0.7-0.5-1.3-1.2-1.3s-1.2,0.6-1.3,1.3
				H540.6z M539.5,7.4h1.2l-1.3,1.3h-0.8L539.5,7.4z"/>
			<path d="M545,9.3h1V10l0,0c0.3-0.5,0.9-0.8,1.5-0.8c1.5,0,2.2,1.1,2.2,2.5c0,1.3-0.6,2.5-2,2.5c-0.6,0-1.3-0.2-1.6-0.7l0,0v2.4
				h-1L545,9.3L545,9.3z M547.3,10c-0.9,0-1.3,0.7-1.3,1.7c0,0.9,0.5,1.7,1.3,1.7c1,0,1.3-0.8,1.3-1.7C548.7,10.8,548.2,10,547.3,10
				z"/>
			<path d="M554.5,13c0,0.3,0.1,0.4,0.3,0.4c0.1,0,0.2,0,0.3,0v0.7c-0.2,0.1-0.5,0.1-0.7,0.1c-0.4,0-0.7-0.1-0.8-0.6
				c-0.4,0.4-1.1,0.6-1.6,0.6c-0.8,0-1.6-0.5-1.6-1.4c0-1.2,0.9-1.4,1.8-1.5c0.8-0.1,1.4-0.1,1.4-0.7c0-0.5-0.6-0.6-1-0.6
				c-0.6,0-1,0.2-1,0.8h-1c0.1-1.2,1.1-1.6,2.2-1.6c0.9,0,1.9,0.4,1.9,1.4L554.5,13L554.5,13L554.5,13z M553.5,11.7
				c-0.3,0.2-0.8,0.2-1.3,0.3s-0.8,0.2-0.8,0.8c0,0.5,0.6,0.6,1,0.6c0.5,0,1.2-0.2,1.2-0.9L553.5,11.7L553.5,11.7z"/>
			<path d="M555.7,9.3h1v0.9l0,0c0.1-0.5,0.7-1,1.4-1c0.2,0,0.3,0,0.4,0v1c-0.2,0-0.3-0.1-0.5-0.1c-0.7,0-1.3,0.6-1.3,1.6V14h-1
				L555.7,9.3L555.7,9.3z"/>
			<path d="M561.5,7.5h1V14h-1V7.5z"/>
			<path d="M564.5,12c0,0.7,0.4,1.4,1.3,1.4c0.6,0,1-0.3,1.2-0.8h1c-0.2,1-1.1,1.6-2.1,1.6c-1.5,0-2.3-1-2.3-2.5
				c0-1.4,0.9-2.5,2.3-2.5c1.5,0,2.4,1.4,2.2,2.8C568,12,564.5,12,564.5,12z M566.9,11.3c0-0.7-0.5-1.3-1.2-1.3s-1.2,0.6-1.3,1.3
				H566.9z"/>
			<path d="M512,23c0,1.4-0.8,2.1-2.3,2.1c-1,0-2-0.4-2.1-1.5h1c0.1,0.6,0.6,0.7,1.1,0.7c0.8,0,1.2-0.4,1.2-1.2v-0.7l0,0
				c-0.3,0.5-0.8,0.8-1.4,0.8c-1.5,0-2.1-1.1-2.1-2.5c0-1.3,0.8-2.4,2.1-2.4c0.6,0,1.1,0.3,1.4,0.8l0,0v-0.6h1L512,23L512,23z
				 M511,20.8c0-0.8-0.4-1.6-1.3-1.6s-1.3,0.9-1.3,1.6c0,0.8,0.4,1.6,1.3,1.6S511,21.6,511,20.8z"/>
			<path d="M512.8,20.9c0-1.5,0.9-2.5,2.4-2.5s2.4,1,2.4,2.5s-0.9,2.5-2.4,2.5S512.8,22.3,512.8,20.9z M516.6,20.9
				c0-0.8-0.4-1.7-1.3-1.7s-1.3,0.9-1.3,1.7c0,0.8,0.4,1.7,1.3,1.7C516.2,22.5,516.6,21.7,516.6,20.9z"/>
			<path d="M522.7,23.2h-1v-0.7l0,0c-0.3,0.5-0.8,0.8-1.3,0.8c-1.2,0-1.8-0.6-1.8-1.9v-3h1v2.9c0,0.8,0.3,1.1,0.9,1.1
				c0.9,0,1.2-0.6,1.2-1.3v-2.8h1C522.7,18.5,522.7,23.2,522.7,23.2z"/>
			<path d="M523.3,18.5h1.1l1.2,3.6l0,0l1.2-3.6h1.1l-1.7,4.7H525L523.3,18.5z"/>
			<path d="M529.3,21.1c0,0.7,0.4,1.4,1.3,1.4c0.6,0,1-0.3,1.2-0.8h1c-0.2,1-1.1,1.6-2.1,1.6c-1.5,0-2.3-1-2.3-2.5
				c0-1.4,0.9-2.5,2.3-2.5c1.5,0,2.4,1.4,2.2,2.8H529.3L529.3,21.1z M531.8,20.4c0-0.7-0.5-1.3-1.2-1.3s-1.2,0.5-1.3,1.3H531.8z"/>
			<path d="M533.6,18.5h1v0.9l0,0c0.1-0.5,0.7-1,1.4-1c0.2,0,0.3,0,0.4,0v1c-0.2,0-0.3,0-0.5,0c-0.7,0-1.3,0.6-1.3,1.6v2.3h-1
				L533.6,18.5L533.6,18.5z"/>
			<path d="M537,18.5h1v0.7l0,0c0.3-0.5,0.8-0.8,1.5-0.8c1,0,1.7,0.5,1.7,1.6v3.3h-1v-3c0-0.7-0.3-1.1-0.9-1.1
				c-0.7,0-1.2,0.5-1.2,1.3v2.8h-1C537,23.2,537,18.5,537,18.5z"/>
			<path d="M543.1,21.1c0,0.7,0.4,1.4,1.3,1.4c0.6,0,1-0.3,1.2-0.8h1c-0.2,1-1.1,1.6-2.1,1.6c-1.5,0-2.3-1-2.3-2.5
				c0-1.4,0.9-2.5,2.3-2.5c1.5,0,2.4,1.4,2.2,2.8H543.1L543.1,21.1z M545.5,20.4c0-0.7-0.5-1.3-1.2-1.3s-1.2,0.5-1.3,1.3H545.5z"/>
			<path d="M547.4,18.5h1v0.7l0,0c0.3-0.5,0.7-0.8,1.5-0.8c0.6,0,1.1,0.3,1.3,0.8c0.3-0.5,0.8-0.8,1.5-0.8c1,0,1.6,0.4,1.6,1.6v3.3
				h-1v-2.8c0-0.8,0-1.3-0.9-1.3c-0.7,0-1,0.5-1,1.3v2.8h-1v-3c0-0.6-0.2-1-0.8-1c-0.5,0-1,0.4-1,1.2v2.8h-1L547.4,18.5L547.4,18.5z
				"/>
			<path d="M556.2,21.1c0,0.7,0.4,1.4,1.3,1.4c0.6,0,1-0.3,1.2-0.8h1c-0.2,1-1.1,1.6-2.1,1.6c-1.5,0-2.3-1-2.3-2.5
				c0-1.4,0.9-2.5,2.3-2.5c1.5,0,2.4,1.4,2.2,2.8H556.2L556.2,21.1z M558.6,20.4c0-0.7-0.5-1.3-1.2-1.3s-1.2,0.5-1.3,1.3H558.6z"/>
			<path d="M560.4,18.5h1v0.7l0,0c0.3-0.5,0.8-0.8,1.5-0.8c1,0,1.7,0.5,1.7,1.6v3.3h-1v-3c0-0.7-0.3-1.1-0.9-1.1
				c-0.7,0-1.2,0.5-1.2,1.3v2.8h-1L560.4,18.5L560.4,18.5z"/>
			<path d="M565.2,18.5h0.8v-1.4h1v1.4h0.9v0.8H567v2.5c0,0.4,0,0.6,0.5,0.6c0.2,0,0.3,0,0.4,0v0.8c-0.2,0-0.5,0.1-0.7,0.1
				c-1.1,0-1.3-0.4-1.3-1.2v-2.8h-0.8L565.2,18.5L565.2,18.5z"/>
			<path d="M527,32.4h-1v-0.6l0,0c-0.3,0.5-0.9,0.8-1.5,0.8c-1.5,0-2.2-1.1-2.2-2.5c0-1.7,1-2.5,2-2.5c0.6,0,1.3,0.2,1.6,0.7l0,0
				v-2.4h1L527,32.4L527,32.4z M524.7,31.7c0.9,0,1.3-0.9,1.3-1.7c0-1-0.5-1.7-1.3-1.7c-1,0-1.3,0.9-1.3,1.7
				C523.4,30.9,523.8,31.7,524.7,31.7z"/>
			<path d="M532.3,32.4h-1v-0.7l0,0c-0.3,0.5-0.8,0.8-1.3,0.8c-1.2,0-1.8-0.6-1.8-1.9v-3h1v2.9c0,0.8,0.3,1.1,0.9,1.1
				c0.9,0,1.2-0.6,1.2-1.3v-2.8h1C532.3,27.7,532.3,32.4,532.3,32.4z"/>
			<path d="M540.5,27.9c-0.2-0.8-0.7-1.3-1.6-1.3c-1.4,0-2,1.2-2,2.5s0.6,2.5,2,2.5c1,0,1.6-0.8,1.7-1.7h1.1
				c-0.1,1.6-1.2,2.6-2.8,2.6c-2,0-3.1-1.6-3.1-3.4s1.2-3.4,3.1-3.4c1.5,0,2.6,0.8,2.8,2.2L540.5,27.9L540.5,27.9z"/>
			<path d="M546.6,31.3c0,0.3,0.1,0.4,0.3,0.4c0.1,0,0.2,0,0.3,0v0.7c-0.2,0.1-0.5,0.1-0.7,0.1c-0.4,0-0.7-0.2-0.8-0.6
				c-0.4,0.4-1.1,0.6-1.6,0.6c-0.8,0-1.6-0.5-1.6-1.4c0-1.2,0.9-1.4,1.8-1.5c0.8-0.1,1.4-0.1,1.4-0.7c0-0.5-0.6-0.6-1-0.6
				c-0.6,0-1,0.2-1,0.8h-1c0.1-1.2,1.1-1.6,2.2-1.6c0.9,0,1.9,0.4,1.9,1.4L546.6,31.3L546.6,31.3L546.6,31.3z M545.5,30
				c-0.3,0.2-0.8,0.2-1.3,0.3s-0.8,0.2-0.8,0.8c0,0.5,0.6,0.6,1,0.6c0.5,0,1.2-0.2,1.2-0.9V30H545.5z"/>
			<path d="M547.7,27.7h1v0.7l0,0c0.3-0.5,0.8-0.8,1.5-0.8c1,0,1.7,0.5,1.7,1.6v3.3h-1v-3c0-0.7-0.3-1.1-0.9-1.1
				c-0.7,0-1.2,0.5-1.2,1.3v2.8h-1L547.7,27.7L547.7,27.7z"/>
			<path d="M556.9,31.3c0,0.3,0.1,0.4,0.3,0.4c0.1,0,0.2,0,0.3,0v0.7c-0.2,0.1-0.5,0.1-0.7,0.1c-0.4,0-0.7-0.2-0.8-0.6
				c-0.4,0.4-1.1,0.6-1.6,0.6c-0.8,0-1.6-0.5-1.6-1.4c0-1.2,0.9-1.4,1.8-1.5c0.8-0.1,1.4-0.1,1.4-0.7c0-0.5-0.6-0.6-1-0.6
				c-0.6,0-1,0.2-1,0.8h-1c0.1-1.2,1.1-1.6,2.2-1.6c0.9,0,1.9,0.4,1.9,1.4L556.9,31.3L556.9,31.3L556.9,31.3z M555.9,30
				c-0.3,0.2-0.8,0.2-1.3,0.3s-0.8,0.2-0.8,0.8c0,0.5,0.6,0.6,1,0.6c0.5,0,1.2-0.2,1.2-0.9V30H555.9z"/>
			<path d="M562.5,32.4h-1v-0.6l0,0c-0.3,0.5-0.9,0.8-1.5,0.8c-1.5,0-2.2-1.1-2.2-2.5c0-1.7,1-2.5,2-2.5c0.6,0,1.3,0.2,1.6,0.7l0,0
				v-2.4h1L562.5,32.4L562.5,32.4z M560.2,31.7c0.9,0,1.3-0.9,1.3-1.7c0-1-0.5-1.7-1.3-1.7c-1,0-1.3,0.9-1.3,1.7
				C558.9,30.9,559.3,31.7,560.2,31.7z"/>
			<path d="M567.6,31.3c0,0.3,0.1,0.4,0.3,0.4c0.1,0,0.2,0,0.3,0v0.7c-0.2,0.1-0.5,0.1-0.7,0.1c-0.4,0-0.7-0.2-0.8-0.6
				c-0.4,0.4-1.1,0.6-1.6,0.6c-0.8,0-1.6-0.5-1.6-1.4c0-1.2,0.9-1.4,1.8-1.5c0.8-0.1,1.4-0.1,1.4-0.7c0-0.5-0.6-0.6-1-0.6
				c-0.6,0-1,0.2-1,0.8h-1c0.1-1.2,1.1-1.6,2.2-1.6c0.9,0,1.9,0.4,1.9,1.4L567.6,31.3L567.6,31.3L567.6,31.3z M566.6,30
				c-0.3,0.2-0.8,0.2-1.3,0.3s-0.8,0.2-0.8,0.8c0,0.5,0.6,0.6,1,0.6c0.5,0,1.2-0.2,1.2-0.9V30H566.6z"/>
		</g>
		<g>
			<path d="M432.6,7.5h4.5v1h-3.4v1.7h3v0.9h-3V14h-1.1V7.5L432.6,7.5z"/>
			<path d="M442.1,14.1h-1v-0.7l0,0c-0.3,0.5-0.8,0.8-1.4,0.8c-1.2,0-1.8-0.6-1.8-1.9v-3h1v2.9c0,0.8,0.3,1.1,0.9,1.1
				c0.9,0,1.2-0.6,1.2-1.3V9.3h1L442.1,14.1L442.1,14.1z"/>
			<path d="M443.2,9.3h1V10l0,0c0.3-0.5,0.9-0.8,1.5-0.8c1,0,1.7,0.6,1.7,1.6v3.3h-1v-3c0-0.7-0.3-1.1-0.9-1.1
				c-0.7,0-1.1,0.6-1.1,1.3v2.8h-1C443.2,14.1,443.2,9.3,443.2,9.3z"/>
			<path d="M452.9,14.1h-1v-0.6l0,0c-0.3,0.5-0.9,0.8-1.5,0.8c-1.5,0-2.2-1.1-2.2-2.5c0-1.7,1-2.5,2-2.5c0.6,0,1.3,0.2,1.6,0.7l0,0
				V7.5h1L452.9,14.1L452.9,14.1z M450.6,13.4c0.9,0,1.3-0.9,1.3-1.7c0-1-0.5-1.7-1.3-1.7c-1,0-1.3,0.9-1.3,1.7
				C449.2,12.6,449.6,13.4,450.6,13.4z"/>
			<path d="M454.8,12c0,0.7,0.4,1.4,1.3,1.4c0.6,0,1-0.3,1.2-0.8h1c-0.2,1-1.1,1.6-2.1,1.6c-1.5,0-2.3-1-2.3-2.5
				c0-1.4,0.9-2.5,2.3-2.5c1.5,0,2.4,1.4,2.2,2.8C458.3,12,454.8,12,454.8,12z M457.3,11.3c0-0.7-0.5-1.3-1.2-1.3s-1.2,0.6-1.3,1.3
				H457.3z"/>
			<path d="M463.6,14.1h-1v-0.6l0,0c-0.3,0.5-0.9,0.8-1.5,0.8c-1.5,0-2.2-1.1-2.2-2.5c0-1.7,1-2.5,2-2.5c0.6,0,1.3,0.2,1.6,0.7l0,0
				V7.5h1L463.6,14.1L463.6,14.1z M461.3,13.4c0.9,0,1.3-0.9,1.3-1.7c0-1-0.5-1.7-1.3-1.7c-1,0-1.3,0.9-1.3,1.7
				C459.9,12.6,460.3,13.4,461.3,13.4z"/>
			<path d="M467.3,7.5h1v2.4l0,0c0.3-0.4,0.9-0.7,1.4-0.7c1.5,0,2.2,1.1,2.2,2.5c0,1.3-0.6,2.5-2,2.5c-0.6,0-1.3-0.2-1.6-0.8l0,0V14
				h-1C467.3,14.1,467.3,7.5,467.3,7.5z M469.6,10c-0.9,0-1.3,0.7-1.3,1.7c0,0.9,0.5,1.7,1.3,1.7c1,0,1.3-0.8,1.3-1.7
				C471,10.8,470.5,10,469.6,10z"/>
			<path d="M472.4,9.3h1.1l1.2,3.5l0,0l1.2-3.5h1.1l-1.8,5c-0.3,0.9-0.6,1.6-1.7,1.6c-0.3,0-0.5,0-0.7-0.1V15c0.2,0,0.3,0.1,0.5,0.1
				c0.5,0,0.6-0.3,0.7-0.7l0.1-0.4L472.4,9.3z"/>
			<path d="M479.7,9.3h0.8V7.9h1v1.4h0.9v0.8h-0.9v2.5c0,0.4,0,0.6,0.5,0.6c0.1,0,0.3,0,0.4,0V14c-0.2,0-0.5,0.1-0.7,0.1
				c-1.1,0-1.3-0.4-1.3-1.2v-2.8h-0.8L479.7,9.3L479.7,9.3z"/>
			<path d="M483.2,7.5h1v2.4l0,0c0.3-0.4,0.8-0.8,1.4-0.8c1,0,1.7,0.6,1.7,1.6V14h-1v-3c0-0.7-0.3-1.1-0.9-1.1
				c-0.7,0-1.1,0.6-1.1,1.3V14h-1C483.2,14.1,483.2,7.5,483.2,7.5z"/>
			<path d="M489.3,12c0,0.7,0.4,1.4,1.3,1.4c0.6,0,1-0.3,1.2-0.8h1c-0.2,1-1.1,1.6-2.1,1.6c-1.5,0-2.3-1-2.3-2.5
				c0-1.4,0.9-2.5,2.3-2.5c1.5,0,2.4,1.4,2.2,2.8C492.8,12,489.3,12,489.3,12z M491.8,11.3c0-0.7-0.5-1.3-1.2-1.3s-1.2,0.6-1.3,1.3
				H491.8z"/>
			<path d="M447.2,23.2h-0.7l-0.2-0.8c-0.6,0.7-1.2,0.9-2,0.9c-2,0-3.1-1.6-3.1-3.4s1.2-3.4,3.1-3.4c1.4,0,2.6,0.8,2.8,2.2H446
				c-0.1-0.9-0.9-1.3-1.7-1.3c-1.4,0-2,1.2-2,2.5s0.6,2.5,2,2.5c1.2,0,1.8-0.7,1.8-1.8h-1.7v-0.9h2.8
				C447.2,19.8,447.2,23.2,447.2,23.2z"/>
			<path d="M448,20.9c0-1.5,0.9-2.5,2.4-2.5s2.4,1,2.4,2.5s-0.9,2.5-2.4,2.5S448,22.3,448,20.9z M451.8,20.9c0-0.8-0.4-1.7-1.4-1.7
				s-1.4,0.9-1.4,1.7c0,0.8,0.4,1.7,1.4,1.7C451.4,22.5,451.8,21.7,451.8,20.9z"/>
			<path d="M453.2,18.5h1.1l1.2,3.6l0,0l1.2-3.6h1.1l-1.7,4.7h-1.2L453.2,18.5z"/>
			<path d="M459.3,21.1c0,0.7,0.4,1.4,1.3,1.4c0.6,0,1-0.3,1.2-0.8h1c-0.2,1-1.1,1.6-2.1,1.6c-1.5,0-2.3-1-2.3-2.5
				c0-1.4,0.9-2.5,2.3-2.5c1.5,0,2.4,1.4,2.2,2.8H459.3L459.3,21.1z M461.7,20.4c0-0.7-0.5-1.3-1.2-1.3s-1.2,0.5-1.3,1.3H461.7z"/>
			<path d="M463.5,18.5h1v0.9l0,0c0.1-0.5,0.7-1,1.4-1c0.2,0,0.3,0,0.4,0v1c-0.1,0-0.3,0-0.5,0c-0.7,0-1.3,0.6-1.3,1.6v2.3h-1V18.5z
				"/>
			<path d="M466.9,18.5h1v0.7l0,0c0.3-0.5,0.9-0.8,1.5-0.8c1,0,1.7,0.5,1.7,1.6v3.3h-1v-3c0-0.7-0.3-1.1-0.9-1.1
				c-0.7,0-1.1,0.5-1.1,1.3v2.8h-1v-4.8H466.9z"/>
			<path d="M472.2,18.5h1v0.7l0,0c0.3-0.5,0.7-0.8,1.5-0.8c0.6,0,1.1,0.3,1.3,0.8c0.4-0.5,0.8-0.8,1.5-0.8c1,0,1.6,0.4,1.6,1.6v3.3
				h-1v-2.8c0-0.8,0-1.3-0.9-1.3c-0.7,0-1,0.5-1,1.3v2.8h-1v-3c0-0.6-0.2-1-0.8-1c-0.5,0-1,0.4-1,1.2v2.8h-1L472.2,18.5L472.2,18.5z
				"/>
			<path d="M481,21.1c0,0.7,0.4,1.4,1.3,1.4c0.6,0,1-0.3,1.2-0.8h1c-0.2,1-1.1,1.6-2.1,1.6c-1.5,0-2.3-1-2.3-2.5
				c0-1.4,0.9-2.5,2.3-2.5c1.5,0,2.4,1.4,2.2,2.8H481L481,21.1z M483.4,20.4c0-0.7-0.5-1.3-1.2-1.3s-1.2,0.5-1.3,1.3H483.4z"/>
			<path d="M485.3,18.5h1v0.7l0,0c0.3-0.5,0.9-0.8,1.5-0.8c1,0,1.7,0.5,1.7,1.6v3.3h-1v-3c0-0.7-0.3-1.1-0.9-1.1
				c-0.7,0-1.1,0.5-1.1,1.3v2.8h-1L485.3,18.5L485.3,18.5z"/>
			<path d="M490.1,18.5h0.8v-1.4h1v1.4h0.9v0.8h-0.9v2.5c0,0.4,0,0.6,0.5,0.6c0.1,0,0.3,0,0.4,0v0.8c-0.2,0-0.5,0.1-0.7,0.1
				c-1.1,0-1.3-0.4-1.3-1.2v-2.8H490L490.1,18.5L490.1,18.5z"/>
			<path d="M449.7,30c0-1.5,0.9-2.5,2.4-2.5s2.4,1,2.4,2.5s-0.9,2.5-2.4,2.5S449.7,31.5,449.7,30z M453.5,30c0-0.8-0.4-1.7-1.4-1.7
				s-1.4,0.9-1.4,1.7s0.4,1.7,1.4,1.7S453.5,30.9,453.5,30z"/>
			<path d="M454.9,27.7h0.8v-0.4c0-1.2,0.6-1.4,1.3-1.4c0.3,0,0.6,0,0.7,0.1v0.8c-0.1,0-0.3-0.1-0.5-0.1c-0.3,0-0.5,0.1-0.5,0.5v0.5
				h0.9v0.8h-0.9v4h-1v-4h-0.8V27.7z"/>
			<path d="M465.4,27.9c-0.2-0.8-0.7-1.3-1.6-1.3c-1.4,0-2,1.2-2,2.5s0.6,2.5,2,2.5c1,0,1.6-0.8,1.7-1.7h1.1
				c-0.1,1.6-1.2,2.6-2.8,2.6c-2,0-3.1-1.6-3.1-3.4s1.2-3.4,3.1-3.4c1.5,0,2.6,0.8,2.8,2.2L465.4,27.9L465.4,27.9z"/>
			<path d="M471.4,31.3c0,0.3,0.1,0.4,0.3,0.4c0.1,0,0.1,0,0.3,0v0.7c-0.2,0.1-0.5,0.1-0.7,0.1c-0.4,0-0.7-0.2-0.8-0.6
				c-0.4,0.4-1.1,0.6-1.6,0.6c-0.9,0-1.6-0.5-1.6-1.4c0-1.2,0.9-1.4,1.8-1.5c0.8-0.1,1.4-0.1,1.4-0.7c0-0.5-0.6-0.6-1-0.6
				c-0.6,0-1,0.2-1,0.8h-1c0.1-1.2,1.1-1.6,2.2-1.6c0.9,0,1.9,0.4,1.9,1.4L471.4,31.3L471.4,31.3z M470.4,30
				c-0.3,0.2-0.8,0.2-1.3,0.3c-0.5,0.1-0.9,0.2-0.9,0.8c0,0.5,0.6,0.6,1,0.6c0.5,0,1.2-0.2,1.2-0.9L470.4,30L470.4,30z"/>
			<path d="M472.5,27.7h1v0.7l0,0c0.3-0.5,0.9-0.8,1.5-0.8c1,0,1.7,0.5,1.7,1.6v3.3h-1v-3c0-0.7-0.3-1.1-0.9-1.1
				c-0.7,0-1.1,0.5-1.1,1.3v2.8h-1C472.5,32.4,472.5,27.7,472.5,27.7z"/>
			<path d="M481.8,31.3c0,0.3,0.1,0.4,0.3,0.4c0.1,0,0.1,0,0.3,0v0.7c-0.2,0.1-0.5,0.1-0.7,0.1c-0.4,0-0.7-0.2-0.8-0.6
				c-0.4,0.4-1.1,0.6-1.6,0.6c-0.9,0-1.6-0.5-1.6-1.4c0-1.2,0.9-1.4,1.8-1.5c0.8-0.1,1.4-0.1,1.4-0.7c0-0.5-0.6-0.6-1-0.6
				c-0.6,0-1,0.2-1,0.8h-1c0.1-1.2,1.1-1.6,2.2-1.6c0.9,0,1.9,0.4,1.9,1.4L481.8,31.3L481.8,31.3L481.8,31.3z M480.7,30
				c-0.3,0.2-0.8,0.2-1.3,0.3s-0.9,0.2-0.9,0.8c0,0.5,0.6,0.6,1,0.6c0.5,0,1.2-0.2,1.2-0.9L480.7,30L480.7,30z"/>
			<path d="M487.4,32.4h-1v-0.6l0,0c-0.3,0.5-0.9,0.8-1.5,0.8c-1.5,0-2.2-1.1-2.2-2.5c0-1.7,1-2.5,2-2.5c0.6,0,1.3,0.2,1.6,0.7l0,0
				v-2.4h1L487.4,32.4L487.4,32.4z M485,31.7c0.9,0,1.3-0.9,1.3-1.7c0-1-0.5-1.7-1.3-1.7c-1,0-1.3,0.9-1.3,1.7
				C483.7,30.9,484.1,31.7,485,31.7z"/>
			<path d="M492.5,31.3c0,0.3,0.1,0.4,0.3,0.4c0.1,0,0.1,0,0.3,0v0.7c-0.2,0.1-0.5,0.1-0.7,0.1c-0.4,0-0.7-0.2-0.8-0.6
				c-0.4,0.4-1.1,0.6-1.6,0.6c-0.9,0-1.6-0.5-1.6-1.4c0-1.2,0.9-1.4,1.8-1.5c0.8-0.1,1.4-0.1,1.4-0.7c0-0.5-0.6-0.6-1-0.6
				c-0.6,0-1,0.2-1,0.8h-1c0.1-1.2,1.1-1.6,2.2-1.6c0.9,0,1.9,0.4,1.9,1.4L492.5,31.3L492.5,31.3L492.5,31.3z M491.4,30
				c-0.3,0.2-0.8,0.2-1.3,0.3s-0.9,0.2-0.9,0.8c0,0.5,0.6,0.6,1,0.6c0.5,0,1.2-0.2,1.2-0.9C491.4,30.8,491.4,30,491.4,30z"/>
		</g>
		<g>
			<g>
				<path d="M674,10c0-0.2,0-0.7-0.6-0.7s-4.6,0.2-4.8,0.2c-0.3,0-0.5,0.3,0,0.3s2.6,0.2,2.6,3.7c0,0.2,0,13.5,0,11.4
					c0,4.2-1.6,5.8-3.4,5.8c-2.9,0-4.4-3.4-4.4-6.7c0-3.6,2-6.1,4.2-5.9c3,0.2,3.6,2.6,3.6,6.9v-7.1c0,0.9,0,1-0.4,0.7
					c-0.3-0.3-1.8-1.2-3.7-1.2c-3.1,0-6.9,2.2-6.9,6.9c0,4.9,3.5,7.3,7.1,7.3c1.8,0,3-0.8,3.5-1.1c0.5-0.3,0.5-0.3,0.5,0.2
					c0.1,0.4,0,1,0.9,0.9c1-0.1,3.3-0.4,3.8-0.5s0.4-0.4-0.1-0.5c-0.3,0-1.9,0.2-1.9-4.8S674,10,674,10z"/>
			</g>
			<g>
				<path d="M612.6,10.1c0.2,0.1,1,0.4,1.2-0.2c0.2-0.6,0.1-0.2,0.2-0.4c0.1-0.3,0.7-0.5,0.8,0.1c0.1,0.7,0.5,6.3,0.5,6.6
					c0,0.7-0.9,0.7-0.9,0.1c-0.1-0.9-1.8-6.6-6.6-6.5c-4.3,0.1-7.1,5-6.9,11.4c0.2,6,3,9.2,7.7,9.1c4.5-0.1,5.8-3.5,6.5-5.6
					c0.3-0.9,1.1-0.6,0.9,0.2c-0.8,3.5-3.5,6.5-8.3,6.6c-5.3,0.1-10.9-3.9-11.1-10.9c-0.2-7.2,5.6-11.4,11.2-11.5
					C610.2,9.1,611.7,9.9,612.6,10.1z"/>
			</g>
			<g>
				<rect x="675.8" y="9.4" width="3.4" height="6.9"/>
			</g>
			<g>
				<path d="M682.8,15.8c0,0,0-1.2,0-1.3s0.1-0.2,0.2-0.1c0.1,0,1.2,0.2,1.2,0.2s-0.1-0.2-0.1-0.4s0-0.2,0.1-0.2l1.2-1l-0.2-0.1
					c-0.1-0.1-0.1-0.1-0.1-0.2l0.2-0.7c0,0-0.5,0.1-0.6,0.1s-0.1,0-0.2-0.1l-0.2-0.4l-0.6,0.7c-0.1,0.1-0.2,0-0.2-0.1
					s0.3-1.5,0.3-1.5s-0.3,0.2-0.4,0.3s-0.2,0.1-0.2-0.1c-0.1-0.1-0.5-0.9-0.5-0.9l0,0c0,0-0.4,0.8-0.5,0.9
					c-0.1,0.1-0.1,0.1-0.2,0.1s-0.4-0.3-0.4-0.3s0.3,1.4,0.3,1.5s-0.1,0.2-0.2,0.1l-0.6-0.7l-0.2,0.4c0,0.1-0.1,0.1-0.2,0.1
					c-0.1,0-0.6-0.1-0.6-0.1l0.2,0.7c0,0.1,0,0.2-0.1,0.2L680,13l1.2,1c0,0,0.1,0.1,0.1,0.2s-0.1,0.4-0.1,0.4s1.1-0.2,1.2-0.2
					c0.1,0,0.2,0,0.2,0.1s0,1.3,0,1.3H682.8L682.8,15.8z"/>
			</g>
			<g>
				<rect x="686" y="9.4" width="3.4" height="6.9"/>
			</g>
			<g>
				<path d="M624,21.3c0,1.4-0.2,1.9-1.1,2.3c-0.8,0.4-3.1,0.7-3.4,0.8c-0.9,0.2-3.5,0.9-3.4,3.5c0.1,2.7,2.7,3.5,4.5,3.5
					s2.8-0.8,3.3-1.2c0.3-0.2,0.3-0.2,0.5,0.1c0.3,0.3,1.1,1.1,3.2,1.1c2.1,0,2.4-1,2.5-1.3c0.2-0.4-0.3-0.6-0.4-0.3
					c-0.3,0.6-0.8,0.8-1.1,0.8c-0.4,0-1.6-0.1-1.6-3.1c0,0,0-6.3,0-6.6c0-2-1.6-3.7-5.7-3.7c-4.4,0-4.5,2.2-4.5,2.7
					c0,0.6,0.3,1.3,1.4,1.3c1,0,1.2-1.1,1.4-1.5s0.2-1.8,2-1.8C623,18,624,19.4,624,21.3V27c0,2-1,3.6-2.6,3.6
					c-1.8,0-2.3-1.5-2.3-2.3c0-0.7,0.4-2.3,2.2-3.3c0,0,0.8-0.5,2.5-1.2c0.2,0,0.2,0,0.2,0.3L624,21.3L624,21.3z"/>
			</g>
			<g>
				<path d="M654.5,21.3c0,1.4-0.2,1.9-1.1,2.3c-0.8,0.4-3.1,0.7-3.4,0.8c-0.9,0.2-3.5,0.9-3.4,3.5c0.1,2.7,2.7,3.5,4.5,3.5
					s2.8-0.8,3.3-1.2c0.3-0.2,0.3-0.2,0.5,0.1c0.3,0.3,1.1,1.1,3.2,1.1c2.1,0,2.4-1,2.5-1.3c0.2-0.4-0.3-0.6-0.4-0.3
					c-0.3,0.6-0.8,0.8-1.1,0.8c-0.4,0-1.6-0.1-1.6-3.1c0,0,0-6.3,0-6.6c0-2-1.6-3.7-5.7-3.7c-4.4,0-4.5,2.2-4.5,2.7
					c0,0.6,0.3,1.3,1.4,1.3c1,0,1.2-1.1,1.4-1.5s0.2-1.8,2-1.8C653.5,18,654.5,19.4,654.5,21.3V27c0,2-1,3.6-2.6,3.6
					c-1.8,0-2.3-1.5-2.3-2.3c0-0.7,0.4-2.3,2.2-3.3c0,0,0.8-0.5,2.5-1.2c0.2,0,0.2,0,0.2,0.3L654.5,21.3z"/>
			</g>
			<g>
				<path d="M684.6,21.3c0,1.4-0.2,1.9-1.1,2.3c-0.8,0.4-3.1,0.7-3.4,0.8c-0.9,0.2-3.5,0.9-3.4,3.5c0.1,2.7,2.7,3.5,4.5,3.5
					s2.8-0.8,3.3-1.2c0.3-0.2,0.3-0.2,0.5,0.1c0.3,0.3,1.1,1.1,3.2,1.1c2.1,0,2.4-1,2.5-1.3c0.2-0.4-0.3-0.6-0.4-0.3
					c-0.3,0.6-0.8,0.8-1.1,0.8c-0.4,0-1.6-0.1-1.6-3.1c0,0,0-6.3,0-6.6c0-2-1.6-3.7-5.7-3.7c-4.4,0-4.5,2.2-4.5,2.7
					c0,0.6,0.3,1.3,1.4,1.3c1,0,1.2-1.1,1.4-1.5s0.2-1.8,2-1.8C683.6,18,684.6,19.4,684.6,21.3V27c0,2-1,3.6-2.6,3.6
					c-1.8,0-2.3-1.5-2.3-2.3c0-0.7,0.4-2.3,2.2-3.3c0,0,0.8-0.5,2.5-1.2c0.2,0,0.2,0,0.2,0.3L684.6,21.3z"/>
			</g>
			<g>
				<path d="M641.2,27.9c0,2.3-0.7,3-1.4,3.2c-0.7,0.1-0.6,0.5-0.2,0.5c0.2,0,6.1,0,6.1,0c0.5,0,0.8-0.3,0-0.5
					c-0.5-0.1-1.4-0.7-1.4-3.6v-5.3c0-1.3,0.1-4.5-4.8-4.5c-2.5,0-4,1.3-4.2,1.4c-0.2,0.2-0.3,0.3-0.4-0.1c-0.1-0.3-0.2-0.7-0.3-0.9
					s-0.2-0.4-0.7-0.3s-3.4,0.5-3.9,0.6s-0.3,0.3,0,0.4s1.9,0.2,1.9,2.9s0,5.6,0,5.6c0,3.3-0.7,3.6-1.3,3.7c-0.8,0.2-0.4,0.5,0,0.5
					c0,0,5.8,0,6,0c0.4,0,0.6-0.4-0.2-0.5s-1.5-0.6-1.5-3.1c0-0.3,0-3.1,0-3.6c0-1.4-0.3-5.6,3.5-5.6c2.7-0.1,2.9,2.1,3,3.6
					L641.2,27.9z"/>
			</g>
		</g>
	</g>
	<line class="st5" x1="220" y1="0" x2="220" y2="40"/>
</g>
</svg>
