<?xml version="1.0" encoding="utf-8"?>
<!-- Generator: Adobe Illustrator 21.0.0, SVG Export Plug-In . SVG Version: 6.00 Build 0)  -->
<svg version="1.1" id="Layer_1" xmlns="http://www.w3.org/2000/svg" xmlns:xlink="http://www.w3.org/1999/xlink" x="0px" y="0px"
	 width="394.2px" height="21.5px" viewBox="0 0 394.2 21.5" style="enable-background:new 0 0 394.2 21.5;" xml:space="preserve">
<style type="text/css">
	.st0{fill:#00ADEE;}
	.st1{fill:#FFFFFF;}
	.st2{fill:none;stroke:#000000;stroke-width:0.25;}
	.st3{fill:#2F3F84;}
	.st4{fill:#47B982;}
	.st5{fill:#1E2E49;}
</style>
<g>
	<path class="st0" d="M23,18.8H6c-3.3,0-6-2.7-6-6v-12h23c1.7,0,3,1.3,3,3v12C26,17.4,24.7,18.8,23,18.8z"/>
	<g>
		<g>
			<g>
				<path class="st1" d="M12.5,17.3c-0.7,0-1.3-0.2-1.7-0.6c-0.4-0.4-0.6-1-0.6-1.9v-12h2.9v10.8c0,0.5,0.1,0.7,0.1,0.9
					c0.1,0.1,0.1,0.1,0.2,0.1c0.1,0,0.2,0,0.3,0c0.1,0,0.2-0.1,0.4-0.1l0.4-0.2l0.3,2.5l-0.1,0.1c-0.2,0.1-0.5,0.2-0.9,0.3
					C13.4,17.3,12.9,17.3,12.5,17.3z"/>
				<path class="st0" d="M12.9,3.2v10.5c0,0.4,0.1,0.8,0.1,1c0.1,0.2,0.2,0.3,0.4,0.3c0.1,0,0.2,0,0.4,0s0.3-0.1,0.4-0.1l0.2,1.9
					c-0.2,0.1-0.4,0.2-0.8,0.3S12.9,17,12.5,17c-0.6,0-1.1-0.2-1.5-0.5c-0.3-0.3-0.5-0.9-0.5-1.6V3.2H12.9 M13.5,2.6h-0.6h-2.3H10
					v0.6v11.7c0,0.9,0.2,1.6,0.7,2.1c0.4,0.4,1.1,0.7,1.9,0.7c0.4,0,0.9,0,1.3-0.1c0.5-0.1,0.8-0.2,1-0.4l0.3-0.2l0-0.4l-0.2-1.9
					l-0.1-0.8L14,14.2c-0.1,0.1-0.2,0.1-0.3,0.1c-0.1,0-0.1,0-0.2,0c0-0.1-0.1-0.3-0.1-0.7V3.2L13.5,2.6L13.5,2.6z"/>
			</g>
			<g>
				<path class="st1" d="M15.7,21.2c-0.4,0-0.8,0-1.2-0.1L14.3,21v-2.6l0.3,0c0.1,0,0.1,0,0.2,0c0.4,0,0.6-0.2,0.6-0.3
					c0.1-0.3,0.2-0.8,0.2-1.5V6.9h2.9v10.4c0,1.2-0.2,2.2-0.7,2.9C17.4,20.9,16.7,21.2,15.7,21.2z M17.1,6c-0.5,0-1-0.2-1.3-0.4
					c-0.3-0.3-0.5-0.7-0.5-1.2s0.1-0.9,0.4-1.2C16.1,3,16.5,2.8,17,2.8s1,0.2,1.3,0.5c0.3,0.3,0.5,0.7,0.5,1.2s-0.2,0.9-0.5,1.2
					C18,5.9,17.6,6,17.1,6z"/>
				<path class="st0" d="M17.1,3.1c0.5,0,0.8,0.1,1.1,0.4s0.4,0.6,0.4,1c0,0.4-0.1,0.7-0.4,0.9c-0.3,0.2-0.6,0.3-1.1,0.3
					s-0.8-0.1-1-0.4c-0.3-0.2-0.4-0.6-0.4-0.9s0.1-0.7,0.4-1C16.3,3.2,16.6,3.1,17.1,3.1 M18.2,7.2v10.1c0,1.2-0.2,2.1-0.6,2.7
					s-1.1,0.9-1.9,0.9c-0.4,0-0.7,0-1.1-0.1v-2.1c0.1,0,0.1,0,0.2,0c0.4,0,0.8-0.2,0.9-0.5c0.2-0.4,0.3-0.9,0.3-1.6V7.2H18.2
					 M17.1,2.5c-0.6,0-1.1,0.2-1.5,0.6s-0.5,0.8-0.5,1.4s0.2,1,0.6,1.4c0.4,0.3,0.9,0.5,1.5,0.5c0.6,0,1.1-0.2,1.5-0.5
					c0.4-0.3,0.6-0.8,0.6-1.4c0-0.6-0.2-1.1-0.6-1.4C18.2,2.7,17.7,2.5,17.1,2.5L17.1,2.5z M18.8,6.6h-0.6h-2.3h-0.6v0.6v9.4
					c0,0.8-0.1,1.2-0.2,1.4c0,0-0.1,0.1-0.4,0.1c-0.1,0-0.1,0-0.1,0L14,18.1v0.7v2.1v0.5l0.5,0.1c0.4,0.1,0.8,0.1,1.3,0.1
					c1.4,0,2.1-0.7,2.5-1.2c0.5-0.7,0.7-1.7,0.7-3V7.2L18.8,6.6L18.8,6.6z"/>
			</g>
			<g>
				<path class="st1" d="M20,17.2V6.9h2.9v10.3H20z M21.4,6c-0.5,0-1-0.2-1.3-0.4c-0.3-0.3-0.5-0.7-0.5-1.2s0.1-0.9,0.5-1.2
					c0.3-0.3,0.7-0.5,1.3-0.5s1,0.2,1.3,0.5c0.3,0.3,0.5,0.7,0.5,1.2s-0.2,0.9-0.5,1.2C22.4,5.9,22,6,21.4,6z"/>
				<path class="st0" d="M21.4,3.1c0.5,0,0.8,0.1,1.1,0.4s0.4,0.6,0.4,1c0,0.4-0.1,0.7-0.4,0.9c-0.3,0.2-0.6,0.3-1.1,0.3
					s-0.8-0.1-1-0.4S20,4.8,20,4.4s0.1-0.7,0.4-1C20.6,3.2,21,3.1,21.4,3.1 M22.6,7.2v9.7h-2.3V7.2H22.6 M21.4,2.5
					c-0.6,0-1.1,0.2-1.5,0.6c-0.4,0.4-0.5,0.8-0.5,1.4s0.2,1,0.5,1.4c0.4,0.3,0.9,0.5,1.5,0.5c0.6,0,1.1-0.2,1.5-0.5
					c0.4-0.3,0.6-0.8,0.6-1.4c0-0.6-0.2-1.1-0.6-1.4C22.5,2.7,22,2.5,21.4,2.5L21.4,2.5z M23.2,6.6h-0.6h-2.3h-0.6v0.6v9.7v0.6h0.6
					h2.3h0.6v-0.6V7.2V6.6L23.2,6.6z"/>
			</g>
		</g>
	</g>
</g>
<g>
	<g>
		<path class="st0" d="M32.9,16.3h-1v-9h0.9l0,1.1h0c0.6-0.8,1.6-1.3,2.7-1.3c2,0,3,1.3,3,3.2v6h-1v-6c0-1.5-0.7-2.4-2.2-2.4
			c-1.1,0-2,0.6-2.5,1.3V16.3z"/>
		<path class="st0" d="M40.6,11.6v1.6c0,1.5,0.8,2.4,2.3,2.4c1.1,0,1.8-0.5,2.3-1.7l0.7,0.3c-0.5,1.5-1.5,2.2-3.1,2.2
			c-2.1,0-3.3-1.3-3.3-3.2v-3c0-1.9,1.2-3.2,3.2-3.2c2,0,3.2,1.4,3.2,3.2v1.4C46,11.6,40.6,11.6,40.6,11.6z M40.6,10.9h4.5v-0.8
			c0-1.4-0.8-2.3-2.3-2.3c-1.5,0-2.2,1-2.2,2.3V10.9z"/>
		<path class="st0" d="M52,8.3L52,8.3l-2.2,7.9h-1.1l-2.7-9h1.1l2.1,7.9h0l2.2-7.9h1l2.2,8h0l2.1-8h1.1l-2.7,9h-1.1L52,8.3z"/>
		<path class="st0" d="M58.2,14.5l0.7-0.4c0.5,1.1,1.3,1.5,2.3,1.5c1.3,0,1.9-0.7,1.9-1.8c0-2.4-4.8-1.4-4.8-4.4
			c0-1.3,0.9-2.4,2.8-2.4c1.3,0,2.3,0.6,2.8,1.8l-0.7,0.4c-0.4-0.9-1.2-1.3-2.1-1.3c-1.3,0-1.9,0.7-1.9,1.5c0,2.3,4.8,1.4,4.8,4.5
			c0,1.6-1.2,2.6-2.8,2.6C59.9,16.4,58.8,15.9,58.2,14.5z"/>
		<path class="st0" d="M73.7,9.3c-0.4-0.9-1.2-1.4-2.2-1.4c-1.5,0-2.3,0.9-2.3,2.4v2.9c0,1.5,0.8,2.4,2.3,2.4c1.1,0,1.8-0.5,2.3-1.5
			l0.7,0.3c-0.5,1.2-1.5,2-3,2c-2.1,0-3.2-1.3-3.2-3.2v-3c0-1.9,1.2-3.2,3.2-3.2c1.4,0,2.4,0.7,3,1.9L73.7,9.3z"/>
		<path class="st0" d="M75.7,11.6v1.6c0,1.5,0.8,2.4,2.3,2.4c1.1,0,1.8-0.5,2.3-1.7l0.7,0.3c-0.5,1.5-1.5,2.2-3.1,2.2
			c-2.1,0-3.3-1.3-3.3-3.2v-3c0-1.9,1.2-3.2,3.2-3.2c2,0,3.2,1.4,3.2,3.2v1.4C81.1,11.6,75.7,11.6,75.7,11.6z M75.7,10.9h4.5v-0.8
			c0-1.4-0.8-2.3-2.3-2.3c-1.5,0-2.2,1-2.2,2.3V10.9z"/>
		<path class="st0" d="M83.2,16.3h-1v-9h0.9l0,1.1h0c0.6-0.8,1.6-1.3,2.7-1.3c2,0,3,1.3,3,3.2v6h-1v-6c0-1.5-0.7-2.4-2.2-2.4
			c-1.1,0-2,0.6-2.5,1.3L83.2,16.3L83.2,16.3z"/>
		<path class="st0" d="M94.1,8h-2.5v6c0,1.2,0.5,1.6,1.3,1.6c0.4,0,0.7-0.1,0.9-0.2l0.2,0.6c-0.4,0.2-0.8,0.4-1.4,0.4
			c-1.4,0-2.1-0.9-2.1-2.4V8.1l-1.3-0.2V7.3l1.3-0.1l0.2-2.6h0.7v2.7h2.5V8z"/>
		<path class="st0" d="M99.4,8.2C99.2,8.1,98.9,8,98.5,8c-1.5,0-2.3,1.3-2.4,3v5.2h-1v-9h0.9L96,9.1h0c0.5-1.3,1.3-2,2.5-2
			c0.4,0,0.8,0.1,1.1,0.3L99.4,8.2z"/>
		<path class="st0" d="M100.6,11.6v1.6c0,1.5,0.8,2.4,2.3,2.4c1.1,0,1.8-0.5,2.3-1.7l0.7,0.3c-0.5,1.5-1.5,2.2-3.1,2.2
			c-2.1,0-3.3-1.3-3.3-3.2v-3c0-1.9,1.2-3.2,3.2-3.2c2,0,3.2,1.4,3.2,3.2v1.4C106,11.6,100.6,11.6,100.6,11.6z M100.6,10.9h4.5v-0.8
			c0-1.4-0.8-2.3-2.3-2.3c-1.5,0-2.2,1-2.2,2.3V10.9z"/>
	</g>
</g>
<line class="st2" x1="116" y1="0" x2="116" y2="20.8"/>
<g>
	<polygon points="303,10.5 301.4,10.5 301.4,9.7 305.6,9.7 305.6,10.5 304,10.5 304,14.6 303,14.6 	"/>
	<polygon points="306.5,9.7 307.4,9.7 307.4,11.6 309.7,11.6 309.7,9.7 310.7,9.7 310.7,14.6 309.7,14.6 309.7,12.5 307.4,12.5 
		307.4,14.6 306.5,14.6 	"/>
	<polygon points="311.8,9.7 315.1,9.7 315.1,10.5 312.8,10.5 312.8,11.6 314.7,11.6 314.7,12.5 312.8,12.5 312.8,13.8 315.1,13.8 
		315.1,14.6 311.8,14.6 	"/>
	<path d="M317.8,12.1c0-2.2,0.9-2.6,2.2-2.6c0.8,0,1.2,0.1,1.4,0.1l-0.2,0.9c-0.4-0.1-0.7-0.1-1.3-0.1c-0.9,0-1.2,0.4-1.2,1.5v0.4
		c0,1.1,0.3,1.5,1.2,1.5c0.6,0,1.1-0.1,1.3-0.1l0.2,0.8c-0.3,0.1-0.6,0.2-1.4,0.2C318.6,14.7,317.8,14.3,317.8,12.1"/>
	<path d="M323,14.6h-1l1.9-5h0.9l1.9,5h-1l-0.3-0.9h-2.1L323,14.6z M324.4,11l-0.7,1.9h1.5L324.4,11z"/>
	<polygon points="327.5,9.7 328.5,9.7 330.7,12.8 330.7,9.7 331.6,9.7 331.6,14.6 330.8,14.6 328.5,11.3 328.5,14.6 327.5,14.6 	"/>
	<path d="M333.3,14.6h-1l1.9-5h0.9l1.9,5h-1l-0.3-0.9h-2.1L333.3,14.6z M334.7,11l-0.7,1.9h1.5L334.7,11z"/>
	<path d="M337.8,9.7h1.9c1.5,0,2.3,0.4,2.3,2.5c0,2.1-0.8,2.5-2.3,2.5h-1.9V9.7z M339.6,13.8c0.9,0,1.2-0.4,1.2-1.5V12
		c0-1.1-0.3-1.5-1.2-1.5h-0.9v3.4L339.6,13.8L339.6,13.8z"/>
	<rect x="342.8" y="9.7" width="1" height="5"/>
	<path d="M345.5,14.6h-1l1.9-5h0.9l1.9,5h-1l-0.3-0.9h-2.1L345.5,14.6z M346.9,11l-0.7,1.9h1.5L346.9,11z"/>
	<polygon points="350,9.7 351,9.7 353.2,12.8 353.2,9.7 354.1,9.7 354.1,14.6 353.3,14.6 350.9,11.3 350.9,14.6 350,14.6 	"/>
	<path d="M357.1,9.7h2c1.2,0,1.8,0.3,1.8,1.7c0,1.4-0.6,1.7-1.9,1.7h-1v1.5h-1L357.1,9.7L357.1,9.7z M359.1,12.3
		c0.5,0,0.8-0.1,0.8-0.9s-0.4-0.9-0.9-0.9h-1v1.8H359.1z"/>
	<path d="M366.1,14.6h-1.1l-1.1-1.6h-0.9v1.6h-1v-5h2c1.2,0,1.8,0.3,1.8,1.7c0,1-0.3,1.3-0.9,1.5L366.1,14.6z M363.9,12.2
		c0.5,0,0.8-0.1,0.8-0.9c0-0.8-0.3-0.9-0.9-0.9h-1v1.8H363.9z"/>
	<polygon points="367,9.7 370.3,9.7 370.3,10.5 367.9,10.5 367.9,11.6 369.8,11.6 369.8,12.5 367.9,12.5 367.9,13.8 370.3,13.8 
		370.3,14.6 367,14.6 	"/>
	<path d="M371.2,14.5l0.2-0.8c0.2,0.1,1.1,0.2,1.6,0.2c0.7,0,0.9-0.1,0.9-0.6c0-0.5-0.1-0.5-1-0.7c-1.4-0.3-1.7-0.5-1.7-1.6
		c0-1,0.7-1.4,1.8-1.4c0.6,0,1.4,0.1,1.7,0.2l-0.2,0.8c-0.3-0.1-0.9-0.1-1.5-0.1c-0.6,0-0.8,0.1-0.8,0.5c0,0.5,0.2,0.5,0.9,0.7
		c1.3,0.3,1.7,0.4,1.7,1.6c0,1.1-0.6,1.4-2,1.4C372.2,14.7,371.4,14.6,371.2,14.5"/>
	<path d="M375.6,14.5l0.2-0.8c0.2,0.1,1.1,0.2,1.6,0.2c0.7,0,0.9-0.1,0.9-0.6c0-0.5-0.1-0.5-1-0.7c-1.4-0.3-1.7-0.5-1.7-1.6
		c0-1,0.7-1.4,1.8-1.4c0.6,0,1.4,0.1,1.7,0.2l-0.2,0.8c-0.3-0.1-0.9-0.1-1.5-0.1c-0.6,0-0.8,0.1-0.8,0.5c0,0.5,0.2,0.5,0.9,0.7
		c1.3,0.3,1.7,0.4,1.7,1.6c0,1.1-0.6,1.4-2,1.4C376.6,14.7,375.9,14.6,375.6,14.5"/>
	<path d="M382,9.4V5.7h2.6v3.9h-1.5c0.2,1,1.5,1.4,1.5,1.4v0.5C384.5,11.6,382.3,11.1,382,9.4"/>
	<path d="M394.2,9.4V5.7h-2.6v3.9h1.5c-0.2,1-1.5,1.4-1.5,1.4v0.5C391.6,11.6,393.9,11.1,394.2,9.4"/>
	<g>
		<g>
			<g>
				<path d="M389.1,9.7C389.1,9.7,389.1,9.7,389.1,9.7C389.1,9.7,389.2,9.7,389.1,9.7l1.3-1l-0.3-0.3c0,0,0,0,0,0s0,0,0,0l0,0
					l0.2-0.7l-0.7,0.1c0,0,0,0,0,0c0,0,0,0,0,0l0,0l-0.2-0.3l-0.7,0.6c0,0,0,0,0,0c0,0,0,0,0,0l0.3-1.4L388.6,7c0,0,0,0,0,0s0,0,0,0
					l0,0l-0.5-1l-0.5,1c0,0,0,0,0,0c0,0,0,0,0,0l-0.4-0.3l0.3,1.4c0,0,0,0,0,0c0,0,0,0,0,0l-0.7-0.6l-0.2,0.3l0,0c0,0,0,0,0,0
					c0,0,0,0,0,0l-0.7-0.1l0.2,0.7l0,0c0,0,0,0,0,0s0,0,0,0l-0.3,0.3l1.3,1c0,0,0,0,0,0s0,0,0,0l0,0l-0.3,0.5l1.2-0.2c0,0,0,0,0,0v1
					h0.3v-1c0,0,0,0,0,0l1.2,0.2L389.1,9.7L389.1,9.7z"/>
			</g>
		</g>
	</g>
</g>
<g>
	<g>
		<g>
			<rect x="243.6" y="4.8" width="0.4" height="13"/>
		</g>
	</g>
	<g>
		<path d="M211.3,5.7h2v0.4h-1.5v0.7h1.3v0.4h-1.3v1.3h-0.5L211.3,5.7L211.3,5.7z"/>
		<path d="M215.4,8.6h-0.4V8.3h0c-0.1,0.2-0.4,0.3-0.6,0.3c-0.5,0-0.8-0.3-0.8-0.8V6.5h0.5v1.3c0,0.4,0.1,0.5,0.4,0.5
			c0.4,0,0.5-0.2,0.5-0.6V6.5h0.4L215.4,8.6L215.4,8.6z"/>
		<path d="M215.8,6.5h0.4v0.3l0,0c0.1-0.2,0.4-0.4,0.6-0.4c0.4,0,0.7,0.2,0.7,0.7v1.4h-0.4V7.3c0-0.3-0.1-0.5-0.4-0.5
			c-0.3,0-0.5,0.2-0.5,0.5v1.2h-0.4L215.8,6.5L215.8,6.5z"/>
		<path d="M220.1,8.6h-0.4V8.3h0c-0.1,0.2-0.4,0.3-0.6,0.3c-0.6,0-1-0.5-1-1.1c0-0.7,0.4-1.1,0.9-1.1c0.3,0,0.6,0.1,0.7,0.3h0v-1
			h0.4L220.1,8.6L220.1,8.6z M219,8.3c0.4,0,0.6-0.4,0.6-0.7c0-0.4-0.2-0.7-0.6-0.7c-0.4,0-0.6,0.4-0.6,0.8
			C218.5,7.9,218.6,8.3,219,8.3z"/>
		<path d="M220.9,7.7c0,0.3,0.2,0.6,0.6,0.6c0.3,0,0.4-0.1,0.5-0.3h0.4c-0.1,0.4-0.5,0.7-0.9,0.7c-0.6,0-1-0.4-1-1.1
			c0-0.6,0.4-1.1,1-1.1c0.6,0,1.1,0.6,1,1.2C222.4,7.7,220.9,7.7,220.9,7.7z M222,7.4c0-0.3-0.2-0.6-0.5-0.6s-0.5,0.2-0.5,0.6H222z"
			/>
		<path d="M224.7,8.6h-0.4V8.3h0c-0.1,0.2-0.4,0.3-0.6,0.3c-0.6,0-1-0.5-1-1.1c0-0.7,0.4-1.1,0.9-1.1c0.3,0,0.6,0.1,0.7,0.3h0v-1
			h0.4L224.7,8.6L224.7,8.6z M223.7,8.3c0.4,0,0.6-0.4,0.6-0.7c0-0.4-0.2-0.7-0.6-0.7c-0.4,0-0.6,0.4-0.6,0.8
			C223.1,7.9,223.3,8.3,223.7,8.3z"/>
		<path d="M226.3,5.7h0.4v1.1h0c0.1-0.2,0.4-0.3,0.6-0.3c0.6,0,1,0.5,1,1.1c0,0.5-0.3,1.1-0.9,1.1c-0.3,0-0.6-0.1-0.7-0.3h0v0.3
			h-0.4L226.3,5.7L226.3,5.7z M227.3,6.8c-0.4,0-0.6,0.3-0.6,0.7c0,0.4,0.2,0.7,0.6,0.7c0.4,0,0.6-0.4,0.6-0.7
			C227.9,7.2,227.7,6.8,227.3,6.8z"/>
		<path d="M228.5,6.5h0.5l0.5,1.5h0l0.5-1.5h0.5l-0.8,2.2c-0.1,0.4-0.3,0.7-0.7,0.7c-0.1,0-0.2,0-0.3,0V9c0.1,0,0.1,0,0.2,0
			c0.2,0,0.3-0.1,0.3-0.3l0.1-0.2L228.5,6.5z"/>
		<path d="M231.7,6.5h0.3V5.9h0.4v0.6h0.4v0.3h-0.4V8c0,0.2,0,0.3,0.2,0.3c0.1,0,0.1,0,0.2,0v0.4c-0.1,0-0.2,0-0.3,0
			c-0.5,0-0.6-0.2-0.6-0.5V6.9h-0.3V6.5z"/>
		<path d="M233.2,5.7h0.4v1.1h0c0.1-0.2,0.4-0.3,0.6-0.3c0.4,0,0.7,0.2,0.7,0.7v1.4h-0.4V7.3c0-0.3-0.1-0.5-0.4-0.5
			c-0.3,0-0.5,0.2-0.5,0.5v1.2h-0.4L233.2,5.7L233.2,5.7z"/>
		<path d="M235.9,7.7c0,0.3,0.2,0.6,0.6,0.6c0.3,0,0.4-0.1,0.5-0.3h0.4c-0.1,0.4-0.5,0.7-0.9,0.7c-0.6,0-1-0.4-1-1.1
			c0-0.6,0.4-1.1,1-1.1c0.6,0,1.1,0.6,1,1.2C237.4,7.7,235.9,7.7,235.9,7.7z M236.9,7.4c0-0.3-0.2-0.6-0.5-0.6s-0.5,0.2-0.5,0.6
			H236.9z"/>
		<path d="M217.6,12.6h-0.3l-0.1-0.3c-0.3,0.3-0.5,0.4-0.9,0.4c-0.9,0-1.4-0.7-1.4-1.5c0-0.8,0.5-1.5,1.4-1.5c0.6,0,1.1,0.3,1.2,1
			H217c-0.1-0.4-0.4-0.6-0.7-0.6c-0.6,0-0.9,0.5-0.9,1.1c0,0.6,0.3,1.1,0.9,1.1c0.5,0,0.8-0.3,0.8-0.8h-0.8v-0.4h1.2L217.6,12.6
			L217.6,12.6z"/>
		<path d="M217.9,11.5c0-0.6,0.4-1.1,1-1.1s1,0.4,1,1.1s-0.4,1.1-1,1.1S217.9,12.2,217.9,11.5z M219.6,11.5c0-0.4-0.2-0.7-0.6-0.7
			s-0.6,0.4-0.6,0.7c0,0.4,0.2,0.7,0.6,0.7S219.6,11.9,219.6,11.5z"/>
		<path d="M220.2,10.5h0.5l0.5,1.6h0l0.5-1.6h0.5l-0.7,2.1H221L220.2,10.5z"/>
		<path d="M222.8,11.6c0,0.3,0.2,0.6,0.6,0.6c0.3,0,0.4-0.1,0.5-0.3h0.4c-0.1,0.4-0.5,0.7-0.9,0.7c-0.6,0-1-0.4-1-1.1
			c0-0.6,0.4-1.1,1-1.1c0.6,0,1.1,0.6,1,1.2C224.3,11.6,222.8,11.6,222.8,11.6z M223.9,11.4c0-0.3-0.2-0.6-0.5-0.6s-0.5,0.2-0.5,0.6
			H223.9z"/>
		<path d="M224.7,10.5h0.4v0.4h0c0.1-0.2,0.3-0.4,0.6-0.4c0.1,0,0.1,0,0.2,0v0.4c-0.1,0-0.1,0-0.2,0c-0.3,0-0.6,0.3-0.6,0.7v1h-0.4
			V10.5z"/>
		<path d="M226.2,10.5h0.4v0.3l0,0c0.1-0.2,0.4-0.4,0.6-0.4c0.4,0,0.7,0.2,0.7,0.7v1.4h-0.4v-1.3c0-0.3-0.1-0.5-0.4-0.5
			c-0.3,0-0.5,0.2-0.5,0.5v1.2h-0.4L226.2,10.5L226.2,10.5z"/>
		<path d="M228.4,10.5h0.4v0.3h0c0.1-0.2,0.3-0.3,0.6-0.3c0.3,0,0.5,0.1,0.6,0.3c0.1-0.2,0.4-0.3,0.6-0.3c0.4,0,0.7,0.2,0.7,0.7v1.4
			H231v-1.2c0-0.3,0-0.6-0.4-0.6c-0.3,0-0.4,0.2-0.4,0.6v1.2h-0.4v-1.3c0-0.3-0.1-0.4-0.4-0.4c-0.2,0-0.4,0.2-0.4,0.5v1.2h-0.4
			L228.4,10.5L228.4,10.5z"/>
		<path d="M232.3,11.6c0,0.3,0.2,0.6,0.6,0.6c0.3,0,0.4-0.1,0.5-0.3h0.4c-0.1,0.4-0.5,0.7-0.9,0.7c-0.6,0-1-0.4-1-1.1
			c0-0.6,0.4-1.1,1-1.1c0.6,0,1.1,0.6,1,1.2C233.8,11.6,232.3,11.6,232.3,11.6z M233.3,11.4c0-0.3-0.2-0.6-0.5-0.6s-0.5,0.2-0.5,0.6
			H233.3z"/>
		<path d="M234.1,10.5h0.4v0.3l0,0c0.1-0.2,0.4-0.4,0.6-0.4c0.4,0,0.7,0.2,0.7,0.7v1.4h-0.4v-1.3c0-0.3-0.1-0.5-0.4-0.5
			c-0.3,0-0.5,0.2-0.5,0.5v1.2h-0.4L234.1,10.5L234.1,10.5z"/>
		<path d="M236.2,10.5h0.3V9.9h0.5v0.6h0.4v0.3H237v1.1c0,0.2,0,0.3,0.2,0.3c0.1,0,0.1,0,0.2,0v0.4c-0.1,0-0.2,0-0.3,0
			c-0.5,0-0.6-0.2-0.6-0.5v-1.2h-0.3L236.2,10.5L236.2,10.5z"/>
		<path d="M218.7,15.5c0-0.6,0.4-1.1,1-1.1c0.7,0,1,0.4,1,1.1c0,0.6-0.4,1.1-1,1.1C219.1,16.6,218.7,16.1,218.7,15.5z M220.3,15.5
			c0-0.4-0.2-0.7-0.6-0.7s-0.6,0.4-0.6,0.7c0,0.4,0.2,0.7,0.6,0.7S220.3,15.9,220.3,15.5z"/>
		<path d="M220.9,14.5h0.3v-0.2c0-0.5,0.3-0.6,0.6-0.6c0.1,0,0.3,0,0.3,0v0.4c-0.1,0-0.1,0-0.2,0c-0.1,0-0.2,0-0.2,0.2v0.2h0.4v0.3
			h-0.4v1.7h-0.4v-1.7H221L220.9,14.5L220.9,14.5z"/>
		<path d="M225.5,14.6c-0.1-0.3-0.3-0.6-0.7-0.6c-0.6,0-0.9,0.5-0.9,1.1c0,0.6,0.3,1.1,0.9,1.1c0.4,0,0.7-0.3,0.7-0.7h0.5
			c0,0.7-0.5,1.1-1.2,1.1c-0.9,0-1.4-0.7-1.4-1.5c0-0.8,0.5-1.5,1.4-1.5c0.6,0,1.1,0.4,1.2,1L225.5,14.6L225.5,14.6z"/>
		<path d="M228.1,16.1c0,0.1,0,0.2,0.1,0.2c0,0,0.1,0,0.1,0v0.3c-0.1,0-0.2,0-0.3,0c-0.2,0-0.3-0.1-0.4-0.3
			c-0.2,0.2-0.5,0.3-0.7,0.3c-0.4,0-0.7-0.2-0.7-0.6c0-0.5,0.4-0.6,0.8-0.6c0.3-0.1,0.6,0,0.6-0.3c0-0.2-0.2-0.3-0.4-0.3
			c-0.3,0-0.4,0.1-0.4,0.3h-0.4c0-0.5,0.5-0.7,0.9-0.7c0.4,0,0.8,0.2,0.8,0.6L228.1,16.1L228.1,16.1z M227.6,15.5
			c-0.1,0.1-0.4,0.1-0.6,0.1s-0.4,0.1-0.4,0.3c0,0.2,0.3,0.3,0.4,0.3c0.2,0,0.5-0.1,0.5-0.4V15.5z"/>
		<path d="M228.6,14.5h0.4v0.3l0,0c0.1-0.2,0.4-0.4,0.6-0.4c0.4,0,0.7,0.2,0.7,0.7v1.4h-0.4v-1.3c0-0.3-0.1-0.5-0.4-0.5
			c-0.3,0-0.5,0.2-0.5,0.5v1.2h-0.4L228.6,14.5L228.6,14.5z"/>
		<path d="M232.6,16.1c0,0.1,0,0.2,0.1,0.2c0,0,0.1,0,0.1,0v0.3c-0.1,0-0.2,0-0.3,0c-0.2,0-0.3-0.1-0.4-0.3
			c-0.2,0.2-0.5,0.3-0.7,0.3c-0.4,0-0.7-0.2-0.7-0.6c0-0.5,0.4-0.6,0.8-0.6c0.3-0.1,0.6,0,0.6-0.3c0-0.2-0.2-0.3-0.4-0.3
			c-0.3,0-0.4,0.1-0.4,0.3h-0.4c0-0.5,0.5-0.7,0.9-0.7c0.4,0,0.8,0.2,0.8,0.6L232.6,16.1L232.6,16.1z M232.1,15.5
			c-0.1,0.1-0.4,0.1-0.6,0.1s-0.4,0.1-0.4,0.3c0,0.2,0.3,0.3,0.4,0.3c0.2,0,0.5-0.1,0.5-0.4V15.5z"/>
		<path d="M235,16.5h-0.4v-0.3h0c-0.1,0.2-0.4,0.3-0.6,0.3c-0.6,0-1-0.5-1-1.1c0-0.7,0.4-1.1,0.9-1.1c0.3,0,0.6,0.1,0.7,0.3h0v-1
			h0.4L235,16.5L235,16.5z M234,16.2c0.4,0,0.6-0.4,0.6-0.7c0-0.4-0.2-0.7-0.6-0.7c-0.4,0-0.6,0.4-0.6,0.8
			C233.4,15.9,233.6,16.2,234,16.2z"/>
		<path d="M237.3,16.1c0,0.1,0,0.2,0.1,0.2c0,0,0.1,0,0.1,0v0.3c-0.1,0-0.2,0-0.3,0c-0.2,0-0.3-0.1-0.4-0.3
			c-0.2,0.2-0.5,0.3-0.7,0.3c-0.4,0-0.7-0.2-0.7-0.6c0-0.5,0.4-0.6,0.8-0.6c0.3-0.1,0.6,0,0.6-0.3c0-0.2-0.2-0.3-0.4-0.3
			c-0.3,0-0.4,0.1-0.4,0.3h-0.4c0-0.5,0.5-0.7,0.9-0.7c0.4,0,0.8,0.2,0.8,0.6L237.3,16.1L237.3,16.1z M236.8,15.5
			c-0.1,0.1-0.4,0.1-0.6,0.1s-0.4,0.1-0.4,0.3c0,0.2,0.3,0.3,0.4,0.3c0.2,0,0.5-0.1,0.5-0.4V15.5z"/>
	</g>
	<g>
		<g>
			<path d="M283.6,6.8c0-0.1,0-0.3-0.3-0.3c-0.3,0-2,0.1-2.1,0.1c-0.1,0-0.2,0.1,0,0.2s1.1,0.1,1.1,1.6c0,0.1,0,5.8,0,5
				c0,1.8-0.7,2.5-1.5,2.5c-1.2,0-1.9-1.5-1.9-2.9c0-1.6,0.9-2.6,1.8-2.6c1.3,0.1,1.6,1.1,1.6,3l0-3.1c0,0.4,0,0.4-0.2,0.3
				c-0.1-0.1-0.8-0.5-1.6-0.5c-1.4,0-3,1-3,3c0,2.1,1.5,3.2,3.1,3.2c0.8,0,1.3-0.3,1.5-0.5c0.2-0.1,0.2-0.1,0.2,0.1
				c0,0.1,0,0.4,0.4,0.4c0.4,0,1.5-0.2,1.7-0.2c0.2,0,0.1-0.2,0-0.2c-0.1,0-0.8,0.1-0.8-2.1S283.6,6.8,283.6,6.8z"/>
		</g>
		<g>
			<path d="M256.9,6.9c0.1,0,0.4,0.2,0.5-0.1c0.1-0.3,0-0.1,0.1-0.2c0-0.1,0.3-0.2,0.3,0.1c0,0.3,0.2,2.7,0.2,2.9
				c0,0.3-0.4,0.3-0.4,0c0-0.4-0.8-2.9-2.9-2.8c-1.9,0-3.1,2.2-3,4.9c0.1,2.6,1.3,4,3.4,4c2,0,2.5-1.5,2.8-2.4
				c0.1-0.4,0.5-0.3,0.4,0.1c-0.4,1.5-1.5,2.8-3.6,2.9c-2.3,0-4.8-1.7-4.8-4.7c-0.1-3.1,2.4-5,4.9-5C255.9,6.4,256.6,6.8,256.9,6.9z
				"/>
		</g>
		<g>
			<rect x="284.4" y="6.6" width="1.5" height="3"/>
		</g>
		<g>
			<path d="M287.4,9.3c0,0,0-0.5,0-0.6s0-0.1,0.1-0.1c0,0,0.5,0.1,0.5,0.1s0-0.1-0.1-0.2s0-0.1,0-0.1l0.5-0.4l-0.1,0
				c0,0,0-0.1,0-0.1l0.1-0.3c0,0-0.2,0.1-0.3,0.1c0,0,0,0-0.1,0l-0.1-0.2l-0.3,0.3c0,0.1-0.1,0-0.1,0s0.1-0.6,0.1-0.6
				s-0.1,0.1-0.2,0.1s-0.1,0-0.1,0c0-0.1-0.2-0.4-0.2-0.4l0,0c0,0-0.2,0.3-0.2,0.4c0,0.1,0,0.1-0.1,0c0,0-0.2-0.1-0.2-0.1
				s0.1,0.6,0.1,0.6c0,0.1,0,0.1-0.1,0l-0.3-0.3l-0.1,0.2c0,0,0,0.1-0.1,0c0,0-0.3-0.1-0.3-0.1l0.1,0.3c0,0,0,0.1,0,0.1l-0.1,0
				l0.5,0.4c0,0,0,0,0,0.1c0,0.1-0.1,0.2-0.1,0.2s0.5-0.1,0.5-0.1c0,0,0.1,0,0.1,0.1s0,0.6,0,0.6H287.4z"/>
		</g>
		<g>
			<rect x="288.8" y="6.6" width="1.5" height="3"/>
		</g>
		<g>
			<path d="M261.9,11.7c0,0.6-0.1,0.8-0.5,1c-0.4,0.2-1.3,0.3-1.5,0.4c-0.4,0.1-1.5,0.4-1.5,1.5c0,1.1,1.2,1.5,2,1.5
				c0.8,0,1.2-0.4,1.4-0.5c0.1-0.1,0.1-0.1,0.2,0c0.1,0.1,0.5,0.5,1.4,0.5c0.9,0,1-0.4,1.1-0.6c0.1-0.2-0.1-0.3-0.2-0.1
				c-0.1,0.3-0.3,0.3-0.5,0.3c-0.2,0-0.7,0-0.7-1.4c0,0,0-2.7,0-2.9c0-0.9-0.7-1.6-2.5-1.6c-1.9,0-1.9,0.9-2,1.2
				c0,0.3,0.1,0.6,0.6,0.6c0.4,0,0.5-0.5,0.6-0.6c0.1-0.2,0.1-0.8,0.9-0.8C261.4,10.3,261.9,10.9,261.9,11.7l0,2.5
				c0,0.9-0.5,1.6-1.1,1.6c-0.8,0-1-0.7-1-1s0.2-1,1-1.4c0,0,0.4-0.2,1.1-0.5c0.1,0,0.1,0,0.1,0.1L261.9,11.7z"/>
		</g>
		<g>
			<path d="M275.1,11.7c0,0.6-0.1,0.8-0.5,1c-0.4,0.2-1.3,0.3-1.5,0.4c-0.4,0.1-1.5,0.4-1.5,1.5c0,1.1,1.2,1.5,2,1.5
				c0.8,0,1.2-0.4,1.4-0.5c0.1-0.1,0.1-0.1,0.2,0c0.1,0.1,0.5,0.5,1.4,0.5c0.9,0,1-0.4,1.1-0.6c0.1-0.2-0.1-0.3-0.2-0.1
				c-0.1,0.3-0.3,0.3-0.5,0.3c-0.2,0-0.7,0-0.7-1.4c0,0,0-2.7,0-2.9c0-0.9-0.7-1.6-2.5-1.6c-1.9,0-1.9,0.9-2,1.2
				c0,0.3,0.1,0.6,0.6,0.6c0.4,0,0.5-0.5,0.6-0.6c0.1-0.2,0.1-0.8,0.9-0.8C274.7,10.3,275.1,10.9,275.1,11.7l0,2.5
				c0,0.9-0.5,1.6-1.1,1.6c-0.8,0-1-0.7-1-1s0.2-1,1-1.4c0,0,0.4-0.2,1.1-0.5c0.1,0,0.1,0,0.1,0.1L275.1,11.7z"/>
		</g>
		<g>
			<path d="M288.2,11.7c0,0.6-0.1,0.8-0.5,1c-0.4,0.2-1.3,0.3-1.5,0.4c-0.4,0.1-1.5,0.4-1.5,1.5c0,1.1,1.2,1.5,2,1.5
				c0.8,0,1.2-0.4,1.4-0.5c0.1-0.1,0.1-0.1,0.2,0c0.1,0.1,0.5,0.5,1.4,0.5c0.9,0,1-0.4,1.1-0.6c0.1-0.2-0.1-0.3-0.2-0.1
				c-0.1,0.3-0.3,0.3-0.5,0.3c-0.2,0-0.7,0-0.7-1.4c0,0,0-2.7,0-2.9c0-0.9-0.7-1.6-2.5-1.6c-1.9,0-1.9,0.9-2,1.2
				c0,0.3,0.1,0.6,0.6,0.6c0.4,0,0.5-0.5,0.6-0.6c0.1-0.2,0.1-0.8,0.9-0.8C287.8,10.3,288.2,10.9,288.2,11.7l0,2.5
				c0,0.9-0.5,1.6-1.1,1.6c-0.8,0-1-0.7-1-1s0.2-1,1-1.4c0,0,0.4-0.2,1.1-0.5c0.1,0,0.1,0,0.1,0.1L288.2,11.7z"/>
		</g>
		<g>
			<path d="M269.4,14.6c0,1-0.3,1.3-0.6,1.4c-0.3,0.1-0.3,0.2-0.1,0.2c0.1,0,2.6,0,2.6,0c0.2,0,0.4-0.1,0-0.2
				c-0.2-0.1-0.6-0.3-0.6-1.6l0-2.3c0-0.6,0.1-1.9-2.1-1.9c-1.1,0-1.8,0.6-1.8,0.6c-0.1,0.1-0.1,0.1-0.2,0c0-0.1-0.1-0.3-0.1-0.4
				c0-0.1-0.1-0.2-0.3-0.1c-0.2,0-1.5,0.2-1.7,0.3s-0.1,0.1,0,0.2s0.8,0.1,0.8,1.3c0,1.2,0,2.4,0,2.4c0,1.4-0.3,1.6-0.6,1.6
				c-0.3,0.1-0.2,0.2,0,0.2c0,0,2.5,0,2.6,0c0.2,0,0.3-0.2-0.1-0.2c-0.3-0.1-0.7-0.3-0.6-1.4c0-0.1,0-1.3,0-1.6
				c0-0.6-0.1-2.4,1.5-2.5c1.2,0,1.3,0.9,1.3,1.6L269.4,14.6z"/>
		</g>
	</g>
</g>
<g>
	<polygon class="st3" points="145.3,7.7 143.2,5.1 143.2,7.7 142.5,7.7 142.5,3.7 143.1,3.7 145.1,6.4 145.1,3.7 145.8,3.7 
		145.8,7.7 	"/>
	<path class="st3" d="M148.5,5.9L148.5,5.9h-1.2c0.1-0.4,0.3-0.6,0.7-0.6C148.3,5.3,148.5,5.6,148.5,5.9 M149.2,5.9L149.2,5.9
		c0-0.7-0.6-1.1-1.3-1.1s-1.4,0.6-1.4,1.5s0.6,1.5,1.5,1.5c0.5,0,0.9-0.1,1.1-0.3V6.9c-0.2,0.2-0.6,0.3-0.9,0.3c-0.8,0-1-0.5-1-0.9
		h1.9C149.1,6.2,149.2,6,149.2,5.9"/>
	<polygon class="st3" points="154,4.9 154,4.9 153.3,4.9 152.6,6.7 151.9,4.9 151.5,4.9 150.8,6.7 150.1,4.9 149.3,4.9 150.5,7.7 
		151,7.7 151.7,6 152.3,7.7 152.9,7.7 	"/>
	<path class="st3" d="M156.4,6.8L156.4,6.8c0-0.4-0.3-0.7-1.1-0.9c-0.3-0.1-0.5-0.2-0.5-0.3c0-0.2,0.1-0.3,0.4-0.3
		c0.3,0,0.6,0.1,0.8,0.2l0.1-0.5c-0.1,0-0.5-0.3-1-0.3c-0.8,0-1.1,0.4-1.1,0.9c0,0.4,0.2,0.8,0.9,0.9c0.4,0.1,0.6,0.2,0.6,0.4
		c0,0.2-0.2,0.3-0.5,0.3c-0.4,0-0.8-0.2-1-0.3l-0.1,0.5c0.1,0.1,0.6,0.3,1.1,0.3C156,7.8,156.4,7.4,156.4,6.8"/>
	<path class="st3" d="M162.6,7.7L162.6,7.7v-4h-0.8l-1.3,2.9l-1.3-2.9h-0.9v4h0.7V5.3c0-0.1,0-0.4,0-0.4c0,0,0.1,0.3,0.1,0.4
		l1.1,2.4h0.5l1.1-2.4l0.1-0.4c0,0,0,0.3,0,0.4v2.4C161.9,7.7,162.6,7.7,162.6,7.7z"/>
	<path class="st3" d="M165.2,5.9L165.2,5.9H164c0.1-0.4,0.4-0.6,0.7-0.6C165.1,5.3,165.3,5.6,165.2,5.9 M165.9,5.9L165.9,5.9
		c0-0.7-0.5-1.1-1.3-1.1c-0.7,0-1.4,0.6-1.4,1.5s0.6,1.5,1.5,1.5c0.5,0,0.9-0.1,1.2-0.3V6.9c-0.2,0.2-0.6,0.3-0.9,0.3
		c-0.8,0-1-0.5-1-0.9h1.9C165.9,6.2,165.9,6,165.9,5.9"/>
	<path class="st3" d="M168.8,6.3L168.8,6.3c0,0.6-0.4,0.9-0.8,0.9c-0.4,0-0.8-0.3-0.8-0.9c0-0.6,0.4-0.9,0.8-0.9
		C168.4,5.3,168.8,5.7,168.8,6.3 M169.5,7.7L169.5,7.7v-4h-0.8v1.5c-0.2-0.3-0.6-0.5-1-0.5c-0.8,0-1.3,0.6-1.3,1.5
		c0,0.8,0.6,1.5,1.3,1.5c0.4,0,0.8-0.2,1.1-0.5l0,0.4L169.5,7.7L169.5,7.7z"/>
	<path class="st3" d="M171,7.7L171,7.7V4.9h-0.8v2.9C170.2,7.7,171,7.7,171,7.7z M171,4.4L171,4.4V3.7h-0.8v0.6H171z"/>
	<path class="st3" d="M173.9,6.3L173.9,6.3c0,0.6-0.4,0.9-0.8,0.9c-0.4,0-0.8-0.3-0.8-0.9c0-0.6,0.4-0.9,0.8-0.9
		C173.5,5.3,173.9,5.7,173.9,6.3 M174.6,7.7L174.6,7.7V4.9h-0.7l0,0.5c-0.2-0.3-0.6-0.5-1.1-0.5c-0.8,0-1.3,0.6-1.3,1.5
		c0,0.8,0.6,1.5,1.3,1.5c0.4,0,0.8-0.2,1.1-0.5l0,0.4L174.6,7.7L174.6,7.7z"/>
	<path class="st3" d="M176.6,5.7L176.6,5.7c0,1.3,0.9,2.1,2,2.1c0.5,0,1-0.2,1.3-0.4V7c-0.3,0.2-0.7,0.4-1.3,0.4
		c-1,0-1.6-0.7-1.6-1.7s0.7-1.7,1.6-1.7c0.6,0,1,0.2,1.3,0.4V4c-0.3-0.2-0.8-0.4-1.3-0.4C177.4,3.7,176.6,4.4,176.6,5.7"/>
	<path class="st3" d="M180.6,6.3L180.6,6.3c0-0.8,0.5-1.2,1.1-1.2c0.6,0,1.1,0.4,1.1,1.2c0,0.8-0.5,1.2-1.1,1.2
		C181.1,7.5,180.6,7,180.6,6.3 M180.3,6.3L180.3,6.3c0,0.9,0.6,1.5,1.4,1.5c0.4,0,0.9-0.2,1.1-0.7l0,0.6h0.3V4.9h-0.3l0,0.6
		c-0.2-0.5-0.7-0.7-1.1-0.7C180.9,4.8,180.3,5.4,180.3,6.3"/>
	<path class="st3" d="M186.4,7.7L186.4,7.7V6c0-0.8-0.4-1.3-1.1-1.3c-0.5,0-0.9,0.3-1.1,0.7l0-0.6h-0.3v2.9h0.4V6.1c0-0.5,0.5-1,1-1
		c0.5,0,0.8,0.2,0.8,1v1.6C186.1,7.7,186.4,7.7,186.4,7.7z"/>
	<path class="st3" d="M187.4,6.3L187.4,6.3c0-0.8,0.5-1.2,1.1-1.2s1.1,0.4,1.1,1.2c0,0.8-0.5,1.2-1.1,1.2S187.4,7,187.4,6.3
		 M187,6.3L187,6.3c0,0.9,0.6,1.5,1.4,1.5c0.4,0,0.9-0.2,1.1-0.7l0,0.6h0.3V4.9h-0.3l0,0.6c-0.2-0.5-0.7-0.7-1.1-0.7
		C187.6,4.8,187,5.4,187,6.3"/>
	<path class="st3" d="M190.9,6.3L190.9,6.3c0-0.8,0.5-1.2,1.1-1.2s1.1,0.4,1.1,1.2c0,0.8-0.5,1.2-1.1,1.2S190.9,7,190.9,6.3
		 M190.5,6.3L190.5,6.3c0,0.9,0.6,1.5,1.4,1.5c0.4,0,0.9-0.2,1.1-0.7l0,0.6h0.3v-4H193v1.6c-0.2-0.4-0.7-0.6-1.1-0.6
		C191.1,4.8,190.5,5.4,190.5,6.3"/>
	<path class="st3" d="M194.4,6.3L194.4,6.3c0-0.8,0.5-1.2,1.1-1.2s1.1,0.4,1.1,1.2c0,0.8-0.5,1.2-1.1,1.2S194.4,7,194.4,6.3
		 M194,6.3L194,6.3c0,0.9,0.6,1.5,1.4,1.5c0.4,0,0.9-0.2,1.1-0.7l0,0.6h0.3V4.9h-0.3l0,0.6c-0.2-0.5-0.7-0.7-1.1-0.7
		C194.6,4.8,194,5.4,194,6.3"/>
	<path class="st3" d="M146.8,16.1L146.8,16.1v-4H146l-1.3,2.9l-1.3-2.9h-0.9v4h0.7v-2.4c0-0.1,0-0.4,0-0.4c0,0,0.1,0.3,0.1,0.4
		l1.1,2.4h0.5l1.1-2.4l0.1-0.4c0,0,0,0.3,0,0.4v2.4C146.1,16.1,146.8,16.1,146.8,16.1z"/>
	<path class="st3" d="M149.6,12.3L149.6,12.3l-0.3-0.4l-1,0.8l0.1,0.2L149.6,12.3z M149.4,14.3L149.4,14.3h-1.2
		c0.1-0.4,0.4-0.6,0.7-0.6C149.3,13.6,149.5,13.9,149.4,14.3 M150.1,14.3L150.1,14.3c0-0.7-0.6-1.1-1.3-1.1c-0.7,0-1.4,0.6-1.4,1.5
		s0.6,1.5,1.5,1.5c0.5,0,0.9-0.1,1.1-0.3v-0.6c-0.2,0.2-0.6,0.3-0.9,0.3c-0.8,0-1-0.5-1-0.9h1.9C150.1,14.6,150.1,14.4,150.1,14.3"
		/>
	<path class="st3" d="M152.9,14.7L152.9,14.7c0,0.6-0.4,0.9-0.8,0.9c-0.4,0-0.8-0.4-0.8-0.9c0-0.6,0.4-0.9,0.8-0.9
		C152.6,13.7,152.9,14.1,152.9,14.7 M153.7,16.1L153.7,16.1v-4h-0.8v1.5c-0.2-0.3-0.6-0.5-1-0.5c-0.8,0-1.3,0.6-1.3,1.5
		c0,0.9,0.6,1.5,1.3,1.5c0.4,0,0.8-0.2,1.1-0.5l0,0.5H153.7L153.7,16.1z"/>
	<path class="st3" d="M155.1,16.1L155.1,16.1v-2.9h-0.8v2.9H155.1z M155.1,12.8L155.1,12.8v-0.6h-0.8v0.6H155.1z"/>
	<path class="st3" d="M158.1,14.7L158.1,14.7c0,0.6-0.4,0.9-0.8,0.9c-0.4,0-0.8-0.4-0.8-0.9c0-0.6,0.4-0.9,0.8-0.9
		C157.7,13.7,158.1,14.1,158.1,14.7 M158.8,16.1L158.8,16.1v-2.9h-0.7l0,0.5c-0.2-0.4-0.6-0.5-1.1-0.5c-0.8,0-1.3,0.6-1.3,1.5
		c0,0.9,0.6,1.5,1.3,1.5c0.4,0,0.8-0.2,1.1-0.5l0,0.5L158.8,16.1L158.8,16.1z"/>
	<path class="st3" d="M161.7,15.2L161.7,15.2c0-0.4-0.3-0.8-1.1-0.9c-0.3-0.1-0.5-0.1-0.5-0.4c0-0.2,0.1-0.3,0.4-0.3
		c0.3,0,0.6,0.1,0.8,0.2l0.1-0.5c-0.1,0-0.5-0.3-1-0.3c-0.8,0-1.1,0.4-1.1,0.9c0,0.4,0.2,0.8,0.9,0.9c0.4,0.1,0.6,0.2,0.6,0.4
		c0,0.2-0.2,0.3-0.5,0.3c-0.4,0-0.8-0.2-1-0.3l-0.1,0.5c0.1,0.1,0.6,0.3,1.1,0.3C161.2,16.2,161.7,15.8,161.7,15.2"/>
	<path class="st3" d="M165.8,14.7L165.8,14.7c0,0.6-0.4,0.9-0.8,0.9c-0.4,0-0.8-0.4-0.8-0.9c0-0.6,0.4-0.9,0.8-0.9
		C165.4,13.7,165.8,14.1,165.8,14.7 M166.5,16.1L166.5,16.1v-4h-0.8v1.5c-0.2-0.3-0.6-0.5-1-0.5c-0.8,0-1.3,0.6-1.3,1.5
		c0,0.9,0.6,1.5,1.3,1.5c0.4,0,0.8-0.2,1.1-0.5l0,0.5H166.5L166.5,16.1z"/>
	<path class="st3" d="M167.9,12.8L167.9,12.8v-0.6h-0.7v0.8h0.4c0,0.3-0.1,0.5-0.4,0.7l0.1,0.2C167.7,13.6,167.9,13.2,167.9,12.8"/>
	<polygon class="st3" points="169.5,16.1 169.5,16.1 169.5,12.1 168.7,12.1 168.7,16.1 	"/>
	<path class="st3" d="M173.1,16.1L173.1,16.1v-1.7c0-0.7-0.3-1.2-1-1.2c-0.4,0-0.9,0.2-1.1,0.6l0-0.5h-0.7v2.9h0.8v-1.6
		c0-0.4,0.4-0.7,0.8-0.7c0.4,0,0.6,0.2,0.6,0.8v1.6L173.1,16.1L173.1,16.1z"/>
	<path class="st3" d="M175.4,13.7L175.4,13.7v-0.5h-0.7v0c0-0.5,0.1-0.6,0.4-0.6c0.1,0,0.2,0,0.3,0v-0.5c-0.1,0-0.3,0-0.4,0
		c-0.7,0-1.1,0.3-1.1,1.1v0h-0.5v0.5h0.5v2.4h0.8v-2.4L175.4,13.7L175.4,13.7z"/>
	<path class="st3" d="M178,14.7L178,14.7c0,0.6-0.4,1-0.9,1s-0.9-0.4-0.9-1s0.3-1,0.9-1C177.6,13.7,178,14.1,178,14.7 M178.7,14.7
		L178.7,14.7c0-0.9-0.7-1.5-1.6-1.5c-0.9,0-1.6,0.7-1.6,1.5s0.7,1.5,1.6,1.5C178.1,16.2,178.7,15.5,178.7,14.7"/>
	<path class="st3" d="M180.5,14.1L180.5,14.1c0,1.3,0.9,2.1,2,2.1c0.5,0,1-0.1,1.3-0.4v-0.4c-0.3,0.2-0.7,0.4-1.3,0.4
		c-1,0-1.6-0.7-1.6-1.7s0.7-1.7,1.6-1.7c0.6,0,1,0.2,1.3,0.4v-0.4c-0.3-0.2-0.8-0.4-1.3-0.4C181.4,12,180.5,12.8,180.5,14.1"/>
	<path class="st3" d="M184.5,14.7L184.5,14.7c0-0.8,0.5-1.2,1.1-1.2s1.1,0.4,1.1,1.2c0,0.8-0.5,1.2-1.1,1.2
		C185,15.9,184.5,15.4,184.5,14.7 M184.2,14.7L184.2,14.7c0,0.9,0.6,1.5,1.4,1.5c0.4,0,0.9-0.2,1.1-0.7l0,0.6h0.3v-2.9h-0.3l0,0.6
		c-0.2-0.5-0.7-0.7-1.1-0.7C184.8,13.2,184.2,13.8,184.2,14.7"/>
	<path class="st3" d="M190.3,16.1L190.3,16.1v-1.7c0-0.8-0.4-1.3-1.1-1.3c-0.5,0-0.9,0.3-1.1,0.7l0-0.6h-0.3v2.9h0.4v-1.6
		c0-0.5,0.5-1,1-1c0.5,0,0.8,0.2,0.8,1v1.6C190,16.1,190.3,16.1,190.3,16.1z"/>
	<path class="st3" d="M191.3,14.7L191.3,14.7c0-0.8,0.5-1.2,1.1-1.2c0.6,0,1.1,0.4,1.1,1.2c0,0.8-0.5,1.2-1.1,1.2
		C191.8,15.9,191.3,15.4,191.3,14.7 M190.9,14.7L190.9,14.7c0,0.9,0.6,1.5,1.4,1.5c0.4,0,0.9-0.2,1.1-0.7l0,0.6h0.3v-2.9h-0.3l0,0.6
		c-0.2-0.5-0.7-0.7-1.1-0.7C191.5,13.2,190.9,13.8,190.9,14.7"/>
	<path class="st3" d="M194.8,14.7L194.8,14.7c0-0.8,0.5-1.2,1.1-1.2s1.1,0.4,1.1,1.2c0,0.8-0.5,1.2-1.1,1.2S194.8,15.4,194.8,14.7
		 M194.4,14.7L194.4,14.7c0,0.9,0.6,1.5,1.4,1.5c0.4,0,0.9-0.2,1.1-0.7l0,0.6h0.3v-4H197v1.6c-0.2-0.4-0.7-0.6-1.1-0.6
		C195,13.2,194.4,13.8,194.4,14.7"/>
	<path class="st3" d="M198.3,14.7L198.3,14.7c0-0.8,0.5-1.2,1.1-1.2s1.1,0.4,1.1,1.2c0,0.8-0.5,1.2-1.1,1.2S198.3,15.4,198.3,14.7
		 M197.9,14.7L197.9,14.7c0,0.9,0.6,1.5,1.4,1.5c0.4,0,0.9-0.2,1.1-0.7l0,0.6h0.3v-2.9h-0.3l0,0.6c-0.2-0.5-0.7-0.7-1.1-0.7
		C198.5,13.2,197.9,13.8,197.9,14.7"/>
	<polygon class="st3" points="142.1,10 142.1,10 201.4,10 201.4,10.1 142.1,10.1 	"/>
	<path class="st3" d="M132.6,7.5L132.6,7.5h3.5V4.4l-0.2-0.1c-1.3-1-2.4-0.6-3.5-0.2c-0.9,0.3-1.9,0.6-3.2,0.2l-0.5-0.2v8.8l0.1,0.1
		c0.6,0.4,1.2,0.6,1.7,0.6c0.3,0,0.6,0,0.9-0.1c0.1,0,0.2-0.1,0.3-0.1v-5C131.7,7.9,132.1,7.5,132.6,7.5"/>
	<path class="st4" d="M138.5,7.5L138.5,7.5h-2.4v5.6c0,0.1-0.1,0.2-0.2,0.1l-0.4-0.1c-1.3-0.5-2.3-0.1-3.2,0.2
		c-0.2,0.1-0.3,0.1-0.5,0.2c-0.1,0-0.1,0.1-0.1,0.1v2.2c0,0.4,0.3,0.7,0.7,0.7h6.1c0.4,0,0.6-0.3,0.6-0.7V8.2
		C139.1,7.8,138.8,7.5,138.5,7.5"/>
	<path class="st3" d="M135.6,13.1L135.6,13.1l0.6,0.2V7.5h-3.5c-0.5,0-0.9,0.4-0.9,0.9v5c0.2-0.1,0.4-0.1,0.6-0.2
		C133.3,12.9,134.3,12.6,135.6,13.1"/>
	<path class="st5" d="M135.6,13.1L135.6,13.1l0.6,0.2V7.5h-3.7c-0.4,0-0.7,0.3-0.7,0.7v5.2c0.2-0.1,0.4-0.1,0.6-0.2
		C133.3,12.9,134.3,12.6,135.6,13.1"/>
</g>
</svg>
