<?xml version="1.0" encoding="utf-8"?>
<!-- Generator: Adobe Illustrator 21.0.0, SVG Export Plug-In . SVG Version: 6.00 Build 0)  -->
<svg version="1.1" id="Layer_1" xmlns="http://www.w3.org/2000/svg" xmlns:xlink="http://www.w3.org/1999/xlink" x="0px" y="0px"
	 width="163.5px" height="40px" viewBox="0 0 163.5 40" style="enable-background:new 0 0 163.5 40;" xml:space="preserve">
<style type="text/css">
	.st0{fill:none;stroke:#FFFFFF;stroke-width:0.5;}
	.st1{fill:#FFFFFF;}
	.st2{fill:#2F3F84;}
	.st3{fill:#47B982;}
	.st4{fill:#1E2E49;}
</style>
<line class="st0" x1="1.8" y1="0.6" x2="1.8" y2="38.6"/>
<g>
	<polygon class="st1" points="55.3,14.7 51.6,9.9 51.6,14.7 50.2,14.7 50.2,7.4 51.3,7.4 55,12.2 55,7.4 56.3,7.4 56.3,14.7 	"/>
	<path class="st1" d="M61.2,11.3L61.2,11.3H59c0.1-0.8,0.6-1.1,1.2-1.1C60.9,10.2,61.3,10.7,61.2,11.3 M62.4,11.4L62.4,11.4
		c0-1.2-1-2.1-2.3-2.1s-2.6,1.1-2.6,2.7s1.1,2.8,2.7,2.8c0.9,0,1.6-0.3,2.1-0.6v-1c-0.4,0.4-1.1,0.6-1.7,0.6c-1.4,0-1.8-0.9-1.8-1.7
		h3.5C62.4,11.9,62.4,11.6,62.4,11.4"/>
	<polygon class="st1" points="71.2,9.4 71.2,9.4 70,9.4 68.7,12.9 67.4,9.4 66.6,9.4 65.3,12.9 64.1,9.4 62.7,9.4 64.8,14.7 
		65.7,14.7 67,11.5 68.2,14.7 69.1,14.7 	"/>
	<path class="st1" d="M75.7,13L75.7,13c0-0.7-0.6-1.3-1.9-1.6c-0.6-0.1-0.9-0.3-0.9-0.6s0.3-0.5,0.8-0.5s1.1,0.2,1.5,0.4l0.2-0.9
		c-0.2-0.1-0.9-0.5-1.8-0.5c-1.4,0-2,0.8-2,1.6c0,0.7,0.4,1.4,1.7,1.7c0.7,0.2,1.1,0.3,1.1,0.7s-0.4,0.6-0.9,0.6
		c-0.7,0-1.4-0.3-1.8-0.6l-0.2,0.9c0.2,0.1,1,0.6,2.1,0.6C74.9,14.8,75.7,14.1,75.7,13"/>
	<path class="st1" d="M86.9,14.7L86.9,14.7V7.4h-1.5L83,12.7l-2.4-5.3H79v7.2h1.3v-4.4c0-0.2-0.1-0.7-0.1-0.7c0,0.1,0.2,0.5,0.2,0.7
		l1.9,4.4h0.9l1.9-4.4l0.2-0.7c0,0.1,0,0.5,0,0.7v4.4C85.6,14.7,86.9,14.7,86.9,14.7z"/>
	<path class="st1" d="M91.8,11.3L91.8,11.3h-2.2c0.1-0.8,0.6-1.1,1.2-1.1C91.5,10.2,91.9,10.7,91.8,11.3 M93,11.4L93,11.4
		c0-1.2-1-2.1-2.3-2.1c-1.4,0-2.6,1.1-2.6,2.7s1.1,2.8,2.7,2.8c0.9,0,1.6-0.3,2.1-0.6v-1c-0.4,0.4-1.1,0.6-1.7,0.6
		c-1.4,0-1.8-0.9-1.8-1.7H93C93,11.9,93,11.6,93,11.4"/>
	<path class="st1" d="M98.2,12L98.2,12c0,1.1-0.6,1.7-1.5,1.7c-0.8,0-1.5-0.6-1.5-1.7s0.7-1.7,1.5-1.7S98.2,11,98.2,12 M99.5,14.7
		L99.5,14.7V7.4h-1.4v2.8c-0.4-0.6-1.1-0.9-1.9-0.9c-1.4,0-2.4,1.2-2.4,2.8s1.1,2.8,2.4,2.8c0.7,0,1.5-0.3,1.9-1l0.1,0.8L99.5,14.7
		L99.5,14.7z"/>
	<path class="st1" d="M102.2,14.7L102.2,14.7V9.4h-1.4v5.2C100.8,14.7,102.2,14.7,102.2,14.7z M102.2,8.5L102.2,8.5V7.4h-1.4v1.2
		h1.4V8.5z"/>
	<path class="st1" d="M107.6,12L107.6,12c0,1.1-0.7,1.7-1.5,1.7s-1.5-0.6-1.5-1.7s0.6-1.7,1.5-1.7C106.9,10.3,107.6,11,107.6,12
		 M108.9,14.7L108.9,14.7V9.4h-1.3l-0.1,0.8c-0.4-0.6-1.2-1-1.9-1c-1.4,0-2.4,1.2-2.4,2.8s1.1,2.8,2.4,2.8c0.7,0,1.5-0.3,1.9-1
		l0.1,0.8L108.9,14.7L108.9,14.7z"/>
	<path class="st1" d="M112.4,11L112.4,11c0,2.4,1.7,3.8,3.7,3.8c0.9,0,1.8-0.3,2.4-0.7v-0.7c-0.6,0.4-1.3,0.8-2.4,0.8
		c-1.8,0-3-1.3-3-3.2s1.3-3.2,3-3.2c1,0,1.8,0.3,2.4,0.8V7.9c-0.6-0.4-1.5-0.7-2.4-0.7C114.1,7.2,112.4,8.7,112.4,11"/>
	<path class="st1" d="M119.8,12L119.8,12c0-1.4,0.9-2.2,2-2.2s2,0.8,2,2.2s-0.9,2.2-2,2.2C120.7,14.2,119.8,13.4,119.8,12 M119.2,12
		L119.2,12c0,1.6,1.1,2.8,2.6,2.8c0.7,0,1.7-0.4,2.1-1.2v1.1h0.6V9.4h-0.6v1.1c-0.4-0.8-1.4-1.2-2.1-1.2
		C120.3,9.3,119.2,10.5,119.2,12"/>
	<path class="st1" d="M130.4,14.7L130.4,14.7v-3.1c0-1.5-0.7-2.3-1.9-2.3c-0.9,0-1.7,0.5-2,1.2V9.4h-0.6v5.2h0.6v-3
		c0-0.9,0.9-1.8,1.9-1.8c0.9,0,1.4,0.4,1.4,1.8v3C129.8,14.7,130.4,14.7,130.4,14.7z"/>
	<path class="st1" d="M132.2,12L132.2,12c0-1.4,0.9-2.2,2-2.2s2,0.8,2,2.2s-0.9,2.2-2,2.2S132.2,13.4,132.2,12 M131.5,12L131.5,12
		c0,1.6,1.1,2.8,2.6,2.8c0.7,0,1.7-0.4,2.1-1.2v1.1h0.6V9.4h-0.6v1.1c-0.4-0.8-1.4-1.2-2.1-1.2C132.6,9.3,131.5,10.5,131.5,12"/>
	<path class="st1" d="M138.6,12L138.6,12c0-1.4,0.9-2.2,2-2.2s2,0.8,2,2.2s-0.9,2.2-2,2.2S138.6,13.4,138.6,12 M137.9,12L137.9,12
		c0,1.6,1.1,2.8,2.6,2.8c0.8,0,1.7-0.4,2.1-1.2v1.1h0.6V7.4h-0.6v3c-0.4-0.7-1.3-1.1-2-1.1C139,9.3,137.9,10.5,137.9,12"/>
	<path class="st1" d="M144.9,12L144.9,12c0-1.4,0.9-2.2,2-2.2s2,0.8,2,2.2s-0.9,2.2-2,2.2S144.9,13.4,144.9,12 M144.3,12L144.3,12
		c0,1.6,1.1,2.8,2.6,2.8c0.7,0,1.7-0.4,2.1-1.2v1.1h0.5V9.4H149v1.1c-0.4-0.8-1.4-1.2-2.1-1.2C145.4,9.3,144.3,10.5,144.3,12"/>
	<path class="st1" d="M58.1,30L58.1,30v-7.3h-1.5L54.2,28l-2.4-5.3h-1.6V30h1.3v-4.5c0-0.2,0-0.7,0-0.7c0,0.1,0.2,0.5,0.2,0.7
		l1.9,4.5h0.9l1.9-4.5l0.3-0.7c0,0.1-0.1,0.5-0.1,0.7V30C56.7,30,58.1,30,58.1,30z"/>
	<path class="st1" d="M63.1,23L63.1,23l-0.5-0.8l-1.8,1.5L61,24L63.1,23z M62.9,26.6L62.9,26.6h-2.2c0.1-0.8,0.6-1.1,1.2-1.1
		C62.6,25.5,63,26,62.9,26.6 M64.1,26.7L64.1,26.7c0-1.2-1-2.1-2.3-2.1c-1.4,0-2.6,1.1-2.6,2.7s1.1,2.8,2.7,2.8
		c0.9,0,1.6-0.2,2.1-0.6v-1c-0.4,0.4-1.1,0.6-1.7,0.6c-1.4,0-1.8-0.9-1.8-1.7H64C64.1,27.2,64.1,26.9,64.1,26.7"/>
	<path class="st1" d="M69.3,27.4L69.3,27.4c0,1.1-0.6,1.7-1.5,1.7c-0.8,0-1.5-0.6-1.5-1.7s0.7-1.7,1.5-1.7
		C68.7,25.6,69.3,26.3,69.3,27.4 M70.7,30L70.7,30v-7.3h-1.4v2.8c-0.4-0.6-1.1-0.9-1.9-0.9c-1.4,0-2.4,1.2-2.4,2.8
		c0,1.6,1.1,2.8,2.4,2.8c0.7,0,1.5-0.3,1.9-1l0.1,0.8L70.7,30L70.7,30z"/>
	<path class="st1" d="M73.3,30L73.3,30v-5.2H72V30H73.3z M73.3,23.8L73.3,23.8v-1.1H72v1.1H73.3z"/>
	<path class="st1" d="M78.7,27.4L78.7,27.4c0,1.1-0.6,1.7-1.5,1.7c-0.8,0-1.5-0.6-1.5-1.7s0.7-1.7,1.5-1.7
		C78.1,25.6,78.7,26.3,78.7,27.4 M80.1,30L80.1,30v-5.2h-1.3l-0.1,0.8c-0.4-0.6-1.2-1-1.9-1c-1.4,0-2.4,1.2-2.4,2.8
		c0,1.6,1.1,2.8,2.4,2.8c0.7,0,1.5-0.3,1.9-1l0.1,0.8L80.1,30L80.1,30z"/>
	<path class="st1" d="M85.3,28.3L85.3,28.3c0-0.7-0.6-1.4-1.9-1.6c-0.6-0.1-0.9-0.3-0.9-0.6c0-0.3,0.3-0.5,0.8-0.5s1.1,0.2,1.5,0.4
		l0.2-0.9c-0.2-0.1-0.9-0.5-1.8-0.5c-1.4,0-2,0.8-2,1.6c0,0.7,0.4,1.4,1.7,1.7c0.7,0.2,1.1,0.3,1.1,0.7c0,0.4-0.4,0.6-0.9,0.6
		c-0.8,0-1.4-0.3-1.8-0.6l-0.3,1c0.2,0.1,1,0.6,2.1,0.6C84.5,30.1,85.3,29.5,85.3,28.3"/>
	<path class="st1" d="M92.7,27.4L92.7,27.4c0,1.1-0.7,1.7-1.5,1.7s-1.5-0.6-1.5-1.7s0.7-1.7,1.5-1.7C92,25.6,92.7,26.3,92.7,27.4
		 M94,30L94,30v-7.3h-1.4v2.8c-0.4-0.6-1.1-0.9-1.8-0.9c-1.4,0-2.4,1.2-2.4,2.8c0,1.6,1,2.8,2.4,2.8c0.7,0,1.5-0.3,1.9-1V30H94
		L94,30z"/>
	<path class="st1" d="M96.6,23.8L96.6,23.8v-1.1h-1.4v1.4h0.6c0,0.5-0.2,1-0.7,1.2l0.2,0.4C96.2,25.4,96.6,24.7,96.6,23.8"/>
	<polygon class="st1" points="99.5,30 99.5,30 99.5,22.7 98.1,22.7 98.1,30 	"/>
	<path class="st1" d="M106.1,30L106.1,30v-3.1c0-1.3-0.5-2.3-1.9-2.3c-0.8,0-1.6,0.4-1.9,1.1l-0.1-1h-1.3V30h1.4v-2.9
		c0-0.7,0.7-1.3,1.4-1.3c0.6,0,1,0.3,1,1.4V30H106.1L106.1,30z"/>
	<path class="st1" d="M110.3,25.7L110.3,25.7v-0.9H109v-0.1c0-0.9,0.2-1.1,0.8-1.1c0.1,0,0.4,0.1,0.5,0.1v-0.9
		c-0.2,0-0.5-0.1-0.7-0.1c-1.2,0-2,0.6-2,2.1v0.1h-1v0.9h1V30h1.4v-4.3H110.3L110.3,25.7z"/>
	<path class="st1" d="M115.1,27.4L115.1,27.4c0,1.1-0.6,1.8-1.6,1.8s-1.6-0.7-1.6-1.8c0-1.1,0.6-1.8,1.6-1.8
		C114.4,25.6,115.1,26.3,115.1,27.4 M116.4,27.4L116.4,27.4c0-1.6-1.2-2.8-2.9-2.8c-1.7,0-2.9,1.2-2.9,2.8c0,1.6,1.2,2.8,2.9,2.8
		C115.2,30.1,116.4,28.9,116.4,27.4"/>
	<path class="st1" d="M119.6,26.3L119.6,26.3c0,2.4,1.7,3.8,3.7,3.8c0.9,0,1.8-0.3,2.4-0.7v-0.7c-0.6,0.4-1.3,0.8-2.4,0.8
		c-1.8,0-3-1.3-3-3.2s1.3-3.2,3-3.2c1,0,1.8,0.3,2.4,0.8v-0.7c-0.6-0.4-1.5-0.7-2.4-0.7C121.2,22.5,119.6,24,119.6,26.3"/>
	<path class="st1" d="M127,27.4L127,27.4c0-1.4,0.9-2.2,2-2.2c1.1,0,2,0.8,2,2.2c0,1.4-0.9,2.2-2,2.2C127.9,29.5,127,28.7,127,27.4
		 M126.4,27.4L126.4,27.4c0,1.6,1.1,2.8,2.6,2.8c0.7,0,1.7-0.4,2.1-1.2v1.1h0.6v-5.2H131V26c-0.4-0.8-1.4-1.2-2.1-1.2
		C127.4,24.6,126.4,25.8,126.4,27.4"/>
	<path class="st1" d="M137.6,30L137.6,30v-3.1c0-1.5-0.7-2.3-1.9-2.3c-0.9,0-1.7,0.5-2,1.2v-1.1H133V30h0.6v-3
		c0-0.9,0.9-1.8,1.9-1.8c0.9,0,1.4,0.4,1.4,1.8v3C137,30,137.6,30,137.6,30z"/>
	<path class="st1" d="M139.3,27.4L139.3,27.4c0-1.4,0.9-2.2,2-2.2s2,0.8,2,2.2c0,1.4-0.9,2.2-2,2.2
		C140.2,29.5,139.3,28.7,139.3,27.4 M138.7,27.4L138.7,27.4c0,1.6,1.1,2.8,2.6,2.8c0.7,0,1.7-0.4,2.1-1.2v1.1h0.6v-5.2h-0.6V26
		c-0.4-0.8-1.4-1.2-2.1-1.2C139.8,24.6,138.7,25.8,138.7,27.4"/>
	<path class="st1" d="M145.7,27.4L145.7,27.4c0-1.4,0.9-2.2,2-2.2s2,0.8,2,2.2c0,1.4-0.9,2.2-2,2.2S145.7,28.7,145.7,27.4
		 M145.1,27.4L145.1,27.4c0,1.6,1.1,2.8,2.6,2.8c0.8,0,1.7-0.4,2.1-1.2v1.1h0.6v-7.3h-0.6v3c-0.4-0.7-1.3-1.1-2-1.1
		C146.1,24.6,145.1,25.8,145.1,27.4"/>
	<path class="st1" d="M152.1,27.4L152.1,27.4c0-1.4,0.9-2.2,2-2.2s2,0.8,2,2.2c0,1.4-0.9,2.2-2,2.2C153,29.5,152.1,28.7,152.1,27.4
		 M151.4,27.4L151.4,27.4c0,1.6,1.1,2.8,2.6,2.8c0.7,0,1.7-0.4,2.1-1.2v1.1h0.6v-5.2h-0.6V26c-0.4-0.8-1.4-1.2-2.1-1.2
		C152.6,24.6,151.4,25.8,151.4,27.4"/>
	<polygon class="st1" points="49.5,18.8 49.5,18.8 157.8,18.8 157.8,19 49.5,19 	"/>
	<path class="st2" d="M32.2,14.3L32.2,14.3h6.3V8.7l-0.3-0.2c-2.4-1.7-4.4-1.1-6.3-0.4c-1.7,0.6-3.5,1.2-5.9,0.3L25,8v16.1l0.3,0.2
		c1.1,0.8,2.2,1.1,3.2,1.1c0.5,0,1.1-0.1,1.6-0.2c0.2-0.1,0.3-0.1,0.5-0.1V16C30.6,15,31.3,14.3,32.2,14.3"/>
	<path class="st3" d="M42.9,14.3L42.9,14.3h-4.3v10.1c0,0.2-0.2,0.3-0.4,0.3l-0.6-0.3c-2.4-0.9-4.2-0.3-5.9,0.3
		c-0.3,0.1-0.6,0.2-0.9,0.3c-0.1,0-0.2,0.1-0.2,0.3v4c0,0.7,0.6,1.2,1.2,1.2h11.1c0.7,0,1.2-0.5,1.2-1.2V15.5
		C44.1,14.8,43.5,14.3,42.9,14.3"/>
	<path class="st2" d="M37.6,24.4L37.6,24.4l1,0.4V14.3h-6.4c-0.9,0-1.7,0.8-1.7,1.7v9.1c0.4-0.1,0.7-0.2,1.1-0.4
		C33.4,24.1,35.2,23.5,37.6,24.4"/>
	<path class="st4" d="M37.6,24.4L37.6,24.4l1,0.4V14.3h-6.8c-0.7,0-1.2,0.6-1.2,1.2v9.6c0.4-0.1,0.7-0.2,1.1-0.4
		C33.4,24.1,35.2,23.5,37.6,24.4"/>
</g>
</svg>
