<?xml version="1.0" encoding="utf-8"?>
<!-- Generator: Adobe Illustrator 21.0.0, SVG Export Plug-In . SVG Version: 6.00 Build 0)  -->
<svg version="1.1" id="Layer_1" xmlns="http://www.w3.org/2000/svg" xmlns:xlink="http://www.w3.org/1999/xlink" x="0px" y="0px"
	 width="210px" height="40px" viewBox="0 0 210 40" style="enable-background:new 0 0 210 40;" xml:space="preserve">
<style type="text/css">
	.st0{fill:#FFFFFF;}
	.st1{fill:none;stroke:#FFFFFF;stroke-miterlimit:10;}
	.st2{fill:#313F85;}
	.st3{fill:#42BD83;}
	.st4{fill:#1D2E49;}
</style>
<g id="Layer_2">
</g>
<g id="Layer_1_1_">
	<g>
		<polygon class="st0" points="84.3,15.6 79.7,9.7 79.7,15.6 78.1,15.6 78.1,6.7 79.4,6.7 84,12.6 84,6.7 85.5,6.7 85.5,15.6 		"/>
		<path class="st0" d="M91.4,11.5L91.4,11.5h-2.7c0.1-1,0.7-1.4,1.5-1.4C91.1,10.1,91.5,10.8,91.4,11.5 M93,11.5L93,11.5
			C93,10,91.8,9,90.1,9S87,10.3,87,12.3s1.4,3.4,3.3,3.4c1,0,2-0.3,2.6-0.8v-1.3c-0.5,0.4-1.3,0.8-2.1,0.8c-1.7,0-2.2-1.1-2.1-2.1
			h4.2C92.9,12.2,93,11.8,93,11.5"/>
		<polygon class="st0" points="103.7,9.2 103.7,9.2 102.1,9.2 100.6,13.4 99.1,9.2 98,9.2 96.5,13.4 95,9.2 93.3,9.2 95.9,15.6 
			97,15.6 98.5,11.8 100,15.6 101.1,15.6 		"/>
		<path class="st0" d="M109.1,13.6L109.1,13.6c0-0.9-0.7-1.6-2.3-2c-0.7-0.2-1.1-0.4-1.1-0.8c0-0.4,0.3-0.6,1-0.6
			c0.6,0,1.3,0.2,1.8,0.5l0.3-1.1c-0.2-0.1-1.1-0.6-2.2-0.6c-1.7,0-2.5,0.9-2.5,2c0,0.9,0.5,1.7,2.1,2c0.9,0.2,1.4,0.4,1.4,0.9
			s-0.5,0.7-1.1,0.7c-0.9,0-1.7-0.4-2.2-0.7l-0.3,1.2c0.3,0.2,1.3,0.8,2.5,0.8C108.1,15.8,109.1,14.9,109.1,13.6"/>
		<path class="st0" d="M122.8,15.6L122.8,15.6V6.7H121l-2.9,6.5l-2.9-6.5h-1.9v8.8h1.6v-5.4c0-0.2-0.1-0.8-0.1-0.9
			c0,0.1,0.2,0.6,0.3,0.9l2.4,5.4h1.1l2.4-5.4l0.3-0.9c0,0.1,0,0.6,0,0.9v5.4L122.8,15.6z"/>
		<path class="st0" d="M128.7,11.5L128.7,11.5H126c0.2-1,0.8-1.4,1.5-1.4C128.3,10.1,128.9,10.8,128.7,11.5 M130.2,11.5L130.2,11.5
			c0-1.5-1.2-2.5-2.8-2.5c-1.6,0-3.2,1.3-3.2,3.3s1.4,3.4,3.3,3.4c1.1,0,2-0.3,2.6-0.8v-1.3c-0.5,0.4-1.4,0.8-2.1,0.8
			c-1.7,0-2.2-1.1-2.2-2.1h4.2C130.2,12.2,130.2,11.8,130.2,11.5"/>
		<path class="st0" d="M136.5,12.4L136.5,12.4c0,1.3-0.8,2.1-1.8,2.1s-1.8-0.8-1.8-2.1s0.8-2.1,1.8-2.1
			C135.7,10.3,136.5,11.1,136.5,12.4 M138.2,15.6L138.2,15.6V6.7h-1.7v3.4C136,9.4,135.1,9,134.2,9c-1.7,0-3,1.4-3,3.4
			c0,1.9,1.3,3.4,3,3.4c0.9,0,1.9-0.4,2.4-1.2l0.1,1L138.2,15.6L138.2,15.6z"/>
		<path class="st0" d="M141.4,15.6L141.4,15.6V9.2h-1.7v6.4H141.4z M141.4,8.1L141.4,8.1V6.7h-1.7v1.4
			C139.7,8.1,141.4,8.1,141.4,8.1z"/>
		<path class="st0" d="M148,12.4L148,12.4c0,1.3-0.8,2.1-1.8,2.1s-1.8-0.8-1.8-2.1s0.8-2.1,1.8-2.1C147.1,10.3,148,11.1,148,12.4
			 M149.6,15.6L149.6,15.6V9.2h-1.5l-0.1,1c-0.5-0.8-1.5-1.2-2.4-1.2c-1.7,0-3,1.4-3,3.4c0,1.9,1.3,3.4,3,3.4c0.9,0,1.9-0.4,2.4-1.2
			l0.1,1L149.6,15.6L149.6,15.6z"/>
		<path class="st0" d="M153.9,11.1L153.9,11.1c0,2.9,2,4.6,4.5,4.6c1,0,2.2-0.3,2.9-0.9V14c-0.7,0.5-1.6,1-2.9,1
			c-2.1,0-3.7-1.6-3.7-3.9s1.5-3.8,3.7-3.8c1.3,0,2.2,0.4,2.9,1V7.4c-0.7-0.5-1.8-0.9-2.9-0.9C155.9,6.5,153.9,8.3,153.9,11.1"/>
		<path class="st0" d="M162.9,12.4L162.9,12.4c0-1.7,1.1-2.7,2.5-2.7c1.3,0,2.4,1,2.4,2.7s-1.1,2.6-2.4,2.6
			C164,15.1,162.9,14.1,162.9,12.4 M162.1,12.4L162.1,12.4c0,1.9,1.3,3.4,3.1,3.4c0.9,0,2.1-0.5,2.6-1.5v1.3h0.7V9.2h-0.7v1.3
			c-0.5-1-1.6-1.5-2.6-1.5C163.4,9,162.1,10.5,162.1,12.4"/>
		<path class="st0" d="M175.8,15.6L175.8,15.6v-3.7c0-1.8-0.8-2.8-2.4-2.8c-1,0-2.1,0.6-2.5,1.5V9.3h-0.7v6.4h0.8V12
			c0-1.1,1.1-2.2,2.3-2.2c1.1,0,1.8,0.5,1.8,2.2v3.6H175.8z"/>
		<path class="st0" d="M177.9,12.4L177.9,12.4c0-1.7,1.1-2.7,2.5-2.7s2.5,1,2.5,2.7s-1.1,2.6-2.5,2.6S177.9,14.1,177.9,12.4
			 M177.1,12.4L177.1,12.4c0,1.9,1.4,3.4,3.2,3.4c0.9,0,2.1-0.5,2.6-1.5v1.3h0.7V9.2h-0.7v1.3c-0.5-1-1.6-1.5-2.6-1.5
			C178.5,9,177.1,10.5,177.1,12.4"/>
		<path class="st0" d="M185.7,12.4L185.7,12.4c0-1.7,1.1-2.7,2.5-2.7s2.5,1,2.5,2.7s-1.1,2.6-2.5,2.6S185.7,14.1,185.7,12.4
			 M185,12.4L185,12.4c0,1.9,1.3,3.4,3.1,3.4c1,0,2.1-0.5,2.6-1.5v1.3h0.7V6.7h-0.8v3.6C190.1,9.5,189,9,188.1,9
			C186.3,9,185,10.5,185,12.4"/>
		<path class="st0" d="M193.5,12.4L193.5,12.4c0-1.7,1.1-2.7,2.5-2.7s2.5,1,2.5,2.7S197.4,15,196,15S193.5,14.1,193.5,12.4
			 M192.7,12.4L192.7,12.4c0,1.9,1.3,3.4,3.2,3.4c0.9,0,2.1-0.5,2.6-1.5v1.3h0.6V9.2h-0.6v1.3c-0.5-1-1.6-1.5-2.6-1.5
			C194,9,192.7,10.5,192.7,12.4"/>
		<path class="st0" d="M87.6,34.2L87.6,34.2v-8.9h-1.8l-2.9,6.5L80,25.3h-1.9v8.9h1.5v-5.4c0-0.2,0-0.8,0-0.9c0,0.1,0.2,0.6,0.3,0.9
			l2.4,5.4h1.1l2.4-5.4l0.3-0.9c0,0.1-0.1,0.6-0.1,0.9v5.4C86,34.2,87.6,34.2,87.6,34.2z"/>
		<path class="st0" d="M93.8,25.7L93.8,25.7l-0.6-1L91,26.5l0.2,0.4L93.8,25.7z M93.5,30.1L93.5,30.1h-2.7c0.1-1,0.8-1.4,1.5-1.4
			C93.1,28.8,93.6,29.4,93.5,30.1 M95,30.2L95,30.2c0-1.5-1.2-2.5-2.8-2.5C90.6,27.7,89,29,89,31s1.4,3.4,3.3,3.4c1,0,2-0.3,2.6-0.8
			v-1.3c-0.5,0.4-1.3,0.8-2,0.8c-1.7,0-2.2-1.1-2.2-2.1h4.2C95,30.9,95,30.5,95,30.2"/>
		<path class="st0" d="M101.3,31L101.3,31c0,1.3-0.8,2.1-1.8,2.1s-1.8-0.8-1.8-2.1c0-1.3,0.8-2.1,1.8-2.1
			C100.6,28.9,101.3,29.7,101.3,31 M103,34.2L103,34.2v-8.9h-1.7v3.4c-0.5-0.7-1.4-1-2.3-1c-1.7,0-3,1.4-3,3.4c0,1.9,1.3,3.4,3,3.4
			c0.9,0,1.9-0.4,2.4-1.2l0.1,1L103,34.2L103,34.2z"/>
		<path class="st0" d="M106.3,34.2L106.3,34.2v-6.4h-1.7v6.4H106.3z M106.3,26.8L106.3,26.8v-1.4h-1.7v1.4H106.3z"/>
		<path class="st0" d="M112.8,31L112.8,31c0,1.3-0.8,2.1-1.8,2.1s-1.8-0.8-1.8-2.1c0-1.3,0.8-2.1,1.8-2.1
			C112,28.9,112.8,29.7,112.8,31 M114.4,34.2L114.4,34.2v-6.4h-1.5l-0.1,1c-0.5-0.8-1.5-1.2-2.4-1.2c-1.7,0-3,1.4-3,3.4
			c0,1.9,1.3,3.4,3,3.4c0.9,0,1.9-0.4,2.4-1.2l0.1,1H114.4L114.4,34.2z"/>
		<path class="st0" d="M120.8,32.2L120.8,32.2c0-0.9-0.7-1.7-2.3-2c-0.7-0.2-1.1-0.3-1.1-0.8c0-0.4,0.3-0.6,1-0.6
			c0.6,0,1.3,0.2,1.8,0.5l0.3-1.1c-0.2-0.1-1.1-0.6-2.2-0.6c-1.7,0-2.5,1-2.5,2c0,0.9,0.5,1.7,2.1,2c0.9,0.2,1.4,0.4,1.4,0.8
			c0,0.5-0.4,0.7-1.1,0.7c-1,0-1.7-0.4-2.2-0.7l-0.3,1.2c0.3,0.2,1.3,0.8,2.5,0.8C119.8,34.4,120.8,33.6,120.8,32.2"/>
		<path class="st0" d="M129.8,31L129.8,31c0,1.3-0.8,2.1-1.8,2.1s-1.8-0.8-1.8-2.1c0-1.3,0.8-2.1,1.8-2.1
			C129,28.9,129.8,29.7,129.8,31 M131.5,34.2L131.5,34.2v-8.9h-1.7v3.4c-0.5-0.7-1.4-1-2.2-1c-1.7,0-3,1.4-3,3.4
			c0,1.9,1.3,3.4,3,3.4c0.9,0,1.8-0.4,2.4-1.2v1L131.5,34.2L131.5,34.2z"/>
		<path class="st0" d="M134.6,26.8L134.6,26.8v-1.4H133V27h0.8c0,0.6-0.2,1.2-0.8,1.5l0.3,0.4C134.1,28.7,134.6,27.8,134.6,26.8"/>
		<polygon class="st0" points="138.2,34.2 138.2,34.2 138.2,25.4 136.4,25.4 136.4,34.2 		"/>
		<path class="st0" d="M146.1,34.2L146.1,34.2v-3.8c0-1.6-0.6-2.8-2.3-2.8c-1,0-1.9,0.5-2.4,1.4l-0.1-1.2h-1.5v6.4h1.7v-3.6
			c0-0.9,0.9-1.6,1.7-1.6c0.8,0,1.2,0.4,1.2,1.7v3.5H146.1L146.1,34.2L146.1,34.2z"/>
		<path class="st0" d="M151.3,29L151.3,29v-1.1h-1.6v-0.1c0-1.1,0.3-1.4,1-1.4c0.2,0,0.4,0.1,0.6,0.1v-1.1c-0.2,0-0.6-0.1-0.9-0.1
			c-1.5,0-2.5,0.7-2.5,2.5v0.1h-1.2V29h1.2v5.3h1.7V29H151.3L151.3,29z"/>
		<path class="st0" d="M157.1,31L157.1,31c0,1.3-0.8,2.2-1.9,2.2c-1.1,0-1.9-0.9-1.9-2.2s0.7-2.2,1.9-2.2
			C156.3,28.9,157.1,29.7,157.1,31 M158.7,31L158.7,31c0-1.9-1.5-3.4-3.5-3.4c-2.1,0-3.5,1.5-3.5,3.4c0,1.9,1.5,3.4,3.5,3.4
			S158.7,33,158.7,31"/>
		<path class="st0" d="M162.6,29.8L162.6,29.8c0,2.9,2,4.6,4.5,4.6c1,0,2.2-0.3,2.9-0.9v-0.8c-0.7,0.5-1.6,1-2.9,1
			c-2.1,0-3.7-1.6-3.7-3.9s1.5-3.8,3.7-3.8c1.3,0,2.2,0.4,2.9,1v-0.9c-0.7-0.5-1.8-0.9-2.9-0.9C164.6,25.1,162.6,26.9,162.6,29.8"/>
		<path class="st0" d="M171.6,31L171.6,31c0-1.7,1.1-2.7,2.5-2.7s2.5,1,2.5,2.7s-1.1,2.6-2.5,2.6C172.7,33.7,171.6,32.7,171.6,31
			 M170.8,31L170.8,31c0,1.9,1.3,3.4,3.1,3.4c0.9,0,2.1-0.5,2.6-1.5v1.3h0.7v-6.4h-0.7v1.3c-0.5-1-1.6-1.5-2.6-1.5
			C172.1,27.7,170.8,29.1,170.8,31"/>
		<path class="st0" d="M184.5,34.2L184.5,34.2v-3.8c0-1.8-0.8-2.8-2.4-2.8c-1,0-2.1,0.6-2.5,1.5v-1.3H179v6.4h0.8v-3.6
			c0-1.1,1.1-2.2,2.3-2.2c1.1,0,1.8,0.5,1.8,2.2v3.6L184.5,34.2z"/>
		<path class="st0" d="M186.7,31L186.7,31c0-1.7,1.1-2.7,2.4-2.7c1.4,0,2.5,1,2.5,2.7s-1.1,2.6-2.5,2.6
			C187.8,33.7,186.7,32.7,186.7,31 M185.9,31L185.9,31c0,1.9,1.3,3.4,3.1,3.4c0.9,0,2.1-0.5,2.6-1.5v1.3h0.7v-6.4h-0.7v1.3
			c-0.5-1-1.6-1.5-2.6-1.5C187.2,27.7,185.9,29.1,185.9,31"/>
		<path class="st0" d="M194.4,31L194.4,31c0-1.7,1.1-2.7,2.5-2.7s2.5,1,2.5,2.7s-1.1,2.6-2.5,2.6S194.4,32.7,194.4,31 M193.7,31
			L193.7,31c0,1.9,1.3,3.4,3.1,3.4c1,0,2.1-0.5,2.6-1.5v1.3h0.7v-8.9h-0.8V29c-0.5-0.9-1.5-1.3-2.5-1.3
			C195,27.7,193.7,29.1,193.7,31"/>
		<path class="st0" d="M202.2,31L202.2,31c0-1.7,1.1-2.7,2.5-2.7s2.5,1,2.5,2.7s-1.1,2.6-2.5,2.6S202.2,32.7,202.2,31 M201.4,31
			L201.4,31c0,1.9,1.4,3.4,3.2,3.4c0.9,0,2.1-0.5,2.6-1.5v1.3h0.7v-6.4h-0.7v1.3c-0.5-1-1.6-1.5-2.6-1.5
			C202.8,27.7,201.4,29.1,201.4,31"/>
		<polygon class="st1" points="77.2,20.6 77.2,20.6 209.1,20.6 209.1,20.8 77.2,20.8 		"/>
		<path class="st2" d="M56.2,15.1L56.2,15.1h7.7V8.2L63.5,8c-2.9-2.1-5.3-1.3-7.7-0.5c-2.1,0.7-4.3,1.4-7.2,0.3l-1.2-0.4V27l0.3,0.3
			c1.4,1,2.6,1.3,3.9,1.3c0.6,0,1.3-0.1,1.9-0.2c0.2-0.1,0.4-0.1,0.6-0.2V17.1C54.1,16,55,15.1,56.2,15.1"/>
		<path class="st3" d="M69.1,15.1L69.1,15.1h-5.2v12.4c0,0.2-0.2,0.4-0.4,0.3l-0.8-0.3c-2.9-1.1-5.1-0.3-7.2,0.4
			c-0.4,0.1-0.7,0.2-1.1,0.4c-0.1,0-0.2,0.2-0.2,0.3v4.8c0,0.8,0.7,1.5,1.5,1.5h13.5c0.8,0,1.5-0.7,1.5-1.5V16.6
			C70.6,15.8,69.9,15.1,69.1,15.1"/>
		<path class="st2" d="M62.7,27.4L62.7,27.4l1.2,0.4V15.1h-7.7c-1.1,0-2.1,1-2.1,2.1v11.1c0.5-0.1,0.9-0.3,1.4-0.4
			C57.6,27.1,59.8,26.3,62.7,27.4"/>
		<path class="st4" d="M62.7,27.4L62.7,27.4l1.2,0.4V15.1h-8.3c-0.8,0-1.5,0.7-1.5,1.5v11.7c0.5-0.1,0.9-0.3,1.4-0.4
			C57.6,27.1,59.8,26.3,62.7,27.4"/>
	</g>
	<line class="st1" x1="21" y1="0" x2="21" y2="40"/>
</g>
</svg>
