<?xml version="1.0" encoding="utf-8"?>
<!-- Generator: Adobe Illustrator 21.0.0, SVG Export Plug-In . SVG Version: 6.00 Build 0)  -->
<svg version="1.1" id="Layer_1" xmlns="http://www.w3.org/2000/svg" xmlns:xlink="http://www.w3.org/1999/xlink" x="0px" y="0px"
	 width="52.9px" height="40px" viewBox="0 0 52.9 40" style="enable-background:new 0 0 52.9 40;" xml:space="preserve">
<style type="text/css">
	.st0{fill:#00ADEE;}
	.st1{fill:#FFFFFF;}
</style>
<g>
	<path class="st0" d="M44.5,34.8h-31c-6,0-11-4.9-11-11V2h42c3,0,5.5,2.4,5.5,5.5v21.9C49.9,32.4,47.5,34.8,44.5,34.8z"/>
	<g>
		<g>
			<g>
				<path class="st1" d="M25.3,32.2c-1.3,0-2.4-0.3-3-1c-0.7-0.7-1-1.8-1-3.4V5.9h5.3v19.6c0,0.9,0.1,1.4,0.2,1.6
					c0.1,0.2,0.2,0.2,0.3,0.2c0.2,0,0.3,0,0.5-0.1c0.2,0,0.4-0.1,0.7-0.2l0.7-0.3l0.5,4.5l-0.3,0.2c-0.3,0.2-0.9,0.4-1.6,0.6
					C26.8,32.1,26.1,32.2,25.3,32.2z"/>
				<path class="st0" d="M26,6.4v19.1c0,0.8,0.1,1.4,0.3,1.8c0.2,0.3,0.4,0.5,0.8,0.5c0.2,0,0.4,0,0.7-0.1c0.2-0.1,0.5-0.1,0.8-0.3
					l0.4,3.4c-0.3,0.2-0.8,0.4-1.5,0.5s-1.4,0.3-2.1,0.3c-1.2,0-2.1-0.3-2.7-0.9c-0.6-0.6-0.9-1.6-0.9-3V6.4H26 M27.1,5.3H26h-4.2
					h-1.1v1.1v21.4c0,1.7,0.4,3,1.2,3.8c0.8,0.8,2,1.2,3.4,1.2c0.8,0,1.6-0.1,2.4-0.3c0.8-0.2,1.4-0.4,1.8-0.7l0.6-0.4L30,30.8
					l-0.4-3.4l-0.2-1.4l-1.4,0.6c-0.2,0.1-0.4,0.2-0.6,0.2c-0.1,0-0.2,0-0.3,0c-0.1-0.2-0.1-0.5-0.1-1.2V6.4L27.1,5.3L27.1,5.3z"/>
			</g>
			<g>
				<path class="st1" d="M31.1,39.3c-0.7,0-1.4-0.1-2.2-0.3L28.5,39v-4.8l0.6,0.1c0.1,0,0.2,0,0.3,0c0.8,0,1-0.3,1.2-0.6
					c0.3-0.6,0.4-1.5,0.4-2.8V13.1h5.3v19c0,2.2-0.4,4-1.2,5.2C34.2,38.7,32.9,39.3,31.1,39.3z M33.6,11.6c-1,0-1.8-0.3-2.3-0.8
					c-0.6-0.5-0.8-1.3-0.8-2.1c0-0.9,0.3-1.6,0.8-2.1c0.6-0.6,1.3-0.9,2.3-0.9c1,0,1.8,0.3,2.4,0.8c0.6,0.6,0.9,1.3,0.9,2.2
					s-0.3,1.6-0.9,2.2C35.4,11.3,34.6,11.6,33.6,11.6z"/>
				<path class="st0" d="M33.6,6.2c0.8,0,1.5,0.2,2,0.7s0.7,1,0.7,1.8s-0.3,1.3-0.7,1.7s-1.2,0.6-2,0.6s-1.5-0.2-1.9-0.7
					c-0.5-0.4-0.7-1-0.7-1.7s0.2-1.3,0.7-1.8C32.1,6.4,32.8,6.2,33.6,6.2 M35.7,13.7v18.5c0,2.2-0.4,3.8-1.1,4.9
					c-0.7,1.1-1.9,1.7-3.6,1.7c-0.7,0-1.3-0.1-2-0.3v-3.8c0.1,0,0.2,0,0.4,0c0.8,0,1.4-0.3,1.6-0.9c0.3-0.7,0.5-1.7,0.5-3V13.7H35.7
					 M33.6,5.1c-1.1,0-2,0.3-2.7,1c-0.7,0.7-1,1.5-1,2.5s0.3,1.9,1,2.5c0.7,0.6,1.6,1,2.7,1c1.1,0,2-0.3,2.7-0.9
					c0.7-0.6,1.1-1.5,1.1-2.6c0-1-0.4-1.9-1.1-2.6C35.6,5.4,34.7,5.1,33.6,5.1L33.6,5.1z M36.8,12.6h-1.1h-4.2h-1.1v1.1v17.3
					c0,1.4-0.2,2.2-0.4,2.5c0,0.1-0.1,0.3-0.7,0.3c-0.1,0-0.2,0-0.3,0l-1.2-0.1v1.2v3.8v0.9l0.8,0.2c0.8,0.2,1.5,0.3,2.3,0.3
					c2.5,0,3.8-1.2,4.5-2.2c0.9-1.3,1.3-3.1,1.3-5.5V13.7L36.8,12.6L36.8,12.6z"/>
			</g>
			<g>
				<path class="st1" d="M38.9,32V13.1h5.3V32H38.9z M41.6,11.6c-1,0-1.8-0.3-2.3-0.8c-0.6-0.5-0.8-1.3-0.8-2.1
					c0-0.9,0.3-1.6,0.8-2.1c0.6-0.6,1.3-0.9,2.3-0.9s1.8,0.3,2.4,0.8c0.6,0.6,0.9,1.3,0.9,2.2s-0.3,1.6-0.9,2.2
					C43.4,11.3,42.6,11.6,41.6,11.6z"/>
				<path class="st0" d="M41.6,6.2c0.8,0,1.5,0.2,2,0.7s0.7,1,0.7,1.8s-0.3,1.3-0.7,1.7s-1.2,0.6-2,0.6s-1.5-0.2-1.9-0.7
					c-0.5-0.4-0.7-1-0.7-1.7s0.2-1.3,0.7-1.8C40.1,6.4,40.8,6.2,41.6,6.2 M43.7,13.7v17.7h-4.2V13.7H43.7 M41.6,5.1
					c-1.1,0-2,0.3-2.7,1c-0.7,0.7-1,1.5-1,2.5s0.3,1.9,1,2.5c0.7,0.6,1.6,1,2.7,1c1.1,0,2-0.3,2.7-0.9c0.7-0.6,1.1-1.5,1.1-2.6
					c0-1-0.4-1.9-1.1-2.6C43.6,5.4,42.7,5.1,41.6,5.1L41.6,5.1z M44.8,12.6h-1.1h-4.2h-1.1v1.1v17.7v1.1h1.1h4.2h1.1v-1.1V13.7V12.6
					L44.8,12.6z"/>
			</g>
		</g>
	</g>
</g>
</svg>
