<?xml version="1.0" encoding="UTF-8" standalone="no"?>
<!DOCTYPE svg PUBLIC "-//W3C//DTD SVG 1.1//EN" "http://www.w3.org/Graphics/SVG/1.1/DTD/svg11.dtd">
<svg width="100%" height="100%" viewBox="0 0 257 58" version="1.1" xmlns="http://www.w3.org/2000/svg" xmlns:xlink="http://www.w3.org/1999/xlink" xml:space="preserve" xmlns:serif="http://www.serif.com/" style="fill-rule:evenodd;clip-rule:evenodd;stroke-linejoin:round;stroke-miterlimit:2;">
    <g transform="matrix(1,0,0,1,-50.0525,-177.783)">
        <g transform="matrix(5.73693,0,0,1,0,157.734)">
            <g transform="matrix(0.174309,0,0,1,0,0)">
                <path d="M195.898,72.919C195.898,74.386 195.565,75.464 194.898,76.151C194.232,76.838 193.207,77.181 191.822,77.181C191.362,77.181 190.914,77.149 190.478,77.084C190.041,77.02 189.611,76.928 189.188,76.809L189.188,75.321L189.265,75.321C189.503,75.414 189.88,75.529 190.397,75.666C190.913,75.803 191.43,75.872 191.946,75.872C192.442,75.872 192.853,75.812 193.178,75.693C193.504,75.575 193.757,75.409 193.938,75.198C194.118,74.996 194.247,74.753 194.325,74.469C194.402,74.185 194.441,73.867 194.441,73.516L194.441,72.726C194.002,73.077 193.582,73.339 193.182,73.512C192.782,73.685 192.272,73.772 191.652,73.772C190.619,73.772 189.799,73.399 189.192,72.652C188.585,71.906 188.281,70.853 188.281,69.495C188.281,68.751 188.386,68.109 188.595,67.569C188.804,67.029 189.09,66.563 189.451,66.171C189.787,65.804 190.195,65.518 190.675,65.314C191.156,65.11 191.634,65.008 192.109,65.008C192.61,65.008 193.03,65.059 193.368,65.159C193.706,65.26 194.064,65.414 194.441,65.62L194.534,65.248L195.898,65.248L195.898,72.919ZM298.402,69.471C298.402,71.026 298.149,72.424 297.643,73.663C297.137,74.903 296.426,76.047 295.512,77.096L293.738,77.096L293.738,77.018C294.135,76.662 294.534,76.227 294.935,75.713C295.335,75.199 295.688,74.624 295.992,73.989C296.313,73.328 296.567,72.63 296.756,71.897C296.944,71.163 297.039,70.355 297.039,69.471C297.039,68.624 296.943,67.818 296.752,67.054C296.561,66.289 296.308,65.589 295.992,64.954C295.667,64.298 295.314,63.723 294.935,63.23C294.555,62.737 294.156,62.301 293.738,61.924L293.738,61.847L295.512,61.847C296.426,62.896 297.137,64.04 297.643,65.279C298.149,66.519 298.402,67.917 298.402,69.471ZM246.131,77.096L244.357,77.096C243.442,76.047 242.732,74.903 242.226,73.663C241.72,72.424 241.467,71.026 241.467,69.471C241.467,67.917 241.72,66.519 242.226,65.279C242.732,64.04 243.442,62.896 244.357,61.847L246.131,61.847L246.131,61.924C245.713,62.301 245.314,62.737 244.934,63.23C244.554,63.723 244.202,64.298 243.876,64.954C243.566,65.589 243.315,66.289 243.121,67.054C242.927,67.818 242.83,68.624 242.83,69.471C242.83,70.355 242.925,71.163 243.113,71.897C243.302,72.63 243.556,73.328 243.876,73.989C244.186,74.624 244.54,75.199 244.938,75.713C245.336,76.227 245.733,76.662 246.131,77.018L246.131,77.096ZM234.013,65.248L228.961,77.096L227.403,77.096L229.015,73.485L225.567,65.248L227.147,65.248L229.805,71.664L232.486,65.248L234.013,65.248ZM88.458,73.904L87.001,73.904L87.001,72.943C86.51,73.33 86.04,73.627 85.591,73.834C85.141,74.04 84.646,74.144 84.103,74.144C83.194,74.144 82.486,73.866 81.98,73.311C81.474,72.755 81.221,71.941 81.221,70.866L81.221,65.248L82.677,65.248L82.677,70.177C82.677,70.616 82.698,70.991 82.739,71.304C82.781,71.616 82.869,71.884 83.003,72.106C83.142,72.333 83.323,72.498 83.545,72.602C83.767,72.705 84.09,72.757 84.514,72.757C84.891,72.757 85.303,72.659 85.75,72.462C86.197,72.266 86.614,72.015 87.001,71.711L87.001,65.248L88.458,65.248L88.458,73.904ZM110.882,73.904L109.433,73.904L109.433,72.981C109.304,73.069 109.129,73.192 108.91,73.349C108.69,73.507 108.477,73.632 108.271,73.725C108.028,73.844 107.749,73.944 107.434,74.024C107.119,74.104 106.749,74.144 106.326,74.144C105.546,74.144 104.885,73.885 104.342,73.369C103.8,72.852 103.529,72.194 103.529,71.393C103.529,70.737 103.669,70.206 103.951,69.801C104.232,69.395 104.634,69.076 105.156,68.844C105.683,68.611 106.315,68.454 107.054,68.371C107.793,68.288 108.586,68.226 109.433,68.185L109.433,67.96C109.433,67.63 109.375,67.356 109.259,67.139C109.142,66.922 108.976,66.752 108.759,66.628C108.552,66.509 108.304,66.429 108.015,66.388C107.726,66.346 107.423,66.326 107.108,66.326C106.726,66.326 106.3,66.376 105.83,66.477C105.36,66.577 104.874,66.723 104.373,66.914L104.296,66.914L104.296,65.434C104.58,65.357 104.99,65.272 105.528,65.179C106.065,65.086 106.594,65.039 107.116,65.039C107.726,65.039 108.256,65.09 108.708,65.19C109.16,65.291 109.552,65.463 109.882,65.706C110.208,65.943 110.456,66.251 110.626,66.628C110.797,67.005 110.882,67.472 110.882,68.03L110.882,73.904ZM268.501,69.27C268.501,70.107 268.409,70.836 268.226,71.459C268.043,72.081 267.742,72.599 267.323,73.012C266.925,73.405 266.461,73.692 265.928,73.873C265.396,74.053 264.777,74.144 264.069,74.144C263.346,74.144 262.715,74.048 262.178,73.857C261.641,73.666 261.189,73.384 260.822,73.012C260.404,72.589 260.103,72.077 259.92,71.478C259.736,70.879 259.644,70.143 259.644,69.27L259.644,62.366L261.179,62.366L261.179,69.347C261.179,69.972 261.221,70.466 261.307,70.827C261.392,71.189 261.535,71.517 261.737,71.811C261.964,72.147 262.272,72.4 262.662,72.571C263.053,72.741 263.521,72.826 264.069,72.826C264.622,72.826 265.092,72.743 265.479,72.575C265.866,72.407 266.176,72.152 266.409,71.811C266.61,71.517 266.754,71.18 266.839,70.8C266.924,70.421 266.967,69.949 266.967,69.386L266.967,62.366L268.501,62.366L268.501,69.27ZM170.367,71.409C170.367,72.199 170.04,72.847 169.387,73.353C168.733,73.86 167.841,74.113 166.709,74.113C166.069,74.113 165.481,74.037 164.947,73.884C164.412,73.732 163.964,73.565 163.602,73.384L163.602,71.749L163.68,71.749C164.14,72.096 164.651,72.371 165.214,72.575C165.777,72.779 166.317,72.881 166.833,72.881C167.474,72.881 167.975,72.777 168.337,72.571C168.698,72.364 168.879,72.039 168.879,71.594C168.879,71.254 168.781,70.995 168.585,70.82C168.388,70.644 168.011,70.494 167.453,70.37C167.247,70.324 166.977,70.269 166.644,70.207C166.31,70.146 166.007,70.078 165.733,70.006C164.974,69.805 164.435,69.509 164.118,69.119C163.8,68.729 163.641,68.25 163.641,67.681C163.641,67.325 163.715,66.989 163.862,66.674C164.009,66.359 164.233,66.078 164.532,65.83C164.821,65.587 165.189,65.394 165.636,65.252C166.083,65.11 166.583,65.039 167.136,65.039C167.652,65.039 168.175,65.103 168.705,65.229C169.234,65.356 169.675,65.509 170.026,65.69L170.026,67.248L169.948,67.248C169.576,66.974 169.124,66.743 168.592,66.554C168.06,66.366 167.539,66.271 167.027,66.271C166.495,66.271 166.046,66.373 165.679,66.577C165.312,66.781 165.129,67.085 165.129,67.488C165.129,67.844 165.24,68.113 165.462,68.294C165.679,68.474 166.03,68.622 166.516,68.735C166.784,68.797 167.085,68.859 167.418,68.921C167.752,68.983 168.029,69.04 168.251,69.092C168.928,69.247 169.45,69.513 169.817,69.89C170.183,70.272 170.367,70.778 170.367,71.409ZM206.01,69.727L199.633,69.727C199.633,70.259 199.713,70.723 199.873,71.118C200.033,71.513 200.253,71.837 200.531,72.09C200.8,72.338 201.119,72.524 201.488,72.648C201.858,72.772 202.265,72.834 202.709,72.834C203.298,72.834 203.89,72.717 204.487,72.482C205.084,72.247 205.509,72.015 205.762,71.788L205.839,71.788L205.839,73.377C205.348,73.583 204.847,73.756 204.336,73.896C203.825,74.035 203.287,74.105 202.724,74.105C201.288,74.105 200.167,73.716 199.361,72.939C198.556,72.161 198.153,71.057 198.153,69.626C198.153,68.211 198.539,67.087 199.311,66.256C200.083,65.424 201.1,65.008 202.36,65.008C203.528,65.008 204.428,65.349 205.06,66.031C205.693,66.713 206.01,67.681 206.01,68.937L206.01,69.727ZM148.989,69.727L142.612,69.727C142.612,70.259 142.692,70.723 142.852,71.118C143.012,71.513 143.232,71.837 143.511,72.09C143.779,72.338 144.098,72.524 144.468,72.648C144.837,72.772 145.244,72.834 145.688,72.834C146.277,72.834 146.87,72.717 147.466,72.482C148.063,72.247 148.488,72.015 148.741,71.788L148.818,71.788L148.818,73.377C148.328,73.583 147.826,73.756 147.315,73.896C146.804,74.035 146.266,74.105 145.703,74.105C144.267,74.105 143.146,73.716 142.341,72.939C141.535,72.161 141.132,71.057 141.132,69.626C141.132,68.211 141.518,67.087 142.29,66.256C143.062,65.424 144.079,65.008 145.339,65.008C146.507,65.008 147.407,65.349 148.04,66.031C148.672,66.713 148.989,67.681 148.989,68.937L148.989,69.727ZM224.66,73.361C224.175,73.594 223.714,73.774 223.277,73.904C222.841,74.033 222.377,74.097 221.886,74.097C221.261,74.097 220.688,74.006 220.166,73.822C219.644,73.639 219.198,73.361 218.826,72.989C218.449,72.617 218.157,72.147 217.95,71.579C217.743,71.011 217.64,70.347 217.64,69.588C217.64,68.172 218.029,67.062 218.806,66.256C219.584,65.45 220.61,65.047 221.886,65.047C222.382,65.047 222.869,65.117 223.347,65.256C223.825,65.396 224.262,65.566 224.66,65.768L224.66,67.387L224.583,67.387C224.138,67.041 223.68,66.775 223.207,66.589C222.735,66.403 222.274,66.31 221.824,66.31C220.998,66.31 220.346,66.588 219.868,67.143C219.39,67.698 219.151,68.513 219.151,69.588C219.151,70.631 219.385,71.433 219.852,71.994C220.32,72.554 220.977,72.834 221.824,72.834C222.119,72.834 222.418,72.795 222.723,72.718C223.028,72.641 223.302,72.54 223.544,72.416C223.756,72.307 223.955,72.192 224.141,72.071C224.327,71.95 224.474,71.845 224.583,71.757L224.66,71.757L224.66,73.361ZM122.536,73.826C122.262,73.898 121.963,73.958 121.641,74.004C121.318,74.051 121.03,74.074 120.777,74.074C119.893,74.074 119.222,73.836 118.762,73.361C118.302,72.886 118.072,72.124 118.072,71.075L118.072,66.473L117.088,66.473L117.088,65.248L118.072,65.248L118.072,62.761L119.529,62.761L119.529,65.248L122.536,65.248L122.536,66.473L119.529,66.473L119.529,70.417C119.529,70.871 119.539,71.226 119.56,71.482C119.581,71.738 119.653,71.977 119.777,72.199C119.891,72.405 120.047,72.557 120.246,72.652C120.445,72.748 120.748,72.795 121.156,72.795C121.394,72.795 121.642,72.761 121.9,72.691C122.158,72.621 122.344,72.563 122.458,72.517L122.536,72.517L122.536,73.826ZM138.792,73.904L136.893,73.904L131.423,63.583L131.423,73.904L129.99,73.904L129.99,62.366L132.368,62.366L137.358,71.788L137.358,62.366L138.792,62.366L138.792,73.904ZM80.066,73.904L78.075,73.904L73.511,68.766L72.364,69.991L72.364,73.904L70.83,73.904L70.83,62.366L72.364,62.366L72.364,68.387L77.966,62.366L79.826,62.366L74.673,67.79L80.066,73.904ZM280.232,73.904L278.334,73.904L272.863,63.583L272.863,73.904L271.43,73.904L271.43,62.366L273.809,62.366L278.799,71.788L278.799,62.366L280.232,62.366L280.232,73.904ZM292.397,73.904L290.762,73.904L289.631,70.688L284.641,70.688L283.51,73.904L281.952,73.904L286.152,62.366L288.198,62.366L292.397,73.904ZM162.084,65.248L159.829,73.904L158.481,73.904L156.257,67.232L154.048,73.904L152.708,73.904L150.43,65.248L151.949,65.248L153.537,71.951L155.699,65.248L156.9,65.248L159.116,71.951L160.619,65.248L162.084,65.248ZM187.243,73.904L185.608,73.904L184.477,70.688L179.487,70.688L178.355,73.904L176.798,73.904L180.998,62.366L183.043,62.366L187.243,73.904ZM215.455,73.904L213.998,73.904L213.998,68.975C213.998,68.578 213.975,68.205 213.929,67.856C213.882,67.507 213.797,67.235 213.673,67.038C213.544,66.821 213.358,66.66 213.115,66.554C212.872,66.448 212.557,66.395 212.17,66.395C211.772,66.395 211.356,66.493 210.922,66.69C210.488,66.886 210.072,67.137 209.675,67.441L209.675,73.904L208.218,73.904L208.218,65.248L209.675,65.248L209.675,66.209C210.129,65.832 210.599,65.538 211.085,65.326C211.57,65.114 212.069,65.008 212.58,65.008C213.515,65.008 214.228,65.29 214.719,65.853C215.21,66.416 215.455,67.227 215.455,68.286L215.455,73.904ZM102.211,65.248L99.957,73.904L98.608,73.904L96.384,67.232L94.176,73.904L92.836,73.904L90.558,65.248L92.076,65.248L93.665,71.951L95.827,65.248L97.028,65.248L99.244,71.951L100.747,65.248L102.211,65.248ZM115.159,73.904L113.702,73.904L113.702,65.248L115.159,65.248L115.159,73.904ZM258.095,73.904L256.103,73.904L251.54,68.766L250.393,69.991L250.393,73.904L248.859,73.904L248.859,62.366L250.393,62.366L250.393,68.387L255.995,62.366L257.855,62.366L252.702,67.79L258.095,73.904ZM109.433,71.773L109.433,69.363C108.989,69.389 108.466,69.427 107.864,69.479C107.262,69.531 106.785,69.606 106.434,69.704C106.016,69.823 105.677,70.007 105.419,70.258C105.161,70.508 105.032,70.853 105.032,71.292C105.032,71.788 105.182,72.161 105.481,72.412C105.781,72.662 106.238,72.788 106.853,72.788C107.364,72.788 107.832,72.688 108.255,72.489C108.679,72.291 109.071,72.052 109.433,71.773ZM194.441,71.525L194.441,66.806C194.054,66.63 193.693,66.505 193.36,66.43C193.027,66.355 192.695,66.318 192.365,66.318C191.564,66.318 190.934,66.586 190.474,67.124C190.014,67.661 189.784,68.441 189.784,69.464C189.784,70.435 189.955,71.171 190.296,71.672C190.637,72.173 191.202,72.424 191.993,72.424C192.416,72.424 192.841,72.342 193.267,72.179C193.693,72.017 194.085,71.799 194.441,71.525ZM289.158,69.371L287.136,63.707L285.106,69.371L289.158,69.371ZM184.004,69.371L181.982,63.707L179.952,69.371L184.004,69.371ZM147.571,68.611C147.566,67.847 147.373,67.255 146.994,66.837C146.614,66.419 146.037,66.209 145.262,66.209C144.482,66.209 143.861,66.439 143.398,66.899C142.936,67.359 142.674,67.929 142.612,68.611L147.571,68.611ZM204.592,68.611C204.587,67.847 204.394,67.255 204.014,66.837C203.635,66.419 203.057,66.209 202.283,66.209C201.503,66.209 200.881,66.439 200.419,66.899C199.957,67.359 199.695,67.929 199.633,68.611L204.592,68.611ZM115.252,63.8L113.609,63.8L113.609,62.289L115.252,62.289L115.252,63.8ZM104.739,51.347L105.946,51.347C106.253,51.923 107.305,52.936 107.831,52.795C108.455,52.628 109.23,51.158 109.086,50.619C108.87,49.813 107.693,48.867 106.976,49.012C106.569,49.094 106.269,49.614 106.084,50.125L104.407,50.125C103.883,49.505 102.972,48.792 102.486,48.938C101.778,49.152 100.943,50.863 101.128,51.476C101.404,52.391 102.787,53.432 103.602,53.241C104.225,53.094 104.597,52.05 104.739,51.347ZM204.244,50.182C204.656,49.69 204.775,49.031 205.57,49.031C206.365,49.031 207.466,49.842 207.617,50.368C207.767,50.893 207.652,51.656 207.036,52.121C206.42,52.586 205.229,53.106 204.743,52.878C204.257,52.65 203.691,52.09 203.745,51.445C203.799,50.801 203.832,50.673 204.244,50.182ZM143.689,47.339C143.947,46.316 144.681,45.612 145.401,45.737C146.174,45.871 146.64,46.911 146.441,48.056C146.242,49.202 145.453,50.023 144.68,49.889C144.148,49.796 143.761,49.275 143.636,48.586L141.817,48.887C141.813,48.907 141.809,48.928 141.804,48.948C141.55,50.125 140.736,50.949 139.988,50.787C139.241,50.625 138.841,49.539 139.095,48.362C139.35,47.186 140.163,46.362 140.911,46.524C141.363,46.621 141.688,47.058 141.818,47.648L143.689,47.339ZM158.683,42.187C158.49,42.067 158.145,41.967 157.539,41.951C155.866,41.906 156.036,41.021 155.17,40.172C154.304,39.324 152.132,40.339 151.268,42.411C150.404,44.483 150.622,45.13 152.036,45.519C152.549,45.66 153.12,45.647 153.638,45.574C153.638,45.962 153.604,46.445 153.477,46.911C153.321,47.481 153.024,48.042 152.382,48.256C150.342,48.937 148.823,48.971 148.823,48.971C148.478,48.977 148.204,49.263 148.21,49.608C148.217,49.953 148.503,50.227 148.847,50.22C148.847,50.22 150.525,50.193 152.778,49.441C153.854,49.082 154.421,48.198 154.682,47.24C154.836,46.679 154.881,46.098 154.884,45.624C155.221,45.623 155.692,45.563 156.349,45.383C157.015,45.201 157.918,44.677 158.843,43.814C159.578,43.129 160.335,42.228 161.002,41.129C160.798,42.811 160.392,48.263 163.715,48.263C167.644,48.263 168.504,43.605 168.886,40.753C169.269,37.901 168.691,34.246 169.407,33.55C170.064,32.912 170.119,32.914 170.124,32.919L169.811,32.279C169.811,32.279 168.19,32.112 168.19,34.278C168.19,36.443 168.009,38.98 167.939,40.787C167.87,42.594 165.929,44.993 164.586,44.993C163.3,44.993 161.685,43.844 162.2,38.627C162.736,37.151 163.076,35.457 163.076,33.569C163.076,31.116 165.164,28.869 167.597,27.006C171.431,24.07 176.224,22.14 176.224,22.14C176.4,22.069 176.535,21.921 176.589,21.739C176.644,21.556 176.612,21.359 176.504,21.203L175.887,20.316C175.69,20.033 175.3,19.963 175.017,20.16C174.734,20.357 174.664,20.747 174.861,21.03L175.039,21.287C173.524,21.957 169.887,23.678 166.837,26.014C164.07,28.133 161.826,30.778 161.826,33.569C161.826,37.321 160.362,40.236 158.777,42.079C158.746,42.115 158.715,42.151 158.683,42.187ZM300.02,40.638C299.201,42.33 298.501,43.371 299.311,43.887C300.122,44.403 301.034,44.261 301.034,44.261C301.034,44.261 301.164,45.898 299.066,47.095C296.967,48.292 295.011,49.348 295.011,49.348C295.011,49.348 298.711,48.86 300.295,47.756C301.879,46.651 303.557,44.364 303.557,41.86C303.557,39.355 302.594,39.048 301.595,39.048C300.595,39.048 300.84,38.945 300.02,40.638ZM74.376,40.685C76.406,38.412 76.296,35.072 76.296,32.125C76.296,30.891 77.211,29.411 78.568,27.987C81.475,24.936 86.318,22.008 86.318,22.008C86.614,21.83 86.998,21.925 87.176,22.221C87.355,22.516 87.26,22.9 86.964,23.079C86.964,23.079 82.282,25.902 79.473,28.849C78.38,29.996 77.546,31.132 77.546,32.125C77.546,35.491 77.536,39.287 75.046,41.797C74.199,42.651 73.512,42.821 73.03,42.787C73.005,42.785 72.981,42.783 72.957,42.78C72.95,43.229 72.902,43.756 72.767,44.289C72.514,45.287 71.963,46.291 70.873,46.899C68.397,48.278 67.025,48.332 67.025,48.332C66.68,48.351 66.385,48.087 66.366,47.743C66.347,47.398 66.611,47.103 66.956,47.084C66.956,47.084 68.126,46.998 70.265,45.807C71.02,45.386 71.38,44.673 71.555,43.982C71.609,43.769 71.646,43.556 71.67,43.352C71.265,43.312 70.739,43.198 70.315,42.898C69.503,42.324 70.146,40.034 70.146,40.034C70.146,40.034 70.781,37.088 71.698,37.393C72.615,37.697 72.594,39.858 73.367,40.108C73.726,40.224 74.124,40.438 74.376,40.685ZM186.11,38.212C186.11,38.212 183.736,39.384 182.525,41.047C181.314,42.711 180.832,43.394 181.36,43.923C181.888,44.451 182.263,43.793 182.603,44.134C182.943,44.474 182.353,46.159 180.922,46.814C179.491,47.468 178.899,47.722 178.899,47.722C178.899,47.722 181.718,47.637 183.33,46.047C184.942,44.456 184.99,44.134 184.723,43.303C184.456,42.473 182.945,43.416 183.037,42.742C183.129,42.069 183.567,40.275 186.11,38.212ZM237.011,42.27C236.872,42.445 236.373,43.055 235.757,43.612C235.422,43.916 235.054,44.211 234.693,44.384C234.667,43.528 234.618,41.907 234.588,40.678C234.616,40.37 234.627,40.064 234.618,39.762L234.61,39.575C234.458,36.887 235.933,30.402 235.933,30.402C236.009,30.066 235.797,29.731 235.461,29.655C235.124,29.579 234.789,29.79 234.713,30.127C234.713,30.127 233.452,35.754 233.356,38.849C233.331,38.921 233.314,39.006 233.312,39.105C233.308,39.309 233.32,39.917 233.339,40.671C233.163,42.535 232.321,44.443 231.754,45.548L231.268,46.433C231.117,46.622 231.103,46.882 231.164,47.049C231.188,47.114 231.234,47.337 231.587,47.438C231.638,47.452 231.963,47.505 233.681,47.592L233.691,47.593C234.322,47.621 235.032,47.299 235.719,46.641C235.855,46.511 235.992,46.366 236.128,46.21C236.189,46.14 236.25,46.068 236.31,45.993C236.543,45.705 236.773,45.38 236.997,45.024C237.401,44.383 237.783,43.645 238.121,42.845C238.131,42.822 238.139,42.798 238.146,42.775C238.997,40.732 239.564,38.299 239.497,36.086C239.366,31.775 241.052,28.805 241.052,28.805C241.223,28.505 241.119,28.123 240.82,27.952C240.52,27.781 240.138,27.885 239.967,28.184C239.967,28.184 238.105,31.421 238.248,36.124C238.309,38.157 237.791,40.394 237.011,42.27ZM92.429,46.906C92.429,46.906 94.871,43.111 97.675,43.111C100.479,43.111 100.371,46.019 102.874,46.019C105.378,46.019 106.572,42.951 108.947,42.951C111.322,42.951 116.598,46.991 126.308,46.991C136.019,46.991 144.268,40.937 146.386,39.409C148.505,37.882 148.879,36.884 149.886,36.864C150.893,36.844 150.777,37.732 151.965,37.732C153.154,37.732 154.376,36.417 154.933,35.513C155.49,34.608 155.956,31.871 155.956,31.871C155.956,31.871 155.229,33.971 154.286,34.68C153.342,35.388 150.729,33.693 150.729,33.693C150.729,33.693 141.491,43.434 126.194,43.434C115.521,43.434 110.445,38.123 110.445,38.123C110.445,38.123 107.032,42.933 104.45,42.933C101.868,42.933 101.628,39.677 99.37,39.677C94.637,39.677 92.429,46.906 92.429,46.906ZM248.498,46.294L253.211,39.034C253.211,39.034 262.262,43.997 270.045,43.997C277.828,43.997 281.869,41.58 283.886,39.716C285.903,37.851 286.825,36.373 286.825,36.373L286.825,28.977L288.016,27.035C288.016,27.035 287.831,28.173 287.831,29.134C287.831,30.096 287.752,34.986 287.731,36.57C287.71,38.153 286.498,39.575 284.349,42.183C282.199,44.791 275.09,46.989 270.073,46.989C265.056,46.989 258.116,45.999 256.125,45.007C254.133,44.015 251.961,43.089 251.961,43.089L249.606,46.57L248.498,46.294ZM189.579,29.253C189.579,29.253 189.119,28.834 188.84,30.628C188.674,31.695 188.751,34.683 188.751,36.049C188.751,39.71 186.982,46.982 199.976,46.982C212.971,46.982 221.755,41.088 222.874,40.217C223.994,39.346 225.61,37.4 226.167,37.429C226.724,37.459 226.963,37.974 227.774,37.974C228.584,37.974 231.03,34.668 231.03,34.668C231.03,34.668 229.833,36.272 228.337,36.272C226.841,36.272 225.809,36.013 225.809,36.013C225.809,36.013 225.85,37.904 219.179,40.455C212.508,43.005 205.6,43.969 201.049,43.969C196.498,43.969 189.872,42.347 189.872,38.533C189.872,37.354 189.844,36.018 189.805,34.735C189.719,31.863 189.579,29.253 189.579,29.253ZM293.206,35.828C292.852,36.131 292.467,36.553 292.127,37.086C292.128,36.46 292.133,35.878 292.133,35.402C292.133,34.073 292.073,31.576 292.218,29.893C292.27,29.289 292.324,28.805 292.455,28.582C293.038,27.594 293.265,26.196 293.265,26.196C293.319,25.855 293.086,25.535 292.746,25.481C292.405,25.427 292.084,25.659 292.03,26C292.03,26 291.853,27.142 291.378,27.947C291.193,28.262 291.046,28.932 290.972,29.785C290.825,31.501 290.883,34.047 290.883,35.402C290.883,37.281 290.843,40.731 291.207,42.228C291.41,44.869 292.103,46.926 293.41,46.926C294.84,46.926 296.245,43.054 296.245,41.301C296.245,39.876 295.308,36.91 294.67,35.756C294.833,35.504 295.02,35.251 295.227,34.997C296.48,33.463 298.473,31.934 300.586,30.494C304.336,27.938 306.046,24.791 306.046,24.791C306.212,24.489 306.1,24.109 305.798,23.943C305.495,23.778 305.115,23.889 304.949,24.192C304.949,24.192 303.354,27.095 299.882,29.461C297.661,30.975 295.576,32.594 294.259,34.207C293.818,34.747 293.462,35.289 293.206,35.828ZM174.325,29.934C174.325,29.934 172.933,33.628 172.933,38.51C172.933,43.122 171.778,46.011 171.778,46.011C171.649,46.331 171.804,46.696 172.124,46.825C172.444,46.953 172.808,46.798 172.937,46.478C172.937,46.478 174.183,43.411 174.183,38.51C174.183,33.879 175.495,30.373 175.495,30.373C175.617,30.05 175.453,29.69 175.13,29.568C174.807,29.447 174.446,29.611 174.325,29.934ZM53.621,46.739C53.621,46.739 51.337,42.693 51.337,39.056C51.337,35.418 54.846,29.9 54.846,29.9C54.846,29.9 50.053,32.79 50.053,38.876C50.053,44.962 53.621,46.739 53.621,46.739ZM86.895,46.739C86.895,46.739 89.18,42.693 89.18,39.056C89.18,35.418 85.67,29.9 85.67,29.9C85.67,29.9 90.464,32.79 90.464,38.876C90.464,44.962 86.895,46.739 86.895,46.739ZM245.049,29.283L245.072,29.097C245.072,29.097 245.05,29.159 245.009,29.274C244.746,29.226 244.472,29.352 244.342,29.602C244.342,29.602 242.886,32.429 242.886,34.95C242.886,37.324 242.368,44.471 242.368,44.471C242.343,44.815 242.602,45.114 242.946,45.139C243.29,45.164 243.589,44.905 243.614,44.561C243.614,44.561 243.944,39.998 244.08,36.924L244.709,31.962C245.064,30.921 245.452,30.177 245.452,30.177C245.611,29.871 245.491,29.493 245.185,29.334C245.141,29.311 245.095,29.294 245.049,29.283ZM59.961,27.921L61.31,27.921L61.31,40.906C61.31,40.906 61.396,41.964 63.033,41.964C64.67,41.964 65.56,39.992 65.56,39.992C65.56,39.992 65.251,45.073 62.226,45.073C59.2,45.073 60.029,40.303 60.029,37.991C60.029,35.679 59.961,27.921 59.961,27.921ZM133.096,33.867C133.264,32.96 133.796,32.297 134.426,32.297C135.191,32.297 135.812,33.275 135.812,34.478C135.812,35.682 135.191,36.659 134.426,36.659C133.796,36.659 133.264,35.996 133.096,35.089L130.612,35.089C130.444,35.996 129.911,36.659 129.281,36.659C128.517,36.659 127.896,35.682 127.896,34.478C127.896,33.275 128.517,32.297 129.281,32.297C129.911,32.297 130.444,32.96 130.612,33.867L133.096,33.867ZM251.394,31.714L251.148,32.49C250.553,32.67 249.86,33.36 249.609,33.727C249.37,34.077 249.402,34.672 249.676,34.995C250.045,35.43 251.235,36.408 251.822,36.338C252.408,36.267 253.665,35.118 253.665,34.469C253.665,33.976 252.737,33.065 252.011,32.655L252.233,31.956C252.837,31.832 254.027,30.727 254.027,30.096C254.027,29.447 252.419,28.072 251.781,28.072C251.144,28.072 250.262,28.929 249.971,29.354C249.733,29.703 249.765,30.299 250.038,30.622C250.276,30.902 250.856,31.408 251.394,31.714ZM201.492,35.83C201.492,35.83 202.787,34.214 204.825,33.88C207.166,33.497 209.189,33.356 211.222,32.352C213.322,31.314 214.521,29.955 214.521,29.955C214.75,29.697 214.727,29.302 214.469,29.073C214.211,28.844 213.815,28.867 213.586,29.125C213.586,29.125 212.522,30.315 210.668,31.231C208.749,32.179 206.833,32.285 204.623,32.647C202.112,33.058 200.517,35.048 200.517,35.048C200.301,35.317 200.345,35.711 200.614,35.926C200.883,36.142 201.277,36.099 201.492,35.83ZM98.31,30.908L98.31,32.933C97.664,33.242 97.059,33.831 97.027,34.341C96.981,35.071 98.331,35.829 98.738,35.955C99.146,36.08 100.903,35.14 100.903,34.494C100.903,33.98 100.129,33.159 99.532,32.846L99.532,30.897C100.163,30.602 100.903,30.059 100.903,29.64C100.903,28.994 99.684,27.865 99.126,27.865C98.292,27.865 97.073,28.757 97.027,29.487C96.992,30.04 97.76,30.61 98.31,30.908ZM66.279,31.837C66.977,32.331 67.04,33.442 66.421,34.316C65.801,35.19 64.732,35.498 64.034,35.004C63.337,34.509 63.273,33.398 63.892,32.524C64.512,31.65 65.581,31.342 66.279,31.837ZM261.512,34.879C261.512,34.879 262.996,33.863 265.476,33.01C268.035,32.129 270.752,32.105 272.156,31.735C273.689,31.331 275.37,29.865 275.37,29.865C275.629,29.637 275.654,29.241 275.426,28.983C275.198,28.724 274.803,28.699 274.544,28.927C274.544,28.927 273.134,30.185 271.838,30.526C270.414,30.901 267.663,30.935 265.069,31.828C262.398,32.747 260.804,33.849 260.804,33.849C260.519,34.045 260.447,34.434 260.643,34.718C260.838,35.002 261.228,35.074 261.512,34.879ZM105.898,30.031C105.898,30.031 104.672,32.871 106.062,33.127C107.453,33.382 108.546,31.983 108.546,31.983C108.546,31.983 108.599,32.997 110.059,32.997C111.519,32.997 112.647,29.181 112.647,29.181C112.647,29.181 110.655,31.26 110.249,30.91C109.843,30.56 109.898,29.863 109.898,29.863C109.898,29.863 108.177,31.814 107.182,31.814C106.319,31.814 105.898,30.031 105.898,30.031ZM225.837,29.094C226.127,28.855 227.096,27.815 227.589,28.058C228.081,28.3 229.02,29.555 228.448,29.976C227.875,30.397 227.02,31.09 226.528,31.172C226.037,31.255 225.016,30.48 225.036,30.092C225.056,29.704 225.547,29.333 225.837,29.094ZM234.633,23.139C234.633,23.139 233.677,23.312 232.615,24.681C231.553,26.05 231.587,26.556 232,26.97C232.414,27.384 232.686,27.21 232.807,27.493C232.966,27.865 233.155,28.642 232.713,29.085C232.271,29.527 231.533,30.179 231.533,30.179C231.533,30.179 233.569,29.333 233.977,28.659C234.385,27.986 234.572,27.33 234.412,26.769C234.205,26.045 232.563,26.159 232.931,25.502C233.272,24.894 234.633,23.139 234.633,23.139Z" style="fill:rgb(58,57,120);"/>
            </g>
        </g>
    </g>
</svg>
