<?xml version="1.0" encoding="utf-8"?>
<!-- Generator: Adobe Illustrator 21.0.0, SVG Export Plug-In . SVG Version: 6.00 Build 0)  -->
<svg version="1.1" id="Layer_1" xmlns="http://www.w3.org/2000/svg" xmlns:xlink="http://www.w3.org/1999/xlink" x="0px" y="0px"
	 width="505px" height="40px" viewBox="0 0 505 40" style="enable-background:new 0 0 505 40;" xml:space="preserve">
<style type="text/css">
	.st0{fill:#2F3F84;}
	.st1{fill:#47B982;}
	.st2{fill:#1E2E49;}
</style>
<g>
	<polygon points="328.7,19.8 325.7,19.8 325.7,18.2 333.4,18.2 333.4,19.8 330.5,19.8 330.5,27.3 328.7,27.3 	"/>
	<polygon points="335,18.2 336.8,18.2 336.8,21.7 340.9,21.7 340.9,18.2 342.7,18.2 342.7,27.3 340.9,27.3 340.9,23.4 336.8,23.4 
		336.8,27.3 335,27.3 	"/>
	<polygon points="344.9,18.2 350.9,18.2 350.9,19.8 346.7,19.8 346.7,21.8 350,21.8 350,23.4 346.7,23.4 346.7,25.7 350.9,25.7 
		350.9,27.3 344.9,27.3 	"/>
	<path d="M355.7,22.7c0-3.9,1.6-4.7,4.1-4.7c1.5,0,2.2,0.2,2.6,0.3l-0.3,1.6c-0.7-0.1-1.3-0.2-2.3-0.2c-1.6,0-2.1,0.6-2.1,2.7v0.7
		c0,2,0.6,2.8,2.2,2.8c1.2,0,2-0.2,2.3-0.3l0.3,1.5c-0.5,0.1-1.2,0.3-2.6,0.3C357.2,27.4,355.7,26.7,355.7,22.7"/>
	<path d="M365.3,27.3h-1.8l3.5-9.1h1.7l3.5,9.1h-1.9l-0.6-1.6h-3.8L365.3,27.3z M367.8,20.6l-1.3,3.6h2.7L367.8,20.6z"/>
	<polygon points="373.5,18.2 375.3,18.2 379.3,24 379.3,18.2 381,18.2 381,27.3 379.5,27.3 375.2,21.1 375.2,27.3 373.5,27.3 	"/>
	<path d="M384.1,27.3h-1.8l3.5-9.1h1.7l3.5,9.1h-1.9l-0.6-1.6h-3.8L384.1,27.3z M386.6,20.6l-1.3,3.6h2.7L386.6,20.6z"/>
	<path d="M392.3,18.2h3.4c2.7,0,4.1,0.6,4.1,4.5s-1.4,4.5-4.1,4.5h-3.4V18.2z M395.7,25.8c1.6,0,2.2-0.7,2.2-2.8v-0.6
		c0-2.1-0.6-2.8-2.2-2.8h-1.6v6.1L395.7,25.8L395.7,25.8z"/>
	<rect x="401.4" y="18.2" width="1.8" height="9.1"/>
	<path d="M406.4,27.3h-1.8l3.5-9.1h1.7l3.5,9.1h-1.9l-0.6-1.6H407L406.4,27.3z M408.9,20.6l-1.3,3.6h2.7L408.9,20.6z"/>
	<polygon points="414.5,18.2 416.3,18.2 420.3,24 420.3,18.2 422.1,18.2 422.1,27.3 420.5,27.3 416.3,21.1 416.3,27.3 414.5,27.3 	
		"/>
	<path d="M427.5,18.2h3.7c2.2,0,3.3,0.6,3.3,3.1c0,2.6-1.1,3.2-3.4,3.2h-1.9v2.8h-1.8L427.5,18.2L427.5,18.2z M431.2,23
		c0.8,0,1.5-0.1,1.5-1.7s-0.7-1.7-1.6-1.7h-1.9V23H431.2z"/>
	<path d="M443.9,27.3h-2.1l-2-2.9h-1.7v2.9h-1.8v-9.1h3.6c2.2,0,3.3,0.5,3.3,3.1c0,1.8-0.6,2.4-1.6,2.7L443.9,27.3z M439.9,22.9
		c1,0,1.5-0.2,1.5-1.6s-0.6-1.6-1.6-1.6H438v3.2H439.9z"/>
	<polygon points="445.5,18.2 451.5,18.2 451.5,19.8 447.3,19.8 447.3,21.8 450.6,21.8 450.6,23.4 447.3,23.4 447.3,25.7 451.5,25.7 
		451.5,27.3 445.5,27.3 	"/>
	<path d="M453.2,27l0.3-1.5c0.4,0.1,2,0.3,2.9,0.3c1.3,0,1.7-0.2,1.7-1.1c0-0.8-0.3-0.9-1.8-1.2c-2.5-0.5-3.1-0.9-3.1-2.8
		s1.2-2.5,3.3-2.5c1.1,0,2.6,0.2,3,0.3l-0.3,1.5c-0.6-0.1-1.7-0.3-2.8-0.3s-1.4,0.2-1.4,1c0,0.9,0.3,0.9,1.7,1.2
		c2.4,0.5,3.1,0.8,3.1,2.8s-1.1,2.6-3.6,2.6C455,27.4,453.6,27.1,453.2,27"/>
	<path d="M461.4,27l0.3-1.5c0.4,0.1,2,0.3,2.9,0.3c1.3,0,1.7-0.2,1.7-1.1c0-0.8-0.3-0.9-1.8-1.2c-2.5-0.5-3.1-0.9-3.1-2.8
		s1.2-2.5,3.3-2.5c1.1,0,2.6,0.2,3,0.3l-0.3,1.5c-0.6-0.1-1.7-0.3-2.8-0.3s-1.4,0.2-1.4,1c0,0.9,0.3,0.9,1.7,1.2
		c2.4,0.5,3.1,0.8,3.1,2.8s-1.1,2.6-3.6,2.6C463.2,27.4,461.8,27.1,461.4,27"/>
	<path d="M472.9,17.7V11h4.7v7.2h-2.7c0.3,1.8,2.7,2.5,2.7,2.5v1C477.6,21.7,473.5,20.9,472.9,17.7"/>
	<path d="M495.2,17.7V11h-4.7v7.2h2.7c-0.3,1.8-2.7,2.5-2.7,2.5v1C490.6,21.7,494.7,20.9,495.2,17.7"/>
	<g>
		<g>
			<g>
				<path d="M486,18.3C486,18.3,486,18.2,486,18.3C486,18.2,486.1,18.2,486,18.3l2.4-1.8L488,16l0,0l0,0l0,0l0.4-1.2l-1.2,0.3l0,0
					l0,0l0,0l-0.4-0.6l-1.2,1.2c0,0,0,0-0.1,0c0,0,0,0,0-0.1L486,13l-0.8,0.5c0,0,0,0-0.1,0l0,0l0,0l-0.9-1.9l-0.9,1.9l0,0
					c0,0,0,0-0.1,0l-0.8-0.5l0.5,2.6v0.1h-0.1l-1.2-1.2l-0.4,0.6l0,0l0,0l0,0l-1.2-0.3l0.5,1.2l0,0l0,0l0,0l-0.5,0.5l2.4,1.8l0,0
					l0,0l0,0l-0.5,0.9l2.1-0.3c0,0,0.1,0,0.1,0.1v1.8h0.5V19c0-0.1,0-0.1,0.1-0.1l2.1,0.3L486,18.3L486,18.3z"/>
			</g>
		</g>
	</g>
</g>
<g>
	<g>
		<g>
			<rect x="220.3" y="9.3" width="0.7" height="23.8"/>
		</g>
	</g>
	<g>
		<path d="M161.2,11h3.6v0.8h-2.7v1.4h2.4v0.7h-2.4v2.3h-0.9V11L161.2,11z"/>
		<path d="M168.7,16.2h-0.8v-0.5l0,0c-0.2,0.4-0.7,0.6-1.1,0.6c-1,0-1.4-0.5-1.4-1.5v-2.4h0.8v2.3c0,0.7,0.3,0.9,0.7,0.9
			c0.7,0,0.9-0.4,0.9-1v-2.2h0.8L168.7,16.2L168.7,16.2z"/>
		<path d="M169.6,12.5h0.8V13l0,0c0.3-0.4,0.7-0.7,1.2-0.7c0.8,0,1.3,0.4,1.3,1.3v2.6h-0.8v-2.4c0-0.6-0.3-0.8-0.7-0.8
			c-0.5,0-0.9,0.4-0.9,1v2.2h-0.8L169.6,12.5L169.6,12.5z"/>
		<path d="M177.3,16.2h-0.8v-0.5l0,0c-0.2,0.4-0.7,0.6-1.2,0.6c-1.2,0-1.8-0.9-1.8-2c0-1.4,0.8-2,1.6-2c0.5,0,1,0.2,1.2,0.6l0,0V11
			h0.8L177.3,16.2L177.3,16.2z M175.4,15.7c0.7,0,1.1-0.7,1.1-1.3c0-0.8-0.4-1.3-1-1.3c-0.8,0-1.1,0.7-1.1,1.4
			C174.4,15,174.7,15.7,175.4,15.7z"/>
		<path d="M178.8,14.6c0,0.6,0.3,1.1,1,1.1c0.5,0,0.8-0.2,0.9-0.6h0.8c-0.2,0.8-0.9,1.3-1.7,1.3c-1.2,0-1.8-0.8-1.8-2
			c0-1.1,0.7-2,1.8-2c1.2,0,1.9,1.1,1.8,2.2C181.6,14.6,178.8,14.6,178.8,14.6z M180.8,14c0-0.5-0.4-1-0.9-1c-0.6,0-1,0.4-1,1H180.8
			z"/>
		<path d="M185.8,16.2H185v-0.5l0,0c-0.2,0.4-0.7,0.6-1.2,0.6c-1.2,0-1.8-0.9-1.8-2c0-1.4,0.8-2,1.6-2c0.5,0,1,0.2,1.2,0.6l0,0V11
			h0.8L185.8,16.2L185.8,16.2z M183.9,15.7c0.7,0,1.1-0.7,1.1-1.3c0-0.8-0.4-1.3-1-1.3c-0.8,0-1.1,0.7-1.1,1.4
			C182.9,15,183.2,15.7,183.9,15.7z"/>
		<path d="M188.7,11h0.8v2l0,0c0.2-0.4,0.7-0.6,1.1-0.6c1.2,0,1.8,0.9,1.8,2c0,1-0.5,2-1.6,2c-0.5,0-1.1-0.1-1.3-0.6l0,0v0.5h-0.8
			V11L188.7,11z M190.6,13c-0.7,0-1.1,0.5-1.1,1.3c0,0.7,0.4,1.3,1.1,1.3s1-0.7,1-1.3S191.3,13,190.6,13z"/>
		<path d="M192.7,12.5h0.9l1,2.8l0,0l0.9-2.8h0.9l-1.5,4c-0.3,0.7-0.5,1.3-1.3,1.3c-0.2,0-0.4,0-0.6,0V17c0.1,0,0.3,0.1,0.4,0.1
			c0.4,0,0.5-0.2,0.6-0.5l0.1-0.3L192.7,12.5z"/>
		<path d="M198.5,12.5h0.6v-1.1h0.8v1.1h0.7v0.6H200v2c0,0.3,0,0.5,0.4,0.5c0.1,0,0.2,0,0.3,0v0.6c-0.2,0-0.4,0-0.5,0
			c-0.9,0-1-0.3-1-1V13h-0.6L198.5,12.5L198.5,12.5z"/>
		<path d="M201.4,11h0.8v2l0,0c0.2-0.3,0.6-0.6,1.1-0.6c0.8,0,1.3,0.4,1.3,1.3v2.6h-0.8v-2.4c0-0.6-0.3-0.8-0.7-0.8
			c-0.5,0-0.9,0.4-0.9,1v2.2h-0.8V11L201.4,11z"/>
		<path d="M206.2,14.6c0,0.6,0.3,1.1,1,1.1c0.5,0,0.8-0.2,0.9-0.6h0.8c-0.2,0.8-0.9,1.3-1.7,1.3c-1.2,0-1.8-0.8-1.8-2
			c0-1.1,0.7-2,1.8-2c1.2,0,1.9,1.1,1.8,2.2C208.9,14.6,206.2,14.6,206.2,14.6z M208.1,14c0-0.5-0.4-1-0.9-1s-1,0.4-1,1H208.1z"/>
		<path d="M172.7,23.5h-0.6l-0.1-0.6c-0.5,0.5-0.9,0.7-1.6,0.7c-1.6,0-2.5-1.2-2.5-2.7s0.9-2.7,2.5-2.7c1.1,0,2.1,0.6,2.2,1.8h-0.9
			c-0.1-0.7-0.7-1-1.3-1c-1.1,0-1.6,1-1.6,2s0.5,2,1.6,2c0.9,0,1.4-0.5,1.5-1.4h-1.4v-0.7h2.2L172.7,23.5L172.7,23.5z"/>
		<path d="M173.4,21.6c0-1.2,0.7-2,1.9-2s1.9,0.8,1.9,2s-0.7,2-1.9,2S173.4,22.8,173.4,21.6z M176.4,21.6c0-0.6-0.3-1.3-1.1-1.3
			s-1.1,0.7-1.1,1.3c0,0.7,0.3,1.3,1.1,1.3S176.4,22.3,176.4,21.6z"/>
		<path d="M177.6,19.7h0.9l0.9,2.9l0,0l0.9-2.9h0.9l-1.4,3.8h-0.9L177.6,19.7z"/>
		<path d="M182.3,21.8c0,0.6,0.3,1.1,1,1.1c0.5,0,0.8-0.2,0.9-0.6h0.8c-0.2,0.8-0.9,1.3-1.7,1.3c-1.2,0-1.8-0.8-1.8-2
			c0-1.1,0.7-2,1.8-2c1.2,0,1.9,1.1,1.8,2.2C185.1,21.8,182.3,21.8,182.3,21.8z M184.3,21.3c0-0.5-0.4-1-0.9-1c-0.6,0-1,0.4-1,1
			H184.3z"/>
		<path d="M185.7,19.7h0.8v0.7l0,0c0.1-0.4,0.6-0.8,1.1-0.8c0.2,0,0.2,0,0.3,0v0.8c-0.1,0-0.2,0-0.4,0c-0.6,0-1,0.5-1,1.3v1.8h-0.8
			V19.7z"/>
		<path d="M188.4,19.7h0.8v0.5l0,0c0.3-0.4,0.7-0.7,1.2-0.7c0.8,0,1.3,0.4,1.3,1.3v2.6h-0.8V21c0-0.6-0.3-0.8-0.7-0.8
			c-0.5,0-0.9,0.4-0.9,1v2.2h-0.8L188.4,19.7L188.4,19.7z"/>
		<path d="M192.6,19.7h0.8v0.5l0,0c0.3-0.4,0.6-0.6,1.2-0.6c0.5,0,0.9,0.2,1.1,0.6c0.3-0.4,0.6-0.6,1.2-0.6c0.8,0,1.3,0.3,1.3,1.3
			v2.6h-0.8v-2.2c0-0.6,0-1-0.7-1c-0.6,0-0.8,0.4-0.8,1v2.2h-0.8v-2.4c0-0.5-0.2-0.8-0.7-0.8c-0.4,0-0.8,0.3-0.8,1v2.2h-0.8
			L192.6,19.7L192.6,19.7z"/>
		<path d="M199.6,21.8c0,0.6,0.3,1.1,1,1.1c0.5,0,0.8-0.2,0.9-0.6h0.8c-0.2,0.8-0.9,1.3-1.7,1.3c-1.2,0-1.8-0.8-1.8-2
			c0-1.1,0.7-2,1.8-2c1.2,0,1.9,1.1,1.8,2.2C202.3,21.8,199.6,21.8,199.6,21.8z M201.5,21.3c0-0.5-0.4-1-0.9-1c-0.6,0-1,0.4-1,1
			H201.5z"/>
		<path d="M203,19.7h0.8v0.5l0,0c0.3-0.4,0.7-0.7,1.2-0.7c0.8,0,1.3,0.4,1.3,1.3v2.6h-0.8V21c0-0.6-0.3-0.8-0.7-0.8
			c-0.5,0-0.9,0.4-0.9,1v2.2H203V19.7L203,19.7z"/>
		<path d="M206.8,19.7h0.6v-1.1h0.8v1.1h0.7v0.6h-0.7v2c0,0.3,0,0.5,0.4,0.5c0.1,0,0.2,0,0.3,0v0.6c-0.2,0-0.4,0-0.5,0
			c-0.9,0-1-0.3-1-1v-2.2h-0.6L206.8,19.7L206.8,19.7z"/>
		<path d="M174.8,28.9c0-1.2,0.7-2,1.9-2c1.2,0,1.9,0.8,1.9,2s-0.7,2-1.9,2S174.8,30,174.8,28.9z M177.7,28.9c0-0.6-0.3-1.3-1.1-1.3
			s-1.1,0.7-1.1,1.3c0,0.7,0.3,1.3,1.1,1.3S177.7,29.5,177.7,28.9z"/>
		<path d="M178.9,27h0.6v-0.3c0-1,0.5-1.1,1-1.1c0.3,0,0.5,0,0.6,0.1v0.6c-0.1,0-0.2,0-0.4,0c-0.2,0-0.4,0.1-0.4,0.4V27h0.7v0.6
			h-0.7v3.1h-0.8v-3.1h-0.6L178.9,27L178.9,27z"/>
		<path d="M187.2,27.2c-0.1-0.6-0.5-1-1.3-1c-1.1,0-1.6,1-1.6,2s0.5,2,1.6,2c0.8,0,1.2-0.6,1.3-1.4h0.9c-0.1,1.2-0.9,2.1-2.2,2.1
			c-1.6,0-2.5-1.2-2.5-2.7s0.9-2.7,2.5-2.7c1.2,0,2.1,0.7,2.2,1.8L187.2,27.2L187.2,27.2z"/>
		<path d="M192,29.9c0,0.2,0,0.3,0.2,0.3c0.1,0,0.1,0,0.2,0v0.6c-0.1,0-0.4,0.1-0.5,0.1c-0.3,0-0.6-0.1-0.6-0.5
			c-0.3,0.3-0.9,0.5-1.3,0.5c-0.7,0-1.3-0.4-1.3-1.1c0-0.9,0.7-1.1,1.4-1.2c0.6-0.1,1.1,0,1.1-0.5c0-0.4-0.4-0.5-0.8-0.5
			c-0.5,0-0.8,0.2-0.8,0.6h-0.8c0.1-1,0.9-1.2,1.7-1.2c0.7,0,1.5,0.3,1.5,1.1L192,29.9L192,29.9z M191.1,28.9
			c-0.3,0.2-0.7,0.2-1,0.2c-0.4,0.1-0.7,0.2-0.7,0.6s0.5,0.5,0.8,0.5c0.4,0,0.9-0.2,0.9-0.7L191.1,28.9L191.1,28.9z"/>
		<path d="M192.9,27h0.8v0.5l0,0c0.3-0.4,0.7-0.7,1.2-0.7c0.8,0,1.3,0.4,1.3,1.3v2.6h-0.8v-2.4c0-0.6-0.3-0.8-0.7-0.8
			c-0.5,0-0.9,0.4-0.9,1v2.2H193L192.9,27L192.9,27z"/>
		<path d="M200.2,29.9c0,0.2,0,0.3,0.2,0.3c0.1,0,0.1,0,0.2,0v0.6c-0.1,0-0.4,0.1-0.5,0.1c-0.3,0-0.6-0.1-0.6-0.5
			c-0.3,0.3-0.9,0.5-1.3,0.5c-0.7,0-1.3-0.4-1.3-1.1c0-0.9,0.7-1.1,1.4-1.2c0.6-0.1,1.1,0,1.1-0.5c0-0.4-0.4-0.5-0.8-0.5
			c-0.5,0-0.8,0.2-0.8,0.6H197c0.1-1,0.9-1.2,1.7-1.2c0.7,0,1.5,0.3,1.5,1.1V29.9L200.2,29.9z M199.4,28.9c-0.3,0.2-0.7,0.2-1,0.2
			c-0.4,0.1-0.7,0.2-0.7,0.6s0.5,0.5,0.8,0.5c0.4,0,0.9-0.2,0.9-0.7L199.4,28.9L199.4,28.9z"/>
		<path d="M204.6,30.8h-0.8v-0.5l0,0c-0.2,0.4-0.7,0.6-1.2,0.6c-1.2,0-1.8-0.9-1.8-2c0-1.4,0.8-2,1.6-2c0.5,0,1,0.2,1.2,0.6l0,0
			v-1.9h0.8L204.6,30.8L204.6,30.8z M202.8,30.2c0.7,0,1.1-0.7,1.1-1.3c0-0.8-0.4-1.3-1-1.3c-0.8,0-1.1,0.7-1.1,1.4
			C201.7,29.6,202,30.2,202.8,30.2z"/>
		<path d="M208.7,29.9c0,0.2,0,0.3,0.2,0.3c0.1,0,0.1,0,0.2,0v0.6c-0.1,0-0.4,0.1-0.5,0.1c-0.3,0-0.6-0.1-0.6-0.5
			c-0.3,0.3-0.9,0.5-1.3,0.5c-0.7,0-1.3-0.4-1.3-1.1c0-0.9,0.7-1.1,1.4-1.2c0.6-0.1,1.1,0,1.1-0.5c0-0.4-0.4-0.5-0.8-0.5
			c-0.5,0-0.8,0.2-0.8,0.6h-0.8c0.1-1,0.9-1.2,1.7-1.2c0.7,0,1.5,0.3,1.5,1.1L208.7,29.9L208.7,29.9z M207.8,28.9
			c-0.3,0.2-0.7,0.2-1,0.2c-0.4,0.1-0.7,0.2-0.7,0.6s0.5,0.5,0.8,0.5c0.4,0,0.9-0.2,0.9-0.7L207.8,28.9L207.8,28.9z"/>
	</g>
	<g>
		<g>
			<path d="M293.3,13c0-0.2,0-0.6-0.5-0.5c-0.5,0-3.6,0.2-3.8,0.2s-0.4,0.2,0,0.3c0.4,0,2.1,0.2,2.1,2.9c0,0.2,0,10.7,0,9.1
				c0,3.4-1.3,4.6-2.7,4.6c-2.3,0-3.5-2.7-3.5-5.3c0-2.9,1.6-4.8,3.3-4.7c2.3,0.1,2.8,2.1,2.8,5.5v-5.7c0,0.7,0,0.8-0.3,0.5
				c-0.3-0.2-1.5-0.9-3-0.9c-2.5,0-5.5,1.8-5.5,5.4c0,3.9,2.8,5.8,5.6,5.8c1.4,0,2.4-0.6,2.7-0.8c0.4-0.2,0.4-0.2,0.4,0.1
				c0.1,0.3,0,0.8,0.7,0.7c0.8-0.1,2.6-0.3,3-0.4s0.3-0.3-0.1-0.4c-0.2,0-1.5,0.1-1.5-3.8S293.3,13,293.3,13z"/>
		</g>
		<g>
			<path d="M244.6,13.1c0.2,0.1,0.8,0.3,1-0.1c0.2-0.5,0.1-0.1,0.1-0.3c0.1-0.2,0.5-0.4,0.6,0.1s0.4,5,0.4,5.3
				c0,0.5-0.7,0.6-0.7,0.1c-0.1-0.7-1.4-5.3-5.2-5.2c-3.4,0.1-5.6,4-5.5,9c0.1,4.7,2.4,7.3,6.1,7.2c3.6-0.1,4.6-2.8,5.1-4.5
				c0.2-0.7,0.9-0.5,0.7,0.1c-0.7,2.8-2.8,5.1-6.6,5.2c-4.2,0.1-8.7-3.1-8.8-8.6c-0.1-5.7,4.4-9.1,8.9-9.1
				C242.7,12.2,243.9,12.9,244.6,13.1z"/>
		</g>
		<g>
			<rect x="294.7" y="12.5" width="2.7" height="5.4"/>
		</g>
		<g>
			<path d="M300.3,17.6c0,0,0-0.9,0-1s0.1-0.1,0.2-0.1c0.1,0,0.9,0.2,0.9,0.2s-0.1-0.2-0.1-0.3s0-0.2,0.1-0.2l0.9-0.8l-0.1-0.1
				c-0.1,0-0.1-0.1-0.1-0.2l0.2-0.6c0,0-0.4,0.1-0.5,0.1s-0.1,0-0.1-0.1l-0.1-0.3l-0.5,0.5c-0.1,0.1-0.2,0-0.2-0.1s0.3-1.2,0.3-1.2
				s-0.3,0.1-0.3,0.2c-0.1,0.1-0.1,0-0.2,0c-0.1-0.1-0.4-0.7-0.4-0.7l0,0c0,0-0.3,0.6-0.4,0.7c-0.1,0.1-0.1,0.1-0.2,0
				c-0.1-0.1-0.3-0.2-0.3-0.2s0.2,1.1,0.3,1.2c0,0.1-0.1,0.2-0.2,0.1l-0.5-0.5l-0.1,0.3c0,0.1-0.1,0.1-0.1,0.1
				c-0.1,0-0.5-0.1-0.5-0.1l0.2,0.6c0,0.1,0,0.1-0.1,0.2l-0.1,0.1l0.9,0.8c0,0,0.1,0.1,0.1,0.2c-0.1,0.1-0.1,0.3-0.1,0.3l0.9-0.2
				c0.1,0,0.2,0,0.2,0.1S300.3,17.6,300.3,17.6L300.3,17.6z"/>
		</g>
		<g>
			<rect x="302.9" y="12.5" width="2.7" height="5.4"/>
		</g>
		<g>
			<path d="M253.6,22c0,1.1-0.2,1.5-0.9,1.8c-0.6,0.3-2.4,0.6-2.7,0.6c-0.7,0.2-2.8,0.7-2.7,2.8c0,2.1,2.1,2.8,3.6,2.8
				c1.4,0,2.2-0.6,2.6-0.9c0.2-0.2,0.2-0.1,0.4,0.1c0.2,0.2,0.9,0.9,2.5,0.9s1.9-0.8,2-1c0.1-0.3-0.2-0.5-0.3-0.2
				c-0.2,0.5-0.6,0.6-0.9,0.6s-1.2-0.1-1.3-2.5c0,0,0-5,0-5.2c0-1.6-1.2-2.9-4.5-2.9c-3.5,0-3.5,1.7-3.6,2.2c0,0.5,0.2,1,1.1,1
				c0.8,0,1-0.9,1.1-1.2c0.1-0.3,0.1-1.4,1.6-1.4C252.8,19.4,253.6,20.4,253.6,22v4.6c0,1.6-0.8,2.9-2,2.9c-1.5,0-1.8-1.2-1.8-1.8
				c0-0.6,0.3-1.8,1.8-2.6c0,0,0.7-0.4,2-0.9c0.1,0,0.2,0,0.2,0.3L253.6,22z"/>
		</g>
		<g>
			<path d="M277.8,22c0,1.1-0.2,1.5-0.9,1.8c-0.6,0.3-2.4,0.6-2.7,0.6c-0.7,0.2-2.8,0.7-2.7,2.8c0,2.1,2.1,2.8,3.6,2.8
				c1.4,0,2.2-0.6,2.6-0.9c0.2-0.2,0.2-0.1,0.4,0.1c0.2,0.2,0.9,0.9,2.5,0.9s1.9-0.8,2-1c0.1-0.3-0.2-0.5-0.3-0.2
				c-0.2,0.5-0.6,0.6-0.9,0.6s-1.2-0.1-1.3-2.5c0,0,0-5,0-5.2c0-1.6-1.2-2.9-4.5-2.9c-3.5,0-3.5,1.7-3.6,2.2c0,0.5,0.2,1,1.1,1
				c0.8,0,1-0.9,1.1-1.2c0.1-0.3,0.1-1.4,1.6-1.4C277.1,19.4,277.8,20.4,277.8,22v4.6c0,1.6-0.8,2.9-2,2.9c-1.5,0-1.8-1.2-1.8-1.8
				c0-0.6,0.3-1.8,1.8-2.6c0,0,0.7-0.4,2-0.9c0.1,0,0.2,0,0.2,0.3L277.8,22z"/>
		</g>
		<g>
			<path d="M301.7,22c0,1.1-0.2,1.5-0.9,1.8c-0.6,0.3-2.4,0.6-2.7,0.6c-0.7,0.2-2.8,0.7-2.7,2.8c0,2.1,2.1,2.8,3.6,2.8
				c1.4,0,2.2-0.6,2.6-0.9c0.2-0.2,0.2-0.1,0.4,0.1s0.9,0.9,2.5,0.9s1.9-0.8,2-1c0.1-0.3-0.2-0.5-0.3-0.2c-0.2,0.5-0.6,0.6-0.9,0.6
				c-0.3,0-1.2-0.1-1.3-2.5c0,0,0-5,0-5.2c0-1.6-1.2-2.9-4.5-2.9c-3.5,0-3.5,1.7-3.6,2.2c0,0.5,0.2,1,1.1,1c0.8,0,1-0.9,1.1-1.2
				c0.1-0.3,0.1-1.4,1.6-1.4C300.9,19.4,301.7,20.4,301.7,22v4.6c0,1.6-0.8,2.9-2,2.9c-1.5,0-1.8-1.2-1.8-1.8c0-0.6,0.3-1.8,1.8-2.6
				c0,0,0.7-0.4,2-0.9c0.1,0,0.2,0,0.2,0.3L301.7,22z"/>
		</g>
		<g>
			<path d="M267.3,27.2c0,1.8-0.5,2.4-1.1,2.5s-0.5,0.4-0.2,0.4c0.1,0,4.8,0,4.8,0c0.4,0,0.7-0.3,0-0.4c-0.4-0.1-1.2-0.6-1.2-2.8
				v-4.2c0-1,0.1-3.5-3.8-3.5c-2,0-3.2,1-3.3,1.1c-0.2,0.1-0.3,0.2-0.3-0.1c-0.1-0.2-0.2-0.5-0.2-0.7c-0.1-0.2-0.1-0.3-0.5-0.3
				c-0.4,0.1-2.7,0.4-3.1,0.5s-0.3,0.3,0,0.3c0.3,0.1,1.5,0.1,1.5,2.3c0,2.1,0,4.5,0,4.5c0,2.6-0.5,2.8-1,3c-0.6,0.2-0.3,0.4,0,0.4
				c0,0,4.6,0,4.8,0c0.3,0,0.5-0.3-0.2-0.4c-0.6-0.1-1.2-0.5-1.2-2.5c0-0.2,0-2.4,0-2.9c0-1.1-0.3-4.5,2.8-4.5
				c2.1-0.1,2.3,1.7,2.3,2.9L267.3,27.2z"/>
		</g>
	</g>
</g>
<g>
	<polygon class="st0" points="40.7,14.7 37,9.9 37,14.7 35.7,14.7 35.7,7.4 36.7,7.4 40.5,12.2 40.5,7.4 41.8,7.4 41.8,14.7 	"/>
	<path class="st0" d="M46.6,11.3L46.6,11.3h-2.2c0.1-0.8,0.6-1.1,1.2-1.1C46.3,10.2,46.7,10.7,46.6,11.3 M47.9,11.4L47.9,11.4
		c0-1.2-1-2.1-2.3-2.1S43,10.4,43,12s1.1,2.8,2.7,2.8c0.9,0,1.6-0.3,2.1-0.6v-1c-0.4,0.4-1.1,0.6-1.7,0.6c-1.4,0-1.8-0.9-1.8-1.7
		h3.5C47.8,11.9,47.9,11.6,47.9,11.4"/>
	<polygon class="st0" points="56.6,9.4 56.6,9.4 55.4,9.4 54.1,12.9 52.9,9.4 52,9.4 50.8,12.9 49.5,9.4 48.1,9.4 50.2,14.7 
		51.1,14.7 52.4,11.5 53.6,14.7 54.6,14.7 	"/>
	<path class="st0" d="M61.1,13L61.1,13c0-0.7-0.6-1.3-1.9-1.6c-0.6-0.1-0.9-0.3-0.9-0.6s0.3-0.5,0.8-0.5s1.1,0.2,1.5,0.4l0.2-0.9
		c-0.2-0.1-0.9-0.5-1.8-0.5c-1.4,0-2,0.8-2,1.6c0,0.7,0.4,1.4,1.7,1.7c0.7,0.2,1.1,0.3,1.1,0.7s-0.4,0.6-0.9,0.6
		c-0.7,0-1.4-0.3-1.8-0.6l-0.2,0.9c0.2,0.1,1,0.6,2.1,0.6C60.3,14.8,61.1,14.1,61.1,13"/>
	<path class="st0" d="M72.4,14.7L72.4,14.7V7.4h-1.5l-2.4,5.3l-2.4-5.3h-1.6v7.2h1.3v-4.4c0-0.2-0.1-0.7-0.1-0.7
		c0,0.1,0.2,0.5,0.2,0.7l1.9,4.4h0.9l1.9-4.4l0.2-0.7c0,0.1,0,0.5,0,0.7v4.4C71,14.7,72.4,14.7,72.4,14.7z"/>
	<path class="st0" d="M77.2,11.3L77.2,11.3H75c0.1-0.8,0.6-1.1,1.2-1.1C76.9,10.2,77.3,10.7,77.2,11.3 M78.4,11.4L78.4,11.4
		c0-1.2-1-2.1-2.3-2.1c-1.4,0-2.6,1.1-2.6,2.7s1.1,2.8,2.7,2.8c0.9,0,1.6-0.3,2.1-0.6v-1c-0.4,0.4-1.1,0.6-1.7,0.6
		c-1.4,0-1.8-0.9-1.8-1.7h3.5C78.4,11.9,78.4,11.6,78.4,11.4"/>
	<path class="st0" d="M83.6,12L83.6,12c0,1.1-0.6,1.7-1.5,1.7c-0.8,0-1.5-0.6-1.5-1.7s0.7-1.7,1.5-1.7C83,10.3,83.6,11,83.6,12
		 M84.9,14.7L84.9,14.7V7.4h-1.4v2.8c-0.4-0.6-1.1-0.9-1.9-0.9c-1.4,0-2.4,1.2-2.4,2.8s1.1,2.8,2.4,2.8c0.7,0,1.5-0.3,1.9-1l0.1,0.8
		L84.9,14.7L84.9,14.7z"/>
	<path class="st0" d="M87.6,14.7L87.6,14.7V9.4h-1.4v5.2C86.2,14.7,87.6,14.7,87.6,14.7z M87.6,8.5L87.6,8.5V7.4h-1.4v1.2h1.4V8.5z"
		/>
	<path class="st0" d="M93,12L93,12c0,1.1-0.7,1.7-1.5,1.7S90,13.1,90,12s0.6-1.7,1.5-1.7C92.3,10.3,93,11,93,12 M94.3,14.7
		L94.3,14.7V9.4H93l-0.1,0.8c-0.4-0.6-1.2-1-1.9-1c-1.4,0-2.4,1.2-2.4,2.8s1.1,2.8,2.4,2.8c0.7,0,1.5-0.3,1.9-1l0.1,0.8L94.3,14.7
		L94.3,14.7z"/>
	<path class="st0" d="M97.8,11L97.8,11c0,2.4,1.7,3.8,3.7,3.8c0.9,0,1.8-0.3,2.4-0.7v-0.7c-0.6,0.4-1.3,0.8-2.4,0.8
		c-1.8,0-3-1.3-3-3.2s1.3-3.2,3-3.2c1,0,1.8,0.3,2.4,0.8V7.9c-0.6-0.4-1.5-0.7-2.4-0.7C99.5,7.2,97.8,8.7,97.8,11"/>
	<path class="st0" d="M105.2,12L105.2,12c0-1.4,0.9-2.2,2-2.2s2,0.8,2,2.2s-0.9,2.2-2,2.2C106.2,14.2,105.2,13.4,105.2,12 M104.6,12
		L104.6,12c0,1.6,1.1,2.8,2.6,2.8c0.7,0,1.7-0.4,2.1-1.2v1.1h0.6V9.4h-0.6v1.1c-0.4-0.8-1.4-1.2-2.1-1.2
		C105.7,9.3,104.6,10.5,104.6,12"/>
	<path class="st0" d="M115.9,14.7L115.9,14.7v-3.1c0-1.5-0.7-2.3-1.9-2.3c-0.9,0-1.7,0.5-2,1.2V9.4h-0.6v5.2h0.6v-3
		c0-0.9,0.9-1.8,1.9-1.8c0.9,0,1.4,0.4,1.4,1.8v3C115.2,14.7,115.9,14.7,115.9,14.7z"/>
	<path class="st0" d="M117.6,12L117.6,12c0-1.4,0.9-2.2,2-2.2s2,0.8,2,2.2s-0.9,2.2-2,2.2S117.6,13.4,117.6,12 M116.9,12L116.9,12
		c0,1.6,1.1,2.8,2.6,2.8c0.7,0,1.7-0.4,2.1-1.2v1.1h0.6V9.4h-0.6v1.1c-0.4-0.8-1.4-1.2-2.1-1.2C118,9.3,116.9,10.5,116.9,12"/>
	<path class="st0" d="M124,12L124,12c0-1.4,0.9-2.2,2-2.2s2,0.8,2,2.2s-0.9,2.2-2,2.2S124,13.4,124,12 M123.3,12L123.3,12
		c0,1.6,1.1,2.8,2.6,2.8c0.8,0,1.7-0.4,2.1-1.2v1.1h0.6V7.4H128v3c-0.4-0.7-1.3-1.1-2-1.1C124.4,9.3,123.3,10.5,123.3,12"/>
	<path class="st0" d="M130.4,12L130.4,12c0-1.4,0.9-2.2,2-2.2s2,0.8,2,2.2s-0.9,2.2-2,2.2S130.4,13.4,130.4,12 M129.7,12L129.7,12
		c0,1.6,1.1,2.8,2.6,2.8c0.7,0,1.7-0.4,2.1-1.2v1.1h0.5V9.4h-0.5v1.1c-0.4-0.8-1.4-1.2-2.1-1.2C130.8,9.3,129.7,10.5,129.7,12"/>
	<path class="st0" d="M43.5,30L43.5,30v-7.3H42L39.6,28l-2.4-5.3h-1.6V30h1.3v-4.5c0-0.2,0-0.7,0-0.7c0,0.1,0.2,0.5,0.2,0.7L39,30
		h0.9l1.9-4.5l0.3-0.7c0,0.1-0.1,0.5-0.1,0.7V30C42.1,30,43.5,30,43.5,30z"/>
	<path class="st0" d="M48.5,23L48.5,23L48,22.2l-1.8,1.5l0.2,0.3L48.5,23z M48.3,26.6L48.3,26.6h-2.2c0.1-0.8,0.6-1.1,1.2-1.1
		C48,25.5,48.4,26,48.3,26.6 M49.5,26.7L49.5,26.7c0-1.2-1-2.1-2.3-2.1c-1.4,0-2.6,1.1-2.6,2.7s1.1,2.8,2.7,2.8
		c0.9,0,1.6-0.2,2.1-0.6v-1c-0.4,0.4-1.1,0.6-1.7,0.6c-1.4,0-1.8-0.9-1.8-1.7h3.5C49.5,27.2,49.5,26.9,49.5,26.7"/>
	<path class="st0" d="M54.7,27.4L54.7,27.4c0,1.1-0.6,1.7-1.5,1.7c-0.8,0-1.5-0.6-1.5-1.7s0.7-1.7,1.5-1.7
		C54.1,25.6,54.7,26.3,54.7,27.4 M56.1,30L56.1,30v-7.3h-1.4v2.8c-0.4-0.6-1.1-0.9-1.9-0.9c-1.4,0-2.4,1.2-2.4,2.8
		c0,1.6,1.1,2.8,2.4,2.8c0.7,0,1.5-0.3,1.9-1l0.1,0.8L56.1,30L56.1,30z"/>
	<path class="st0" d="M58.8,30L58.8,30v-5.2h-1.4V30H58.8z M58.8,23.8L58.8,23.8v-1.1h-1.4v1.1H58.8z"/>
	<path class="st0" d="M64.1,27.4L64.1,27.4c0,1.1-0.6,1.7-1.5,1.7c-0.8,0-1.5-0.6-1.5-1.7s0.7-1.7,1.5-1.7
		C63.5,25.6,64.1,26.3,64.1,27.4 M65.5,30L65.5,30v-5.2h-1.3l-0.1,0.8c-0.4-0.6-1.2-1-1.9-1c-1.4,0-2.4,1.2-2.4,2.8
		c0,1.6,1.1,2.8,2.4,2.8c0.7,0,1.5-0.3,1.9-1l0.1,0.8L65.5,30L65.5,30z"/>
	<path class="st0" d="M70.7,28.3L70.7,28.3c0-0.7-0.6-1.4-1.9-1.6c-0.6-0.1-0.9-0.3-0.9-0.6c0-0.3,0.3-0.5,0.8-0.5s1.1,0.2,1.5,0.4
		l0.2-0.9c-0.2-0.1-0.9-0.5-1.8-0.5c-1.4,0-2,0.8-2,1.6c0,0.7,0.4,1.4,1.7,1.7c0.7,0.2,1.1,0.3,1.1,0.7c0,0.4-0.4,0.6-0.9,0.6
		c-0.8,0-1.4-0.3-1.8-0.6l-0.2,0.9c0.2,0.1,1,0.6,2.1,0.6C69.9,30.1,70.7,29.5,70.7,28.3"/>
	<path class="st0" d="M78.1,27.4L78.1,27.4c0,1.1-0.7,1.7-1.5,1.7s-1.5-0.6-1.5-1.7s0.7-1.7,1.5-1.7C77.4,25.6,78.1,26.3,78.1,27.4
		 M79.4,30L79.4,30v-7.3H78v2.8c-0.4-0.6-1.1-0.9-1.8-0.9c-1.4,0-2.4,1.2-2.4,2.8c0,1.6,1,2.8,2.4,2.8c0.7,0,1.5-0.3,1.9-1V30
		L79.4,30L79.4,30z"/>
	<path class="st0" d="M82,23.8L82,23.8v-1.1h-1.4v1.4h0.6c0,0.5-0.2,1-0.7,1.2l0.2,0.4C81.6,25.4,82,24.7,82,23.8"/>
	<polygon class="st0" points="84.9,30 84.9,30 84.9,22.7 83.5,22.7 83.5,30 	"/>
	<path class="st0" d="M91.5,30L91.5,30v-3.1c0-1.3-0.5-2.3-1.9-2.3c-0.8,0-1.6,0.4-1.9,1.1l-0.1-1h-1.3V30h1.4v-2.9
		c0-0.7,0.7-1.3,1.4-1.3c0.6,0,1,0.3,1,1.4V30H91.5L91.5,30z"/>
	<path class="st0" d="M95.8,25.7L95.8,25.7v-0.9h-1.3v-0.1c0-0.9,0.2-1.1,0.8-1.1c0.1,0,0.4,0.1,0.5,0.1v-0.9
		c-0.2,0-0.5-0.1-0.7-0.1c-1.2,0-2,0.6-2,2.1v0.1h-1v0.9h1V30h1.4v-4.3H95.8L95.8,25.7z"/>
	<path class="st0" d="M100.5,27.4L100.5,27.4c0,1.1-0.6,1.8-1.6,1.8c-0.9,0-1.6-0.7-1.6-1.8c0-1.1,0.6-1.8,1.6-1.8
		C99.8,25.6,100.5,26.3,100.5,27.4 M101.8,27.4L101.8,27.4c0-1.6-1.2-2.8-2.9-2.8c-1.7,0-2.9,1.2-2.9,2.8c0,1.6,1.2,2.8,2.9,2.8
		C100.6,30.1,101.8,28.9,101.8,27.4"/>
	<path class="st0" d="M105,26.3L105,26.3c0,2.4,1.7,3.8,3.7,3.8c0.9,0,1.8-0.3,2.4-0.7v-0.7c-0.6,0.4-1.3,0.8-2.4,0.8
		c-1.8,0-3-1.3-3-3.2s1.3-3.2,3-3.2c1,0,1.8,0.3,2.4,0.8v-0.7c-0.6-0.4-1.5-0.7-2.4-0.7C106.6,22.5,105,24,105,26.3"/>
	<path class="st0" d="M112.4,27.4L112.4,27.4c0-1.4,0.9-2.2,2-2.2s2,0.8,2,2.2c0,1.4-0.9,2.2-2,2.2
		C113.3,29.5,112.4,28.7,112.4,27.4 M111.8,27.4L111.8,27.4c0,1.6,1.1,2.8,2.6,2.8c0.7,0,1.7-0.4,2.1-1.2v1.1h0.6v-5.2h-0.6V26
		c-0.4-0.8-1.4-1.2-2.1-1.2C112.8,24.6,111.8,25.8,111.8,27.4"/>
	<path class="st0" d="M123,30L123,30v-3.1c0-1.5-0.7-2.3-1.9-2.3c-0.9,0-1.7,0.5-2,1.2v-1.1h-0.6V30h0.6v-3c0-0.9,0.9-1.8,1.9-1.8
		c0.9,0,1.4,0.4,1.4,1.8v3H123z"/>
	<path class="st0" d="M124.7,27.4L124.7,27.4c0-1.4,0.9-2.2,2-2.2s2,0.8,2,2.2c0,1.4-0.9,2.2-2,2.2
		C125.7,29.5,124.7,28.7,124.7,27.4 M124.1,27.4L124.1,27.4c0,1.6,1.1,2.8,2.6,2.8c0.7,0,1.7-0.4,2.1-1.2v1.1h0.6v-5.2h-0.6V26
		c-0.4-0.8-1.4-1.2-2.1-1.2C125.2,24.6,124.1,25.8,124.1,27.4"/>
	<path class="st0" d="M131.1,27.4L131.1,27.4c0-1.4,0.9-2.2,2-2.2s2,0.8,2,2.2c0,1.4-0.9,2.2-2,2.2S131.1,28.7,131.1,27.4
		 M130.5,27.4L130.5,27.4c0,1.6,1.1,2.8,2.6,2.8c0.8,0,1.7-0.4,2.1-1.2v1.1h0.6v-7.3h-0.6v3c-0.4-0.7-1.3-1.1-2-1.1
		C131.6,24.6,130.5,25.8,130.5,27.4"/>
	<path class="st0" d="M137.5,27.4L137.5,27.4c0-1.4,0.9-2.2,2-2.2s2,0.8,2,2.2c0,1.4-0.9,2.2-2,2.2S137.5,28.7,137.5,27.4
		 M136.9,27.4L136.9,27.4c0,1.6,1.1,2.8,2.6,2.8c0.7,0,1.7-0.4,2.1-1.2v1.1h0.6v-5.2h-0.6V26c-0.4-0.8-1.4-1.2-2.1-1.2
		C138,24.6,136.9,25.8,136.9,27.4"/>
	<polygon class="st0" points="34.9,18.8 34.9,18.8 143.2,18.8 143.2,19 34.9,19 	"/>
	<path class="st0" d="M17.7,14.3L17.7,14.3H24V8.7l-0.3-0.2c-2.4-1.7-4.4-1.1-6.3-0.4c-1.7,0.6-3.5,1.2-5.9,0.3l-1-0.4v16.1l0.3,0.2
		c1.1,0.8,2.2,1.1,3.2,1.1c0.5,0,1.1-0.1,1.6-0.2c0.2-0.1,0.3-0.1,0.5-0.1V16C16,15,16.7,14.3,17.7,14.3"/>
	<path class="st1" d="M28.3,14.3L28.3,14.3H24v10.1c0,0.2-0.2,0.3-0.4,0.3L23,24.4c-2.4-0.9-4.2-0.3-5.9,0.3
		c-0.3,0.1-0.6,0.2-0.9,0.3c-0.1,0-0.2,0.1-0.2,0.3v4c0,0.7,0.6,1.2,1.2,1.2h11.1c0.7,0,1.2-0.5,1.2-1.2V15.5
		C29.5,14.8,29,14.3,28.3,14.3"/>
	<path class="st0" d="M23,24.4L23,24.4l1,0.4V14.3h-6.4c-0.9,0-1.7,0.8-1.7,1.7v9.1c0.4-0.1,0.7-0.2,1.1-0.4
		C18.8,24.1,20.6,23.5,23,24.4"/>
	<path class="st2" d="M23,24.4L23,24.4l1,0.4V14.3h-6.8c-0.7,0-1.2,0.6-1.2,1.2v9.6c0.4-0.1,0.7-0.2,1.1-0.4
		C18.8,24.1,20.6,23.5,23,24.4"/>
</g>
</svg>
