<?xml version="1.0" encoding="utf-8"?>
<!-- Generator: Adobe Illustrator 21.0.0, SVG Export Plug-In . SVG Version: 6.00 Build 0)  -->
<svg version="1.1" xmlns="http://www.w3.org/2000/svg" xmlns:xlink="http://www.w3.org/1999/xlink" x="0px" y="0px" width="189.5px"
	 height="53px" viewBox="0 0 189.5 53" style="enable-background:new 0 0 189.5 53;" xml:space="preserve">
<style type="text/css">
	.st0{display:none;}
	.st1{display:inline;fill:#FFFFFF;}
	.st2{display:inline;}
	.st3{fill:#FFFFFF;}
	.st4{font-family:'SukhumvitSet-Text';}
	.st5{font-size:11.1798px;}
	.st6{display:inline;fill:none;stroke:#FFFFFF;stroke-width:0.4479;stroke-miterlimit:10;}
	.st7{display:inline;fill:none;stroke:#000000;stroke-width:0.4479;stroke-miterlimit:10;}
	.st8{display:inline;fill:#717171;}
	.st9{display:inline;fill:#77777A;}
	.st10{fill:#FFFFFF;stroke:#FFFFFF;stroke-width:0.4479;stroke-miterlimit:10;}
</style>
<g id="White" class="st0">
	<path class="st1" d="M33.3,31.4c0,0,0-0.1-0.1-0.1l-0.4-0.2c0,0,0,0,0,0c0,0,0,0,0,0c0-0.1,0.1-0.3,0.1-0.4l0.1-0.3
		c0-0.1,0.1-0.2,0.1-0.4l0.1-0.2c0,0,0-0.1,0-0.1c0,0-0.1-0.1-0.1,0l0,0c0,0,0,0-0.1,0l-1.1,0.2c0,0,0,0,0,0c0,0,0,0,0,0
		c0,0,0,0,0,0c0,0,0,0,0,0l-0.2-0.5c0,0-0.1-0.1-0.1-0.1c0,0-0.1,0-0.1,0l0,0c0,0,0,0,0,0.1L31,29.6c-0.2,0.2-0.4,0.4-0.6,0.6
		c0,0,0,0,0,0c0,0,0,0,0,0c0,0,0,0,0,0c0.1-0.3,0.1-0.6,0.2-1l0.1-0.8c0-0.1,0.1-0.3,0.1-0.4l0-0.2c0-0.1,0-0.1-0.1-0.1
		c0,0-0.1,0-0.1,0l0,0c0,0,0,0,0,0L30.3,28c-0.1,0.1-0.2,0.1-0.4,0.2c0,0,0,0,0,0c0,0,0,0,0,0l-0.7-1.3c0,0,0,0,0-0.1l0,0
		c0,0-0.1-0.1-0.1-0.1c0,0,0,0,0,0c-0.1,0-0.1,0-0.1,0.1l0,0c0,0,0,0,0,0l-0.7,1.3c0,0,0,0,0,0.1c0,0,0,0-0.1,0l-0.6-0.4
		c0,0-0.1,0-0.1,0c0,0-0.1,0.1-0.1,0.1c0,0,0,0,0,0c0,0,0,0,0,0.1c0.1,0.5,0.2,0.9,0.3,1.4l0.1,0.3c0,0.2,0.1,0.3,0.1,0.5
		c0,0,0,0,0,0c0,0,0,0,0,0c0,0,0,0,0,0c-0.3-0.3-0.6-0.6-0.8-0.9l0,0c0,0,0,0,0,0l0,0c0,0-0.1,0-0.1,0c0,0-0.1,0-0.1,0.1l-0.1,0.2
		c0,0.1-0.1,0.2-0.1,0.3c0,0,0,0,0,0c0,0,0,0,0,0c-0.2,0-0.4-0.1-0.6-0.1l-0.5-0.1c0,0,0,0-0.1,0l0,0c0,0-0.1,0-0.1,0
		c0,0,0,0.1,0,0.1l0.4,1.2c0,0,0,0.1,0,0.1c0,0,0,0-0.1,0c-0.1,0-0.2,0.1-0.3,0.1l-0.1,0.1c0,0-0.1,0.1-0.1,0.1c0,0,0,0.1,0,0.1l0,0
		c0,0,0,0,0,0l2,1.6c0,0,0,0,0,0c0,0,0,0,0,0.1l-0.1,0.2c0,0.1-0.1,0.2-0.1,0.4c0,0,0,0,0,0.1l0,0c0,0,0,0.1,0,0.1
		c0,0,0.1,0.1,0.1,0l0.3-0.1c0.2,0,0.4-0.1,0.6-0.1c0.1,0,0.3,0,0.4-0.1c0.2,0,0.4-0.1,0.6-0.1c0.1,0,0.6,0,0.7,0
		c0.1,0,0.6,0.1,0.9,0.2c0.2,0,0.3,0.1,0.5,0.1c0.1,0,0.2,0,0.3,0l0.1,0c0,0,0.1,0,0.1,0c0,0,0-0.1,0-0.1l0,0c0,0,0,0,0,0l-0.1-0.2
		c0-0.1-0.1-0.2-0.1-0.3c0,0,0,0,0-0.1c0,0,0,0,0,0c0.3-0.3,0.6-0.5,1-0.8l0.6-0.5c0.1-0.1,0.2-0.2,0.3-0.2l0.1-0.1
		C33.2,31.5,33.3,31.4,33.3,31.4z"/>
	<path class="st1" d="M31.9,38.4c0-1.5-1.2-2.8-2.8-2.8c-1.5,0-2.4,1.3-2.4,1.3c-1.5,2.7-4.5,4.5-7.8,4.6c-5,0-9-4.1-9-9.1
		c0-5,4.1-9.1,9.1-9.1c1.7,0,3.5,0.5,4.9,1.5c0.3,0.2,0.5,0.4,0.7,0.5c0,0,0.1,0,0.1,0c0.4,0.2,0.8,0.3,1.2,0.3c0,0,0.1,0,0.1,0
		c1.6,0,2.9-1.2,3-2.7c0-0.9-0.3-1.7-0.9-2.2c-0.1-0.1-0.2-0.2-0.4-0.3c-1-0.8-2.2-1.3-3.2-1.7c-1.8-0.7-3.7-1.1-5.6-1.1
		C11,17.6,4.6,24,4.6,32c0,6.8,8.3,23.2,12.6,28c0.7,0.8,1.3,1.3,1.7,1.3c0,0,0,0,0.1,0c0,0,0,0,0,0c0.4,0,1-0.5,1.7-1.3
		c3-3.4,8-12.6,10.7-20.1C31.4,39.9,31.9,38.9,31.9,38.4z"/>
	<text transform="matrix(1 0 0 1 43.5861 34.0892)" class="st2"><tspan x="0" y="0" class="st3 st4 st5">Local Journalism Initiative</tspan><tspan x="0" y="18" class="st3 st4 st5">Initiative de journalisme local</tspan></text>
	<line class="st6" x1="43.9" y1="39.6" x2="181.9" y2="39.6"/>
</g>
<g id="Black" class="st0">
	<path class="st2" d="M33.3,31.4c0,0,0-0.1-0.1-0.1l-0.4-0.2c0,0,0,0,0,0c0,0,0,0,0,0c0-0.1,0.1-0.3,0.1-0.4l0.1-0.3
		c0-0.1,0.1-0.2,0.1-0.4l0.1-0.2c0,0,0-0.1,0-0.1c0,0-0.1-0.1-0.1,0l0,0c0,0,0,0-0.1,0l-1.1,0.2c0,0,0,0,0,0c0,0,0,0,0,0
		c0,0,0,0,0,0c0,0,0,0,0,0l-0.2-0.5c0,0-0.1-0.1-0.1-0.1c0,0-0.1,0-0.1,0l0,0c0,0,0,0,0,0.1L31,29.6c-0.2,0.2-0.4,0.4-0.6,0.6
		c0,0,0,0,0,0c0,0,0,0,0,0c0,0,0,0,0,0c0.1-0.3,0.1-0.6,0.2-1l0.1-0.8c0-0.1,0.1-0.3,0.1-0.4l0-0.2c0-0.1,0-0.1-0.1-0.1
		c0,0-0.1,0-0.1,0l0,0c0,0,0,0,0,0L30.3,28c-0.1,0.1-0.2,0.1-0.4,0.2c0,0,0,0,0,0c0,0,0,0,0,0l-0.7-1.3c0,0,0,0,0-0.1l0,0
		c0,0-0.1-0.1-0.1-0.1c0,0,0,0,0,0c-0.1,0-0.1,0-0.1,0.1l0,0c0,0,0,0,0,0l-0.7,1.3c0,0,0,0,0,0.1c0,0,0,0-0.1,0l-0.6-0.4
		c0,0-0.1,0-0.1,0c0,0-0.1,0.1-0.1,0.1c0,0,0,0,0,0c0,0,0,0,0,0.1c0.1,0.5,0.2,0.9,0.3,1.4l0.1,0.3c0,0.2,0.1,0.3,0.1,0.5
		c0,0,0,0,0,0c0,0,0,0,0,0c0,0,0,0,0,0c-0.3-0.3-0.6-0.6-0.8-0.9l0,0c0,0,0,0,0,0l0,0c0,0-0.1,0-0.1,0c0,0-0.1,0-0.1,0.1l-0.1,0.2
		c0,0.1-0.1,0.2-0.1,0.3c0,0,0,0,0,0c0,0,0,0,0,0c-0.2,0-0.4-0.1-0.6-0.1l-0.5-0.1c0,0,0,0-0.1,0l0,0c0,0-0.1,0-0.1,0
		c0,0,0,0.1,0,0.1l0.4,1.2c0,0,0,0.1,0,0.1c0,0,0,0-0.1,0c-0.1,0-0.2,0.1-0.3,0.1l-0.1,0.1c0,0-0.1,0.1-0.1,0.1c0,0,0,0.1,0,0.1l0,0
		c0,0,0,0,0,0l2,1.6c0,0,0,0,0,0c0,0,0,0,0,0.1l-0.1,0.2c0,0.1-0.1,0.2-0.1,0.4c0,0,0,0,0,0.1l0,0c0,0,0,0.1,0,0.1
		c0,0,0.1,0.1,0.1,0l0.3-0.1c0.2,0,0.4-0.1,0.6-0.1c0.1,0,0.3,0,0.4-0.1c0.2,0,0.4-0.1,0.6-0.1c0.1,0,0.6,0,0.7,0
		c0.1,0,0.6,0.1,0.9,0.2c0.2,0,0.3,0.1,0.5,0.1c0.1,0,0.2,0,0.3,0l0.1,0c0,0,0.1,0,0.1,0c0,0,0-0.1,0-0.1l0,0c0,0,0,0,0,0l-0.1-0.2
		c0-0.1-0.1-0.2-0.1-0.3c0,0,0,0,0-0.1c0,0,0,0,0,0c0.3-0.3,0.6-0.5,1-0.8l0.6-0.5c0.1-0.1,0.2-0.2,0.3-0.2l0.1-0.1
		C33.2,31.5,33.3,31.4,33.3,31.4z"/>
	<path class="st2" d="M31.9,38.4c0-1.5-1.2-2.8-2.8-2.8c-1.5,0-2.4,1.3-2.4,1.3c-1.5,2.7-4.5,4.5-7.8,4.6c-5,0-9-4.1-9-9.1
		c0-5,4.1-9.1,9.1-9.1c1.7,0,3.5,0.5,4.9,1.5c0.3,0.2,0.5,0.4,0.7,0.5c0,0,0.1,0,0.1,0c0.4,0.2,0.8,0.3,1.2,0.3c0,0,0.1,0,0.1,0
		c1.6,0,2.9-1.2,3-2.7c0-0.9-0.3-1.7-0.9-2.2c-0.1-0.1-0.2-0.2-0.4-0.3c-1-0.8-2.2-1.3-3.2-1.7c-1.8-0.7-3.7-1.1-5.6-1.1
		C11,17.6,4.6,24,4.6,32c0,6.8,8.3,23.2,12.6,28c0.7,0.8,1.3,1.3,1.7,1.3c0,0,0,0,0.1,0c0,0,0,0,0,0c0.4,0,1-0.5,1.7-1.3
		c3-3.4,8-12.6,10.7-20.1C31.4,39.9,31.9,38.9,31.9,38.4z"/>
	<text transform="matrix(1 0 0 1 43.5861 34.0892)" class="st2"><tspan x="0" y="0" class="st4 st5">Local Journalism Initiative</tspan><tspan x="0" y="18" class="st4 st5">Initiative de journalisme local</tspan></text>
	<line class="st7" x1="43.9" y1="39.6" x2="181.9" y2="39.6"/>
</g>
<g id="Greyscale" class="st0">
	<path class="st8" d="M33.3,31.4c0,0,0-0.1-0.1-0.1l-0.4-0.2c0,0,0,0,0,0c0,0,0,0,0,0c0-0.1,0.1-0.3,0.1-0.4l0.1-0.3
		c0-0.1,0.1-0.2,0.1-0.4l0.1-0.2c0,0,0-0.1,0-0.1c0,0-0.1-0.1-0.1,0l0,0c0,0,0,0-0.1,0l-1.1,0.2c0,0,0,0,0,0c0,0,0,0,0,0
		c0,0,0,0,0,0c0,0,0,0,0,0l-0.2-0.5c0,0-0.1-0.1-0.1-0.1c0,0-0.1,0-0.1,0l0,0c0,0,0,0,0,0.1L31,29.6c-0.2,0.2-0.4,0.4-0.6,0.6
		c0,0,0,0,0,0c0,0,0,0,0,0c0,0,0,0,0,0c0.1-0.3,0.1-0.6,0.2-1l0.1-0.8c0-0.1,0.1-0.3,0.1-0.4l0-0.2c0-0.1,0-0.1-0.1-0.1
		c0,0-0.1,0-0.1,0l0,0c0,0,0,0,0,0L30.3,28c-0.1,0.1-0.2,0.1-0.4,0.2c0,0,0,0,0,0c0,0,0,0,0,0l-0.7-1.3c0,0,0,0,0-0.1l0,0
		c0,0-0.1-0.1-0.1-0.1c0,0,0,0,0,0c-0.1,0-0.1,0-0.1,0.1l0,0c0,0,0,0,0,0l-0.7,1.3c0,0,0,0,0,0.1c0,0,0,0-0.1,0l-0.6-0.4
		c0,0-0.1,0-0.1,0c0,0-0.1,0.1-0.1,0.1c0,0,0,0,0,0c0,0,0,0,0,0.1c0.1,0.5,0.2,0.9,0.3,1.4l0.1,0.3c0,0.2,0.1,0.3,0.1,0.5
		c0,0,0,0,0,0c0,0,0,0,0,0c0,0,0,0,0,0c-0.3-0.3-0.6-0.6-0.8-0.9l0,0c0,0,0,0,0,0l0,0c0,0-0.1,0-0.1,0c0,0-0.1,0-0.1,0.1l-0.1,0.2
		c0,0.1-0.1,0.2-0.1,0.3c0,0,0,0,0,0c0,0,0,0,0,0c-0.2,0-0.4-0.1-0.6-0.1l-0.5-0.1c0,0,0,0-0.1,0l0,0c0,0-0.1,0-0.1,0
		c0,0,0,0.1,0,0.1l0.4,1.2c0,0,0,0.1,0,0.1c0,0,0,0-0.1,0c-0.1,0-0.2,0.1-0.3,0.1l-0.1,0.1c0,0-0.1,0.1-0.1,0.1c0,0,0,0.1,0,0.1l0,0
		c0,0,0,0,0,0l2,1.6c0,0,0,0,0,0c0,0,0,0,0,0.1l-0.1,0.2c0,0.1-0.1,0.2-0.1,0.4c0,0,0,0,0,0.1l0,0c0,0,0,0.1,0,0.1
		c0,0,0.1,0.1,0.1,0l0.3-0.1c0.2,0,0.4-0.1,0.6-0.1c0.1,0,0.3,0,0.4-0.1c0.2,0,0.4-0.1,0.6-0.1c0.1,0,0.6,0,0.7,0
		c0.1,0,0.6,0.1,0.9,0.2c0.2,0,0.3,0.1,0.5,0.1c0.1,0,0.2,0,0.3,0l0.1,0c0,0,0.1,0,0.1,0c0,0,0-0.1,0-0.1l0,0c0,0,0,0,0,0l-0.1-0.2
		c0-0.1-0.1-0.2-0.1-0.3c0,0,0,0,0-0.1c0,0,0,0,0,0c0.3-0.3,0.6-0.5,1-0.8l0.6-0.5c0.1-0.1,0.2-0.2,0.3-0.2l0.1-0.1
		C33.2,31.5,33.3,31.4,33.3,31.4z"/>
	<path class="st9" d="M31.9,38.4c0-1.5-1.2-2.8-2.8-2.8c-1.5,0-2.4,1.3-2.4,1.3c-1.5,2.7-4.5,4.5-7.8,4.6c-5,0-9-4.1-9-9.1
		c0-5,4.1-9.1,9.1-9.1c1.7,0,3.5,0.5,4.9,1.5c0.3,0.2,0.5,0.4,0.7,0.5c0,0,0.1,0,0.1,0c0.4,0.2,0.8,0.3,1.2,0.3c0,0,0.1,0,0.1,0
		c1.6,0,2.9-1.2,3-2.7c0-0.9-0.3-1.7-0.9-2.2c-0.1-0.1-0.2-0.2-0.4-0.3c-1-0.8-2.2-1.3-3.2-1.7c-1.8-0.7-3.7-1.1-5.6-1.1
		C11,17.6,4.6,24,4.6,32c0,6.8,8.3,23.2,12.6,28c0.7,0.8,1.3,1.3,1.7,1.3c0,0,0,0,0.1,0c0,0,0,0,0,0c0.4,0,1-0.5,1.7-1.3
		c3-3.4,8-12.6,10.7-20.1C31.4,39.9,31.9,38.9,31.9,38.4z"/>
	<text transform="matrix(1 0 0 1 43.5861 34.0892)" class="st2"><tspan x="0" y="0" class="st4 st5">Local Journalism Initiative</tspan><tspan x="0" y="18" class="st4 st5">Initiative de journalisme local</tspan></text>
	<line class="st7" x1="43.9" y1="39.6" x2="181.9" y2="39.6"/>
</g>
<g id="Full_Colour_1_">
	<g>
		<path class="st3" d="M34.8,17.9c0,0,0-0.1-0.1-0.1l-0.4-0.2c0,0,0,0,0,0c0,0,0,0,0,0c0-0.1,0.1-0.3,0.1-0.4l0.1-0.3
			c0-0.1,0.1-0.2,0.1-0.4l0.1-0.2c0,0,0-0.1,0-0.1c0,0-0.1-0.1-0.1,0l0,0c0,0,0,0-0.1,0l-1.1,0.2c0,0,0,0,0,0c0,0,0,0,0,0
			c0,0,0,0,0,0c0,0,0,0,0,0L33,15.8c0,0-0.1-0.1-0.1-0.1c0,0-0.1,0-0.1,0l0,0c0,0,0,0,0,0.1l-0.3,0.3c-0.2,0.2-0.4,0.4-0.6,0.6
			c0,0,0,0,0,0c0,0,0,0,0,0c0,0,0,0,0,0c0.1-0.3,0.1-0.6,0.2-1l0.1-0.8c0-0.1,0.1-0.3,0.1-0.4l0-0.2c0-0.1,0-0.1-0.1-0.1
			c0,0-0.1,0-0.1,0l0,0c0,0,0,0,0,0l-0.2,0.1c-0.1,0.1-0.2,0.1-0.4,0.2c0,0,0,0,0,0c0,0,0,0,0,0l-0.7-1.3c0,0,0,0,0-0.1l0,0
			c0,0-0.1-0.1-0.1-0.1c0,0,0,0,0,0c-0.1,0-0.1,0-0.1,0.1l0,0c0,0,0,0,0,0l-0.7,1.3c0,0,0,0,0,0.1c0,0,0,0-0.1,0L29,14.3
			c0,0-0.1,0-0.1,0c0,0-0.1,0.1-0.1,0.1c0,0,0,0,0,0c0,0,0,0,0,0.1c0.1,0.5,0.2,0.9,0.3,1.4l0.1,0.3c0,0.2,0.1,0.3,0.1,0.5
			c0,0,0,0,0,0c0,0,0,0,0,0c0,0,0,0,0,0c-0.3-0.3-0.6-0.6-0.8-0.9l0,0c0,0,0,0,0,0l0,0c0,0-0.1,0-0.1,0c0,0-0.1,0-0.1,0.1L28,16
			c0,0.1-0.1,0.2-0.1,0.3c0,0,0,0,0,0c0,0,0,0,0,0c-0.2,0-0.4-0.1-0.6-0.1l-0.5-0.1c0,0,0,0-0.1,0l0,0c0,0-0.1,0-0.1,0
			c0,0,0,0.1,0,0.1l0.4,1.2c0,0,0,0.1,0,0.1c0,0,0,0-0.1,0c-0.1,0-0.2,0.1-0.3,0.1l-0.1,0.1c0,0-0.1,0.1-0.1,0.1c0,0,0,0.1,0,0.1
			l0,0c0,0,0,0,0,0l2,1.6c0,0,0,0,0,0c0,0,0,0,0,0.1l-0.1,0.2c0,0.1-0.1,0.2-0.1,0.4c0,0,0,0,0,0.1l0,0c0,0,0,0.1,0,0.1
			c0,0,0.1,0.1,0.1,0l0.3-0.1c0.2,0,0.4-0.1,0.6-0.1c0.1,0,0.3,0,0.4-0.1c0.2,0,0.4-0.1,0.6-0.1c0.1,0,0.6,0,0.7,0
			c0.1,0,0.6,0.1,0.9,0.2c0.2,0,0.3,0.1,0.5,0.1c0.1,0,0.2,0,0.3,0l0.1,0c0,0,0.1,0,0.1,0c0,0,0-0.1,0-0.1l0,0c0,0,0,0,0,0L32.8,20
			c0-0.1-0.1-0.2-0.1-0.3c0,0,0,0,0-0.1c0,0,0,0,0,0c0.3-0.3,0.6-0.5,1-0.8l0.6-0.5c0.1-0.1,0.2-0.2,0.3-0.2l0.1-0.1
			C34.7,18,34.8,17.9,34.8,17.9z"/>
		<path class="st3" d="M33.4,24.9c0-1.5-1.2-2.8-2.8-2.8c-1.5,0-2.4,1.3-2.4,1.3c-1.5,2.7-4.5,4.5-7.8,4.6c-5,0-9-4.1-9-9.1
			c0-5,4.1-9.1,9.1-9.1c1.7,0,3.5,0.5,4.9,1.5c0.3,0.2,0.5,0.4,0.7,0.5c0,0,0.1,0,0.1,0c0.4,0.2,0.8,0.3,1.2,0.3c0,0,0.1,0,0.1,0
			c1.6,0,2.9-1.2,3-2.7c0-0.9-0.3-1.7-0.9-2.2c-0.1-0.1-0.2-0.2-0.4-0.3c-1-0.8-2.2-1.3-3.2-1.7c-1.8-0.7-3.7-1.1-5.6-1.1
			c-8,0-14.4,6.4-14.4,14.4c0,6.8,8.3,23.2,12.6,28c0.7,0.8,1.3,1.3,1.7,1.3c0,0,0,0,0.1,0c0,0,0,0,0,0c0.4,0,1-0.5,1.7-1.3
			c3-3.4,8-12.6,10.7-20.1C32.9,26.4,33.4,25.4,33.4,24.9z"/>
	</g>
	<g>
		<path class="st3" d="M46,13.1h0.9v6.8h3.6v0.8H46V13.1z"/>
		<path class="st3" d="M51.2,17.9c0-0.4,0.1-0.8,0.2-1.1c0.1-0.3,0.3-0.6,0.5-0.9s0.5-0.5,0.8-0.6s0.7-0.2,1.1-0.2s0.8,0.1,1.1,0.2
			s0.6,0.3,0.8,0.6c0.2,0.3,0.4,0.5,0.5,0.9s0.2,0.7,0.2,1.1S56.1,18.6,56,19s-0.3,0.6-0.5,0.9c-0.2,0.3-0.5,0.5-0.8,0.6
			s-0.7,0.2-1.1,0.2s-0.8-0.1-1.1-0.2s-0.6-0.3-0.8-0.6s-0.4-0.6-0.5-0.9C51.2,18.6,51.2,18.3,51.2,17.9z M52,17.9
			c0,0.3,0,0.6,0.1,0.9s0.2,0.5,0.3,0.7c0.1,0.2,0.3,0.3,0.5,0.4c0.2,0.1,0.5,0.2,0.8,0.2c0.3,0,0.6-0.1,0.8-0.2
			c0.2-0.1,0.4-0.3,0.5-0.4c0.1-0.2,0.2-0.4,0.3-0.7c0.1-0.3,0.1-0.5,0.1-0.9s0-0.6-0.1-0.8c-0.1-0.3-0.2-0.5-0.3-0.7
			c-0.1-0.2-0.3-0.3-0.5-0.4s-0.5-0.2-0.8-0.2c-0.3,0-0.6,0.1-0.8,0.2s-0.4,0.3-0.5,0.4c-0.1,0.2-0.2,0.4-0.3,0.7
			C52,17.3,52,17.6,52,17.9z"/>
		<path class="st3" d="M59.8,15.8c-0.3,0-0.6,0.1-0.8,0.2c-0.2,0.1-0.4,0.3-0.6,0.4c-0.1,0.2-0.3,0.4-0.3,0.7
			C58,17.3,58,17.6,58,17.9s0,0.6,0.1,0.8c0.1,0.3,0.2,0.5,0.3,0.7c0.1,0.2,0.3,0.3,0.6,0.4c0.2,0.1,0.5,0.2,0.8,0.2
			c0.2,0,0.5,0,0.7-0.1c0.2-0.1,0.5-0.1,0.7-0.2l0.2,0.6c-0.2,0.1-0.5,0.2-0.7,0.3c-0.3,0.1-0.6,0.1-0.9,0.1c-0.4,0-0.8-0.1-1.1-0.2
			s-0.6-0.3-0.8-0.6c-0.2-0.3-0.4-0.6-0.5-0.9s-0.2-0.7-0.2-1.1s0.1-0.8,0.2-1.1c0.1-0.3,0.3-0.6,0.5-0.9c0.2-0.2,0.5-0.4,0.8-0.6
			c0.3-0.1,0.7-0.2,1.2-0.2c0.3,0,0.6,0,0.8,0.1s0.5,0.1,0.7,0.3l-0.2,0.6c-0.2-0.1-0.4-0.2-0.6-0.2C60.3,15.8,60,15.8,59.8,15.8z"
			/>
		<path class="st3" d="M65.7,17c0-0.5-0.1-0.8-0.3-1c-0.2-0.2-0.5-0.3-0.9-0.3c-0.3,0-0.6,0-0.9,0.1c-0.3,0.1-0.5,0.2-0.8,0.3
			l-0.2-0.6c0.2-0.1,0.5-0.2,0.8-0.3s0.7-0.2,1.1-0.2c0.7,0,1.2,0.2,1.6,0.5c0.3,0.4,0.5,0.8,0.5,1.4v3.5h-0.6l-0.2-1
			c-0.1,0.1-0.2,0.3-0.3,0.4c-0.1,0.1-0.2,0.2-0.4,0.3c-0.1,0.1-0.3,0.2-0.5,0.2c-0.2,0.1-0.4,0.1-0.7,0.1c-0.2,0-0.4,0-0.6-0.1
			c-0.2-0.1-0.4-0.2-0.5-0.3c-0.2-0.1-0.3-0.3-0.4-0.5c-0.1-0.2-0.1-0.4-0.1-0.7c0-0.6,0.2-1.1,0.6-1.4c0.4-0.3,1-0.5,1.7-0.5h1.2
			V17z M65.7,17.9h-1.2c-0.5,0-0.9,0.1-1.2,0.3c-0.3,0.2-0.4,0.5-0.4,0.9c0,0.3,0.1,0.6,0.3,0.7C63.5,20,63.7,20,64,20
			c0.3,0,0.5,0,0.7-0.1c0.2-0.1,0.4-0.2,0.5-0.4c0.2-0.2,0.3-0.3,0.4-0.5c0.1-0.2,0.1-0.4,0.1-0.6V17.9z"/>
		<path class="st3" d="M69.1,20.6h-0.8v-7.5h0.8V20.6z"/>
		<path class="st3" d="M76.2,18.4c0,0.8-0.2,1.3-0.5,1.7c-0.3,0.4-0.8,0.5-1.4,0.5c-0.3,0-0.5,0-0.8-0.1s-0.4-0.1-0.6-0.2l0.2-0.7
			c0.1,0.1,0.3,0.1,0.5,0.2s0.4,0.1,0.6,0.1c0.3,0,0.6-0.1,0.8-0.3s0.3-0.6,0.3-1.1v-5.4h0.8V18.4z"/>
		<path class="st3" d="M77.6,17.9c0-0.4,0.1-0.8,0.2-1.1c0.1-0.3,0.3-0.6,0.5-0.9s0.5-0.5,0.8-0.6s0.7-0.2,1.1-0.2s0.8,0.1,1.1,0.2
			s0.6,0.3,0.8,0.6c0.2,0.3,0.4,0.5,0.5,0.9s0.2,0.7,0.2,1.1s-0.1,0.8-0.2,1.1s-0.3,0.6-0.5,0.9c-0.2,0.3-0.5,0.5-0.8,0.6
			s-0.7,0.2-1.1,0.2s-0.8-0.1-1.1-0.2s-0.6-0.3-0.8-0.6s-0.4-0.6-0.5-0.9C77.6,18.6,77.6,18.3,77.6,17.9z M78.4,17.9
			c0,0.3,0,0.6,0.1,0.9s0.2,0.5,0.3,0.7c0.1,0.2,0.3,0.3,0.5,0.4c0.2,0.1,0.5,0.2,0.8,0.2c0.3,0,0.6-0.1,0.8-0.2
			c0.2-0.1,0.4-0.3,0.5-0.4c0.1-0.2,0.2-0.4,0.3-0.7c0.1-0.3,0.1-0.5,0.1-0.9s0-0.6-0.1-0.8c-0.1-0.3-0.2-0.5-0.3-0.7
			c-0.1-0.2-0.3-0.3-0.5-0.4s-0.5-0.2-0.8-0.2c-0.3,0-0.6,0.1-0.8,0.2s-0.4,0.3-0.5,0.4c-0.1,0.2-0.2,0.4-0.3,0.7
			C78.4,17.3,78.4,17.6,78.4,17.9z"/>
		<path class="st3" d="M87.6,15.2h0.8v5.4h-0.7l-0.2-1c-0.1,0.1-0.2,0.2-0.3,0.4c-0.1,0.1-0.3,0.2-0.4,0.3s-0.3,0.2-0.5,0.3
			s-0.4,0.1-0.7,0.1c-0.5,0-0.9-0.2-1.3-0.5c-0.3-0.3-0.5-0.9-0.5-1.6v-3.4h0.8v3.4c0,0.4,0.1,0.8,0.3,1s0.5,0.4,0.8,0.4
			c0.2,0,0.4,0,0.6-0.1c0.2-0.1,0.3-0.1,0.5-0.2c0.1-0.1,0.3-0.2,0.4-0.4c0.1-0.1,0.2-0.3,0.3-0.4V15.2z"/>
		<path class="st3" d="M91,16.2c0.1-0.1,0.2-0.3,0.3-0.4c0.1-0.1,0.2-0.2,0.3-0.3c0.1-0.1,0.3-0.2,0.4-0.2s0.3-0.1,0.5-0.1
			c0.2,0,0.4,0,0.5,0.1c0.1,0.1,0.2,0.1,0.2,0.1L93,16.1c-0.2-0.1-0.4-0.2-0.6-0.2c-0.3,0-0.6,0.1-0.8,0.3c-0.2,0.2-0.4,0.4-0.6,0.7
			v3.7h-0.8v-5.4h0.7L91,16.2z"/>
		<path class="st3" d="M95.1,20.6h-0.8v-5.4h0.7l0.2,0.9c0.1-0.1,0.2-0.2,0.3-0.3c0.1-0.1,0.3-0.2,0.4-0.3c0.2-0.1,0.3-0.2,0.5-0.2
			c0.2-0.1,0.4-0.1,0.6-0.1c0.6,0,1,0.2,1.3,0.6s0.5,0.9,0.5,1.6v3.4H98v-3.4c0-0.4-0.1-0.8-0.3-1s-0.5-0.4-0.8-0.4
			c-0.4,0-0.7,0.1-1,0.3c-0.3,0.2-0.6,0.4-0.8,0.7V20.6z"/>
		<path class="st3" d="M103.7,17c0-0.5-0.1-0.8-0.3-1c-0.2-0.2-0.5-0.3-0.9-0.3c-0.3,0-0.6,0-0.9,0.1c-0.3,0.1-0.5,0.2-0.8,0.3
			l-0.2-0.6c0.2-0.1,0.5-0.2,0.8-0.3c0.3-0.1,0.7-0.2,1.1-0.2c0.7,0,1.2,0.2,1.6,0.5c0.3,0.4,0.5,0.8,0.5,1.4v3.5h-0.6l-0.2-1
			c-0.1,0.1-0.2,0.3-0.3,0.4c-0.1,0.1-0.2,0.2-0.4,0.3c-0.1,0.1-0.3,0.2-0.5,0.2c-0.2,0.1-0.4,0.1-0.7,0.1c-0.2,0-0.4,0-0.6-0.1
			c-0.2-0.1-0.4-0.2-0.5-0.3c-0.2-0.1-0.3-0.3-0.4-0.5c-0.1-0.2-0.1-0.4-0.1-0.7c0-0.6,0.2-1.1,0.6-1.4c0.4-0.3,1-0.5,1.7-0.5h1.2
			V17z M103.7,17.9h-1.2c-0.5,0-0.9,0.1-1.2,0.3c-0.3,0.2-0.4,0.5-0.4,0.9c0,0.3,0.1,0.6,0.3,0.7c0.2,0.2,0.4,0.2,0.7,0.2
			c0.3,0,0.5,0,0.7-0.1c0.2-0.1,0.4-0.2,0.5-0.4c0.2-0.2,0.3-0.3,0.4-0.5c0.1-0.2,0.1-0.4,0.1-0.6V17.9z"/>
		<path class="st3" d="M107,20.6h-0.8v-7.5h0.8V20.6z"/>
		<path class="st3" d="M108.7,13.5c0-0.2,0-0.3,0.1-0.4c0.1-0.1,0.2-0.2,0.4-0.2c0.2,0,0.3,0.1,0.4,0.2c0.1,0.1,0.1,0.2,0.1,0.4
			c0,0.2,0,0.3-0.1,0.4c-0.1,0.1-0.2,0.2-0.4,0.2c-0.2,0-0.3-0.1-0.4-0.2C108.7,13.8,108.7,13.7,108.7,13.5z M109.6,20.6h-0.8v-5.4
			h0.8V20.6z"/>
		<path class="st3" d="M112.8,20c0.5,0,0.8-0.1,1-0.3c0.2-0.2,0.3-0.4,0.3-0.6c0-0.3-0.1-0.5-0.4-0.7s-0.6-0.3-0.9-0.4
			c-0.2-0.1-0.5-0.1-0.7-0.2s-0.4-0.2-0.5-0.3c-0.1-0.1-0.3-0.3-0.3-0.4c-0.1-0.2-0.1-0.4-0.1-0.6c0-0.5,0.2-0.8,0.5-1
			s0.8-0.4,1.4-0.4c0.3,0,0.6,0,0.9,0.1c0.3,0.1,0.5,0.1,0.7,0.2l-0.2,0.6c-0.2-0.1-0.4-0.2-0.6-0.2c-0.2-0.1-0.5-0.1-0.7-0.1
			c-0.4,0-0.7,0.1-0.9,0.2c-0.2,0.1-0.3,0.3-0.3,0.5c0,0.3,0.1,0.5,0.3,0.6c0.2,0.1,0.5,0.3,0.8,0.4c0.6,0.2,1.1,0.4,1.4,0.7
			c0.3,0.3,0.5,0.6,0.5,1.1c0,0.5-0.2,0.8-0.5,1.1c-0.3,0.3-0.8,0.4-1.5,0.4c-0.3,0-0.7,0-1-0.1c-0.3-0.1-0.5-0.1-0.7-0.3l0.2-0.6
			c0.2,0.1,0.4,0.2,0.7,0.2C112.2,20,112.5,20,112.8,20z"/>
		<path class="st3" d="M117.1,20.6h-0.8v-5.4h0.7l0.1,0.9c0.1-0.1,0.2-0.2,0.3-0.3c0.1-0.1,0.2-0.2,0.4-0.3c0.1-0.1,0.3-0.2,0.5-0.2
			c0.2-0.1,0.4-0.1,0.6-0.1c0.4,0,0.7,0.1,0.9,0.3c0.2,0.2,0.4,0.5,0.5,0.8c0.2-0.3,0.4-0.5,0.7-0.8c0.3-0.2,0.7-0.3,1.1-0.3
			c0.5,0,0.9,0.2,1.2,0.5s0.4,0.8,0.4,1.4v3.6h-0.8V17c0-0.4-0.1-0.7-0.2-0.9c-0.1-0.2-0.4-0.3-0.7-0.3c-0.2,0-0.3,0-0.5,0.1
			s-0.3,0.1-0.4,0.2c-0.1,0.1-0.2,0.2-0.4,0.3c-0.1,0.1-0.2,0.3-0.3,0.4v3.7h-0.8V17c0-0.4-0.1-0.7-0.2-0.9s-0.4-0.3-0.7-0.3
			c-0.3,0-0.6,0.1-0.9,0.3c-0.3,0.2-0.5,0.4-0.6,0.7V20.6z"/>
		<path class="st3" d="M129,20.6h-0.8v-7.5h0.8V20.6z"/>
		<path class="st3" d="M131.6,20.6h-0.8v-5.4h0.7l0.2,0.9c0.1-0.1,0.2-0.2,0.3-0.3c0.1-0.1,0.3-0.2,0.4-0.3s0.3-0.2,0.5-0.2
			s0.4-0.1,0.6-0.1c0.6,0,1,0.2,1.3,0.6s0.5,0.9,0.5,1.6v3.4h-0.8v-3.4c0-0.4-0.1-0.8-0.3-1s-0.5-0.4-0.8-0.4c-0.4,0-0.7,0.1-1,0.3
			s-0.6,0.4-0.8,0.7V20.6z"/>
		<path class="st3" d="M136.9,13.5c0-0.2,0-0.3,0.1-0.4c0.1-0.1,0.2-0.2,0.4-0.2c0.2,0,0.3,0.1,0.4,0.2c0.1,0.1,0.1,0.2,0.1,0.4
			c0,0.2,0,0.3-0.1,0.4c-0.1,0.1-0.2,0.2-0.4,0.2c-0.2,0-0.3-0.1-0.4-0.2C137,13.8,136.9,13.7,136.9,13.5z M137.9,20.6h-0.8v-5.4
			h0.8V20.6z"/>
		<path class="st3" d="M140.7,19.1c0,0.3,0,0.5,0.1,0.7c0.1,0.2,0.3,0.2,0.6,0.2c0.2,0,0.3,0,0.5-0.1s0.3-0.1,0.4-0.2l0.2,0.6
			c-0.1,0.1-0.3,0.2-0.5,0.2c-0.2,0.1-0.4,0.1-0.7,0.1c-0.5,0-0.8-0.1-1-0.4c-0.2-0.2-0.3-0.6-0.3-1.2v-3.3H139v-0.7h0.9l0.2-1.5
			h0.6v1.5h1.7v0.7h-1.7V19.1z"/>
		<path class="st3" d="M143.4,13.5c0-0.2,0-0.3,0.1-0.4c0.1-0.1,0.2-0.2,0.4-0.2c0.2,0,0.3,0.1,0.4,0.2c0.1,0.1,0.1,0.2,0.1,0.4
			c0,0.2,0,0.3-0.1,0.4c-0.1,0.1-0.2,0.2-0.4,0.2c-0.2,0-0.3-0.1-0.4-0.2C143.5,13.8,143.4,13.7,143.4,13.5z M144.4,20.6h-0.8v-5.4
			h0.8V20.6z"/>
		<path class="st3" d="M149.3,17c0-0.5-0.1-0.8-0.3-1c-0.2-0.2-0.5-0.3-0.9-0.3c-0.3,0-0.6,0-0.9,0.1c-0.3,0.1-0.5,0.2-0.8,0.3
			l-0.2-0.6c0.2-0.1,0.5-0.2,0.8-0.3s0.7-0.2,1.1-0.2c0.7,0,1.2,0.2,1.6,0.5c0.3,0.4,0.5,0.8,0.5,1.4v3.5h-0.6l-0.2-1
			c-0.1,0.1-0.2,0.3-0.3,0.4c-0.1,0.1-0.2,0.2-0.4,0.3c-0.1,0.1-0.3,0.2-0.5,0.2c-0.2,0.1-0.4,0.1-0.7,0.1c-0.2,0-0.4,0-0.6-0.1
			c-0.2-0.1-0.4-0.2-0.5-0.3c-0.2-0.1-0.3-0.3-0.4-0.5c-0.1-0.2-0.1-0.4-0.1-0.7c0-0.6,0.2-1.1,0.6-1.4c0.4-0.3,1-0.5,1.7-0.5h1.2
			V17z M149.3,17.9h-1.2c-0.5,0-0.9,0.1-1.2,0.3s-0.4,0.5-0.4,0.9c0,0.3,0.1,0.6,0.3,0.7c0.2,0.2,0.4,0.2,0.7,0.2
			c0.3,0,0.5,0,0.7-0.1c0.2-0.1,0.4-0.2,0.5-0.4c0.2-0.2,0.3-0.3,0.4-0.5c0.1-0.2,0.1-0.4,0.1-0.6V17.9z"/>
		<path class="st3" d="M152.8,19.1c0,0.3,0,0.5,0.1,0.7c0.1,0.2,0.3,0.2,0.6,0.2c0.2,0,0.3,0,0.5-0.1s0.3-0.1,0.4-0.2l0.2,0.6
			c-0.1,0.1-0.3,0.2-0.5,0.2c-0.2,0.1-0.4,0.1-0.7,0.1c-0.5,0-0.8-0.1-1-0.4c-0.2-0.2-0.3-0.6-0.3-1.2v-3.3h-0.9v-0.7h0.9l0.2-1.5
			h0.6v1.5h1.7v0.7h-1.7V19.1z"/>
		<path class="st3" d="M155.6,13.5c0-0.2,0-0.3,0.1-0.4c0.1-0.1,0.2-0.2,0.4-0.2c0.2,0,0.3,0.1,0.4,0.2c0.1,0.1,0.1,0.2,0.1,0.4
			c0,0.2,0,0.3-0.1,0.4c-0.1,0.1-0.2,0.2-0.4,0.2c-0.2,0-0.3-0.1-0.4-0.2C155.6,13.8,155.6,13.7,155.6,13.5z M156.5,20.6h-0.8v-5.4
			h0.8V20.6z"/>
		<path class="st3" d="M159.6,20.6l-2-5.4h0.8l1,2.8c0.1,0.3,0.2,0.6,0.3,0.9s0.2,0.6,0.3,0.9h0c0.1-0.3,0.2-0.6,0.3-0.9
			c0.1-0.3,0.2-0.6,0.3-0.9l1-2.8h0.8l-2,5.4H159.6z"/>
		<path class="st3" d="M163.9,18.3c0,0.6,0.2,1,0.5,1.3s0.8,0.5,1.3,0.5c0.2,0,0.5,0,0.7-0.1c0.3-0.1,0.5-0.1,0.7-0.2l0.2,0.6
			c-0.2,0.1-0.5,0.2-0.8,0.3c-0.3,0.1-0.6,0.1-0.9,0.1c-0.4,0-0.8-0.1-1.1-0.2s-0.6-0.3-0.8-0.6c-0.2-0.2-0.4-0.5-0.5-0.9
			c-0.1-0.3-0.2-0.7-0.2-1.2c0-0.4,0-0.8,0.1-1.1c0.1-0.3,0.2-0.6,0.4-0.9c0.2-0.2,0.5-0.4,0.8-0.6s0.7-0.2,1.1-0.2
			c0.7,0,1.2,0.2,1.6,0.6c0.4,0.4,0.5,0.9,0.5,1.6c0,0.2,0,0.3,0,0.5c0,0.2-0.1,0.3-0.1,0.4H163.9z M165.5,15.7
			c-0.3,0-0.5,0-0.7,0.1s-0.4,0.2-0.5,0.4c-0.1,0.2-0.2,0.4-0.3,0.6c-0.1,0.2-0.1,0.5-0.1,0.8h3c0,0,0-0.1,0-0.2s0-0.1,0-0.2
			c0-0.5-0.1-0.9-0.3-1.2C166.3,15.9,166,15.7,165.5,15.7z"/>
		<path class="st3" d="M46.9,38.6H46v-7.5h0.8V38.6z"/>
		<path class="st3" d="M49.5,38.6h-0.8v-5.4h0.7l0.2,0.9c0.1-0.1,0.2-0.2,0.3-0.3s0.3-0.2,0.4-0.3c0.2-0.1,0.3-0.2,0.5-0.2
			c0.2-0.1,0.4-0.1,0.6-0.1c0.6,0,1,0.2,1.3,0.6s0.5,0.9,0.5,1.6v3.4h-0.8v-3.4c0-0.4-0.1-0.8-0.3-1s-0.5-0.4-0.8-0.4
			c-0.4,0-0.7,0.1-1,0.3c-0.3,0.2-0.6,0.4-0.8,0.7V38.6z"/>
		<path class="st3" d="M54.8,31.5c0-0.2,0-0.3,0.1-0.4c0.1-0.1,0.2-0.2,0.4-0.2c0.2,0,0.3,0.1,0.4,0.2c0.1,0.1,0.1,0.2,0.1,0.4
			c0,0.2,0,0.3-0.1,0.4c-0.1,0.1-0.2,0.2-0.4,0.2c-0.2,0-0.3-0.1-0.4-0.2C54.9,31.8,54.8,31.7,54.8,31.5z M55.8,38.6H55v-5.4h0.8
			V38.6z"/>
		<path class="st3" d="M58.6,37.1c0,0.3,0,0.5,0.1,0.7c0.1,0.2,0.3,0.2,0.6,0.2c0.2,0,0.3,0,0.5-0.1c0.1,0,0.3-0.1,0.4-0.2l0.2,0.6
			c-0.1,0.1-0.3,0.2-0.5,0.2s-0.4,0.1-0.7,0.1c-0.5,0-0.8-0.1-1-0.4s-0.3-0.6-0.3-1.2v-3.3h-0.9v-0.7h0.9l0.2-1.5h0.6v1.5h1.7v0.7
			h-1.7V37.1z"/>
		<path class="st3" d="M61.3,31.5c0-0.2,0-0.3,0.1-0.4c0.1-0.1,0.2-0.2,0.4-0.2c0.2,0,0.3,0.1,0.4,0.2c0.1,0.1,0.1,0.2,0.1,0.4
			c0,0.2,0,0.3-0.1,0.4c-0.1,0.1-0.2,0.2-0.4,0.2c-0.2,0-0.3-0.1-0.4-0.2C61.4,31.8,61.3,31.7,61.3,31.5z M62.3,38.6h-0.8v-5.4h0.8
			V38.6z"/>
		<path class="st3" d="M67.2,35c0-0.5-0.1-0.8-0.3-1s-0.5-0.3-0.9-0.3c-0.3,0-0.6,0-0.9,0.1c-0.3,0.1-0.5,0.2-0.8,0.3L64,33.6
			c0.2-0.1,0.5-0.2,0.8-0.3s0.7-0.2,1.1-0.2c0.7,0,1.2,0.2,1.6,0.5C67.8,34,68,34.4,68,35v3.5h-0.6l-0.2-1c-0.1,0.1-0.2,0.3-0.3,0.4
			s-0.2,0.2-0.4,0.3c-0.1,0.1-0.3,0.2-0.5,0.2c-0.2,0.1-0.4,0.1-0.7,0.1c-0.2,0-0.4,0-0.6-0.1c-0.2-0.1-0.4-0.2-0.5-0.3
			c-0.2-0.1-0.3-0.3-0.4-0.5c-0.1-0.2-0.1-0.4-0.1-0.7c0-0.6,0.2-1.1,0.6-1.4c0.4-0.3,1-0.5,1.7-0.5h1.2V35z M67.2,35.9H66
			c-0.5,0-0.9,0.1-1.2,0.3c-0.3,0.2-0.4,0.5-0.4,0.9c0,0.3,0.1,0.6,0.3,0.7s0.4,0.2,0.7,0.2c0.3,0,0.5,0,0.7-0.1s0.4-0.2,0.5-0.4
			c0.2-0.2,0.3-0.3,0.4-0.5s0.1-0.4,0.1-0.6V35.9z"/>
		<path class="st3" d="M70.7,37.1c0,0.3,0,0.5,0.1,0.7c0.1,0.2,0.3,0.2,0.6,0.2c0.2,0,0.3,0,0.5-0.1c0.1,0,0.3-0.1,0.4-0.2l0.2,0.6
			c-0.1,0.1-0.3,0.2-0.5,0.2s-0.4,0.1-0.7,0.1c-0.5,0-0.8-0.1-1-0.4s-0.3-0.6-0.3-1.2v-3.3H69v-0.7h0.9l0.2-1.5h0.6v1.5h1.7v0.7
			h-1.7V37.1z"/>
		<path class="st3" d="M73.5,31.5c0-0.2,0-0.3,0.1-0.4c0.1-0.1,0.2-0.2,0.4-0.2c0.2,0,0.3,0.1,0.4,0.2c0.1,0.1,0.1,0.2,0.1,0.4
			c0,0.2,0,0.3-0.1,0.4c-0.1,0.1-0.2,0.2-0.4,0.2c-0.2,0-0.3-0.1-0.4-0.2C73.5,31.8,73.5,31.7,73.5,31.5z M74.5,38.6h-0.8v-5.4h0.8
			V38.6z"/>
		<path class="st3" d="M77.5,38.6l-2-5.4h0.8l1,2.8c0.1,0.3,0.2,0.6,0.3,0.9c0.1,0.3,0.2,0.6,0.3,0.9h0c0.1-0.3,0.2-0.6,0.3-0.9
			c0.1-0.3,0.2-0.6,0.3-0.9l1-2.8h0.8l-2,5.4H77.5z"/>
		<path class="st3" d="M81.8,36.3c0,0.6,0.2,1,0.5,1.3c0.3,0.3,0.8,0.5,1.3,0.5c0.2,0,0.5,0,0.7-0.1c0.3-0.1,0.5-0.1,0.7-0.2
			l0.2,0.6c-0.2,0.1-0.5,0.2-0.8,0.3c-0.3,0.1-0.6,0.1-0.9,0.1c-0.4,0-0.8-0.1-1.1-0.2s-0.6-0.3-0.8-0.6s-0.4-0.5-0.5-0.9
			C81,36.7,81,36.3,81,35.9c0-0.4,0-0.8,0.1-1.1c0.1-0.3,0.2-0.6,0.4-0.9c0.2-0.3,0.5-0.4,0.8-0.6s0.7-0.2,1.1-0.2
			c0.7,0,1.2,0.2,1.6,0.6c0.4,0.4,0.5,0.9,0.5,1.6c0,0.2,0,0.3,0,0.5c0,0.2-0.1,0.3-0.1,0.4H81.8z M83.4,33.7c-0.3,0-0.5,0-0.7,0.1
			s-0.4,0.2-0.5,0.4c-0.1,0.2-0.2,0.4-0.3,0.6c-0.1,0.2-0.1,0.5-0.1,0.8h3c0,0,0-0.1,0-0.2c0-0.1,0-0.1,0-0.2c0-0.5-0.1-0.9-0.3-1.2
			C84.3,33.9,83.9,33.7,83.4,33.7z"/>
		<path class="st3" d="M94.3,38.6h-0.7l-0.2-1c-0.1,0.3-0.4,0.5-0.7,0.7c-0.3,0.2-0.7,0.3-1.1,0.3c-0.3,0-0.6-0.1-0.9-0.2
			c-0.3-0.1-0.5-0.3-0.7-0.5c-0.2-0.2-0.4-0.5-0.5-0.9s-0.2-0.8-0.2-1.2c0-0.4,0.1-0.8,0.2-1.1c0.1-0.3,0.3-0.6,0.5-0.9
			c0.2-0.3,0.4-0.5,0.7-0.6s0.6-0.2,1-0.2c0.2,0,0.4,0,0.6,0.1c0.2,0.1,0.3,0.1,0.5,0.2c0.1,0.1,0.3,0.2,0.4,0.3
			c0.1,0.1,0.2,0.2,0.3,0.3v-3h0.8V38.6z M93.5,34.8c-0.2-0.3-0.4-0.5-0.7-0.7c-0.3-0.2-0.6-0.3-0.9-0.3c-0.5,0-0.9,0.2-1.2,0.5
			c-0.3,0.3-0.5,0.8-0.5,1.5c0,0.4,0,0.7,0.1,1c0.1,0.3,0.2,0.5,0.3,0.6c0.1,0.2,0.3,0.3,0.5,0.4c0.2,0.1,0.4,0.1,0.6,0.1
			c0.2,0,0.4,0,0.6-0.1c0.2-0.1,0.4-0.2,0.5-0.4c0.1-0.2,0.3-0.4,0.4-0.6c0.1-0.2,0.1-0.5,0.1-0.8V34.8z"/>
		<path class="st3" d="M96.5,36.3c0,0.6,0.2,1,0.5,1.3s0.8,0.5,1.3,0.5c0.2,0,0.5,0,0.7-0.1c0.3-0.1,0.5-0.1,0.7-0.2l0.2,0.6
			c-0.2,0.1-0.5,0.2-0.8,0.3c-0.3,0.1-0.6,0.1-0.9,0.1c-0.4,0-0.8-0.1-1.1-0.2s-0.6-0.3-0.8-0.6c-0.2-0.2-0.4-0.5-0.5-0.9
			c-0.1-0.3-0.2-0.7-0.2-1.2c0-0.4,0-0.8,0.1-1.1s0.2-0.6,0.4-0.9c0.2-0.3,0.5-0.4,0.8-0.6c0.3-0.1,0.7-0.2,1.1-0.2
			c0.7,0,1.2,0.2,1.6,0.6s0.5,0.9,0.5,1.6c0,0.2,0,0.3,0,0.5c0,0.2-0.1,0.3-0.1,0.4H96.5z M98.1,33.7c-0.3,0-0.5,0-0.7,0.1
			s-0.4,0.2-0.5,0.4c-0.1,0.2-0.2,0.4-0.3,0.6s-0.1,0.5-0.1,0.8h3c0,0,0-0.1,0-0.2c0-0.1,0-0.1,0-0.2c0-0.5-0.1-0.9-0.3-1.2
			C99,33.9,98.6,33.7,98.1,33.7z"/>
		<path class="st3" d="M105.4,39c0,0.3,0,0.5-0.1,0.8s-0.1,0.4-0.2,0.6c-0.1,0.1-0.3,0.3-0.5,0.3s-0.4,0.1-0.7,0.1
			c-0.2,0-0.3,0-0.4-0.1c-0.1,0-0.3-0.1-0.4-0.1l0.2-0.6c0.2,0.1,0.4,0.1,0.6,0.1c0.3,0,0.5-0.1,0.6-0.3c0.1-0.2,0.1-0.4,0.1-0.8
			v-5.8h0.8V39z M104.4,31.5c0-0.2,0-0.3,0.1-0.4c0.1-0.1,0.2-0.2,0.4-0.2c0.2,0,0.3,0.1,0.4,0.2c0.1,0.1,0.1,0.2,0.1,0.4
			c0,0.2,0,0.3-0.1,0.4c-0.1,0.1-0.2,0.2-0.4,0.2c-0.2,0-0.3-0.1-0.4-0.2C104.4,31.8,104.4,31.7,104.4,31.5z"/>
		<path class="st3" d="M106.8,35.9c0-0.4,0-0.8,0.2-1.1s0.3-0.6,0.5-0.9c0.2-0.3,0.5-0.5,0.8-0.6s0.7-0.2,1.1-0.2
			c0.4,0,0.8,0.1,1.1,0.2c0.3,0.1,0.6,0.3,0.8,0.6c0.2,0.3,0.4,0.5,0.5,0.9s0.2,0.7,0.2,1.1c0,0.4,0,0.8-0.2,1.1s-0.3,0.6-0.5,0.9
			c-0.2,0.3-0.5,0.5-0.8,0.6c-0.3,0.1-0.7,0.2-1.1,0.2c-0.4,0-0.8-0.1-1.1-0.2c-0.3-0.1-0.6-0.3-0.8-0.6c-0.2-0.3-0.4-0.6-0.5-0.9
			S106.8,36.3,106.8,35.9z M107.6,35.9c0,0.3,0,0.6,0.1,0.9c0.1,0.3,0.2,0.5,0.3,0.7c0.1,0.2,0.3,0.3,0.5,0.4
			c0.2,0.1,0.5,0.2,0.8,0.2c0.3,0,0.6-0.1,0.8-0.2c0.2-0.1,0.4-0.3,0.5-0.4c0.1-0.2,0.2-0.4,0.3-0.7c0.1-0.3,0.1-0.5,0.1-0.9
			s0-0.6-0.1-0.8c-0.1-0.3-0.2-0.5-0.3-0.7c-0.1-0.2-0.3-0.3-0.5-0.4c-0.2-0.1-0.5-0.2-0.8-0.2c-0.3,0-0.6,0.1-0.8,0.2
			c-0.2,0.1-0.4,0.3-0.5,0.4c-0.1,0.2-0.2,0.4-0.3,0.7C107.6,35.3,107.6,35.6,107.6,35.9z"/>
		<path class="st3" d="M116.8,33.2h0.8v5.4H117l-0.2-1c-0.1,0.1-0.2,0.2-0.3,0.4c-0.1,0.1-0.3,0.2-0.4,0.3c-0.2,0.1-0.3,0.2-0.5,0.3
			c-0.2,0.1-0.4,0.1-0.7,0.1c-0.5,0-0.9-0.2-1.3-0.5c-0.3-0.3-0.5-0.9-0.5-1.6v-3.4h0.8v3.4c0,0.4,0.1,0.8,0.3,1s0.5,0.4,0.8,0.4
			c0.2,0,0.4,0,0.6-0.1s0.3-0.1,0.5-0.2c0.1-0.1,0.3-0.2,0.4-0.4c0.1-0.1,0.2-0.3,0.3-0.4V33.2z"/>
		<path class="st3" d="M120.1,34.2c0.1-0.1,0.2-0.3,0.3-0.4s0.2-0.2,0.3-0.3c0.1-0.1,0.3-0.2,0.4-0.2c0.2-0.1,0.3-0.1,0.5-0.1
			c0.2,0,0.4,0,0.5,0.1c0.1,0.1,0.2,0.1,0.2,0.1l-0.2,0.8c-0.2-0.1-0.4-0.2-0.6-0.2c-0.3,0-0.6,0.1-0.8,0.3
			c-0.2,0.2-0.4,0.4-0.6,0.7v3.7h-0.8v-5.4h0.7L120.1,34.2z"/>
		<path class="st3" d="M124.3,38.6h-0.8v-5.4h0.7l0.2,0.9c0.1-0.1,0.2-0.2,0.3-0.3s0.3-0.2,0.4-0.3c0.2-0.1,0.3-0.2,0.5-0.2
			s0.4-0.1,0.6-0.1c0.6,0,1,0.2,1.3,0.6s0.5,0.9,0.5,1.6v3.4h-0.8v-3.4c0-0.4-0.1-0.8-0.3-1s-0.5-0.4-0.8-0.4c-0.4,0-0.7,0.1-1,0.3
			s-0.6,0.4-0.8,0.7V38.6z"/>
		<path class="st3" d="M132.9,35c0-0.5-0.1-0.8-0.3-1c-0.2-0.2-0.5-0.3-0.9-0.3c-0.3,0-0.6,0-0.9,0.1c-0.3,0.1-0.5,0.2-0.8,0.3
			l-0.2-0.6c0.2-0.1,0.5-0.2,0.8-0.3s0.7-0.2,1.1-0.2c0.7,0,1.2,0.2,1.6,0.5c0.3,0.3,0.5,0.8,0.5,1.4v3.5H133l-0.2-1
			c-0.1,0.1-0.2,0.3-0.3,0.4c-0.1,0.1-0.2,0.2-0.4,0.3c-0.1,0.1-0.3,0.2-0.5,0.2c-0.2,0.1-0.4,0.1-0.7,0.1c-0.2,0-0.4,0-0.6-0.1
			c-0.2-0.1-0.4-0.2-0.5-0.3c-0.2-0.1-0.3-0.3-0.4-0.5c-0.1-0.2-0.1-0.4-0.1-0.7c0-0.6,0.2-1.1,0.6-1.4c0.4-0.3,1-0.5,1.7-0.5h1.2
			V35z M132.9,35.9h-1.2c-0.5,0-0.9,0.1-1.2,0.3s-0.4,0.5-0.4,0.9c0,0.3,0.1,0.6,0.3,0.7s0.4,0.2,0.7,0.2c0.3,0,0.5,0,0.7-0.1
			c0.2-0.1,0.4-0.2,0.5-0.4c0.2-0.2,0.3-0.3,0.4-0.5s0.1-0.4,0.1-0.6V35.9z"/>
		<path class="st3" d="M136.2,38.6h-0.8v-7.5h0.8V38.6z"/>
		<path class="st3" d="M137.8,31.5c0-0.2,0-0.3,0.1-0.4c0.1-0.1,0.2-0.2,0.4-0.2c0.2,0,0.3,0.1,0.4,0.2c0.1,0.1,0.1,0.2,0.1,0.4
			c0,0.2,0,0.3-0.1,0.4c-0.1,0.1-0.2,0.2-0.4,0.2c-0.2,0-0.3-0.1-0.4-0.2C137.9,31.8,137.8,31.7,137.8,31.5z M138.8,38.6H138v-5.4
			h0.8V38.6z"/>
		<path class="st3" d="M141.9,38c0.5,0,0.8-0.1,1-0.3c0.2-0.2,0.3-0.4,0.3-0.6c0-0.3-0.1-0.5-0.4-0.7s-0.6-0.3-0.9-0.4
			c-0.2-0.1-0.5-0.1-0.7-0.2c-0.2-0.1-0.4-0.2-0.5-0.3c-0.1-0.1-0.3-0.3-0.3-0.4c-0.1-0.2-0.1-0.4-0.1-0.6c0-0.5,0.2-0.8,0.5-1
			s0.8-0.4,1.4-0.4c0.3,0,0.6,0,0.9,0.1s0.5,0.1,0.7,0.2l-0.2,0.6c-0.2-0.1-0.4-0.2-0.6-0.2c-0.2-0.1-0.5-0.1-0.7-0.1
			c-0.4,0-0.7,0.1-0.9,0.2c-0.2,0.1-0.3,0.3-0.3,0.5c0,0.3,0.1,0.5,0.3,0.6c0.2,0.1,0.5,0.3,0.8,0.4c0.6,0.2,1.1,0.4,1.4,0.7
			c0.3,0.3,0.5,0.6,0.5,1.1c0,0.5-0.2,0.8-0.5,1.1c-0.3,0.3-0.8,0.4-1.5,0.4c-0.3,0-0.7,0-1-0.1c-0.3-0.1-0.5-0.1-0.7-0.3l0.2-0.6
			c0.2,0.1,0.4,0.2,0.7,0.2C141.4,38,141.6,38,141.9,38z"/>
		<path class="st3" d="M146.2,38.6h-0.8v-5.4h0.7l0.1,0.9c0.1-0.1,0.2-0.2,0.3-0.3c0.1-0.1,0.2-0.2,0.4-0.3c0.1-0.1,0.3-0.2,0.5-0.2
			s0.4-0.1,0.6-0.1c0.4,0,0.7,0.1,0.9,0.3c0.2,0.2,0.4,0.5,0.5,0.8c0.2-0.3,0.4-0.5,0.7-0.8c0.3-0.2,0.7-0.3,1.1-0.3
			c0.5,0,0.9,0.2,1.2,0.5s0.4,0.8,0.4,1.4v3.6h-0.8V35c0-0.4-0.1-0.7-0.2-0.9c-0.1-0.2-0.4-0.3-0.7-0.3c-0.2,0-0.3,0-0.5,0.1
			s-0.3,0.1-0.4,0.2s-0.2,0.2-0.4,0.3c-0.1,0.1-0.2,0.3-0.3,0.4v3.7h-0.8V35c0-0.4-0.1-0.7-0.2-0.9s-0.4-0.3-0.7-0.3
			c-0.3,0-0.6,0.1-0.9,0.3c-0.3,0.2-0.5,0.4-0.6,0.7V38.6z"/>
		<path class="st3" d="M154.8,36.3c0,0.6,0.2,1,0.5,1.3s0.8,0.5,1.3,0.5c0.2,0,0.5,0,0.7-0.1c0.3-0.1,0.5-0.1,0.7-0.2l0.2,0.6
			c-0.2,0.1-0.5,0.2-0.8,0.3c-0.3,0.1-0.6,0.1-0.9,0.1c-0.4,0-0.8-0.1-1.1-0.2s-0.6-0.3-0.8-0.6c-0.2-0.2-0.4-0.5-0.5-0.9
			c-0.1-0.3-0.2-0.7-0.2-1.2c0-0.4,0-0.8,0.1-1.1c0.1-0.3,0.2-0.6,0.4-0.9c0.2-0.3,0.5-0.4,0.8-0.6s0.7-0.2,1.1-0.2
			c0.7,0,1.2,0.2,1.6,0.6c0.4,0.4,0.5,0.9,0.5,1.6c0,0.2,0,0.3,0,0.5c0,0.2-0.1,0.3-0.1,0.4H154.8z M156.4,33.7
			c-0.3,0-0.5,0-0.7,0.1s-0.4,0.2-0.5,0.4c-0.1,0.2-0.2,0.4-0.3,0.6c-0.1,0.2-0.1,0.5-0.1,0.8h3c0,0,0-0.1,0-0.2c0-0.1,0-0.1,0-0.2
			c0-0.5-0.1-0.9-0.3-1.2C157.3,33.9,156.9,33.7,156.4,33.7z"/>
		<path class="st3" d="M163.7,38.6h-0.8v-7.5h0.8V38.6z"/>
		<path class="st3" d="M165.1,35.9c0-0.4,0-0.8,0.2-1.1s0.3-0.6,0.5-0.9c0.2-0.3,0.5-0.5,0.8-0.6s0.7-0.2,1.1-0.2
			c0.4,0,0.8,0.1,1.1,0.2c0.3,0.1,0.6,0.3,0.8,0.6c0.2,0.3,0.4,0.5,0.5,0.9s0.2,0.7,0.2,1.1c0,0.4,0,0.8-0.2,1.1s-0.3,0.6-0.5,0.9
			c-0.2,0.3-0.5,0.5-0.8,0.6c-0.3,0.1-0.7,0.2-1.1,0.2c-0.4,0-0.8-0.1-1.1-0.2c-0.3-0.1-0.6-0.3-0.8-0.6c-0.2-0.3-0.4-0.6-0.5-0.9
			S165.1,36.3,165.1,35.9z M165.9,35.9c0,0.3,0,0.6,0.1,0.9c0.1,0.3,0.2,0.5,0.3,0.7c0.1,0.2,0.3,0.3,0.5,0.4
			c0.2,0.1,0.5,0.2,0.8,0.2c0.3,0,0.6-0.1,0.8-0.2c0.2-0.1,0.4-0.3,0.5-0.4c0.1-0.2,0.2-0.4,0.3-0.7c0.1-0.3,0.1-0.5,0.1-0.9
			s0-0.6-0.1-0.8c-0.1-0.3-0.2-0.5-0.3-0.7c-0.1-0.2-0.3-0.3-0.5-0.4c-0.2-0.1-0.5-0.2-0.8-0.2c-0.3,0-0.6,0.1-0.8,0.2
			c-0.2,0.1-0.4,0.3-0.5,0.4c-0.1,0.2-0.2,0.4-0.3,0.7C165.9,35.3,165.9,35.6,165.9,35.9z"/>
		<path class="st3" d="M173.7,33.8c-0.3,0-0.6,0.1-0.8,0.2c-0.2,0.1-0.4,0.3-0.6,0.4s-0.3,0.4-0.3,0.7c-0.1,0.3-0.1,0.5-0.1,0.8
			s0,0.6,0.1,0.8c0.1,0.3,0.2,0.5,0.3,0.7c0.1,0.2,0.3,0.3,0.6,0.4c0.2,0.1,0.5,0.2,0.8,0.2c0.2,0,0.5,0,0.7-0.1
			c0.2-0.1,0.5-0.1,0.7-0.2l0.2,0.6c-0.2,0.1-0.5,0.2-0.7,0.3c-0.3,0.1-0.6,0.1-0.9,0.1c-0.4,0-0.8-0.1-1.1-0.2
			c-0.3-0.1-0.6-0.3-0.8-0.6c-0.2-0.3-0.4-0.6-0.5-0.9s-0.2-0.7-0.2-1.1c0-0.4,0.1-0.8,0.2-1.1s0.3-0.6,0.5-0.9
			c0.2-0.3,0.5-0.4,0.8-0.6s0.7-0.2,1.2-0.2c0.3,0,0.6,0,0.8,0.1c0.3,0.1,0.5,0.1,0.7,0.3l-0.2,0.6c-0.2-0.1-0.4-0.2-0.6-0.2
			C174.2,33.8,173.9,33.8,173.7,33.8z"/>
		<path class="st3" d="M179.6,35c0-0.5-0.1-0.8-0.3-1c-0.2-0.2-0.5-0.3-0.9-0.3c-0.3,0-0.6,0-0.9,0.1c-0.3,0.1-0.5,0.2-0.8,0.3
			l-0.2-0.6c0.2-0.1,0.5-0.2,0.8-0.3s0.7-0.2,1.1-0.2c0.7,0,1.2,0.2,1.6,0.5c0.3,0.3,0.5,0.8,0.5,1.4v3.5h-0.6l-0.2-1
			c-0.1,0.1-0.2,0.3-0.3,0.4c-0.1,0.1-0.2,0.2-0.4,0.3c-0.1,0.1-0.3,0.2-0.5,0.2c-0.2,0.1-0.4,0.1-0.7,0.1c-0.2,0-0.4,0-0.6-0.1
			c-0.2-0.1-0.4-0.2-0.5-0.3c-0.2-0.1-0.3-0.3-0.4-0.5c-0.1-0.2-0.1-0.4-0.1-0.7c0-0.6,0.2-1.1,0.6-1.4c0.4-0.3,1-0.5,1.7-0.5h1.2
			V35z M179.6,35.9h-1.2c-0.5,0-0.9,0.1-1.2,0.3s-0.4,0.5-0.4,0.9c0,0.3,0.1,0.6,0.3,0.7s0.4,0.2,0.7,0.2c0.3,0,0.5,0,0.7-0.1
			c0.2-0.1,0.4-0.2,0.5-0.4c0.2-0.2,0.3-0.3,0.4-0.5s0.1-0.4,0.1-0.6V35.9z"/>
		<path class="st3" d="M183,38.6h-0.8v-7.5h0.8V38.6z"/>
	</g>
	<line class="st10" x1="45.4" y1="26.1" x2="183.4" y2="26.1"/>
</g>
</svg>
