<?xml version="1.0" encoding="utf-8"?>
<!-- Generator: Adobe Illustrator 21.0.0, SVG Export Plug-In . SVG Version: 6.00 Build 0)  -->
<svg version="1.1" id="Layer_1" xmlns="http://www.w3.org/2000/svg" xmlns:xlink="http://www.w3.org/1999/xlink" x="0px" y="0px"
	 width="430px" height="120px" viewBox="0 0 430 120" style="enable-background:new 0 0 430 120;" xml:space="preserve">
<style type="text/css">
	.st0{fill:#D70036;}
	.st1{fill:#77777A;}
	.st2{fill:none;stroke:#000000;stroke-width:0.4479;stroke-miterlimit:10;}
</style>
<g>
	<path class="st0" d="M72.7,41c0-0.1-0.1-0.2-0.2-0.3l-1-0.5c-0.1,0-0.1,0-0.1-0.1c0,0,0-0.1,0-0.1c0.1-0.3,0.2-0.6,0.3-1l0.2-0.6
		c0.1-0.3,0.2-0.6,0.3-0.8l0.1-0.4c0-0.1,0-0.2-0.1-0.3c-0.1-0.1-0.2-0.1-0.3-0.1l-0.1,0c0,0-0.1,0-0.1,0l-2.6,0.6c0,0,0,0-0.1,0
		c0,0,0,0,0,0c0,0,0-0.1,0-0.1c0,0,0,0,0-0.1l-0.5-1.1c0-0.1-0.1-0.2-0.2-0.2c-0.1,0-0.2,0-0.3,0.1l-0.1,0.1c0,0-0.1,0.1-0.1,0.1
		l-0.6,0.7c-0.4,0.5-0.9,0.9-1.3,1.4c0,0,0,0-0.1,0c0,0,0,0,0,0c0,0,0,0,0-0.1c0.1-0.8,0.3-1.5,0.4-2.3l0.3-1.8
		c0.1-0.3,0.1-0.6,0.2-0.9l0.1-0.4c0-0.1,0-0.3-0.1-0.3c-0.1-0.1-0.2-0.1-0.4,0l-0.1,0c0,0-0.1,0-0.1,0.1L65.7,33
		c-0.3,0.2-0.6,0.3-0.8,0.5c-0.1,0-0.1,0-0.1,0c0,0,0,0-0.1-0.1l-1.6-3.1c0,0,0-0.1-0.1-0.1l0-0.1C63,30.1,62.9,30,62.7,30
		c0,0,0,0,0,0c-0.1,0-0.2,0.1-0.3,0.2l0,0.1c0,0,0,0.1-0.1,0.1l-1.6,3.1c0,0.1-0.1,0.1-0.1,0.1c0,0-0.1,0-0.2-0.1L59,32.6
		c-0.1-0.1-0.2-0.1-0.3,0c-0.1,0.1-0.2,0.2-0.2,0.3c0,0,0,0,0,0.1c0,0,0,0.1,0,0.1c0.2,1.1,0.4,2.2,0.7,3.4l0.2,0.8
		c0.1,0.4,0.1,0.7,0.2,1.1c0,0,0,0.1,0,0.1c0,0,0,0,0,0c0,0,0,0-0.1-0.1c-0.7-0.7-1.3-1.4-2-2.1l0,0c0,0-0.1-0.1-0.1-0.1l0,0
		C57.3,36,57.2,36,57.1,36c-0.1,0-0.2,0.1-0.2,0.2l-0.2,0.4c-0.1,0.3-0.2,0.5-0.3,0.8c0,0,0,0.1,0,0.1c0,0,0,0-0.1,0
		c-0.4-0.1-0.9-0.2-1.3-0.3l-1.2-0.3c0,0-0.1,0-0.1,0l-0.1,0c-0.1,0-0.2,0-0.3,0.1c-0.1,0.1-0.1,0.2-0.1,0.3l0.9,2.8
		c0,0.1,0,0.1,0,0.2c0,0-0.1,0-0.1,0.1c-0.2,0.1-0.4,0.2-0.6,0.3l-0.3,0.1c-0.1,0-0.2,0.1-0.2,0.3c0,0.1,0,0.2,0.1,0.3l0,0
		c0,0,0.1,0.1,0.1,0.1l4.7,3.8c0.1,0,0.1,0.1,0.1,0.1c0,0,0,0.1,0,0.1l-0.2,0.5c-0.1,0.3-0.2,0.6-0.3,0.9c0,0,0,0.1,0,0.1l0,0.1
		c0,0.1,0,0.2,0.1,0.3c0.1,0.1,0.2,0.1,0.3,0.1l0.7-0.1c0.5-0.1,1-0.2,1.4-0.3c0.3-0.1,0.6-0.1,0.9-0.2c0.5-0.1,1-0.2,1.4-0.2
		c0.3,0,1.4,0,1.6,0s1.4,0.3,2.2,0.4c0.4,0.1,0.8,0.1,1.2,0.2c0.2,0,0.4,0.1,0.7,0.1l0.3,0.1c0.1,0,0.2,0,0.3-0.1
		c0.1-0.1,0.1-0.2,0.1-0.3l0-0.1c0,0,0-0.1,0-0.1l-0.2-0.6c-0.1-0.3-0.2-0.5-0.3-0.8c0-0.1,0-0.1,0-0.1c0,0,0,0,0.1-0.1
		c0.8-0.6,1.5-1.2,2.3-1.9l1.5-1.2c0.2-0.2,0.4-0.4,0.7-0.5l0.3-0.2C72.7,41.3,72.8,41.1,72.7,41z"/>
	<path class="st1" d="M69.5,57.6c0-3.6-2.9-6.5-6.6-6.6c-3.7,0-5.6,3.1-5.6,3.1c-3.7,6.4-10.5,10.7-18.4,10.8
		C27,64.9,17.5,55.3,17.5,43.5c0-11.8,9.6-21.4,21.4-21.4c4.1,0,8.3,1.1,11.6,3.5c0.6,0.4,1.1,0.9,1.8,1.3c0.1,0,0.2,0.1,0.2,0.1
		c0.9,0.5,1.8,0.8,2.9,0.8c0.1,0,0.1,0,0.2,0c3.7,0.1,6.8-2.8,7-6.5c0.1-2.1-0.7-3.9-2.1-5.3c-0.3-0.2-0.5-0.5-0.8-0.7
		c-2.3-1.8-5.2-3.2-7.5-4.1C48,9.4,43.5,8.4,38.9,8.4C20.1,8.4,4.9,23.7,4.9,42.5c0,16,19.6,55,29.7,66.3c1.6,2,3,3.1,4.1,3.1
		c0,0,0.1,0,0.2,0c0,0,0.1,0,0.1,0c1.1,0,2.4-1.2,4.1-3.1c7.2-8,19-29.8,25.4-47.6C68.4,61.3,69.5,59,69.5,57.6z"/>
</g>
<g>
	<path d="M99.4,29.6h2v16h8.5v1.9H99.4V29.6z"/>
	<path d="M111.6,41.1c0-0.9,0.1-1.8,0.4-2.6c0.2-0.8,0.6-1.5,1.1-2.1c0.5-0.6,1.1-1.1,1.9-1.4c0.8-0.3,1.6-0.5,2.7-0.5
		c1,0,1.9,0.2,2.6,0.5c0.7,0.3,1.4,0.8,1.9,1.4c0.5,0.6,0.9,1.3,1.1,2.1c0.2,0.8,0.4,1.7,0.4,2.6c0,0.9-0.1,1.8-0.4,2.6
		c-0.2,0.8-0.6,1.5-1.1,2.1c-0.5,0.6-1.1,1.1-1.9,1.4c-0.7,0.3-1.6,0.5-2.6,0.5c-1,0-1.9-0.2-2.7-0.5c-0.8-0.3-1.4-0.8-1.9-1.4
		c-0.5-0.6-0.8-1.3-1.1-2.1C111.7,42.9,111.6,42,111.6,41.1z M113.5,41.1c0,0.7,0.1,1.4,0.2,2c0.2,0.6,0.4,1.2,0.7,1.6
		c0.3,0.5,0.7,0.8,1.2,1.1c0.5,0.3,1.1,0.4,1.8,0.4c0.7,0,1.3-0.1,1.8-0.4c0.5-0.3,0.9-0.6,1.2-1.1c0.3-0.4,0.6-1,0.7-1.6
		c0.2-0.6,0.2-1.3,0.2-2c0-0.7-0.1-1.4-0.2-2c-0.2-0.6-0.4-1.1-0.7-1.6c-0.3-0.5-0.7-0.8-1.2-1.1c-0.5-0.3-1.1-0.4-1.8-0.4
		c-0.7,0-1.3,0.1-1.8,0.4c-0.5,0.3-0.9,0.6-1.2,1.1c-0.3,0.4-0.6,1-0.7,1.6C113.6,39.7,113.5,40.4,113.5,41.1z"/>
	<path d="M132,36.1c-0.7,0-1.4,0.1-1.9,0.4c-0.5,0.2-1,0.6-1.3,1c-0.3,0.4-0.6,1-0.8,1.6c-0.2,0.6-0.3,1.3-0.3,2
		c0,0.7,0.1,1.4,0.3,2c0.2,0.6,0.4,1.2,0.8,1.6c0.4,0.5,0.8,0.8,1.3,1.1c0.5,0.3,1.2,0.4,2,0.4c0.5,0,1.1-0.1,1.7-0.2
		c0.6-0.1,1.1-0.3,1.6-0.6l0.4,1.5c-0.5,0.3-1.1,0.5-1.7,0.7c-0.6,0.2-1.3,0.2-2.1,0.2c-1,0-1.9-0.2-2.7-0.5
		c-0.8-0.3-1.4-0.8-1.9-1.4c-0.5-0.6-0.9-1.3-1.1-2.1c-0.2-0.8-0.4-1.7-0.4-2.6c0-0.9,0.1-1.8,0.4-2.6c0.2-0.8,0.6-1.5,1.1-2.1
		c0.5-0.6,1.2-1.1,1.9-1.4c0.8-0.3,1.7-0.5,2.7-0.5c0.7,0,1.4,0.1,2,0.2c0.6,0.2,1.2,0.3,1.7,0.6l-0.4,1.5c-0.5-0.2-1-0.4-1.5-0.5
		C133.2,36.1,132.6,36.1,132,36.1z"/>
	<path d="M146.1,39.1c0-1.1-0.3-1.8-0.8-2.3c-0.5-0.5-1.3-0.7-2.2-0.7c-0.8,0-1.5,0.1-2.2,0.3c-0.7,0.2-1.3,0.4-1.8,0.7l-0.4-1.4
		c0.5-0.3,1.1-0.5,1.9-0.8c0.8-0.2,1.7-0.4,2.6-0.4c1.7,0,2.9,0.4,3.7,1.2c0.8,0.8,1.2,2,1.2,3.4v8.4h-1.5l-0.4-2.2
		c-0.2,0.3-0.4,0.7-0.7,1c-0.3,0.3-0.6,0.6-0.9,0.8c-0.3,0.2-0.7,0.4-1.2,0.5c-0.5,0.1-1,0.2-1.6,0.2c-0.5,0-1.1-0.1-1.5-0.3
		c-0.5-0.2-0.9-0.4-1.3-0.7c-0.4-0.3-0.6-0.7-0.8-1.2c-0.2-0.5-0.3-1-0.3-1.6c0-1.4,0.5-2.5,1.5-3.2c1-0.7,2.4-1.1,4.1-1.1h2.8V39.1
		z M146.1,41.1h-2.8c-1.2,0-2.1,0.2-2.8,0.7c-0.6,0.5-0.9,1.2-0.9,2.1c0,0.7,0.2,1.3,0.7,1.7c0.4,0.4,1,0.6,1.7,0.6
		c0.6,0,1.2-0.1,1.7-0.3c0.5-0.2,0.9-0.5,1.3-0.9c0.4-0.4,0.6-0.8,0.8-1.3c0.2-0.5,0.3-0.9,0.3-1.4V41.1z"/>
	<path d="M154,47.5h-2V29.6h2V47.5z"/>
	<path d="M170.9,42.4c0,1.8-0.4,3.2-1.1,4c-0.8,0.9-1.9,1.3-3.4,1.3c-0.7,0-1.3-0.1-1.8-0.2c-0.5-0.1-1-0.3-1.4-0.5l0.5-1.7
		c0.3,0.2,0.7,0.3,1.1,0.4c0.4,0.1,0.9,0.2,1.5,0.2c0.8,0,1.4-0.3,1.8-0.8c0.4-0.5,0.7-1.4,0.7-2.7V29.6h2V42.4z"/>
	<path d="M174.1,41.1c0-0.9,0.1-1.8,0.4-2.6c0.2-0.8,0.6-1.5,1.1-2.1c0.5-0.6,1.1-1.1,1.9-1.4c0.8-0.3,1.6-0.5,2.7-0.5
		c1,0,1.9,0.2,2.6,0.5s1.4,0.8,1.9,1.4c0.5,0.6,0.9,1.3,1.1,2.1c0.2,0.8,0.4,1.7,0.4,2.6c0,0.9-0.1,1.8-0.4,2.6
		c-0.2,0.8-0.6,1.5-1.1,2.1c-0.5,0.6-1.1,1.1-1.9,1.4s-1.6,0.5-2.6,0.5c-1,0-1.9-0.2-2.7-0.5c-0.8-0.3-1.4-0.8-1.9-1.4
		c-0.5-0.6-0.8-1.3-1.1-2.1C174.3,42.9,174.1,42,174.1,41.1z M176.1,41.1c0,0.7,0.1,1.4,0.2,2c0.2,0.6,0.4,1.2,0.7,1.6
		c0.3,0.5,0.7,0.8,1.2,1.1c0.5,0.3,1.1,0.4,1.8,0.4c0.7,0,1.3-0.1,1.8-0.4c0.5-0.3,0.9-0.6,1.2-1.1c0.3-0.4,0.6-1,0.7-1.6
		c0.2-0.6,0.2-1.3,0.2-2c0-0.7-0.1-1.4-0.2-2c-0.2-0.6-0.4-1.1-0.7-1.6c-0.3-0.5-0.7-0.8-1.2-1.1c-0.5-0.3-1.1-0.4-1.8-0.4
		c-0.7,0-1.3,0.1-1.8,0.4c-0.5,0.3-0.9,0.6-1.2,1.1c-0.3,0.4-0.6,1-0.7,1.6C176.2,39.7,176.1,40.4,176.1,41.1z"/>
	<path d="M197.9,34.7h2v12.8h-1.6l-0.4-2.2c-0.2,0.3-0.4,0.5-0.6,0.8c-0.3,0.3-0.6,0.6-1,0.8c-0.4,0.2-0.8,0.4-1.3,0.6
		c-0.5,0.2-1,0.2-1.6,0.2c-1.2,0-2.2-0.4-3-1.2c-0.8-0.8-1.2-2.1-1.2-3.8v-8h1.9v8c0,1,0.2,1.8,0.7,2.4s1.1,0.9,1.9,0.9
		c0.5,0,0.9-0.1,1.3-0.2c0.4-0.1,0.8-0.3,1.2-0.6c0.4-0.2,0.7-0.5,1-0.8c0.3-0.3,0.5-0.6,0.8-1V34.7z"/>
	<path d="M205.8,37c0.2-0.3,0.4-0.6,0.6-0.9c0.2-0.3,0.5-0.6,0.8-0.8c0.3-0.2,0.6-0.4,1-0.6c0.4-0.2,0.8-0.2,1.2-0.2
		c0.5,0,0.9,0.1,1.2,0.2c0.3,0.1,0.5,0.2,0.5,0.3l-0.6,1.9c-0.4-0.3-0.9-0.5-1.5-0.5c-0.7,0-1.4,0.2-1.9,0.6c-0.6,0.4-1,1-1.4,1.7
		v8.8h-2V34.7h1.6L205.8,37z"/>
	<path d="M215.6,47.5h-2V34.7h1.6l0.4,2.1c0.2-0.2,0.4-0.5,0.7-0.8c0.3-0.3,0.6-0.5,1-0.7c0.4-0.2,0.8-0.4,1.3-0.6
		c0.5-0.2,1-0.2,1.5-0.2c1.4,0,2.4,0.4,3.2,1.3c0.8,0.9,1.2,2.1,1.2,3.7v8h-1.9v-8c0-1-0.2-1.8-0.7-2.4s-1.2-0.9-2-0.9
		c-0.9,0-1.7,0.2-2.4,0.7c-0.7,0.4-1.3,1-1.8,1.7V47.5z"/>
	<path d="M235.9,39.1c0-1.1-0.3-1.8-0.8-2.3c-0.5-0.5-1.3-0.7-2.2-0.7c-0.8,0-1.5,0.1-2.2,0.3c-0.7,0.2-1.3,0.4-1.8,0.7l-0.5-1.4
		c0.5-0.3,1.1-0.5,1.9-0.8c0.8-0.2,1.7-0.4,2.6-0.4c1.7,0,2.9,0.4,3.7,1.2c0.8,0.8,1.2,2,1.2,3.4v8.4h-1.5l-0.4-2.2
		c-0.2,0.3-0.4,0.7-0.7,1c-0.3,0.3-0.6,0.6-0.9,0.8c-0.3,0.2-0.7,0.4-1.2,0.5c-0.5,0.1-1,0.2-1.6,0.2c-0.5,0-1.1-0.1-1.5-0.3
		c-0.5-0.2-0.9-0.4-1.3-0.7c-0.4-0.3-0.6-0.7-0.8-1.2c-0.2-0.5-0.3-1-0.3-1.6c0-1.4,0.5-2.5,1.5-3.2c1-0.7,2.4-1.1,4.1-1.1h2.8V39.1
		z M235.9,41.1h-2.8c-1.2,0-2.1,0.2-2.8,0.7c-0.6,0.5-0.9,1.2-0.9,2.1c0,0.7,0.2,1.3,0.7,1.7c0.4,0.4,1,0.6,1.7,0.6
		c0.6,0,1.2-0.1,1.7-0.3c0.5-0.2,0.9-0.5,1.3-0.9c0.4-0.4,0.6-0.8,0.8-1.3c0.2-0.5,0.3-0.9,0.3-1.4V41.1z"/>
	<path d="M243.8,47.5h-2V29.6h2V47.5z"/>
	<path d="M247.7,30.7c0-0.4,0.1-0.7,0.3-1c0.2-0.3,0.6-0.4,1-0.4c0.5,0,0.8,0.1,1,0.4c0.2,0.3,0.3,0.6,0.3,1c0,0.4-0.1,0.7-0.3,0.9
		c-0.2,0.3-0.6,0.4-1,0.4c-0.4,0-0.8-0.1-1-0.4C247.8,31.4,247.7,31.1,247.7,30.7z M250,47.5h-2V34.7h2V47.5z"/>
	<path d="M257.4,46.2c1.1,0,1.8-0.2,2.3-0.6c0.5-0.4,0.7-0.9,0.7-1.4c0-0.7-0.3-1.2-0.9-1.6c-0.6-0.4-1.3-0.7-2.2-0.9
		c-0.6-0.2-1.1-0.3-1.5-0.6s-0.9-0.5-1.2-0.8c-0.3-0.3-0.6-0.7-0.8-1.1c-0.2-0.4-0.3-0.9-0.3-1.5c0-1.1,0.4-1.9,1.2-2.5
		c0.8-0.6,1.9-0.9,3.3-0.9c0.7,0,1.4,0.1,2.1,0.2c0.7,0.1,1.3,0.3,1.8,0.6l-0.4,1.5c-0.5-0.2-1-0.4-1.5-0.5
		c-0.5-0.1-1.1-0.2-1.7-0.2c-1,0-1.7,0.2-2.1,0.5c-0.5,0.3-0.7,0.7-0.7,1.3c0,0.6,0.2,1.1,0.7,1.4c0.5,0.3,1.1,0.6,1.9,0.8
		c1.4,0.4,2.5,1,3.2,1.6c0.7,0.6,1.1,1.5,1.1,2.6c0,1.1-0.4,1.9-1.2,2.6c-0.8,0.6-2,1-3.7,1c-0.8,0-1.6-0.1-2.3-0.2
		c-0.7-0.1-1.3-0.3-1.8-0.6l0.4-1.5c0.5,0.2,1,0.4,1.6,0.5C256.1,46.1,256.7,46.2,257.4,46.2z"/>
	<path d="M267.6,47.5h-2V34.7h1.6l0.3,2.1c0.2-0.3,0.4-0.5,0.6-0.8c0.3-0.3,0.6-0.5,0.9-0.7c0.3-0.2,0.7-0.4,1.1-0.6
		c0.4-0.1,0.9-0.2,1.4-0.2c0.9,0,1.6,0.2,2.1,0.7c0.5,0.5,0.9,1.1,1.1,1.9c0.4-0.7,1-1.3,1.7-1.8c0.7-0.5,1.6-0.8,2.5-0.8
		c1.3,0,2.2,0.4,2.8,1.3c0.6,0.8,0.9,2,0.9,3.3v8.4h-1.9v-8.4c0-0.9-0.2-1.6-0.5-2.1c-0.3-0.5-0.9-0.8-1.6-0.8
		c-0.4,0-0.8,0.1-1.1,0.2c-0.3,0.1-0.7,0.3-1,0.6c-0.3,0.2-0.6,0.5-0.8,0.8c-0.3,0.3-0.5,0.6-0.6,1v8.8h-1.9v-8.4
		c0-0.9-0.2-1.6-0.5-2.1c-0.3-0.5-0.8-0.8-1.6-0.8c-0.8,0-1.5,0.2-2.1,0.7c-0.6,0.5-1.1,1-1.5,1.7V47.5z"/>
	<path d="M295.7,47.5h-2V29.6h2V47.5z"/>
	<path d="M301.9,47.5h-2V34.7h1.6l0.4,2.1c0.2-0.2,0.4-0.5,0.7-0.8c0.3-0.3,0.6-0.5,1-0.7c0.4-0.2,0.8-0.4,1.3-0.6
		c0.5-0.2,1-0.2,1.5-0.2c1.4,0,2.4,0.4,3.2,1.3c0.8,0.9,1.2,2.1,1.2,3.7v8h-1.9v-8c0-1-0.2-1.8-0.7-2.4c-0.5-0.6-1.2-0.9-2-0.9
		c-0.9,0-1.7,0.2-2.4,0.7c-0.7,0.4-1.3,1-1.8,1.7V47.5z"/>
	<path d="M314.5,30.7c0-0.4,0.1-0.7,0.3-1c0.2-0.3,0.6-0.4,1-0.4c0.5,0,0.8,0.1,1,0.4c0.2,0.3,0.3,0.6,0.3,1c0,0.4-0.1,0.7-0.3,0.9
		c-0.2,0.3-0.6,0.4-1,0.4c-0.4,0-0.8-0.1-1-0.4C314.6,31.4,314.5,31.1,314.5,30.7z M316.9,47.5h-2V34.7h2V47.5z"/>
	<path d="M323.4,44c0,0.7,0.1,1.2,0.3,1.6c0.2,0.4,0.7,0.5,1.3,0.5c0.4,0,0.8-0.1,1.1-0.2c0.3-0.1,0.6-0.2,0.9-0.4l0.5,1.4
		c-0.4,0.2-0.7,0.4-1.2,0.5c-0.4,0.1-1,0.2-1.6,0.2c-1.1,0-1.9-0.3-2.5-0.9c-0.5-0.6-0.8-1.5-0.8-2.8v-7.7h-2v-1.6h2L322,31h1.4v3.7
		h3.9v1.6h-3.9V44z"/>
	<path d="M330,30.7c0-0.4,0.1-0.7,0.3-1c0.2-0.3,0.6-0.4,1-0.4c0.5,0,0.8,0.1,1,0.4c0.2,0.3,0.3,0.6,0.3,1c0,0.4-0.1,0.7-0.3,0.9
		c-0.2,0.3-0.6,0.4-1,0.4c-0.4,0-0.8-0.1-1-0.4C330.1,31.4,330,31.1,330,30.7z M332.3,47.5h-2V34.7h2V47.5z"/>
	<path d="M343.9,39.1c0-1.1-0.3-1.8-0.8-2.3c-0.5-0.5-1.3-0.7-2.2-0.7c-0.8,0-1.5,0.1-2.2,0.3c-0.7,0.2-1.3,0.4-1.8,0.7l-0.4-1.4
		c0.5-0.3,1.1-0.5,1.9-0.8c0.8-0.2,1.7-0.4,2.6-0.4c1.7,0,2.9,0.4,3.7,1.2c0.8,0.8,1.2,2,1.2,3.4v8.4h-1.5l-0.4-2.2
		c-0.2,0.3-0.4,0.7-0.7,1c-0.3,0.3-0.6,0.6-0.9,0.8c-0.3,0.2-0.7,0.4-1.2,0.5c-0.5,0.1-1,0.2-1.6,0.2c-0.5,0-1.1-0.1-1.5-0.3
		c-0.5-0.2-0.9-0.4-1.3-0.7c-0.4-0.3-0.6-0.7-0.8-1.2c-0.2-0.5-0.3-1-0.3-1.6c0-1.4,0.5-2.5,1.5-3.2c1-0.7,2.4-1.1,4.1-1.1h2.8V39.1
		z M343.9,41.1h-2.8c-1.2,0-2.1,0.2-2.8,0.7c-0.6,0.5-0.9,1.2-0.9,2.1c0,0.7,0.2,1.3,0.7,1.7c0.5,0.4,1,0.6,1.7,0.6
		c0.6,0,1.2-0.1,1.7-0.3c0.5-0.2,0.9-0.5,1.3-0.9c0.4-0.4,0.6-0.8,0.8-1.3c0.2-0.5,0.3-0.9,0.3-1.4V41.1z"/>
	<path d="M352.1,44c0,0.7,0.1,1.2,0.3,1.6c0.2,0.4,0.7,0.5,1.3,0.5c0.4,0,0.8-0.1,1.1-0.2c0.3-0.1,0.6-0.2,0.9-0.4l0.5,1.4
		c-0.4,0.2-0.7,0.4-1.2,0.5c-0.4,0.1-1,0.2-1.6,0.2c-1.1,0-1.9-0.3-2.5-0.9c-0.5-0.6-0.8-1.5-0.8-2.8v-7.7h-2v-1.6h2l0.5-3.7h1.4
		v3.7h3.9v1.6h-3.9V44z"/>
	<path d="M358.7,30.7c0-0.4,0.1-0.7,0.3-1c0.2-0.3,0.6-0.4,1-0.4c0.5,0,0.8,0.1,1,0.4c0.2,0.3,0.3,0.6,0.3,1c0,0.4-0.1,0.7-0.3,0.9
		c-0.2,0.3-0.6,0.4-1,0.4c-0.4,0-0.8-0.1-1-0.4C358.8,31.4,358.7,31.1,358.7,30.7z M361,47.5h-2V34.7h2V47.5z"/>
	<path d="M368.3,47.5l-4.7-12.8h2l2.3,6.5c0.2,0.7,0.4,1.4,0.6,2.1c0.2,0.7,0.4,1.4,0.6,2.1h0.1c0.2-0.7,0.4-1.4,0.6-2.1
		c0.2-0.7,0.4-1.4,0.6-2.1l2.3-6.5h2l-4.7,12.8H368.3z"/>
	<path d="M378.3,42c0.1,1.3,0.5,2.3,1.3,3.1c0.7,0.7,1.8,1.1,3.2,1.1c0.6,0,1.2-0.1,1.8-0.2c0.6-0.1,1.1-0.3,1.6-0.6l0.5,1.5
		c-0.5,0.3-1.2,0.5-1.8,0.6c-0.7,0.2-1.4,0.2-2.2,0.2c-1,0-1.9-0.2-2.7-0.5c-0.8-0.3-1.4-0.8-1.9-1.3c-0.5-0.6-0.9-1.3-1.1-2.1
		c-0.3-0.8-0.4-1.7-0.4-2.7c0-0.9,0.1-1.8,0.3-2.6c0.2-0.8,0.6-1.5,1-2.1c0.5-0.6,1.1-1.1,1.8-1.4c0.7-0.3,1.6-0.5,2.6-0.5
		c1.7,0,2.9,0.5,3.8,1.4c0.8,0.9,1.3,2.2,1.3,3.9c0,0.4,0,0.8-0.1,1.2c-0.1,0.4-0.1,0.7-0.2,1H378.3z M382.2,36
		c-0.7,0-1.2,0.1-1.7,0.3c-0.5,0.2-0.9,0.5-1.2,1c-0.3,0.4-0.6,0.9-0.7,1.4c-0.2,0.6-0.3,1.2-0.3,1.8h7.1c0,0,0-0.2,0-0.4
		s0-0.3,0-0.4c0-1.2-0.2-2.2-0.7-2.8C384.2,36.3,383.4,36,382.2,36z"/>
	<path d="M101.4,90.1h-2V72.3h2V90.1z"/>
	<path d="M107.6,90.1h-2V77.3h1.6l0.4,2.1c0.2-0.2,0.4-0.5,0.7-0.8c0.3-0.3,0.6-0.5,1-0.7c0.4-0.2,0.8-0.4,1.3-0.6
		c0.5-0.2,1-0.2,1.5-0.2c1.4,0,2.4,0.4,3.2,1.3c0.8,0.9,1.2,2.1,1.2,3.7v8h-1.9v-8c0-1-0.2-1.8-0.7-2.4c-0.5-0.6-1.2-0.9-2-0.9
		c-0.9,0-1.7,0.2-2.4,0.7c-0.7,0.5-1.3,1-1.8,1.7V90.1z"/>
	<path d="M120.2,73.3c0-0.4,0.1-0.7,0.3-1c0.2-0.3,0.6-0.4,1-0.4c0.5,0,0.8,0.1,1,0.4c0.2,0.3,0.3,0.6,0.3,1c0,0.4-0.1,0.7-0.3,0.9
		c-0.2,0.3-0.6,0.4-1,0.4c-0.4,0-0.8-0.1-1-0.4C120.3,74,120.2,73.7,120.2,73.3z M122.5,90.1h-2V77.3h2V90.1z"/>
	<path d="M129.1,86.6c0,0.7,0.1,1.2,0.3,1.6c0.2,0.4,0.7,0.5,1.3,0.5c0.4,0,0.8-0.1,1.1-0.2c0.3-0.1,0.6-0.2,0.9-0.4l0.4,1.4
		c-0.4,0.2-0.7,0.4-1.2,0.5c-0.4,0.1-1,0.2-1.6,0.2c-1.1,0-1.9-0.3-2.5-0.9s-0.8-1.5-0.8-2.8v-7.7h-2v-1.6h2l0.5-3.7h1.4v3.7h3.9
		v1.6h-3.9V86.6z"/>
	<path d="M135.6,73.3c0-0.4,0.1-0.7,0.3-1c0.2-0.3,0.6-0.4,1-0.4c0.5,0,0.8,0.1,1,0.4c0.2,0.3,0.3,0.6,0.3,1c0,0.4-0.1,0.7-0.3,0.9
		c-0.2,0.3-0.6,0.4-1,0.4c-0.4,0-0.8-0.1-1-0.4C135.8,74,135.6,73.7,135.6,73.3z M138,90.1h-2V77.3h2V90.1z"/>
	<path d="M149.6,81.7c0-1.1-0.3-1.8-0.8-2.3c-0.5-0.5-1.3-0.7-2.2-0.7c-0.8,0-1.5,0.1-2.2,0.3c-0.7,0.2-1.3,0.4-1.8,0.7l-0.4-1.4
		c0.5-0.3,1.1-0.5,1.9-0.8c0.8-0.2,1.7-0.4,2.6-0.4c1.7,0,2.9,0.4,3.7,1.2c0.8,0.8,1.2,2,1.2,3.4v8.4H150l-0.4-2.2
		c-0.2,0.3-0.4,0.7-0.7,1c-0.3,0.3-0.6,0.6-0.9,0.8c-0.3,0.2-0.7,0.4-1.2,0.5c-0.5,0.1-1,0.2-1.6,0.2c-0.5,0-1.1-0.1-1.5-0.3
		c-0.5-0.2-0.9-0.4-1.3-0.7c-0.4-0.3-0.6-0.7-0.8-1.2c-0.2-0.5-0.3-1-0.3-1.6c0-1.4,0.5-2.5,1.5-3.2c1-0.7,2.4-1.1,4.1-1.1h2.8V81.7
		z M149.6,83.7h-2.8c-1.2,0-2.1,0.2-2.8,0.7c-0.6,0.5-0.9,1.2-0.9,2.1c0,0.7,0.2,1.3,0.7,1.7c0.4,0.4,1,0.6,1.7,0.6
		c0.6,0,1.2-0.1,1.7-0.3c0.5-0.2,0.9-0.5,1.3-0.9c0.4-0.4,0.6-0.8,0.8-1.3c0.2-0.5,0.3-0.9,0.3-1.4V83.7z"/>
	<path d="M157.8,86.6c0,0.7,0.1,1.2,0.3,1.6c0.2,0.4,0.7,0.5,1.3,0.5c0.4,0,0.8-0.1,1.1-0.2c0.3-0.1,0.6-0.2,0.9-0.4l0.4,1.4
		c-0.4,0.2-0.7,0.4-1.2,0.5c-0.4,0.1-1,0.2-1.6,0.2c-1.1,0-1.9-0.3-2.5-0.9c-0.5-0.6-0.8-1.5-0.8-2.8v-7.7h-2v-1.6h2l0.5-3.7h1.4
		v3.7h3.9v1.6h-3.9V86.6z"/>
	<path d="M164.4,73.3c0-0.4,0.1-0.7,0.3-1c0.2-0.3,0.6-0.4,1-0.4c0.5,0,0.8,0.1,1,0.4c0.2,0.3,0.3,0.6,0.3,1c0,0.4-0.1,0.7-0.3,0.9
		c-0.2,0.3-0.6,0.4-1,0.4c-0.4,0-0.8-0.1-1-0.4C164.5,74,164.4,73.7,164.4,73.3z M166.7,90.1h-2V77.3h2V90.1z"/>
	<path d="M174,90.1l-4.7-12.8h2l2.3,6.5c0.2,0.7,0.4,1.4,0.6,2.1c0.2,0.7,0.4,1.4,0.6,2.1h0.1c0.2-0.7,0.4-1.4,0.6-2.1
		c0.2-0.7,0.4-1.4,0.6-2.1l2.3-6.5h2l-4.7,12.8H174z"/>
	<path d="M184,84.6c0.1,1.3,0.5,2.3,1.3,3.1c0.7,0.7,1.8,1.1,3.2,1.1c0.6,0,1.2-0.1,1.8-0.2c0.6-0.1,1.1-0.3,1.6-0.6l0.5,1.5
		c-0.5,0.3-1.2,0.5-1.8,0.6c-0.7,0.1-1.4,0.2-2.2,0.2c-1,0-1.9-0.2-2.7-0.5c-0.8-0.3-1.4-0.8-1.9-1.3c-0.5-0.6-0.9-1.3-1.1-2.1
		c-0.3-0.8-0.4-1.7-0.4-2.7c0-0.9,0.1-1.8,0.3-2.6c0.2-0.8,0.6-1.5,1-2.1c0.5-0.6,1.1-1.1,1.8-1.4c0.7-0.3,1.6-0.5,2.6-0.5
		c1.7,0,2.9,0.5,3.8,1.4c0.8,0.9,1.3,2.2,1.3,3.9c0,0.4,0,0.8-0.1,1.2c-0.1,0.4-0.1,0.7-0.2,1H184z M187.9,78.6
		c-0.7,0-1.2,0.1-1.7,0.3s-0.9,0.5-1.2,1c-0.3,0.4-0.6,0.9-0.7,1.4c-0.2,0.6-0.3,1.2-0.3,1.8h7.1c0,0,0-0.2,0-0.4c0-0.2,0-0.3,0-0.4
		c0-1.2-0.2-2.2-0.7-2.8C189.9,78.9,189.1,78.6,187.9,78.6z"/>
	<path d="M213.7,90.1h-1.6l-0.4-2.2c-0.4,0.7-0.9,1.3-1.6,1.8c-0.7,0.5-1.6,0.7-2.5,0.7c-0.8,0-1.5-0.1-2.1-0.4
		c-0.7-0.3-1.2-0.7-1.7-1.3c-0.5-0.6-0.8-1.2-1.1-2.1s-0.4-1.8-0.4-2.9c0-1,0.1-1.8,0.4-2.6c0.2-0.8,0.6-1.5,1.1-2.1
		c0.5-0.6,1.1-1.1,1.7-1.4c0.7-0.3,1.4-0.5,2.3-0.5c0.5,0,1,0.1,1.4,0.2c0.4,0.1,0.8,0.3,1.1,0.5c0.3,0.2,0.6,0.5,0.9,0.7
		c0.2,0.3,0.5,0.5,0.6,0.8v-7.1h2V90.1z M211.7,81.1c-0.5-0.7-1-1.3-1.6-1.7c-0.6-0.4-1.3-0.6-2-0.6c-1.1,0-2,0.4-2.8,1.2
		c-0.7,0.8-1.1,2-1.1,3.7c0,0.9,0.1,1.7,0.3,2.3c0.2,0.6,0.5,1.1,0.8,1.5c0.3,0.4,0.7,0.7,1.2,0.8c0.4,0.2,0.9,0.3,1.4,0.3
		c0.5,0,1.1-0.1,1.5-0.3c0.5-0.2,0.9-0.6,1.2-1c0.4-0.4,0.6-0.9,0.8-1.5c0.2-0.6,0.3-1.2,0.3-1.8V81.1z"/>
	<path d="M218.8,84.6c0.1,1.3,0.5,2.3,1.3,3.1s1.8,1.1,3.2,1.1c0.6,0,1.2-0.1,1.8-0.2c0.6-0.1,1.1-0.3,1.6-0.6l0.5,1.5
		c-0.5,0.3-1.2,0.5-1.8,0.6c-0.7,0.1-1.4,0.2-2.2,0.2c-1,0-1.9-0.2-2.7-0.5c-0.8-0.3-1.4-0.8-1.9-1.3c-0.5-0.6-0.9-1.3-1.1-2.1
		c-0.3-0.8-0.4-1.7-0.4-2.7c0-0.9,0.1-1.8,0.3-2.6c0.2-0.8,0.6-1.5,1-2.1c0.5-0.6,1.1-1.1,1.8-1.4c0.7-0.3,1.6-0.5,2.6-0.5
		c1.7,0,2.9,0.5,3.8,1.4c0.8,0.9,1.3,2.2,1.3,3.9c0,0.4,0,0.8-0.1,1.2c-0.1,0.4-0.1,0.7-0.2,1H218.8z M222.7,78.6
		c-0.7,0-1.2,0.1-1.7,0.3s-0.9,0.5-1.2,1c-0.3,0.4-0.6,0.9-0.7,1.4c-0.2,0.6-0.3,1.2-0.3,1.8h7.1c0,0,0-0.2,0-0.4c0-0.2,0-0.3,0-0.4
		c0-1.2-0.2-2.2-0.7-2.8C224.7,78.9,223.9,78.6,222.7,78.6z"/>
	<path d="M239.9,91.2c0,0.7-0.1,1.3-0.2,1.8c-0.1,0.5-0.3,1-0.6,1.3c-0.3,0.4-0.6,0.6-1.1,0.8c-0.5,0.2-1,0.3-1.7,0.3
		c-0.4,0-0.7,0-1.1-0.1c-0.3-0.1-0.6-0.2-0.8-0.3l0.5-1.5c0.4,0.2,0.9,0.3,1.3,0.3c0.7,0,1.1-0.2,1.3-0.6c0.2-0.4,0.3-1.1,0.3-2
		V77.3h2V91.2z M237.6,73.3c0-0.4,0.1-0.7,0.3-1c0.2-0.3,0.6-0.4,1-0.4c0.5,0,0.8,0.1,1,0.4c0.2,0.3,0.3,0.6,0.3,1
		c0,0.4-0.1,0.7-0.3,0.9c-0.2,0.3-0.6,0.4-1,0.4c-0.4,0-0.8-0.1-1-0.4C237.7,74,237.6,73.7,237.6,73.3z"/>
	<path d="M243.2,83.7c0-0.9,0.1-1.8,0.4-2.6c0.2-0.8,0.6-1.5,1.1-2.1c0.5-0.6,1.1-1.1,1.9-1.4c0.7-0.3,1.6-0.5,2.7-0.5
		c1,0,1.9,0.2,2.6,0.5c0.7,0.3,1.4,0.8,1.9,1.4c0.5,0.6,0.9,1.3,1.1,2.1c0.2,0.8,0.4,1.7,0.4,2.6c0,0.9-0.1,1.8-0.4,2.6
		c-0.2,0.8-0.6,1.5-1.1,2.1c-0.5,0.6-1.1,1.1-1.9,1.4c-0.7,0.3-1.6,0.5-2.6,0.5c-1,0-1.9-0.2-2.7-0.5c-0.7-0.3-1.4-0.8-1.9-1.4
		c-0.5-0.6-0.8-1.3-1.1-2.1C243.3,85.5,243.2,84.6,243.2,83.7z M245.1,83.7c0,0.7,0.1,1.4,0.2,2c0.2,0.6,0.4,1.2,0.7,1.6
		c0.3,0.4,0.7,0.8,1.2,1.1c0.5,0.3,1.1,0.4,1.8,0.4c0.7,0,1.3-0.1,1.8-0.4c0.5-0.3,0.9-0.6,1.2-1.1c0.3-0.5,0.6-1,0.7-1.6
		c0.2-0.6,0.2-1.3,0.2-2s-0.1-1.4-0.2-2c-0.2-0.6-0.4-1.1-0.7-1.6c-0.3-0.4-0.7-0.8-1.2-1.1c-0.5-0.3-1.1-0.4-1.8-0.4
		c-0.7,0-1.3,0.1-1.8,0.4c-0.5,0.3-0.9,0.6-1.2,1.1c-0.3,0.5-0.6,1-0.7,1.6C245.2,82.3,245.1,83,245.1,83.7z"/>
	<path d="M266.9,77.3h2v12.8h-1.6l-0.4-2.2c-0.2,0.3-0.4,0.5-0.6,0.8c-0.3,0.3-0.6,0.6-1,0.8c-0.4,0.2-0.8,0.4-1.3,0.6
		c-0.5,0.2-1,0.2-1.6,0.2c-1.2,0-2.2-0.4-3-1.2c-0.8-0.8-1.2-2.1-1.2-3.8v-8h1.9v8c0,1,0.2,1.8,0.7,2.4s1.1,0.9,1.9,0.9
		c0.5,0,0.9-0.1,1.3-0.2s0.8-0.3,1.2-0.6c0.4-0.2,0.7-0.5,1-0.8c0.3-0.3,0.5-0.6,0.8-1V77.3z"/>
	<path d="M274.9,79.6c0.2-0.3,0.4-0.6,0.6-0.9c0.2-0.3,0.5-0.6,0.8-0.8c0.3-0.2,0.6-0.4,1-0.6c0.4-0.2,0.8-0.2,1.2-0.2
		c0.5,0,0.9,0.1,1.2,0.2c0.3,0.1,0.4,0.2,0.5,0.3l-0.6,1.9c-0.4-0.3-0.9-0.5-1.5-0.5c-0.7,0-1.4,0.2-1.9,0.6c-0.6,0.4-1,1-1.4,1.7
		v8.8h-2V77.3h1.6L274.9,79.6z"/>
	<path d="M284.6,90.1h-2V77.3h1.6l0.4,2.1c0.2-0.2,0.4-0.5,0.7-0.8c0.3-0.3,0.6-0.5,1-0.7c0.4-0.2,0.8-0.4,1.3-0.6s1-0.2,1.5-0.2
		c1.4,0,2.4,0.4,3.2,1.3c0.8,0.9,1.2,2.1,1.2,3.7v8h-1.9v-8c0-1-0.2-1.8-0.7-2.4s-1.2-0.9-2-0.9c-0.9,0-1.7,0.2-2.4,0.7
		c-0.7,0.5-1.3,1-1.8,1.7V90.1z"/>
	<path d="M304.9,81.7c0-1.1-0.3-1.8-0.8-2.3c-0.5-0.5-1.3-0.7-2.2-0.7c-0.8,0-1.5,0.1-2.2,0.3c-0.7,0.2-1.3,0.4-1.8,0.7l-0.4-1.4
		c0.5-0.3,1.1-0.5,1.9-0.8c0.8-0.2,1.7-0.4,2.6-0.4c1.7,0,2.9,0.4,3.7,1.2c0.8,0.8,1.2,2,1.2,3.4v8.4h-1.5l-0.4-2.2
		c-0.2,0.3-0.4,0.7-0.7,1c-0.3,0.3-0.6,0.6-0.9,0.8c-0.3,0.2-0.7,0.4-1.2,0.5c-0.5,0.1-1,0.2-1.6,0.2c-0.5,0-1.1-0.1-1.5-0.3
		c-0.5-0.2-0.9-0.4-1.3-0.7c-0.4-0.3-0.6-0.7-0.8-1.2c-0.2-0.5-0.3-1-0.3-1.6c0-1.4,0.5-2.5,1.5-3.2c1-0.7,2.4-1.1,4.1-1.1h2.8V81.7
		z M304.9,83.7h-2.8c-1.2,0-2.1,0.2-2.8,0.7c-0.6,0.5-0.9,1.2-0.9,2.1c0,0.7,0.2,1.3,0.7,1.7c0.5,0.4,1,0.6,1.7,0.6
		c0.6,0,1.2-0.1,1.7-0.3c0.5-0.2,0.9-0.5,1.3-0.9c0.4-0.4,0.6-0.8,0.8-1.3c0.2-0.5,0.3-0.9,0.3-1.4V83.7z"/>
	<path d="M312.9,90.1h-2V72.3h2V90.1z"/>
	<path d="M316.7,73.3c0-0.4,0.1-0.7,0.3-1c0.2-0.3,0.6-0.4,1-0.4c0.5,0,0.8,0.1,1,0.4c0.2,0.3,0.3,0.6,0.3,1c0,0.4-0.1,0.7-0.3,0.9
		c-0.2,0.3-0.6,0.4-1,0.4c-0.4,0-0.8-0.1-1-0.4C316.8,74,316.7,73.7,316.7,73.3z M319.1,90.1h-2V77.3h2V90.1z"/>
	<path d="M326.4,88.8c1.1,0,1.8-0.2,2.3-0.6c0.5-0.4,0.7-0.9,0.7-1.4c0-0.7-0.3-1.2-0.9-1.6c-0.6-0.4-1.3-0.7-2.2-0.9
		c-0.6-0.2-1.1-0.3-1.5-0.6c-0.5-0.2-0.9-0.5-1.2-0.8c-0.3-0.3-0.6-0.7-0.8-1.1c-0.2-0.4-0.3-0.9-0.3-1.5c0-1.1,0.4-1.9,1.2-2.5
		c0.8-0.6,1.9-0.9,3.3-0.9c0.7,0,1.4,0.1,2.1,0.2c0.7,0.1,1.3,0.3,1.8,0.6l-0.4,1.5c-0.5-0.2-1-0.4-1.5-0.5
		c-0.5-0.1-1.1-0.2-1.7-0.2c-1,0-1.7,0.2-2.1,0.5c-0.5,0.3-0.7,0.7-0.7,1.3c0,0.6,0.2,1.1,0.7,1.4c0.5,0.3,1.1,0.6,1.9,0.8
		c1.4,0.4,2.5,1,3.2,1.6c0.7,0.6,1.1,1.5,1.1,2.6c0,1.1-0.4,1.9-1.2,2.6c-0.8,0.6-2,1-3.7,1c-0.8,0-1.6-0.1-2.3-0.2
		c-0.7-0.1-1.3-0.3-1.8-0.6l0.4-1.5c0.5,0.2,1,0.4,1.6,0.5C325.1,88.7,325.8,88.8,326.4,88.8z"/>
	<path d="M336.6,90.1h-2V77.3h1.6l0.3,2.1c0.2-0.3,0.4-0.5,0.6-0.8c0.3-0.3,0.6-0.5,0.9-0.7c0.3-0.2,0.7-0.4,1.1-0.6
		s0.9-0.2,1.4-0.2c0.9,0,1.6,0.2,2.1,0.7c0.5,0.5,0.9,1.1,1.1,1.9c0.4-0.7,1-1.3,1.7-1.8c0.7-0.5,1.6-0.8,2.5-0.8
		c1.3,0,2.2,0.4,2.8,1.3s0.9,2,0.9,3.3v8.4h-1.9v-8.4c0-0.9-0.2-1.6-0.5-2.1c-0.3-0.5-0.9-0.8-1.6-0.8c-0.4,0-0.8,0.1-1.1,0.2
		c-0.3,0.1-0.7,0.3-1,0.6c-0.3,0.2-0.6,0.5-0.8,0.8c-0.3,0.3-0.5,0.6-0.6,1v8.8h-1.9v-8.4c0-0.9-0.2-1.6-0.5-2.1
		c-0.3-0.5-0.8-0.8-1.6-0.8c-0.8,0-1.5,0.2-2.1,0.7c-0.6,0.5-1.1,1-1.5,1.7V90.1z"/>
	<path d="M356.8,84.6c0.1,1.3,0.5,2.3,1.3,3.1c0.7,0.7,1.8,1.1,3.2,1.1c0.6,0,1.2-0.1,1.8-0.2c0.6-0.1,1.1-0.3,1.6-0.6l0.5,1.5
		c-0.5,0.3-1.2,0.5-1.8,0.6c-0.7,0.1-1.4,0.2-2.2,0.2c-1,0-1.9-0.2-2.7-0.5c-0.8-0.3-1.4-0.8-1.9-1.3c-0.5-0.6-0.9-1.3-1.1-2.1
		c-0.3-0.8-0.4-1.7-0.4-2.7c0-0.9,0.1-1.8,0.3-2.6c0.2-0.8,0.6-1.5,1-2.1c0.5-0.6,1.1-1.1,1.8-1.4c0.7-0.3,1.6-0.5,2.6-0.5
		c1.7,0,2.9,0.5,3.8,1.4c0.8,0.9,1.3,2.2,1.3,3.9c0,0.4,0,0.8-0.1,1.2c-0.1,0.4-0.1,0.7-0.2,1H356.8z M360.7,78.6
		c-0.7,0-1.2,0.1-1.7,0.3s-0.9,0.5-1.2,1c-0.3,0.4-0.6,0.9-0.7,1.4c-0.2,0.6-0.3,1.2-0.3,1.8h7.1c0,0,0-0.2,0-0.4c0-0.2,0-0.3,0-0.4
		c0-1.2-0.2-2.2-0.7-2.8C362.7,78.9,361.9,78.6,360.7,78.6z"/>
	<path d="M377.9,90.1h-2V72.3h2V90.1z"/>
	<path d="M381.2,83.7c0-0.9,0.1-1.8,0.4-2.6c0.2-0.8,0.6-1.5,1.1-2.1c0.5-0.6,1.1-1.1,1.9-1.4c0.7-0.3,1.6-0.5,2.7-0.5
		c1,0,1.9,0.2,2.6,0.5c0.7,0.3,1.4,0.8,1.9,1.4c0.5,0.6,0.9,1.3,1.1,2.1c0.2,0.8,0.4,1.7,0.4,2.6c0,0.9-0.1,1.8-0.4,2.6
		c-0.2,0.8-0.6,1.5-1.1,2.1c-0.5,0.6-1.1,1.1-1.9,1.4c-0.7,0.3-1.6,0.5-2.6,0.5c-1,0-1.9-0.2-2.7-0.5c-0.7-0.3-1.4-0.8-1.9-1.4
		c-0.5-0.6-0.8-1.3-1.1-2.1C381.3,85.5,381.2,84.6,381.2,83.7z M383.1,83.7c0,0.7,0.1,1.4,0.2,2c0.2,0.6,0.4,1.2,0.7,1.6
		c0.3,0.4,0.7,0.8,1.2,1.1c0.5,0.3,1.1,0.4,1.8,0.4c0.7,0,1.3-0.1,1.8-0.4c0.5-0.3,0.9-0.6,1.2-1.1c0.3-0.5,0.6-1,0.7-1.6
		c0.2-0.6,0.2-1.3,0.2-2s-0.1-1.4-0.2-2c-0.2-0.6-0.4-1.1-0.7-1.6c-0.3-0.4-0.7-0.8-1.2-1.1c-0.5-0.3-1.1-0.4-1.8-0.4
		c-0.7,0-1.3,0.1-1.8,0.4c-0.5,0.3-0.9,0.6-1.2,1.1c-0.3,0.5-0.6,1-0.7,1.6C383.2,82.3,383.1,83,383.1,83.7z"/>
	<path d="M401.6,78.7c-0.7,0-1.4,0.1-1.9,0.4c-0.5,0.2-1,0.6-1.3,1c-0.3,0.5-0.6,1-0.8,1.6c-0.2,0.6-0.3,1.3-0.3,2s0.1,1.4,0.3,2
		c0.2,0.6,0.4,1.2,0.8,1.6c0.4,0.5,0.8,0.8,1.3,1.1c0.5,0.3,1.2,0.4,2,0.4c0.5,0,1.1-0.1,1.7-0.2c0.6-0.1,1.1-0.3,1.6-0.6l0.4,1.5
		c-0.5,0.3-1.1,0.5-1.7,0.7c-0.6,0.2-1.3,0.2-2.1,0.2c-1,0-1.9-0.2-2.7-0.5c-0.8-0.3-1.4-0.8-1.9-1.4c-0.5-0.6-0.9-1.3-1.1-2.1
		c-0.2-0.8-0.4-1.7-0.4-2.6c0-0.9,0.1-1.8,0.4-2.6c0.2-0.8,0.6-1.5,1.1-2.1c0.5-0.6,1.2-1.1,1.9-1.4c0.8-0.3,1.7-0.5,2.7-0.5
		c0.7,0,1.4,0.1,2,0.2c0.6,0.2,1.2,0.3,1.7,0.6l-0.5,1.5c-0.5-0.2-1-0.4-1.5-0.5C402.8,78.7,402.2,78.7,401.6,78.7z"/>
	<path d="M415.6,81.7c0-1.1-0.3-1.8-0.8-2.3c-0.5-0.5-1.3-0.7-2.2-0.7c-0.8,0-1.5,0.1-2.2,0.3c-0.7,0.2-1.3,0.4-1.8,0.7l-0.4-1.4
		c0.5-0.3,1.1-0.5,1.9-0.8c0.8-0.2,1.7-0.4,2.6-0.4c1.7,0,2.9,0.4,3.7,1.2c0.8,0.8,1.2,2,1.2,3.4v8.4H416l-0.4-2.2
		c-0.2,0.3-0.4,0.7-0.7,1c-0.3,0.3-0.6,0.6-0.9,0.8c-0.3,0.2-0.7,0.4-1.2,0.5c-0.5,0.1-1,0.2-1.6,0.2c-0.5,0-1.1-0.1-1.5-0.3
		c-0.5-0.2-0.9-0.4-1.3-0.7c-0.4-0.3-0.6-0.7-0.8-1.2c-0.2-0.5-0.3-1-0.3-1.6c0-1.4,0.5-2.5,1.5-3.2c1-0.7,2.4-1.1,4.1-1.1h2.8V81.7
		z M415.6,83.7h-2.8c-1.2,0-2.1,0.2-2.8,0.7c-0.6,0.5-0.9,1.2-0.9,2.1c0,0.7,0.2,1.3,0.7,1.7c0.5,0.4,1,0.6,1.7,0.6
		c0.6,0,1.2-0.1,1.7-0.3c0.5-0.2,0.9-0.5,1.3-0.9c0.4-0.4,0.6-0.8,0.8-1.3c0.2-0.5,0.3-0.9,0.3-1.4V83.7z"/>
	<path d="M423.6,90.1h-2V72.3h2V90.1z"/>
</g>
<line class="st2" x1="98" y1="60.5" x2="424.7" y2="60.5"/>
</svg>
