<?xml version="1.0" encoding="utf-8"?>
<!-- Generator: Adobe Illustrator 21.0.0, SVG Export Plug-In . SVG Version: 6.00 Build 0)  -->
<svg version="1.1" id="Layer_1" xmlns="http://www.w3.org/2000/svg" xmlns:xlink="http://www.w3.org/1999/xlink" x="0px" y="0px"
	 width="321px" height="56px" viewBox="0 0 321 56" style="enable-background:new 0 0 321 56;" xml:space="preserve">
<style type="text/css">
	.st0{fill:#FFFFFF;}
	.st1{fill:none;stroke:#FFFFFF;stroke-width:0.4479;stroke-miterlimit:10;}
</style>
<g>
	<path class="st0" d="M36.7,19.5c0,0,0-0.1-0.1-0.1l-0.4-0.2c0,0,0,0,0,0c0,0,0,0,0,0c0-0.1,0.1-0.3,0.1-0.4l0.1-0.3
		c0-0.1,0.1-0.2,0.1-0.4l0.1-0.2c0,0,0-0.1,0-0.1c0,0-0.1-0.1-0.1,0l0,0c0,0,0,0-0.1,0L35.2,18c0,0,0,0,0,0c0,0,0,0,0,0c0,0,0,0,0,0
		c0,0,0,0,0,0l-0.2-0.5c0,0-0.1-0.1-0.1-0.1c0,0-0.1,0-0.1,0l0,0c0,0,0,0-0.1,0.1l-0.3,0.3c-0.2,0.2-0.4,0.4-0.6,0.6c0,0,0,0,0,0
		c0,0,0,0,0,0c0,0,0,0,0,0c0.1-0.3,0.1-0.7,0.2-1l0.2-0.8c0-0.1,0.1-0.3,0.1-0.4l0-0.2c0-0.1,0-0.1-0.1-0.1c0,0-0.1,0-0.2,0l0,0
		c0,0,0,0-0.1,0L33.6,16c-0.1,0.1-0.2,0.1-0.4,0.2c0,0,0,0,0,0c0,0,0,0,0,0l-0.7-1.4c0,0,0,0,0-0.1l0,0c0,0-0.1-0.1-0.1-0.1
		c0,0,0,0,0,0c-0.1,0-0.1,0-0.1,0.1l0,0c0,0,0,0,0,0l-0.7,1.4c0,0,0,0.1,0,0.1c0,0,0,0-0.1,0l-0.7-0.4c0,0-0.1,0-0.2,0
		c0,0-0.1,0.1-0.1,0.1c0,0,0,0,0,0c0,0,0,0,0,0.1c0.1,0.5,0.2,1,0.3,1.5l0.1,0.4c0,0.2,0.1,0.3,0.1,0.5c0,0,0,0,0,0c0,0,0,0,0,0
		c0,0,0,0,0,0c-0.3-0.3-0.6-0.6-0.9-0.9l0,0c0,0,0,0,0,0l0,0c0,0-0.1,0-0.1,0c0,0-0.1,0-0.1,0.1l-0.1,0.2c-0.1,0.1-0.1,0.2-0.2,0.4
		c0,0,0,0,0,0c0,0,0,0,0,0c-0.2,0-0.4-0.1-0.6-0.1l-0.5-0.1c0,0,0,0-0.1,0l0,0c-0.1,0-0.1,0-0.1,0c0,0,0,0.1,0,0.1l0.4,1.2
		c0,0,0,0.1,0,0.1c0,0,0,0-0.1,0c-0.1,0-0.2,0.1-0.3,0.1L28,19.4c0,0-0.1,0.1-0.1,0.1c0,0,0,0.1,0,0.1l0,0c0,0,0,0,0,0l2,1.7
		c0,0,0,0,0,0c0,0,0,0,0,0.1L30,21.7c0,0.1-0.1,0.3-0.1,0.4c0,0,0,0,0,0.1l0,0c0,0,0,0.1,0,0.1c0,0,0.1,0.1,0.1,0l0.3-0.1
		c0.2,0,0.4-0.1,0.6-0.1c0.1,0,0.3,0,0.4-0.1c0.2,0,0.5-0.1,0.6-0.1s0.6,0,0.7,0c0.1,0,0.6,0.1,1,0.2c0.2,0,0.4,0.1,0.5,0.1
		c0.1,0,0.2,0,0.3,0.1l0.2,0c0.1,0,0.1,0,0.1,0c0,0,0-0.1,0-0.1l0,0c0,0,0,0,0-0.1l-0.1-0.3c0-0.1-0.1-0.2-0.1-0.3c0,0,0,0,0-0.1
		c0,0,0,0,0,0c0.3-0.3,0.7-0.5,1-0.8l0.7-0.5c0.1-0.1,0.2-0.2,0.3-0.2l0.1-0.1C36.7,19.6,36.7,19.6,36.7,19.5z"/>
	<path class="st0" d="M35.3,26.8c0-1.6-1.3-2.9-2.9-2.9c-1.6,0-2.5,1.4-2.5,1.4c-1.6,2.8-4.6,4.7-8.1,4.8c-5.2,0-9.4-4.2-9.4-9.4
		c0-5.2,4.2-9.4,9.4-9.4c1.8,0,3.6,0.5,5.1,1.5c0.3,0.2,0.5,0.4,0.8,0.6c0,0,0.1,0,0.1,0c0.4,0.2,0.8,0.3,1.3,0.4c0,0,0.1,0,0.1,0
		c1.6,0,3-1.2,3.1-2.9c0-0.9-0.3-1.7-0.9-2.3c-0.1-0.1-0.2-0.2-0.4-0.3c-1-0.8-2.3-1.4-3.3-1.8c-1.8-0.8-3.8-1.2-5.8-1.2
		c-8.3,0-15,6.7-15,15c0,7,8.6,24.2,13.1,29.2c0.7,0.9,1.3,1.4,1.8,1.4c0,0,0,0,0.1,0c0,0,0,0,0.1,0c0.5,0,1.1-0.5,1.8-1.4
		c3.2-3.5,8.4-13.1,11.2-21C34.8,28.5,35.3,27.4,35.3,26.8z"/>
	<g>
		<path class="st0" d="M48.4,14.5h0.9v7h3.8v0.8h-4.6V14.5z"/>
		<path class="st0" d="M53.8,19.6c0-0.4,0.1-0.8,0.2-1.1c0.1-0.4,0.3-0.7,0.5-0.9c0.2-0.3,0.5-0.5,0.8-0.6c0.3-0.1,0.7-0.2,1.2-0.2
			s0.8,0.1,1.2,0.2c0.3,0.1,0.6,0.4,0.8,0.6c0.2,0.3,0.4,0.6,0.5,0.9c0.1,0.4,0.2,0.7,0.2,1.1s-0.1,0.8-0.2,1.2s-0.3,0.7-0.5,0.9
			c-0.2,0.3-0.5,0.5-0.8,0.6c-0.3,0.1-0.7,0.2-1.2,0.2s-0.8-0.1-1.2-0.2c-0.3-0.1-0.6-0.4-0.8-0.6c-0.2-0.3-0.4-0.6-0.5-0.9
			C53.9,20.4,53.8,20,53.8,19.6z M54.7,19.6c0,0.3,0,0.6,0.1,0.9c0.1,0.3,0.2,0.5,0.3,0.7c0.1,0.2,0.3,0.4,0.5,0.5
			c0.2,0.1,0.5,0.2,0.8,0.2c0.3,0,0.6-0.1,0.8-0.2c0.2-0.1,0.4-0.3,0.5-0.5c0.1-0.2,0.3-0.4,0.3-0.7c0.1-0.3,0.1-0.6,0.1-0.9
			c0-0.3,0-0.6-0.1-0.9c-0.1-0.3-0.2-0.5-0.3-0.7c-0.1-0.2-0.3-0.4-0.5-0.5c-0.2-0.1-0.5-0.2-0.8-0.2c-0.3,0-0.6,0.1-0.8,0.2
			c-0.2,0.1-0.4,0.3-0.5,0.5c-0.1,0.2-0.3,0.4-0.3,0.7C54.7,19,54.7,19.2,54.7,19.6z"/>
		<path class="st0" d="M62.8,17.4c-0.3,0-0.6,0.1-0.8,0.2c-0.2,0.1-0.4,0.3-0.6,0.5c-0.2,0.2-0.3,0.4-0.3,0.7C61,19,61,19.2,61,19.6
			c0,0.3,0,0.6,0.1,0.9c0.1,0.3,0.2,0.5,0.3,0.7c0.2,0.2,0.4,0.4,0.6,0.5c0.2,0.1,0.5,0.2,0.9,0.2c0.2,0,0.5,0,0.7-0.1
			c0.2-0.1,0.5-0.1,0.7-0.3l0.2,0.6c-0.2,0.1-0.5,0.2-0.8,0.3c-0.3,0.1-0.6,0.1-0.9,0.1c-0.5,0-0.9-0.1-1.2-0.2
			c-0.3-0.1-0.6-0.4-0.8-0.6c-0.2-0.3-0.4-0.6-0.5-0.9s-0.2-0.7-0.2-1.2s0.1-0.8,0.2-1.2c0.1-0.4,0.3-0.7,0.5-0.9
			c0.2-0.3,0.5-0.5,0.9-0.6c0.3-0.1,0.7-0.2,1.2-0.2c0.3,0,0.6,0,0.9,0.1c0.3,0.1,0.5,0.2,0.7,0.3l-0.2,0.7
			c-0.2-0.1-0.4-0.2-0.7-0.2C63.3,17.4,63.1,17.4,62.8,17.4z"/>
		<path class="st0" d="M69,18.7c0-0.5-0.1-0.8-0.4-1c-0.2-0.2-0.6-0.3-1-0.3c-0.3,0-0.7,0-1,0.1c-0.3,0.1-0.6,0.2-0.8,0.3l-0.2-0.6
			c0.2-0.1,0.5-0.2,0.8-0.3c0.3-0.1,0.7-0.2,1.1-0.2c0.7,0,1.3,0.2,1.6,0.5c0.3,0.4,0.5,0.9,0.5,1.5v3.7h-0.7l-0.2-1
			c-0.1,0.1-0.2,0.3-0.3,0.4c-0.1,0.1-0.2,0.2-0.4,0.3c-0.2,0.1-0.3,0.2-0.5,0.2c-0.2,0.1-0.4,0.1-0.7,0.1c-0.2,0-0.5,0-0.7-0.1
			c-0.2-0.1-0.4-0.2-0.6-0.3c-0.2-0.1-0.3-0.3-0.4-0.5c-0.1-0.2-0.1-0.5-0.1-0.7c0-0.6,0.2-1.1,0.7-1.4c0.4-0.3,1-0.5,1.8-0.5H69
			V18.7z M69,19.6h-1.2c-0.5,0-0.9,0.1-1.2,0.3c-0.3,0.2-0.4,0.5-0.4,0.9c0,0.3,0.1,0.6,0.3,0.7c0.2,0.2,0.4,0.3,0.7,0.3
			c0.3,0,0.5-0.1,0.7-0.2c0.2-0.1,0.4-0.2,0.6-0.4c0.2-0.2,0.3-0.4,0.4-0.6c0.1-0.2,0.1-0.4,0.1-0.6V19.6z"/>
		<path class="st0" d="M72.5,22.4h-0.9v-7.9h0.9V22.4z"/>
		<path class="st0" d="M80,20.1c0,0.8-0.2,1.4-0.5,1.8c-0.3,0.4-0.8,0.6-1.5,0.6c-0.3,0-0.6,0-0.8-0.1c-0.2-0.1-0.4-0.1-0.6-0.2
			l0.2-0.7c0.1,0.1,0.3,0.1,0.5,0.2c0.2,0,0.4,0.1,0.7,0.1c0.3,0,0.6-0.1,0.8-0.3c0.2-0.2,0.3-0.6,0.3-1.2v-5.6H80V20.1z"/>
		<path class="st0" d="M81.4,19.6c0-0.4,0.1-0.8,0.2-1.1c0.1-0.4,0.3-0.7,0.5-0.9c0.2-0.3,0.5-0.5,0.8-0.6c0.3-0.1,0.7-0.2,1.2-0.2
			s0.8,0.1,1.2,0.2c0.3,0.1,0.6,0.4,0.8,0.6c0.2,0.3,0.4,0.6,0.5,0.9c0.1,0.4,0.2,0.7,0.2,1.1s-0.1,0.8-0.2,1.2
			c-0.1,0.4-0.3,0.7-0.5,0.9c-0.2,0.3-0.5,0.5-0.8,0.6c-0.3,0.1-0.7,0.2-1.2,0.2s-0.8-0.1-1.2-0.2c-0.3-0.1-0.6-0.4-0.8-0.6
			c-0.2-0.3-0.4-0.6-0.5-0.9C81.4,20.4,81.4,20,81.4,19.6z M82.2,19.6c0,0.3,0,0.6,0.1,0.9c0.1,0.3,0.2,0.5,0.3,0.7
			c0.1,0.2,0.3,0.4,0.5,0.5c0.2,0.1,0.5,0.2,0.8,0.2c0.3,0,0.6-0.1,0.8-0.2c0.2-0.1,0.4-0.3,0.5-0.5c0.1-0.2,0.3-0.4,0.3-0.7
			c0.1-0.3,0.1-0.6,0.1-0.9c0-0.3,0-0.6-0.1-0.9c-0.1-0.3-0.2-0.5-0.3-0.7c-0.1-0.2-0.3-0.4-0.5-0.5c-0.2-0.1-0.5-0.2-0.8-0.2
			c-0.3,0-0.6,0.1-0.8,0.2c-0.2,0.1-0.4,0.3-0.5,0.5c-0.1,0.2-0.3,0.4-0.3,0.7C82.3,19,82.2,19.2,82.2,19.6z"/>
		<path class="st0" d="M91.9,16.8h0.9v5.6H92l-0.2-1c-0.1,0.1-0.2,0.2-0.3,0.4c-0.1,0.1-0.3,0.3-0.4,0.4c-0.2,0.1-0.4,0.2-0.6,0.3
			c-0.2,0.1-0.5,0.1-0.7,0.1c-0.5,0-1-0.2-1.3-0.5c-0.3-0.3-0.5-0.9-0.5-1.7v-3.5h0.8v3.5c0,0.5,0.1,0.8,0.3,1.1
			c0.2,0.3,0.5,0.4,0.8,0.4c0.2,0,0.4,0,0.6-0.1c0.2-0.1,0.4-0.1,0.5-0.3c0.2-0.1,0.3-0.2,0.4-0.4c0.1-0.1,0.2-0.3,0.3-0.4V16.8z"/>
		<path class="st0" d="M95.4,17.8c0.1-0.1,0.2-0.3,0.3-0.4c0.1-0.1,0.2-0.3,0.4-0.4c0.1-0.1,0.3-0.2,0.4-0.3
			c0.2-0.1,0.3-0.1,0.5-0.1c0.2,0,0.4,0,0.5,0.1c0.1,0.1,0.2,0.1,0.2,0.1l-0.2,0.9c-0.2-0.1-0.4-0.2-0.7-0.2c-0.3,0-0.6,0.1-0.9,0.3
			c-0.3,0.2-0.5,0.4-0.6,0.8v3.9h-0.9v-5.6h0.7L95.4,17.8z"/>
		<path class="st0" d="M99.7,22.4h-0.9v-5.6h0.7l0.2,0.9c0.1-0.1,0.2-0.2,0.3-0.3c0.1-0.1,0.3-0.2,0.4-0.3c0.2-0.1,0.4-0.2,0.6-0.2
			c0.2-0.1,0.4-0.1,0.7-0.1c0.6,0,1.1,0.2,1.4,0.6c0.3,0.4,0.5,0.9,0.5,1.6v3.5h-0.9v-3.5c0-0.4-0.1-0.8-0.3-1s-0.5-0.4-0.9-0.4
			c-0.4,0-0.8,0.1-1.1,0.3c-0.3,0.2-0.6,0.4-0.8,0.7V22.4z"/>
		<path class="st0" d="M108.6,18.7c0-0.5-0.1-0.8-0.4-1c-0.2-0.2-0.6-0.3-1-0.3c-0.4,0-0.7,0-1,0.1c-0.3,0.1-0.6,0.2-0.8,0.3
			l-0.2-0.6c0.2-0.1,0.5-0.2,0.8-0.3c0.3-0.1,0.7-0.2,1.1-0.2c0.7,0,1.3,0.2,1.6,0.5c0.3,0.4,0.5,0.9,0.5,1.5v3.7h-0.7l-0.2-1
			c-0.1,0.1-0.2,0.3-0.3,0.4c-0.1,0.1-0.2,0.2-0.4,0.3c-0.2,0.1-0.3,0.2-0.5,0.2c-0.2,0.1-0.4,0.1-0.7,0.1c-0.2,0-0.5,0-0.7-0.1
			c-0.2-0.1-0.4-0.2-0.6-0.3c-0.2-0.1-0.3-0.3-0.4-0.5c-0.1-0.2-0.1-0.5-0.1-0.7c0-0.6,0.2-1.1,0.7-1.4c0.4-0.3,1-0.5,1.8-0.5h1.2
			V18.7z M108.6,19.6h-1.2c-0.5,0-0.9,0.1-1.2,0.3c-0.3,0.2-0.4,0.5-0.4,0.9c0,0.3,0.1,0.6,0.3,0.7c0.2,0.2,0.4,0.3,0.7,0.3
			c0.3,0,0.5-0.1,0.7-0.2c0.2-0.1,0.4-0.2,0.6-0.4c0.2-0.2,0.3-0.4,0.4-0.6c0.1-0.2,0.1-0.4,0.1-0.6V19.6z"/>
		<path class="st0" d="M112.1,22.4h-0.9v-7.9h0.9V22.4z"/>
		<path class="st0" d="M113.8,15c0-0.2,0-0.3,0.2-0.4c0.1-0.1,0.2-0.2,0.4-0.2c0.2,0,0.4,0.1,0.4,0.2c0.1,0.1,0.1,0.3,0.1,0.4
			c0,0.2,0,0.3-0.1,0.4c-0.1,0.1-0.2,0.2-0.4,0.2c-0.2,0-0.3-0.1-0.4-0.2C113.8,15.3,113.8,15.2,113.8,15z M114.8,22.4H114v-5.6h0.9
			V22.4z"/>
		<path class="st0" d="M118.1,21.8c0.5,0,0.8-0.1,1-0.3c0.2-0.2,0.3-0.4,0.3-0.6c0-0.3-0.1-0.5-0.4-0.7c-0.3-0.2-0.6-0.3-1-0.4
			c-0.2-0.1-0.5-0.2-0.7-0.2c-0.2-0.1-0.4-0.2-0.5-0.3c-0.2-0.1-0.3-0.3-0.4-0.5c-0.1-0.2-0.1-0.4-0.1-0.6c0-0.5,0.2-0.8,0.5-1.1
			c0.4-0.3,0.8-0.4,1.5-0.4c0.3,0,0.6,0,0.9,0.1c0.3,0.1,0.6,0.1,0.8,0.3l-0.2,0.7c-0.2-0.1-0.4-0.2-0.7-0.2
			c-0.2-0.1-0.5-0.1-0.8-0.1c-0.4,0-0.7,0.1-0.9,0.2c-0.2,0.1-0.3,0.3-0.3,0.6c0,0.3,0.1,0.5,0.3,0.6c0.2,0.1,0.5,0.3,0.8,0.4
			c0.6,0.2,1.1,0.4,1.4,0.7c0.3,0.3,0.5,0.6,0.5,1.1c0,0.5-0.2,0.9-0.5,1.1c-0.3,0.3-0.9,0.4-1.6,0.4c-0.4,0-0.7,0-1-0.1
			c-0.3-0.1-0.6-0.2-0.8-0.3l0.2-0.6c0.2,0.1,0.4,0.2,0.7,0.2C117.5,21.8,117.8,21.8,118.1,21.8z"/>
		<path class="st0" d="M122.6,22.4h-0.9v-5.6h0.7l0.2,0.9c0.1-0.1,0.2-0.2,0.3-0.3c0.1-0.1,0.2-0.2,0.4-0.3c0.1-0.1,0.3-0.2,0.5-0.2
			c0.2-0.1,0.4-0.1,0.6-0.1c0.4,0,0.7,0.1,0.9,0.3c0.2,0.2,0.4,0.5,0.5,0.8c0.2-0.3,0.4-0.6,0.8-0.8c0.3-0.2,0.7-0.3,1.1-0.3
			c0.6,0,1,0.2,1.2,0.6c0.3,0.4,0.4,0.9,0.4,1.5v3.7h-0.9v-3.7c0-0.4-0.1-0.7-0.2-0.9c-0.1-0.2-0.4-0.3-0.7-0.3
			c-0.2,0-0.3,0-0.5,0.1c-0.2,0.1-0.3,0.1-0.4,0.2c-0.1,0.1-0.3,0.2-0.4,0.4c-0.1,0.1-0.2,0.3-0.3,0.4v3.9H125v-3.7
			c0-0.4-0.1-0.7-0.2-0.9c-0.1-0.2-0.4-0.3-0.7-0.3c-0.3,0-0.7,0.1-0.9,0.3c-0.3,0.2-0.5,0.4-0.6,0.7V22.4z"/>
		<path class="st0" d="M135,22.4h-0.9v-7.9h0.9V22.4z"/>
		<path class="st0" d="M137.7,22.4h-0.9v-5.6h0.7l0.2,0.9c0.1-0.1,0.2-0.2,0.3-0.3c0.1-0.1,0.3-0.2,0.4-0.3c0.2-0.1,0.4-0.2,0.6-0.2
			c0.2-0.1,0.4-0.1,0.7-0.1c0.6,0,1.1,0.2,1.4,0.6c0.3,0.4,0.5,0.9,0.5,1.6v3.5h-0.9v-3.5c0-0.4-0.1-0.8-0.3-1s-0.5-0.4-0.9-0.4
			c-0.4,0-0.8,0.1-1.1,0.3c-0.3,0.2-0.6,0.4-0.8,0.7V22.4z"/>
		<path class="st0" d="M143.2,15c0-0.2,0-0.3,0.2-0.4c0.1-0.1,0.2-0.2,0.4-0.2c0.2,0,0.4,0.1,0.4,0.2c0.1,0.1,0.1,0.3,0.1,0.4
			c0,0.2,0,0.3-0.1,0.4c-0.1,0.1-0.2,0.2-0.4,0.2c-0.2,0-0.3-0.1-0.4-0.2C143.3,15.3,143.2,15.2,143.2,15z M144.3,22.4h-0.9v-5.6
			h0.9V22.4z"/>
		<path class="st0" d="M147.2,20.8c0,0.3,0,0.5,0.1,0.7c0.1,0.2,0.3,0.2,0.6,0.2c0.2,0,0.3,0,0.5-0.1c0.2,0,0.3-0.1,0.4-0.2l0.2,0.6
			c-0.2,0.1-0.3,0.2-0.5,0.2c-0.2,0.1-0.4,0.1-0.7,0.1c-0.5,0-0.9-0.1-1.1-0.4c-0.2-0.3-0.3-0.7-0.3-1.2v-3.4h-0.9v-0.7h0.9l0.2-1.6
			h0.6v1.6h1.7v0.7h-1.7V20.8z"/>
		<path class="st0" d="M150,15c0-0.2,0-0.3,0.2-0.4c0.1-0.1,0.2-0.2,0.4-0.2c0.2,0,0.4,0.1,0.4,0.2c0.1,0.1,0.1,0.3,0.1,0.4
			c0,0.2,0,0.3-0.1,0.4c-0.1,0.1-0.2,0.2-0.4,0.2c-0.2,0-0.3-0.1-0.4-0.2C150.1,15.3,150,15.2,150,15z M151.1,22.4h-0.9v-5.6h0.9
			V22.4z"/>
		<path class="st0" d="M156.2,18.7c0-0.5-0.1-0.8-0.4-1c-0.2-0.2-0.6-0.3-1-0.3c-0.4,0-0.7,0-1,0.1c-0.3,0.1-0.6,0.2-0.8,0.3
			l-0.2-0.6c0.2-0.1,0.5-0.2,0.8-0.3c0.3-0.1,0.7-0.2,1.1-0.2c0.7,0,1.3,0.2,1.6,0.5c0.4,0.4,0.5,0.9,0.5,1.5v3.7h-0.7l-0.2-1
			c-0.1,0.1-0.2,0.3-0.3,0.4c-0.1,0.1-0.2,0.2-0.4,0.3c-0.2,0.1-0.3,0.2-0.5,0.2c-0.2,0.1-0.4,0.1-0.7,0.1c-0.2,0-0.5,0-0.7-0.1
			c-0.2-0.1-0.4-0.2-0.6-0.3c-0.2-0.1-0.3-0.3-0.4-0.5c-0.1-0.2-0.1-0.5-0.1-0.7c0-0.6,0.2-1.1,0.7-1.4c0.4-0.3,1-0.5,1.8-0.5h1.2
			V18.7z M156.2,19.6h-1.2c-0.5,0-0.9,0.1-1.2,0.3c-0.3,0.2-0.4,0.5-0.4,0.9c0,0.3,0.1,0.6,0.3,0.7c0.2,0.2,0.4,0.3,0.7,0.3
			c0.3,0,0.5-0.1,0.7-0.2c0.2-0.1,0.4-0.2,0.6-0.4c0.2-0.2,0.3-0.4,0.4-0.6c0.1-0.2,0.1-0.4,0.1-0.6V19.6z"/>
		<path class="st0" d="M159.8,20.8c0,0.3,0,0.5,0.1,0.7c0.1,0.2,0.3,0.2,0.6,0.2c0.2,0,0.3,0,0.5-0.1c0.2,0,0.3-0.1,0.4-0.2l0.2,0.6
			c-0.2,0.1-0.3,0.2-0.5,0.2c-0.2,0.1-0.4,0.1-0.7,0.1c-0.5,0-0.9-0.1-1.1-0.4c-0.2-0.3-0.3-0.7-0.3-1.2v-3.4h-0.9v-0.7h0.9l0.2-1.6
			h0.6v1.6h1.7v0.7h-1.7V20.8z"/>
		<path class="st0" d="M162.7,15c0-0.2,0-0.3,0.2-0.4c0.1-0.1,0.2-0.2,0.4-0.2c0.2,0,0.4,0.1,0.4,0.2c0.1,0.1,0.1,0.3,0.1,0.4
			c0,0.2,0,0.3-0.1,0.4c-0.1,0.1-0.2,0.2-0.4,0.2c-0.2,0-0.3-0.1-0.4-0.2C162.8,15.3,162.7,15.2,162.7,15z M163.7,22.4h-0.9v-5.6
			h0.9V22.4z"/>
		<path class="st0" d="M166.9,22.4l-2.1-5.6h0.9l1,2.9c0.1,0.3,0.2,0.6,0.3,0.9s0.2,0.6,0.3,0.9h0c0.1-0.3,0.2-0.6,0.3-0.9
			c0.1-0.3,0.2-0.6,0.3-0.9l1-2.9h0.9l-2.1,5.6H166.9z"/>
		<path class="st0" d="M171.4,20c0,0.6,0.2,1,0.6,1.4c0.3,0.3,0.8,0.5,1.4,0.5c0.3,0,0.5,0,0.8-0.1c0.3-0.1,0.5-0.1,0.7-0.2l0.2,0.6
			c-0.2,0.1-0.5,0.2-0.8,0.3c-0.3,0.1-0.6,0.1-1,0.1c-0.5,0-0.9-0.1-1.2-0.2c-0.3-0.1-0.6-0.3-0.8-0.6c-0.2-0.3-0.4-0.6-0.5-0.9
			c-0.1-0.4-0.2-0.8-0.2-1.2c0-0.4,0-0.8,0.2-1.2c0.1-0.4,0.3-0.7,0.5-0.9c0.2-0.3,0.5-0.5,0.8-0.6c0.3-0.1,0.7-0.2,1.1-0.2
			c0.7,0,1.3,0.2,1.7,0.6c0.4,0.4,0.6,1,0.6,1.7c0,0.2,0,0.4,0,0.5c0,0.2-0.1,0.3-0.1,0.5H171.4z M173.1,17.3
			c-0.3,0-0.5,0.1-0.8,0.2c-0.2,0.1-0.4,0.2-0.5,0.4c-0.1,0.2-0.2,0.4-0.3,0.6c-0.1,0.2-0.1,0.5-0.1,0.8h3.1c0,0,0-0.1,0-0.2
			s0-0.2,0-0.2c0-0.5-0.1-0.9-0.3-1.2C173.9,17.5,173.6,17.3,173.1,17.3z"/>
		<path class="st0" d="M49.4,41.2h-0.9v-7.9h0.9V41.2z"/>
		<path class="st0" d="M52.1,41.2h-0.9v-5.6h0.7l0.2,0.9c0.1-0.1,0.2-0.2,0.3-0.3s0.3-0.2,0.4-0.3c0.2-0.1,0.4-0.2,0.6-0.2
			c0.2-0.1,0.4-0.1,0.7-0.1c0.6,0,1.1,0.2,1.4,0.6s0.5,0.9,0.5,1.6v3.5h-0.9v-3.5c0-0.4-0.1-0.8-0.3-1s-0.5-0.4-0.9-0.4
			c-0.4,0-0.8,0.1-1.1,0.3c-0.3,0.2-0.6,0.4-0.8,0.7V41.2z"/>
		<path class="st0" d="M57.6,33.8c0-0.2,0.1-0.3,0.2-0.4c0.1-0.1,0.2-0.2,0.4-0.2c0.2,0,0.4,0.1,0.4,0.2c0.1,0.1,0.1,0.3,0.1,0.4
			c0,0.2,0,0.3-0.1,0.4c-0.1,0.1-0.2,0.2-0.4,0.2c-0.2,0-0.3-0.1-0.4-0.2C57.7,34.1,57.6,33.9,57.6,33.8z M58.7,41.2h-0.9v-5.6h0.9
			V41.2z"/>
		<path class="st0" d="M61.5,39.6c0,0.3,0,0.5,0.1,0.7c0.1,0.2,0.3,0.2,0.6,0.2c0.2,0,0.3,0,0.5-0.1c0.2,0,0.3-0.1,0.4-0.2l0.2,0.6
			c-0.2,0.1-0.3,0.2-0.5,0.2s-0.4,0.1-0.7,0.1c-0.5,0-0.9-0.1-1.1-0.4c-0.2-0.3-0.3-0.7-0.3-1.2v-3.4h-0.9v-0.7h0.9l0.2-1.6h0.6v1.6
			h1.7v0.7h-1.7V39.6z"/>
		<path class="st0" d="M64.4,33.8c0-0.2,0.1-0.3,0.2-0.4c0.1-0.1,0.2-0.2,0.4-0.2c0.2,0,0.4,0.1,0.4,0.2c0.1,0.1,0.1,0.3,0.1,0.4
			c0,0.2,0,0.3-0.1,0.4c-0.1,0.1-0.2,0.2-0.4,0.2c-0.2,0-0.3-0.1-0.4-0.2C64.5,34.1,64.4,33.9,64.4,33.8z M65.5,41.2h-0.9v-5.6h0.9
			V41.2z"/>
		<path class="st0" d="M70.6,37.5c0-0.5-0.1-0.8-0.4-1s-0.6-0.3-1-0.3c-0.3,0-0.7,0-1,0.1c-0.3,0.1-0.6,0.2-0.8,0.3l-0.2-0.6
			c0.2-0.1,0.5-0.2,0.8-0.3c0.3-0.1,0.7-0.2,1.1-0.2c0.7,0,1.3,0.2,1.6,0.5c0.3,0.4,0.5,0.9,0.5,1.5v3.7h-0.7l-0.2-1
			c-0.1,0.1-0.2,0.3-0.3,0.4c-0.1,0.1-0.2,0.2-0.4,0.3c-0.2,0.1-0.3,0.2-0.5,0.2c-0.2,0.1-0.4,0.1-0.7,0.1c-0.2,0-0.5,0-0.7-0.1
			c-0.2-0.1-0.4-0.2-0.6-0.3c-0.2-0.1-0.3-0.3-0.4-0.5c-0.1-0.2-0.1-0.5-0.1-0.7c0-0.6,0.2-1.1,0.7-1.4c0.4-0.3,1-0.5,1.8-0.5h1.2
			V37.5z M70.6,38.3h-1.2c-0.5,0-0.9,0.1-1.2,0.3c-0.3,0.2-0.4,0.5-0.4,0.9c0,0.3,0.1,0.6,0.3,0.7c0.2,0.2,0.4,0.3,0.7,0.3
			c0.3,0,0.5-0.1,0.7-0.2s0.4-0.2,0.6-0.4c0.2-0.2,0.3-0.4,0.4-0.6s0.1-0.4,0.1-0.6V38.3z"/>
		<path class="st0" d="M74.2,39.6c0,0.3,0,0.5,0.1,0.7c0.1,0.2,0.3,0.2,0.6,0.2c0.2,0,0.3,0,0.5-0.1c0.2,0,0.3-0.1,0.4-0.2l0.2,0.6
			c-0.2,0.1-0.3,0.2-0.5,0.2s-0.4,0.1-0.7,0.1c-0.5,0-0.9-0.1-1.1-0.4s-0.3-0.7-0.3-1.2v-3.4h-0.9v-0.7h0.9l0.2-1.6h0.6v1.6h1.7v0.7
			h-1.7V39.6z"/>
		<path class="st0" d="M77.1,33.8c0-0.2,0.1-0.3,0.2-0.4c0.1-0.1,0.2-0.2,0.4-0.2c0.2,0,0.4,0.1,0.4,0.2c0.1,0.1,0.1,0.3,0.1,0.4
			c0,0.2,0,0.3-0.1,0.4c-0.1,0.1-0.2,0.2-0.4,0.2c-0.2,0-0.3-0.1-0.4-0.2C77.1,34.1,77.1,33.9,77.1,33.8z M78.1,41.2h-0.9v-5.6h0.9
			V41.2z"/>
		<path class="st0" d="M81.3,41.2l-2.1-5.6h0.9l1,2.9c0.1,0.3,0.2,0.6,0.3,0.9c0.1,0.3,0.2,0.6,0.3,0.9h0c0.1-0.3,0.2-0.6,0.3-0.9
			c0.1-0.3,0.2-0.6,0.3-0.9l1-2.9h0.9l-2.1,5.6H81.3z"/>
		<path class="st0" d="M85.7,38.7c0,0.6,0.2,1,0.6,1.4c0.3,0.3,0.8,0.5,1.4,0.5c0.3,0,0.5,0,0.8-0.1c0.3-0.1,0.5-0.1,0.7-0.2
			l0.2,0.6c-0.2,0.1-0.5,0.2-0.8,0.3c-0.3,0.1-0.6,0.1-1,0.1c-0.5,0-0.9-0.1-1.2-0.2c-0.3-0.1-0.6-0.3-0.8-0.6s-0.4-0.6-0.5-0.9
			c-0.1-0.4-0.2-0.8-0.2-1.2c0-0.4,0.1-0.8,0.2-1.2c0.1-0.4,0.3-0.7,0.5-0.9c0.2-0.3,0.5-0.5,0.8-0.6c0.3-0.1,0.7-0.2,1.1-0.2
			c0.7,0,1.3,0.2,1.7,0.6c0.4,0.4,0.6,1,0.6,1.7c0,0.2,0,0.4,0,0.5c0,0.2-0.1,0.3-0.1,0.5H85.7z M87.5,36.1c-0.3,0-0.5,0.1-0.8,0.2
			s-0.4,0.2-0.5,0.4c-0.1,0.2-0.2,0.4-0.3,0.6c-0.1,0.2-0.1,0.5-0.1,0.8h3.1c0,0,0-0.1,0-0.2c0-0.1,0-0.2,0-0.2
			c0-0.5-0.1-0.9-0.3-1.2C88.3,36.2,88,36.1,87.5,36.1z"/>
		<path class="st0" d="M98.8,41.2h-0.7l-0.2-1c-0.2,0.3-0.4,0.6-0.7,0.8c-0.3,0.2-0.7,0.3-1.1,0.3c-0.3,0-0.7-0.1-0.9-0.2
			c-0.3-0.1-0.5-0.3-0.7-0.6c-0.2-0.2-0.4-0.5-0.5-0.9s-0.2-0.8-0.2-1.3c0-0.4,0.1-0.8,0.2-1.2c0.1-0.4,0.3-0.7,0.5-0.9
			c0.2-0.3,0.5-0.5,0.8-0.6c0.3-0.1,0.6-0.2,1-0.2c0.2,0,0.4,0,0.6,0.1c0.2,0.1,0.4,0.1,0.5,0.2c0.1,0.1,0.3,0.2,0.4,0.3
			c0.1,0.1,0.2,0.2,0.3,0.4v-3.1h0.9V41.2z M97.9,37.2c-0.2-0.3-0.4-0.6-0.7-0.7c-0.3-0.2-0.6-0.3-0.9-0.3c-0.5,0-0.9,0.2-1.2,0.5
			c-0.3,0.3-0.5,0.9-0.5,1.6c0,0.4,0,0.7,0.1,1c0.1,0.3,0.2,0.5,0.4,0.7c0.2,0.2,0.3,0.3,0.5,0.4c0.2,0.1,0.4,0.1,0.6,0.1
			c0.2,0,0.5,0,0.7-0.2c0.2-0.1,0.4-0.2,0.5-0.4c0.2-0.2,0.3-0.4,0.4-0.6c0.1-0.2,0.1-0.5,0.1-0.8V37.2z"/>
		<path class="st0" d="M101.1,38.7c0,0.6,0.2,1,0.6,1.4s0.8,0.5,1.4,0.5c0.3,0,0.5,0,0.8-0.1c0.3-0.1,0.5-0.1,0.7-0.2l0.2,0.6
			c-0.2,0.1-0.5,0.2-0.8,0.3c-0.3,0.1-0.6,0.1-1,0.1c-0.5,0-0.9-0.1-1.2-0.2c-0.3-0.1-0.6-0.3-0.8-0.6c-0.2-0.3-0.4-0.6-0.5-0.9
			c-0.1-0.4-0.2-0.8-0.2-1.2c0-0.4,0.1-0.8,0.2-1.2c0.1-0.4,0.3-0.7,0.5-0.9c0.2-0.3,0.5-0.5,0.8-0.6c0.3-0.1,0.7-0.2,1.1-0.2
			c0.7,0,1.3,0.2,1.7,0.6s0.6,1,0.6,1.7c0,0.2,0,0.4,0,0.5c0,0.2-0.1,0.3-0.1,0.5H101.1z M102.8,36.1c-0.3,0-0.5,0.1-0.8,0.2
			s-0.4,0.2-0.5,0.4c-0.1,0.2-0.2,0.4-0.3,0.6c-0.1,0.2-0.1,0.5-0.1,0.8h3.1c0,0,0-0.1,0-0.2c0-0.1,0-0.2,0-0.2
			c0-0.5-0.1-0.9-0.3-1.2C103.7,36.2,103.3,36.1,102.8,36.1z"/>
		<path class="st0" d="M110.4,41.6c0,0.3,0,0.6-0.1,0.8s-0.1,0.4-0.2,0.6c-0.1,0.2-0.3,0.3-0.5,0.4c-0.2,0.1-0.5,0.1-0.8,0.1
			c-0.2,0-0.3,0-0.5-0.1c-0.1,0-0.3-0.1-0.4-0.1l0.2-0.7c0.2,0.1,0.4,0.1,0.6,0.1c0.3,0,0.5-0.1,0.6-0.3c0.1-0.2,0.1-0.5,0.1-0.9
			v-6.1h0.9V41.6z M109.3,33.8c0-0.2,0-0.3,0.2-0.4c0.1-0.1,0.2-0.2,0.4-0.2c0.2,0,0.4,0.1,0.5,0.2c0.1,0.1,0.2,0.3,0.2,0.4
			c0,0.2-0.1,0.3-0.2,0.4c-0.1,0.1-0.3,0.2-0.5,0.2c-0.2,0-0.3-0.1-0.4-0.2C109.4,34.1,109.3,33.9,109.3,33.8z"/>
		<path class="st0" d="M111.8,38.3c0-0.4,0.1-0.8,0.2-1.1c0.1-0.4,0.3-0.7,0.5-0.9c0.2-0.3,0.5-0.5,0.8-0.6c0.3-0.1,0.7-0.2,1.2-0.2
			c0.5,0,0.8,0.1,1.2,0.2c0.3,0.1,0.6,0.4,0.8,0.6c0.2,0.3,0.4,0.6,0.5,0.9c0.1,0.4,0.2,0.7,0.2,1.1c0,0.4-0.1,0.8-0.2,1.2
			c-0.1,0.4-0.3,0.7-0.5,0.9c-0.2,0.3-0.5,0.5-0.8,0.6c-0.3,0.1-0.7,0.2-1.2,0.2c-0.5,0-0.8-0.1-1.2-0.2c-0.3-0.1-0.6-0.4-0.8-0.6
			c-0.2-0.3-0.4-0.6-0.5-0.9C111.9,39.1,111.8,38.7,111.8,38.3z M112.7,38.3c0,0.3,0,0.6,0.1,0.9c0.1,0.3,0.2,0.5,0.3,0.7
			c0.1,0.2,0.3,0.4,0.5,0.5c0.2,0.1,0.5,0.2,0.8,0.2c0.3,0,0.6-0.1,0.8-0.2c0.2-0.1,0.4-0.3,0.5-0.5c0.1-0.2,0.3-0.4,0.3-0.7
			c0.1-0.3,0.1-0.6,0.1-0.9c0-0.3,0-0.6-0.1-0.9c-0.1-0.3-0.2-0.5-0.3-0.7c-0.1-0.2-0.3-0.4-0.5-0.5c-0.2-0.1-0.5-0.2-0.8-0.2
			c-0.3,0-0.6,0.1-0.8,0.2c-0.2,0.1-0.4,0.3-0.5,0.5c-0.1,0.2-0.3,0.4-0.3,0.7C112.7,37.7,112.7,38,112.7,38.3z"/>
		<path class="st0" d="M122.3,35.5h0.9v5.6h-0.7l-0.2-1c-0.1,0.1-0.2,0.2-0.3,0.4c-0.1,0.1-0.3,0.3-0.4,0.4
			c-0.2,0.1-0.4,0.2-0.6,0.3c-0.2,0.1-0.5,0.1-0.7,0.1c-0.5,0-1-0.2-1.3-0.5c-0.3-0.4-0.5-0.9-0.5-1.7v-3.5h0.8v3.5
			c0,0.5,0.1,0.8,0.3,1.1c0.2,0.3,0.5,0.4,0.8,0.4c0.2,0,0.4,0,0.6-0.1c0.2-0.1,0.4-0.1,0.5-0.3c0.2-0.1,0.3-0.2,0.4-0.4
			c0.1-0.1,0.2-0.3,0.3-0.4V35.5z"/>
		<path class="st0" d="M125.8,36.5c0.1-0.1,0.2-0.3,0.3-0.4c0.1-0.1,0.2-0.3,0.4-0.4c0.1-0.1,0.3-0.2,0.4-0.3
			c0.2-0.1,0.3-0.1,0.5-0.1c0.2,0,0.4,0,0.5,0.1c0.1,0.1,0.2,0.1,0.2,0.1l-0.2,0.9c-0.2-0.1-0.4-0.2-0.7-0.2c-0.3,0-0.6,0.1-0.9,0.3
			c-0.3,0.2-0.5,0.4-0.6,0.8v3.9h-0.9v-5.6h0.7L125.8,36.5z"/>
		<path class="st0" d="M130.1,41.2h-0.9v-5.6h0.7l0.2,0.9c0.1-0.1,0.2-0.2,0.3-0.3c0.1-0.1,0.3-0.2,0.4-0.3c0.2-0.1,0.4-0.2,0.6-0.2
			c0.2-0.1,0.4-0.1,0.7-0.1c0.6,0,1.1,0.2,1.4,0.6s0.5,0.9,0.5,1.6v3.5h-0.9v-3.5c0-0.4-0.1-0.8-0.3-1c-0.2-0.3-0.5-0.4-0.9-0.4
			c-0.4,0-0.8,0.1-1.1,0.3c-0.3,0.2-0.6,0.4-0.8,0.7V41.2z"/>
		<path class="st0" d="M139,37.5c0-0.5-0.1-0.8-0.4-1c-0.2-0.2-0.6-0.3-1-0.3c-0.4,0-0.7,0-1,0.1c-0.3,0.1-0.6,0.2-0.8,0.3l-0.2-0.6
			c0.2-0.1,0.5-0.2,0.8-0.3c0.3-0.1,0.7-0.2,1.1-0.2c0.7,0,1.3,0.2,1.6,0.5c0.4,0.4,0.5,0.9,0.5,1.5v3.7h-0.7l-0.2-1
			c-0.1,0.1-0.2,0.3-0.3,0.4c-0.1,0.1-0.2,0.2-0.4,0.3c-0.2,0.1-0.3,0.2-0.5,0.2c-0.2,0.1-0.4,0.1-0.7,0.1c-0.2,0-0.5,0-0.7-0.1
			c-0.2-0.1-0.4-0.2-0.6-0.3c-0.2-0.1-0.3-0.3-0.4-0.5c-0.1-0.2-0.1-0.5-0.1-0.7c0-0.6,0.2-1.1,0.7-1.4c0.4-0.3,1-0.5,1.8-0.5h1.2
			V37.5z M139,38.3h-1.2c-0.5,0-0.9,0.1-1.2,0.3s-0.4,0.5-0.4,0.9c0,0.3,0.1,0.6,0.3,0.7c0.2,0.2,0.4,0.3,0.7,0.3
			c0.3,0,0.5-0.1,0.7-0.2c0.2-0.1,0.4-0.2,0.6-0.4c0.2-0.2,0.3-0.4,0.4-0.6s0.1-0.4,0.1-0.6V38.3z"/>
		<path class="st0" d="M142.5,41.2h-0.9v-7.9h0.9V41.2z"/>
		<path class="st0" d="M144.2,33.8c0-0.2,0-0.3,0.2-0.4c0.1-0.1,0.2-0.2,0.4-0.2c0.2,0,0.4,0.1,0.4,0.2c0.1,0.1,0.1,0.3,0.1,0.4
			c0,0.2,0,0.3-0.1,0.4c-0.1,0.1-0.2,0.2-0.4,0.2c-0.2,0-0.3-0.1-0.4-0.2C144.3,34.1,144.2,33.9,144.2,33.8z M145.2,41.2h-0.9v-5.6
			h0.9V41.2z"/>
		<path class="st0" d="M148.5,40.6c0.5,0,0.8-0.1,1-0.3c0.2-0.2,0.3-0.4,0.3-0.6c0-0.3-0.1-0.5-0.4-0.7c-0.3-0.2-0.6-0.3-1-0.4
			c-0.2-0.1-0.5-0.2-0.7-0.2c-0.2-0.1-0.4-0.2-0.5-0.3c-0.2-0.1-0.3-0.3-0.4-0.5c-0.1-0.2-0.1-0.4-0.1-0.6c0-0.5,0.2-0.8,0.5-1.1
			c0.4-0.3,0.8-0.4,1.5-0.4c0.3,0,0.6,0,0.9,0.1c0.3,0.1,0.6,0.1,0.8,0.3l-0.2,0.7c-0.2-0.1-0.4-0.2-0.7-0.2
			c-0.2-0.1-0.5-0.1-0.8-0.1c-0.4,0-0.7,0.1-0.9,0.2c-0.2,0.1-0.3,0.3-0.3,0.6c0,0.3,0.1,0.5,0.3,0.6c0.2,0.1,0.5,0.3,0.8,0.4
			c0.6,0.2,1.1,0.4,1.4,0.7c0.3,0.3,0.5,0.6,0.5,1.1c0,0.5-0.2,0.9-0.5,1.1c-0.3,0.3-0.9,0.4-1.6,0.4c-0.4,0-0.7,0-1-0.1
			c-0.3-0.1-0.6-0.2-0.8-0.3l0.2-0.6c0.2,0.1,0.4,0.2,0.7,0.2C147.9,40.6,148.2,40.6,148.5,40.6z"/>
		<path class="st0" d="M153,41.2h-0.9v-5.6h0.7l0.2,0.9c0.1-0.1,0.2-0.2,0.3-0.4c0.1-0.1,0.2-0.2,0.4-0.3c0.1-0.1,0.3-0.2,0.5-0.2
			c0.2-0.1,0.4-0.1,0.6-0.1c0.4,0,0.7,0.1,0.9,0.3c0.2,0.2,0.4,0.5,0.5,0.8c0.2-0.3,0.4-0.6,0.8-0.8c0.3-0.2,0.7-0.3,1.1-0.3
			c0.6,0,1,0.2,1.2,0.6c0.3,0.4,0.4,0.9,0.4,1.5v3.7h-0.9v-3.7c0-0.4-0.1-0.7-0.2-0.9c-0.1-0.2-0.4-0.3-0.7-0.3
			c-0.2,0-0.3,0-0.5,0.1c-0.2,0.1-0.3,0.1-0.4,0.2c-0.1,0.1-0.3,0.2-0.4,0.4c-0.1,0.1-0.2,0.3-0.3,0.4v3.9h-0.9v-3.7
			c0-0.4-0.1-0.7-0.2-0.9c-0.1-0.2-0.4-0.3-0.7-0.3c-0.3,0-0.7,0.1-0.9,0.3c-0.3,0.2-0.5,0.4-0.6,0.7V41.2z"/>
		<path class="st0" d="M161.9,38.7c0,0.6,0.2,1,0.6,1.4c0.3,0.3,0.8,0.5,1.4,0.5c0.3,0,0.5,0,0.8-0.1c0.3-0.1,0.5-0.1,0.7-0.2
			l0.2,0.6c-0.2,0.1-0.5,0.2-0.8,0.3c-0.3,0.1-0.6,0.1-1,0.1c-0.5,0-0.9-0.1-1.2-0.2c-0.3-0.1-0.6-0.3-0.8-0.6
			c-0.2-0.3-0.4-0.6-0.5-0.9c-0.1-0.4-0.2-0.8-0.2-1.2c0-0.4,0-0.8,0.2-1.2c0.1-0.4,0.3-0.7,0.5-0.9c0.2-0.3,0.5-0.5,0.8-0.6
			c0.3-0.1,0.7-0.2,1.1-0.2c0.7,0,1.3,0.2,1.7,0.6c0.4,0.4,0.6,1,0.6,1.7c0,0.2,0,0.4,0,0.5c0,0.2-0.1,0.3-0.1,0.5H161.9z
			 M163.6,36.1c-0.3,0-0.5,0.1-0.8,0.2c-0.2,0.1-0.4,0.2-0.5,0.4c-0.1,0.2-0.2,0.4-0.3,0.6c-0.1,0.2-0.1,0.5-0.1,0.8h3.1
			c0,0,0-0.1,0-0.2c0-0.1,0-0.2,0-0.2c0-0.5-0.1-0.9-0.3-1.2C164.5,36.2,164.1,36.1,163.6,36.1z"/>
		<path class="st0" d="M171.2,41.2h-0.9v-7.9h0.9V41.2z"/>
		<path class="st0" d="M172.6,38.3c0-0.4,0.1-0.8,0.2-1.1c0.1-0.4,0.3-0.7,0.5-0.9c0.2-0.3,0.5-0.5,0.8-0.6c0.3-0.1,0.7-0.2,1.2-0.2
			c0.5,0,0.8,0.1,1.2,0.2c0.3,0.1,0.6,0.4,0.8,0.6c0.2,0.3,0.4,0.6,0.5,0.9c0.1,0.4,0.2,0.7,0.2,1.1c0,0.4-0.1,0.8-0.2,1.2
			s-0.3,0.7-0.5,0.9c-0.2,0.3-0.5,0.5-0.8,0.6c-0.3,0.1-0.7,0.2-1.2,0.2c-0.5,0-0.8-0.1-1.2-0.2c-0.3-0.1-0.6-0.4-0.8-0.6
			c-0.2-0.3-0.4-0.6-0.5-0.9C172.7,39.1,172.6,38.7,172.6,38.3z M173.5,38.3c0,0.3,0,0.6,0.1,0.9c0.1,0.3,0.2,0.5,0.3,0.7
			c0.1,0.2,0.3,0.4,0.5,0.5c0.2,0.1,0.5,0.2,0.8,0.2c0.3,0,0.6-0.1,0.8-0.2c0.2-0.1,0.4-0.3,0.5-0.5c0.1-0.2,0.3-0.4,0.3-0.7
			c0.1-0.3,0.1-0.6,0.1-0.9c0-0.3,0-0.6-0.1-0.9c-0.1-0.3-0.2-0.5-0.3-0.7c-0.1-0.2-0.3-0.4-0.5-0.5c-0.2-0.1-0.5-0.2-0.8-0.2
			c-0.3,0-0.6,0.1-0.8,0.2c-0.2,0.1-0.4,0.3-0.5,0.5c-0.1,0.2-0.3,0.4-0.3,0.7C173.5,37.7,173.5,38,173.5,38.3z"/>
		<path class="st0" d="M181.6,36.1c-0.3,0-0.6,0.1-0.8,0.2c-0.2,0.1-0.4,0.3-0.6,0.5c-0.2,0.2-0.3,0.4-0.3,0.7
			c-0.1,0.3-0.1,0.6-0.1,0.9c0,0.3,0,0.6,0.1,0.9c0.1,0.3,0.2,0.5,0.3,0.7c0.2,0.2,0.4,0.4,0.6,0.5c0.2,0.1,0.5,0.2,0.9,0.2
			c0.2,0,0.5,0,0.7-0.1c0.2-0.1,0.5-0.1,0.7-0.3l0.2,0.6c-0.2,0.1-0.5,0.2-0.8,0.3c-0.3,0.1-0.6,0.1-0.9,0.1c-0.5,0-0.9-0.1-1.2-0.2
			c-0.3-0.1-0.6-0.4-0.8-0.6c-0.2-0.3-0.4-0.6-0.5-0.9c-0.1-0.4-0.2-0.7-0.2-1.2c0-0.4,0.1-0.8,0.2-1.2c0.1-0.4,0.3-0.7,0.5-0.9
			c0.2-0.3,0.5-0.5,0.9-0.6c0.3-0.1,0.7-0.2,1.2-0.2c0.3,0,0.6,0,0.9,0.1c0.3,0.1,0.5,0.2,0.7,0.3l-0.2,0.7
			c-0.2-0.1-0.4-0.2-0.7-0.2C182.1,36.2,181.9,36.1,181.6,36.1z"/>
		<path class="st0" d="M187.8,37.5c0-0.5-0.1-0.8-0.4-1c-0.2-0.2-0.6-0.3-1-0.3c-0.4,0-0.7,0-1,0.1c-0.3,0.1-0.6,0.2-0.8,0.3
			l-0.2-0.6c0.2-0.1,0.5-0.2,0.8-0.3c0.3-0.1,0.7-0.2,1.1-0.2c0.7,0,1.3,0.2,1.6,0.5c0.4,0.4,0.5,0.9,0.5,1.5v3.7H188l-0.2-1
			c-0.1,0.1-0.2,0.3-0.3,0.4c-0.1,0.1-0.2,0.2-0.4,0.3c-0.2,0.1-0.3,0.2-0.5,0.2c-0.2,0.1-0.4,0.1-0.7,0.1c-0.2,0-0.5,0-0.7-0.1
			c-0.2-0.1-0.4-0.2-0.6-0.3c-0.2-0.1-0.3-0.3-0.4-0.5c-0.1-0.2-0.1-0.5-0.1-0.7c0-0.6,0.2-1.1,0.7-1.4c0.4-0.3,1-0.5,1.8-0.5h1.2
			V37.5z M187.8,38.3h-1.2c-0.5,0-0.9,0.1-1.2,0.3s-0.4,0.5-0.4,0.9c0,0.3,0.1,0.6,0.3,0.7c0.2,0.2,0.4,0.3,0.7,0.3
			c0.3,0,0.5-0.1,0.7-0.2c0.2-0.1,0.4-0.2,0.6-0.4c0.2-0.2,0.3-0.4,0.4-0.6s0.1-0.4,0.1-0.6V38.3z"/>
		<path class="st0" d="M191.3,41.2h-0.9v-7.9h0.9V41.2z"/>
	</g>
	<line class="st1" x1="47.8" y1="28.1" x2="191.8" y2="28.1"/>
</g>
<g>
	<g>
		<g>
			<path class="st0" d="M210.4,23.8h-0.9v-8h0.8l0,1h0c0.5-0.7,1.4-1.1,2.4-1.1c1.8,0,2.6,1.2,2.6,2.9v5.3h-0.9v-5.3
				c0-1.3-0.6-2.1-1.9-2.1c-1,0-1.8,0.5-2.2,1.1L210.4,23.8L210.4,23.8z"/>
			<path class="st0" d="M217.1,19.8v1.4c0,1.3,0.7,2.1,2.1,2.1c1,0,1.6-0.4,2.1-1.5l0.7,0.2c-0.4,1.3-1.3,1.9-2.7,1.9
				c-1.9,0-2.9-1.1-2.9-2.8v-2.7c0-1.6,1-2.8,2.8-2.8c1.8,0,2.8,1.2,2.8,2.8v1.2L217.1,19.8L217.1,19.8z M217.1,19.1h4v-0.7
				c0-1.2-0.7-2-2-2c-1.3,0-2,0.9-2,2.1C217.1,18.5,217.1,19.1,217.1,19.1z"/>
			<path class="st0" d="M227.2,16.8L227.2,16.8l-2,7h-1l-2.3-8h0.9l1.9,7h0l2-6.9h0.9l2,7.1h0l1.9-7h0.9l-2.4,8h-1L227.2,16.8z"/>
			<path class="st0" d="M232.6,22.3l0.6-0.4c0.4,1,1.2,1.3,2,1.3c1.1,0,1.7-0.6,1.7-1.6c0-2.1-4.3-1.3-4.3-3.9
				c0-1.1,0.8-2.1,2.5-2.1c1.1,0,2,0.5,2.5,1.6l-0.6,0.3c-0.4-0.8-1-1.2-1.9-1.2c-1.1,0-1.7,0.6-1.7,1.3c0,2,4.3,1.2,4.3,3.9
				c0,1.4-1,2.3-2.5,2.3C234.1,24,233.2,23.5,232.6,22.3z"/>
			<path class="st0" d="M246.2,17.7c-0.4-0.8-1.1-1.3-2-1.3c-1.3,0-2,0.8-2,2.1v2.6c0,1.3,0.7,2.1,2,2.1c1,0,1.6-0.4,2-1.3l0.7,0.2
				c-0.4,1.1-1.3,1.8-2.7,1.8c-1.8,0-2.8-1.2-2.8-2.8v-2.6c0-1.6,1-2.8,2.8-2.8c1.2,0,2.1,0.7,2.6,1.7L246.2,17.7z"/>
			<path class="st0" d="M248,19.8v1.4c0,1.3,0.7,2.1,2.1,2.1c1,0,1.6-0.4,2.1-1.5l0.7,0.2c-0.4,1.3-1.3,1.9-2.7,1.9
				c-1.9,0-2.9-1.1-2.9-2.8v-2.7c0-1.6,1-2.8,2.8-2.8c1.8,0,2.8,1.2,2.8,2.8v1.2L248,19.8L248,19.8L248,19.8z M248,19.1h4v-0.7
				c0-1.2-0.7-2-2-2c-1.3,0-2,0.9-2,2.1C248,18.5,248,19.1,248,19.1z"/>
			<path class="st0" d="M254.6,23.8h-0.9v-8h0.8l0,1h0c0.5-0.7,1.4-1.1,2.4-1.1c1.8,0,2.6,1.2,2.6,2.9v5.3h-0.9v-5.3
				c0-1.3-0.6-2.1-1.9-2.1c-1,0-1.8,0.5-2.2,1.1L254.6,23.8L254.6,23.8z"/>
			<path class="st0" d="M264.2,16.6h-2.2v5.3c0,1,0.5,1.4,1.2,1.4c0.3,0,0.6-0.1,0.8-0.2l0.1,0.6c-0.3,0.2-0.7,0.3-1.3,0.3
				c-1.2,0-1.8-0.7-1.8-2.1v-5.2l-1.1-0.2v-0.5l1.2-0.1l0.2-2.3h0.7v2.3h2.2L264.2,16.6L264.2,16.6z"/>
			<path class="st0" d="M268.9,16.8c-0.2-0.1-0.5-0.2-0.8-0.2c-1.3,0-2,1.1-2.1,2.7v4.6h-0.9v-8h0.8l0.1,1.6h0
				c0.4-1.2,1.2-1.8,2.2-1.8c0.3,0,0.7,0.1,1,0.2L268.9,16.8z"/>
			<path class="st0" d="M269.9,19.8v1.4c0,1.3,0.7,2.1,2.1,2.1c1,0,1.6-0.4,2.1-1.5l0.7,0.2c-0.4,1.3-1.3,1.9-2.7,1.9
				c-1.9,0-2.9-1.1-2.9-2.8v-2.7c0-1.6,1-2.8,2.8-2.8c1.8,0,2.8,1.2,2.8,2.8v1.2L269.9,19.8L269.9,19.8L269.9,19.8z M269.9,19.1h4
				v-0.7c0-1.2-0.7-2-2-2c-1.3,0-2,0.9-2,2.1V19.1z"/>
		</g>
	</g>
	<g>
		<g>
			<path class="st0" d="M214.3,36.2c-0.4-0.8-1.1-1.3-2-1.3c-1.3,0-2,0.8-2,2.1v2.6c0,1.3,0.7,2.1,2,2.1c1,0,1.6-0.4,2-1.3l0.7,0.2
				c-0.4,1.1-1.3,1.8-2.7,1.8c-1.8,0-2.8-1.2-2.8-2.8V37c0-1.6,1-2.8,2.8-2.8c1.2,0,2.1,0.7,2.6,1.7L214.3,36.2z"/>
			<path class="st0" d="M216.2,38.2v1.4c0,1.3,0.7,2.1,2.1,2.1c1,0,1.6-0.4,2.1-1.5l0.7,0.2c-0.4,1.3-1.3,1.9-2.7,1.9
				c-1.9,0-2.9-1.1-2.9-2.8v-2.7c0-1.6,1-2.8,2.8-2.8c1.8,0,2.8,1.2,2.8,2.8v1.2L216.2,38.2L216.2,38.2z M216.2,37.6h4v-0.7
				c0-1.2-0.7-2-2-2c-1.3,0-2,0.9-2,2.1V37.6z"/>
			<path class="st0" d="M222.7,42.3h-0.9v-8h0.8l0,1h0c0.5-0.7,1.4-1.1,2.4-1.1c1.8,0,2.6,1.2,2.6,2.9v5.3h-0.9v-5.3
				c0-1.3-0.6-2.1-1.9-2.1c-1,0-1.8,0.5-2.2,1.1C222.7,36.1,222.7,42.3,222.7,42.3z"/>
			<path class="st0" d="M232.4,35.1h-2.2v5.3c0,1,0.5,1.4,1.2,1.4c0.3,0,0.6-0.1,0.8-0.2l0.1,0.6c-0.3,0.2-0.7,0.3-1.3,0.3
				c-1.2,0-1.8-0.7-1.8-2.1v-5.2l-1.1-0.2v-0.5l1.2-0.1l0.2-2.3h0.7v2.3h2.2L232.4,35.1L232.4,35.1z"/>
			<path class="st0" d="M237,35.3c-0.2-0.1-0.5-0.2-0.8-0.2c-1.3,0-2,1.1-2.1,2.7v4.6h-0.9v-8h0.8L234,36h0c0.4-1.2,1.2-1.8,2.2-1.8
				c0.3,0,0.7,0.1,1,0.2L237,35.3z"/>
			<path class="st0" d="M238.1,38.2v1.4c0,1.3,0.7,2.1,2.1,2.1c1,0,1.6-0.4,2.1-1.5l0.7,0.2c-0.4,1.3-1.3,1.9-2.7,1.9
				c-1.9,0-2.9-1.1-2.9-2.8v-2.7c0-1.6,1-2.8,2.8-2.8c1.8,0,2.8,1.2,2.8,2.8v1.2L238.1,38.2L238.1,38.2z M238.1,37.6h4v-0.7
				c0-1.2-0.7-2-2-2c-1.3,0-2,0.9-2,2.1V37.6z"/>
			<path class="st0" d="M251.4,35.2L251.4,35.2l0-4.8h0.9v11.8h-0.8l-0.1-0.9h0c-0.6,0.7-1.4,1-2.4,1c-1.7,0-2.6-1.2-2.6-2.9V37
				c0-1.7,0.9-2.8,2.7-2.8C250,34.2,250.9,34.6,251.4,35.2z M251.5,36.1c-0.4-0.6-1.1-1.1-2.2-1.1c-1.3,0-1.9,0.8-1.9,2.1v2.6
				c0,1.3,0.6,2.1,1.9,2.1c1,0,1.8-0.5,2.2-1.1V36.1z"/>
			<path class="st0" d="M254.3,38.2v1.4c0,1.3,0.7,2.1,2.1,2.1c1,0,1.6-0.4,2.1-1.5l0.7,0.2c-0.4,1.3-1.3,1.9-2.7,1.9
				c-1.9,0-2.9-1.1-2.9-2.8v-2.7c0-1.6,1-2.8,2.8-2.8c1.8,0,2.8,1.2,2.8,2.8v1.2L254.3,38.2L254.3,38.2z M254.3,37.6h4v-0.7
				c0-1.2-0.7-2-2-2c-1.3,0-2,0.9-2,2.1V37.6z"/>
			<path class="st0" d="M263.9,42.3h-0.9v-8h0.8l0,1h0c0.5-0.7,1.4-1.1,2.4-1.1c1.8,0,2.6,1.2,2.6,2.9v5.3h-0.9v-5.3
				c0-1.3-0.6-2.1-1.9-2.1c-1,0-1.8,0.5-2.2,1.1L263.9,42.3L263.9,42.3z"/>
			<path class="st0" d="M275.7,39.7c0,1.6-1.1,2.8-3,2.8c-1.9,0-2.9-1.1-2.9-2.8V37c0-1.6,1-2.8,2.9-2.8c1.9,0,3,1.1,3,2.8V39.7z
				 M270.7,39.7c0,1.3,0.7,2.1,2.1,2.1s2.1-0.8,2.1-2.1V37c0-1.2-0.7-2.1-2.1-2.1s-2.1,0.9-2.1,2.1V39.7z"/>
			<path class="st0" d="M287,42.3h-1l-3-8h1l2.4,7.1h0l2.4-7.1h1L287,42.3z"/>
			<path class="st0" d="M281.7,34.4h0.9v8h-0.8l-0.1-0.9l0,0c-0.5,0.7-1.4,1.1-2.4,1.1c-1.7,0-2.6-1.2-2.6-2.9v-5.2h0.9v5.3
				c0,1.3,0.6,2.1,1.9,2.1c1,0,1.8-0.5,2.2-1.1L281.7,34.4L281.7,34.4z"/>
			<path class="st0" d="M291,38.2v1.4c0,1.3,0.7,2.1,2.1,2.1c1,0,1.6-0.4,2.1-1.5l0.7,0.2c-0.4,1.3-1.3,1.9-2.7,1.9
				c-1.9,0-2.9-1.1-2.9-2.8v-2.7c0-1.6,1-2.8,2.8-2.8c1.8,0,2.8,1.2,2.8,2.8v1.2L291,38.2L291,38.2z M291,37.6h4v-0.7
				c0-1.2-0.7-2-2-2c-1.3,0-2,0.9-2,2.1L291,37.6L291,37.6z"/>
			<path class="st0" d="M297.7,30.4v11.8h-0.9V30.4H297.7z"/>
			<path class="st0" d="M300.4,30.4v11.8h-0.9V30.4H300.4z"/>
			<path class="st0" d="M302.6,38.2v1.4c0,1.3,0.7,2.1,2.1,2.1c1,0,1.6-0.4,2.1-1.5l0.7,0.2c-0.4,1.3-1.3,1.9-2.7,1.9
				c-1.9,0-2.9-1.1-2.9-2.8v-2.7c0-1.6,1-2.8,2.8-2.8c1.8,0,2.8,1.2,2.8,2.8v1.2L302.6,38.2L302.6,38.2z M302.6,37.6h4v-0.7
				c0-1.2-0.7-2-2-2c-1.3,0-2,0.9-2,2.1V37.6L302.6,37.6z"/>
			<path class="st0" d="M307.8,40.8l0.6-0.4c0.4,1,1.2,1.3,2,1.3c1.1,0,1.7-0.6,1.7-1.6c0-2.1-4.3-1.3-4.3-3.9
				c0-1.1,0.8-2.1,2.5-2.1c1.1,0,2,0.5,2.5,1.6l-0.6,0.3c-0.4-0.8-1-1.2-1.9-1.2c-1.1,0-1.7,0.6-1.7,1.3c0,2,4.3,1.2,4.3,3.9
				c0,1.4-1,2.3-2.5,2.3C309.3,42.5,308.3,42,307.8,40.8z"/>
		</g>
	</g>
	<g>
		<rect x="209.5" y="27.7" class="st0" width="103.5" height="1"/>
	</g>
</g>
</svg>
