<?xml version="1.0" encoding="utf-8"?>
<!-- Generator: Adobe Illustrator 24.0.0, SVG Export Plug-In . SVG Version: 6.00 Build 0)  -->
<svg version="1.1" id="Layer_1" xmlns="http://www.w3.org/2000/svg" xmlns:xlink="http://www.w3.org/1999/xlink" x="0px" y="0px" width="720px" height="40px" viewBox="0 0 720 40" enable-background="new 0 0 720 40" xml:space="preserve">
<g>
	<polygon points="380.82,19.8 377.82,19.8 377.82,18.2 385.52,18.2 385.52,19.8 382.62,19.8 382.62,27.3 380.82,27.3 	"/>
	<polygon points="387.12,18.2 388.92,18.2 388.92,21.7 393.02,21.7 393.02,18.2 394.82,18.2 394.82,27.3 393.02,27.3 393.02,23.4 
		388.92,23.4 388.92,27.3 387.12,27.3 	"/>
	<polygon points="397.02,18.2 403.02,18.2 403.02,19.8 398.82,19.8 398.82,21.8 402.12,21.8 402.12,23.4 398.82,23.4 398.82,25.7 
		403.02,25.7 403.02,27.3 397.02,27.3 	"/>
	<path d="M407.82,22.7c0-3.9,1.6-4.7,4.1-4.7c1.5,0,2.2,0.2,2.6,0.3l-0.3,1.6c-0.7-0.1-1.3-0.2-2.3-0.2c-1.6,0-2.1,0.6-2.1,2.7v0.7
		c0,2,0.6,2.8,2.2,2.8c1.2,0,2-0.2,2.3-0.3l0.3,1.5c-0.5,0.1-1.2,0.3-2.6,0.3C409.32,27.4,407.82,26.7,407.82,22.7"/>
	<path d="M417.42,27.3h-1.8l3.5-9.1h1.7l3.5,9.1h-1.9l-0.6-1.6h-3.8L417.42,27.3z M419.92,20.6l-1.3,3.6h2.7L419.92,20.6z"/>
	<polygon points="425.62,18.2 427.42,18.2 431.42,24 431.42,18.2 433.12,18.2 433.12,27.3 431.62,27.3 427.32,21.1 427.32,27.3 
		425.62,27.3 	"/>
	<path d="M436.22,27.3h-1.8l3.5-9.1h1.7l3.5,9.1h-1.9l-0.6-1.6h-3.8L436.22,27.3z M438.72,20.6l-1.3,3.6h2.7L438.72,20.6z"/>
	<path d="M444.42,18.2h3.4c2.7,0,4.1,0.6,4.1,4.5s-1.4,4.5-4.1,4.5h-3.4V18.2z M447.82,25.8c1.6,0,2.2-0.7,2.2-2.8v-0.6
		c0-2.1-0.6-2.8-2.2-2.8h-1.6v6.1L447.82,25.8L447.82,25.8z"/>
	<rect x="453.52" y="18.2" width="1.8" height="9.1"/>
	<path d="M458.52,27.3h-1.8l3.5-9.1h1.7l3.5,9.1h-1.9l-0.6-1.6h-3.8L458.52,27.3z M461.02,20.6l-1.3,3.6h2.7L461.02,20.6z"/>
	<polygon points="466.62,18.2 468.42,18.2 472.42,24 472.42,18.2 474.22,18.2 474.22,27.3 472.62,27.3 468.42,21.1 468.42,27.3 
		466.62,27.3 	"/>
	<path d="M479.62,18.2h3.7c2.2,0,3.3,0.6,3.3,3.1c0,2.6-1.1,3.2-3.4,3.2h-1.9v2.8h-1.8L479.62,18.2L479.62,18.2z M483.32,23
		c0.8,0,1.5-0.1,1.5-1.7s-0.7-1.7-1.6-1.7h-1.9V23H483.32z"/>
	<path d="M496.02,27.3h-2.1l-2-2.9h-1.7v2.9h-1.8v-9.1h3.6c2.2,0,3.3,0.5,3.3,3.1c0,1.8-0.6,2.4-1.6,2.7L496.02,27.3z M492.02,22.9
		c1,0,1.5-0.2,1.5-1.6s-0.6-1.6-1.6-1.6h-1.8v3.2H492.02z"/>
	<polygon points="497.62,18.2 503.62,18.2 503.62,19.8 499.42,19.8 499.42,21.8 502.72,21.8 502.72,23.4 499.42,23.4 499.42,25.7 
		503.62,25.7 503.62,27.3 497.62,27.3 	"/>
	<path d="M505.32,27l0.3-1.5c0.4,0.1,2,0.3,2.9,0.3c1.3,0,1.7-0.2,1.7-1.1c0-0.8-0.3-0.9-1.8-1.2c-2.5-0.5-3.1-0.9-3.1-2.8
		s1.2-2.5,3.3-2.5c1.1,0,2.6,0.2,3,0.3l-0.3,1.5c-0.6-0.1-1.7-0.3-2.8-0.3s-1.4,0.2-1.4,1c0,0.9,0.3,0.9,1.7,1.2
		c2.4,0.5,3.1,0.8,3.1,2.8s-1.1,2.6-3.6,2.6C507.12,27.4,505.72,27.1,505.32,27"/>
	<path d="M513.52,27l0.3-1.5c0.4,0.1,2,0.3,2.9,0.3c1.3,0,1.7-0.2,1.7-1.1c0-0.8-0.3-0.9-1.8-1.2c-2.5-0.5-3.1-0.9-3.1-2.8
		s1.2-2.5,3.3-2.5c1.1,0,2.6,0.2,3,0.3l-0.3,1.5c-0.6-0.1-1.7-0.3-2.8-0.3s-1.4,0.2-1.4,1c0,0.9,0.3,0.9,1.7,1.2
		c2.4,0.5,3.1,0.8,3.1,2.8s-1.1,2.6-3.6,2.6C515.32,27.4,513.92,27.1,513.52,27"/>
	<path d="M525.02,17.7V11h4.7v7.2h-2.7c0.3,1.8,2.7,2.5,2.7,2.5v1C529.72,21.7,525.62,20.9,525.02,17.7"/>
	<path d="M547.32,17.7V11h-4.7v7.2h2.7c-0.3,1.8-2.7,2.5-2.7,2.5v1C542.72,21.7,546.82,20.9,547.32,17.7"/>
	<g>
		<g>
			<g>
				<path d="M538.12,18.3C538.12,18.3,538.12,18.2,538.12,18.3C538.12,18.2,538.22,18.2,538.12,18.3l2.4-1.8l-0.4-0.5l0,0l0,0l0,0
					l0.4-1.2l-1.2,0.3l0,0l0,0l0,0l-0.4-0.6l-1.2,1.2c0,0,0,0-0.1,0c0,0,0,0,0-0.1l0.5-2.6l-0.8,0.5c0,0,0,0-0.1,0l0,0l0,0l-0.9-1.9
					l-0.9,1.9l0,0c0,0,0,0-0.1,0l-0.8-0.5l0.5,2.6v0.1h-0.1l-1.2-1.2l-0.4,0.6l0,0l0,0l0,0l-1.2-0.3l0.5,1.2l0,0l0,0l0,0l-0.5,0.5
					l2.4,1.8l0,0l0,0l0,0l-0.5,0.9l2.1-0.3c0,0,0.1,0,0.1,0.1v1.8h0.5V19c0-0.1,0-0.1,0.1-0.1l2.1,0.3L538.12,18.3L538.12,18.3z"/>
			</g>
		</g>
	</g>
</g>
<g>
	<g>
		<g>
			<rect x="276.43" y="9.3" width="0.7" height="23.8"/>
		</g>
	</g>
	<g>
		<path d="M160.28,11h3.6v0.8h-2.7v1.4h2.4v0.7h-2.4v2.3h-0.9L160.28,11L160.28,11z"/>
		<path d="M167.78,16.2h-0.8v-0.5l0,0c-0.2,0.4-0.7,0.6-1.1,0.6c-1,0-1.4-0.5-1.4-1.5v-2.4h0.8v2.3c0,0.7,0.3,0.9,0.7,0.9
			c0.7,0,0.9-0.4,0.9-1v-2.2h0.8L167.78,16.2L167.78,16.2z"/>
		<path d="M168.68,12.5h0.8V13l0,0c0.3-0.4,0.7-0.7,1.2-0.7c0.8,0,1.3,0.4,1.3,1.3v2.6h-0.8v-2.4c0-0.6-0.3-0.8-0.7-0.8
			c-0.5,0-0.9,0.4-0.9,1v2.2h-0.8L168.68,12.5L168.68,12.5z"/>
		<path d="M176.38,16.2h-0.8v-0.5l0,0c-0.2,0.4-0.7,0.6-1.2,0.6c-1.2,0-1.8-0.9-1.8-2c0-1.4,0.8-2,1.6-2c0.5,0,1,0.2,1.2,0.6l0,0V11
			h0.8L176.38,16.2L176.38,16.2z M174.48,15.7c0.7,0,1.1-0.7,1.1-1.3c0-0.8-0.4-1.3-1-1.3c-0.8,0-1.1,0.7-1.1,1.4
			C173.48,15,173.78,15.7,174.48,15.7z"/>
		<path d="M177.88,14.6c0,0.6,0.3,1.1,1,1.1c0.5,0,0.8-0.2,0.9-0.6h0.8c-0.2,0.8-0.9,1.3-1.7,1.3c-1.2,0-1.8-0.8-1.8-2
			c0-1.1,0.7-2,1.8-2c1.2,0,1.9,1.1,1.8,2.2C180.68,14.6,177.88,14.6,177.88,14.6z M179.88,14c0-0.5-0.4-1-0.9-1c-0.6,0-1,0.4-1,1
			H179.88z"/>
		<path d="M184.88,16.2h-0.8v-0.5l0,0c-0.2,0.4-0.7,0.6-1.2,0.6c-1.2,0-1.8-0.9-1.8-2c0-1.4,0.8-2,1.6-2c0.5,0,1,0.2,1.2,0.6l0,0V11
			h0.8L184.88,16.2L184.88,16.2z M182.98,15.7c0.7,0,1.1-0.7,1.1-1.3c0-0.8-0.4-1.3-1-1.3c-0.8,0-1.1,0.7-1.1,1.4
			C181.98,15,182.28,15.7,182.98,15.7z"/>
		<path d="M187.78,11h0.8v2l0,0c0.2-0.4,0.7-0.6,1.1-0.6c1.2,0,1.8,0.9,1.8,2c0,1-0.5,2-1.6,2c-0.5,0-1.1-0.1-1.3-0.6l0,0v0.5h-0.8
			V11L187.78,11z M189.68,13c-0.7,0-1.1,0.5-1.1,1.3c0,0.7,0.4,1.3,1.1,1.3s1-0.7,1-1.3S190.38,13,189.68,13z"/>
		<path d="M191.78,12.5h0.9l1,2.8l0,0l0.9-2.8h0.9l-1.5,4c-0.3,0.7-0.5,1.3-1.3,1.3c-0.2,0-0.4,0-0.6,0V17c0.1,0,0.3,0.1,0.4,0.1
			c0.4,0,0.5-0.2,0.6-0.5l0.1-0.3L191.78,12.5z"/>
		<path d="M197.58,12.5h0.6v-1.1h0.8v1.1h0.7v0.6h-0.6v2c0,0.3,0,0.5,0.4,0.5c0.1,0,0.2,0,0.3,0v0.6c-0.2,0-0.4,0-0.5,0
			c-0.9,0-1-0.3-1-1V13h-0.6L197.58,12.5L197.58,12.5z"/>
		<path d="M200.48,11h0.8v2l0,0c0.2-0.3,0.6-0.6,1.1-0.6c0.8,0,1.3,0.4,1.3,1.3v2.6h-0.8v-2.4c0-0.6-0.3-0.8-0.7-0.8
			c-0.5,0-0.9,0.4-0.9,1v2.2h-0.8L200.48,11L200.48,11z"/>
		<path d="M205.28,14.6c0,0.6,0.3,1.1,1,1.1c0.5,0,0.8-0.2,0.9-0.6h0.8c-0.2,0.8-0.9,1.3-1.7,1.3c-1.2,0-1.8-0.8-1.8-2
			c0-1.1,0.7-2,1.8-2c1.2,0,1.9,1.1,1.8,2.2C207.98,14.6,205.28,14.6,205.28,14.6z M207.18,14c0-0.5-0.4-1-0.9-1s-1,0.4-1,1H207.18z
			"/>
		<path d="M171.78,23.5h-0.6l-0.1-0.6c-0.5,0.5-0.9,0.7-1.6,0.7c-1.6,0-2.5-1.2-2.5-2.7s0.9-2.7,2.5-2.7c1.1,0,2.1,0.6,2.2,1.8h-0.9
			c-0.1-0.7-0.7-1-1.3-1c-1.1,0-1.6,1-1.6,2s0.5,2,1.6,2c0.9,0,1.4-0.5,1.5-1.4h-1.4v-0.7h2.2L171.78,23.5L171.78,23.5z"/>
		<path d="M172.48,21.6c0-1.2,0.7-2,1.9-2s1.9,0.8,1.9,2s-0.7,2-1.9,2S172.48,22.8,172.48,21.6z M175.48,21.6c0-0.6-0.3-1.3-1.1-1.3
			s-1.1,0.7-1.1,1.3c0,0.7,0.3,1.3,1.1,1.3S175.48,22.3,175.48,21.6z"/>
		<path d="M176.68,19.7h0.9l0.9,2.9l0,0l0.9-2.9h0.9l-1.4,3.8h-0.9L176.68,19.7z"/>
		<path d="M181.38,21.8c0,0.6,0.3,1.1,1,1.1c0.5,0,0.8-0.2,0.9-0.6h0.8c-0.2,0.8-0.9,1.3-1.7,1.3c-1.2,0-1.8-0.8-1.8-2
			c0-1.1,0.7-2,1.8-2c1.2,0,1.9,1.1,1.8,2.2H181.38z M183.38,21.3c0-0.5-0.4-1-0.9-1c-0.6,0-1,0.4-1,1H183.38z"/>
		<path d="M184.78,19.7h0.8v0.7l0,0c0.1-0.4,0.6-0.8,1.1-0.8c0.2,0,0.2,0,0.3,0v0.8c-0.1,0-0.2,0-0.4,0c-0.6,0-1,0.5-1,1.3v1.8h-0.8
			L184.78,19.7L184.78,19.7z"/>
		<path d="M187.48,19.7h0.8v0.5l0,0c0.3-0.4,0.7-0.7,1.2-0.7c0.8,0,1.3,0.4,1.3,1.3v2.6h-0.8V21c0-0.6-0.3-0.8-0.7-0.8
			c-0.5,0-0.9,0.4-0.9,1v2.2h-0.8L187.48,19.7L187.48,19.7z"/>
		<path d="M191.68,19.7h0.8v0.5l0,0c0.3-0.4,0.6-0.6,1.2-0.6c0.5,0,0.9,0.2,1.1,0.6c0.3-0.4,0.6-0.6,1.2-0.6c0.8,0,1.3,0.3,1.3,1.3
			v2.6h-0.8v-2.2c0-0.6,0-1-0.7-1c-0.6,0-0.8,0.4-0.8,1v2.2h-0.8v-2.4c0-0.5-0.2-0.8-0.7-0.8c-0.4,0-0.8,0.3-0.8,1v2.2h-0.8
			L191.68,19.7L191.68,19.7z"/>
		<path d="M198.68,21.8c0,0.6,0.3,1.1,1,1.1c0.5,0,0.8-0.2,0.9-0.6h0.8c-0.2,0.8-0.9,1.3-1.7,1.3c-1.2,0-1.8-0.8-1.8-2
			c0-1.1,0.7-2,1.8-2c1.2,0,1.9,1.1,1.8,2.2C201.38,21.8,198.68,21.8,198.68,21.8z M200.58,21.3c0-0.5-0.4-1-0.9-1c-0.6,0-1,0.4-1,1
			H200.58z"/>
		<path d="M202.08,19.7h0.8v0.5l0,0c0.3-0.4,0.7-0.7,1.2-0.7c0.8,0,1.3,0.4,1.3,1.3v2.6h-0.8V21c0-0.6-0.3-0.8-0.7-0.8
			c-0.5,0-0.9,0.4-0.9,1v2.2h-0.9V19.7L202.08,19.7z"/>
		<path d="M205.88,19.7h0.6v-1.1h0.8v1.1h0.7v0.6h-0.7v2c0,0.3,0,0.5,0.4,0.5c0.1,0,0.2,0,0.3,0v0.6c-0.2,0-0.4,0-0.5,0
			c-0.9,0-1-0.3-1-1v-2.2h-0.6V19.7L205.88,19.7z"/>
		<path d="M173.88,28.9c0-1.2,0.7-2,1.9-2s1.9,0.8,1.9,2s-0.7,2-1.9,2S173.88,30,173.88,28.9z M176.78,28.9c0-0.6-0.3-1.3-1.1-1.3
			s-1.1,0.7-1.1,1.3c0,0.7,0.3,1.3,1.1,1.3S176.78,29.5,176.78,28.9z"/>
		<path d="M177.98,27h0.6v-0.3c0-1,0.5-1.1,1-1.1c0.3,0,0.5,0,0.6,0.1v0.6c-0.1,0-0.2,0-0.4,0s-0.4,0.1-0.4,0.4V27h0.7v0.6h-0.7v3.1
			h-0.8v-3.1h-0.6L177.98,27L177.98,27z"/>
		<path d="M186.28,27.2c-0.1-0.6-0.5-1-1.3-1c-1.1,0-1.6,1-1.6,2s0.5,2,1.6,2c0.8,0,1.2-0.6,1.3-1.4h0.9c-0.1,1.2-0.9,2.1-2.2,2.1
			c-1.6,0-2.5-1.2-2.5-2.7s0.9-2.7,2.5-2.7c1.2,0,2.1,0.7,2.2,1.8L186.28,27.2L186.28,27.2z"/>
		<path d="M191.08,29.9c0,0.2,0,0.3,0.2,0.3c0.1,0,0.1,0,0.2,0v0.6c-0.1,0-0.4,0.1-0.5,0.1c-0.3,0-0.6-0.1-0.6-0.5
			c-0.3,0.3-0.9,0.5-1.3,0.5c-0.7,0-1.3-0.4-1.3-1.1c0-0.9,0.7-1.1,1.4-1.2c0.6-0.1,1.1,0,1.1-0.5c0-0.4-0.4-0.5-0.8-0.5
			c-0.5,0-0.8,0.2-0.8,0.6h-0.8c0.1-1,0.9-1.2,1.7-1.2c0.7,0,1.5,0.3,1.5,1.1L191.08,29.9L191.08,29.9z M190.18,28.9
			c-0.3,0.2-0.7,0.2-1,0.2c-0.4,0.1-0.7,0.2-0.7,0.6s0.5,0.5,0.8,0.5c0.4,0,0.9-0.2,0.9-0.7V28.9L190.18,28.9z"/>
		<path d="M191.98,27h0.8v0.5l0,0c0.3-0.4,0.7-0.7,1.2-0.7c0.8,0,1.3,0.4,1.3,1.3v2.6h-0.8v-2.4c0-0.6-0.3-0.8-0.7-0.8
			c-0.5,0-0.9,0.4-0.9,1v2.2h-0.8L191.98,27L191.98,27z"/>
		<path d="M199.28,29.9c0,0.2,0,0.3,0.2,0.3c0.1,0,0.1,0,0.2,0v0.6c-0.1,0-0.4,0.1-0.5,0.1c-0.3,0-0.6-0.1-0.6-0.5
			c-0.3,0.3-0.9,0.5-1.3,0.5c-0.7,0-1.3-0.4-1.3-1.1c0-0.9,0.7-1.1,1.4-1.2c0.6-0.1,1.1,0,1.1-0.5c0-0.4-0.4-0.5-0.8-0.5
			c-0.5,0-0.8,0.2-0.8,0.6h-0.8c0.1-1,0.9-1.2,1.7-1.2c0.7,0,1.5,0.3,1.5,1.1V29.9L199.28,29.9z M198.48,28.9
			c-0.3,0.2-0.7,0.2-1,0.2c-0.4,0.1-0.7,0.2-0.7,0.6s0.5,0.5,0.8,0.5c0.4,0,0.9-0.2,0.9-0.7V28.9L198.48,28.9z"/>
		<path d="M203.68,30.8h-0.8v-0.5l0,0c-0.2,0.4-0.7,0.6-1.2,0.6c-1.2,0-1.8-0.9-1.8-2c0-1.4,0.8-2,1.6-2c0.5,0,1,0.2,1.2,0.6l0,0
			v-1.9h0.8L203.68,30.8L203.68,30.8z M201.88,30.2c0.7,0,1.1-0.7,1.1-1.3c0-0.8-0.4-1.3-1-1.3c-0.8,0-1.1,0.7-1.1,1.4
			C200.78,29.6,201.08,30.2,201.88,30.2z"/>
		<path d="M207.78,29.9c0,0.2,0,0.3,0.2,0.3c0.1,0,0.1,0,0.2,0v0.6c-0.1,0-0.4,0.1-0.5,0.1c-0.3,0-0.6-0.1-0.6-0.5
			c-0.3,0.3-0.9,0.5-1.3,0.5c-0.7,0-1.3-0.4-1.3-1.1c0-0.9,0.7-1.1,1.4-1.2c0.6-0.1,1.1,0,1.1-0.5c0-0.4-0.4-0.5-0.8-0.5
			c-0.5,0-0.8,0.2-0.8,0.6h-0.8c0.1-1,0.9-1.2,1.7-1.2c0.7,0,1.5,0.3,1.5,1.1L207.78,29.9L207.78,29.9z M206.88,28.9
			c-0.3,0.2-0.7,0.2-1,0.2c-0.4,0.1-0.7,0.2-0.7,0.6s0.5,0.5,0.8,0.5c0.4,0,0.9-0.2,0.9-0.7V28.9L206.88,28.9z"/>
	</g>
	<g>
		<g>
			<path d="M349.43,13c0-0.2,0-0.6-0.5-0.5c-0.5,0-3.6,0.2-3.8,0.2s-0.4,0.2,0,0.3c0.4,0,2.1,0.2,2.1,2.9c0,0.2,0,10.7,0,9.1
				c0,3.4-1.3,4.6-2.7,4.6c-2.3,0-3.5-2.7-3.5-5.3c0-2.9,1.6-4.8,3.3-4.7c2.3,0.1,2.8,2.1,2.8,5.5v-5.7c0,0.7,0,0.8-0.3,0.5
				c-0.3-0.2-1.5-0.9-3-0.9c-2.5,0-5.5,1.8-5.5,5.4c0,3.9,2.8,5.8,5.6,5.8c1.4,0,2.4-0.6,2.7-0.8c0.4-0.2,0.4-0.2,0.4,0.1
				c0.1,0.3,0,0.8,0.7,0.7c0.8-0.1,2.6-0.3,3-0.4s0.3-0.3-0.1-0.4c-0.2,0-1.5,0.1-1.5-3.8S349.43,13,349.43,13z"/>
		</g>
		<g>
			<path d="M300.73,13.1c0.2,0.1,0.8,0.3,1-0.1c0.2-0.5,0.1-0.1,0.1-0.3c0.1-0.2,0.5-0.4,0.6,0.1s0.4,5,0.4,5.3
				c0,0.5-0.7,0.6-0.7,0.1c-0.1-0.7-1.4-5.3-5.2-5.2c-3.4,0.1-5.6,4-5.5,9c0.1,4.7,2.4,7.3,6.1,7.2c3.6-0.1,4.6-2.8,5.1-4.5
				c0.2-0.7,0.9-0.5,0.7,0.1c-0.7,2.8-2.8,5.1-6.6,5.2c-4.2,0.1-8.7-3.1-8.8-8.6c-0.1-5.7,4.4-9.1,8.9-9.1
				C298.83,12.2,300.03,12.9,300.73,13.1z"/>
		</g>
		<g>
			<rect x="350.83" y="12.5" width="2.7" height="5.4"/>
		</g>
		<g>
			<path d="M356.43,17.6c0,0,0-0.9,0-1s0.1-0.1,0.2-0.1s0.9,0.2,0.9,0.2s-0.1-0.2-0.1-0.3s0-0.2,0.1-0.2l0.9-0.8l-0.1-0.1
				c-0.1,0-0.1-0.1-0.1-0.2l0.2-0.6c0,0-0.4,0.1-0.5,0.1s-0.1,0-0.1-0.1l-0.1-0.3l-0.5,0.5c-0.1,0.1-0.2,0-0.2-0.1s0.3-1.2,0.3-1.2
				s-0.3,0.1-0.3,0.2c-0.1,0.1-0.1,0-0.2,0c-0.1-0.1-0.4-0.7-0.4-0.7l0,0c0,0-0.3,0.6-0.4,0.7c-0.1,0.1-0.1,0.1-0.2,0
				s-0.3-0.2-0.3-0.2s0.2,1.1,0.3,1.2c0,0.1-0.1,0.2-0.2,0.1l-0.5-0.5l-0.1,0.3c0,0.1-0.1,0.1-0.1,0.1c-0.1,0-0.5-0.1-0.5-0.1
				l0.2,0.6c0,0.1,0,0.1-0.1,0.2l-0.1,0.1l0.9,0.8c0,0,0.1,0.1,0.1,0.2c-0.1,0.1-0.1,0.3-0.1,0.3l0.9-0.2c0.1,0,0.2,0,0.2,0.1
				S356.43,17.6,356.43,17.6L356.43,17.6z"/>
		</g>
		<g>
			<rect x="359.03" y="12.5" width="2.7" height="5.4"/>
		</g>
		<g>
			<path d="M309.73,22c0,1.1-0.2,1.5-0.9,1.8c-0.6,0.3-2.4,0.6-2.7,0.6c-0.7,0.2-2.8,0.7-2.7,2.8c0,2.1,2.1,2.8,3.6,2.8
				c1.4,0,2.2-0.6,2.6-0.9c0.2-0.2,0.2-0.1,0.4,0.1c0.2,0.2,0.9,0.9,2.5,0.9s1.9-0.8,2-1c0.1-0.3-0.2-0.5-0.3-0.2
				c-0.2,0.5-0.6,0.6-0.9,0.6s-1.2-0.1-1.3-2.5c0,0,0-5,0-5.2c0-1.6-1.2-2.9-4.5-2.9c-3.5,0-3.5,1.7-3.6,2.2c0,0.5,0.2,1,1.1,1
				c0.8,0,1-0.9,1.1-1.2c0.1-0.3,0.1-1.4,1.6-1.4C308.93,19.4,309.73,20.4,309.73,22v4.6c0,1.6-0.8,2.9-2,2.9
				c-1.5,0-1.8-1.2-1.8-1.8c0-0.6,0.3-1.8,1.8-2.6c0,0,0.7-0.4,2-0.9c0.1,0,0.2,0,0.2,0.3L309.73,22z"/>
		</g>
		<g>
			<path d="M333.93,22c0,1.1-0.2,1.5-0.9,1.8c-0.6,0.3-2.4,0.6-2.7,0.6c-0.7,0.2-2.8,0.7-2.7,2.8c0,2.1,2.1,2.8,3.6,2.8
				c1.4,0,2.2-0.6,2.6-0.9c0.2-0.2,0.2-0.1,0.4,0.1c0.2,0.2,0.9,0.9,2.5,0.9s1.9-0.8,2-1c0.1-0.3-0.2-0.5-0.3-0.2
				c-0.2,0.5-0.6,0.6-0.9,0.6s-1.2-0.1-1.3-2.5c0,0,0-5,0-5.2c0-1.6-1.2-2.9-4.5-2.9c-3.5,0-3.5,1.7-3.6,2.2c0,0.5,0.2,1,1.1,1
				c0.8,0,1-0.9,1.1-1.2c0.1-0.3,0.1-1.4,1.6-1.4C333.23,19.4,333.93,20.4,333.93,22v4.6c0,1.6-0.8,2.9-2,2.9
				c-1.5,0-1.8-1.2-1.8-1.8c0-0.6,0.3-1.8,1.8-2.6c0,0,0.7-0.4,2-0.9c0.1,0,0.2,0,0.2,0.3L333.93,22z"/>
		</g>
		<g>
			<path d="M357.83,22c0,1.1-0.2,1.5-0.9,1.8c-0.6,0.3-2.4,0.6-2.7,0.6c-0.7,0.2-2.8,0.7-2.7,2.8c0,2.1,2.1,2.8,3.6,2.8
				c1.4,0,2.2-0.6,2.6-0.9c0.2-0.2,0.2-0.1,0.4,0.1s0.9,0.9,2.5,0.9s1.9-0.8,2-1c0.1-0.3-0.2-0.5-0.3-0.2c-0.2,0.5-0.6,0.6-0.9,0.6
				s-1.2-0.1-1.3-2.5c0,0,0-5,0-5.2c0-1.6-1.2-2.9-4.5-2.9c-3.5,0-3.5,1.7-3.6,2.2c0,0.5,0.2,1,1.1,1c0.8,0,1-0.9,1.1-1.2
				c0.1-0.3,0.1-1.4,1.6-1.4C357.03,19.4,357.83,20.4,357.83,22v4.6c0,1.6-0.8,2.9-2,2.9c-1.5,0-1.8-1.2-1.8-1.8
				c0-0.6,0.3-1.8,1.8-2.6c0,0,0.7-0.4,2-0.9c0.1,0,0.2,0,0.2,0.3L357.83,22z"/>
		</g>
		<g>
			<path d="M323.43,27.2c0,1.8-0.5,2.4-1.1,2.5s-0.5,0.4-0.2,0.4c0.1,0,4.8,0,4.8,0c0.4,0,0.7-0.3,0-0.4c-0.4-0.1-1.2-0.6-1.2-2.8
				v-4.2c0-1,0.1-3.5-3.8-3.5c-2,0-3.2,1-3.3,1.1c-0.2,0.1-0.3,0.2-0.3-0.1c-0.1-0.2-0.2-0.5-0.2-0.7c-0.1-0.2-0.1-0.3-0.5-0.3
				c-0.4,0.1-2.7,0.4-3.1,0.5s-0.3,0.3,0,0.3c0.3,0.1,1.5,0.1,1.5,2.3c0,2.1,0,4.5,0,4.5c0,2.6-0.5,2.8-1,3c-0.6,0.2-0.3,0.4,0,0.4
				c0,0,4.6,0,4.8,0c0.3,0,0.5-0.3-0.2-0.4c-0.6-0.1-1.2-0.5-1.2-2.5c0-0.2,0-2.4,0-2.9c0-1.1-0.3-4.5,2.8-4.5
				c2.1-0.1,2.3,1.7,2.3,2.9L323.43,27.2z"/>
		</g>
	</g>
	<g>
		<polygon points="219.76,10.96 223.35,10.96 223.35,11.74 220.67,11.74 220.67,13.1 223.02,13.1 223.02,13.85 220.67,13.85 
			220.67,16.16 219.76,16.16 219.76,10.96 		"/>
		<path d="M223.98,12.39h0.83v3.77h-0.83V12.39L223.98,12.39z M223.98,10.96h0.83v0.79h-0.83V10.96L223.98,10.96z"/>
		<path d="M225.72,12.39h0.79v0.55l0.01,0.01c0.25-0.42,0.68-0.67,1.17-0.67c0.82,0,1.33,0.44,1.33,1.28v2.59h-0.83v-2.37
			c-0.01-0.59-0.25-0.84-0.74-0.84c-0.55,0-0.91,0.44-0.91,0.99v2.22h-0.83V12.39L225.72,12.39z"/>
		<path d="M232.22,14.27c-0.25,0.17-0.66,0.16-1.02,0.23c-0.36,0.06-0.68,0.19-0.68,0.63c0,0.37,0.47,0.48,0.76,0.48
			c0.36,0,0.93-0.19,0.93-0.71V14.27L232.22,14.27z M233.05,15.32c0,0.2,0.04,0.28,0.2,0.28c0.05,0,0.12,0,0.2-0.01v0.58
			c-0.12,0.04-0.39,0.09-0.52,0.09c-0.34,0-0.58-0.12-0.64-0.46c-0.33,0.32-0.86,0.46-1.3,0.46c-0.68,0-1.29-0.36-1.29-1.1
			c0-0.94,0.75-1.09,1.45-1.17c0.6-0.11,1.13-0.04,1.13-0.53c0-0.43-0.44-0.51-0.78-0.51c-0.47,0-0.79,0.19-0.83,0.6h-0.83
			c0.06-0.97,0.88-1.25,1.71-1.25c0.74,0,1.51,0.3,1.51,1.09V15.32L233.05,15.32z"/>
		<path d="M233.95,12.39h0.79v0.55l0.01,0.01c0.25-0.42,0.68-0.67,1.17-0.67c0.82,0,1.33,0.44,1.33,1.28v2.59h-0.83v-2.37
			c-0.01-0.59-0.25-0.84-0.74-0.84c-0.55,0-0.91,0.44-0.91,0.99v2.22h-0.83V12.39L233.95,12.39z"/>
		<path d="M240.67,13.65c-0.07-0.46-0.4-0.71-0.86-0.71c-0.43,0-1.03,0.23-1.03,1.37c0,0.63,0.28,1.29,1,1.29
			c0.48,0,0.82-0.32,0.9-0.86h0.83c-0.15,0.98-0.76,1.52-1.73,1.52c-1.18,0-1.83-0.84-1.83-1.94c0-1.14,0.62-2.03,1.86-2.03
			c0.87,0,1.62,0.44,1.7,1.36H240.67L240.67,13.65z"/>
		<path d="M243.88,10.83h0.98l-1.03,1.04h-0.6L243.88,10.83L243.88,10.83z M244.77,13.94c-0.03-0.52-0.39-1-0.95-1
			c-0.58,0-0.97,0.44-0.99,1H244.77L244.77,13.94z M242.83,14.49c0,0.59,0.32,1.11,1.01,1.11c0.48,0,0.77-0.21,0.92-0.63h0.79
			c-0.18,0.82-0.88,1.28-1.7,1.28c-1.18,0-1.84-0.82-1.84-1.98c0-1.07,0.7-1.99,1.82-1.99c1.19,0,1.92,1.07,1.78,2.2H242.83
			L242.83,14.49z"/>
		<path d="M250.13,12.95c-0.7,0-1.06,0.53-1.06,1.33c0,0.76,0.39,1.33,1.06,1.33c0.76,0,1.04-0.67,1.04-1.33
			C251.18,13.59,250.82,12.95,250.13,12.95L250.13,12.95z M248.28,12.39h0.79v0.51h0.01c0.23-0.43,0.68-0.61,1.17-0.61
			c1.19,0,1.76,0.9,1.76,2c0,1.01-0.51,1.97-1.62,1.97c-0.48,0-1-0.17-1.26-0.59h-0.01v1.88h-0.83V12.39L248.28,12.39z"/>
		<path d="M255.03,14.27c-0.25,0.17-0.66,0.16-1.02,0.23c-0.36,0.06-0.68,0.19-0.68,0.63c0,0.37,0.47,0.48,0.76,0.48
			c0.36,0,0.93-0.19,0.93-0.71V14.27L255.03,14.27z M255.86,15.32c0,0.2,0.04,0.28,0.2,0.28c0.05,0,0.12,0,0.2-0.01v0.58
			c-0.12,0.04-0.39,0.09-0.52,0.09c-0.34,0-0.58-0.12-0.64-0.46c-0.33,0.32-0.86,0.46-1.3,0.46c-0.68,0-1.29-0.36-1.29-1.1
			c0-0.94,0.75-1.09,1.45-1.17c0.6-0.11,1.13-0.04,1.13-0.53c0-0.43-0.44-0.51-0.78-0.51c-0.47,0-0.79,0.19-0.83,0.6h-0.83
			c0.06-0.97,0.88-1.25,1.71-1.25c0.74,0,1.51,0.3,1.51,1.09V15.32L255.86,15.32z"/>
		<path d="M256.76,12.39h0.78v0.73h0.01c0.09-0.4,0.59-0.83,1.1-0.83c0.19,0,0.24,0.01,0.31,0.02v0.8
			c-0.12-0.01-0.24-0.04-0.36-0.04c-0.57,0-1.02,0.46-1.02,1.29v1.79h-0.83V12.39L256.76,12.39z"/>
		<polygon points="261.37,10.96 262.2,10.96 262.2,16.16 261.37,16.16 261.37,10.96 		"/>
		<path d="M265.69,13.94c-0.03-0.52-0.39-1-0.95-1c-0.58,0-0.97,0.44-0.99,1H265.69L265.69,13.94z M263.75,14.49
			c0,0.59,0.32,1.11,1.01,1.11c0.48,0,0.77-0.21,0.92-0.63h0.79c-0.18,0.82-0.88,1.28-1.7,1.28c-1.18,0-1.84-0.82-1.84-1.98
			c0-1.07,0.7-1.99,1.82-1.99c1.19,0,1.92,1.07,1.78,2.2H263.75L263.75,14.49z"/>
		<path d="M221.23,21.47c0-0.65-0.29-1.25-1.01-1.25c-0.74,0-0.99,0.68-0.99,1.31c0,0.62,0.3,1.25,0.99,1.25
			C220.96,22.79,221.23,22.12,221.23,21.47L221.23,21.47z M222.06,23.25c0,1.13-0.66,1.69-1.85,1.69c-0.76,0-1.61-0.29-1.68-1.17
			h0.83c0.1,0.47,0.48,0.55,0.9,0.55c0.67,0,0.97-0.34,0.97-0.96v-0.58h-0.01c-0.23,0.42-0.66,0.66-1.13,0.66
			c-1.19,0-1.69-0.9-1.69-1.98c0-1.01,0.63-1.89,1.7-1.89c0.47,0,0.9,0.2,1.11,0.62h0.01v-0.52h0.83V23.25L222.06,23.25z"/>
		<path d="M225.7,21.56c0-0.65-0.33-1.33-1.07-1.33s-1.07,0.68-1.07,1.33c0,0.66,0.33,1.33,1.07,1.33S225.7,22.21,225.7,21.56
			L225.7,21.56z M222.73,21.56c0-1.15,0.69-1.98,1.9-1.98c1.21,0,1.9,0.83,1.9,1.98c0,1.16-0.69,1.99-1.9,1.99
			C223.42,23.54,222.73,22.71,222.73,21.56L222.73,21.56z"/>
		<path d="M230.53,23.44h-0.82v-0.52h-0.01c-0.2,0.38-0.66,0.63-1.07,0.63c-0.98,0-1.41-0.5-1.41-1.48v-2.39h0.83v2.31
			c0,0.66,0.27,0.9,0.72,0.9c0.69,0,0.93-0.44,0.93-1.03v-2.19h0.83V23.44L230.53,23.44z"/>
		<polygon points="231.03,19.68 231.93,19.68 232.89,22.57 232.9,22.57 233.82,19.68 234.68,19.68 233.33,23.44 232.4,23.44 
			231.03,19.68 		"/>
		<path d="M237.77,21.23c-0.03-0.52-0.39-1-0.95-1c-0.58,0-0.97,0.44-0.99,1H237.77L237.77,21.23z M235.83,21.77
			c0,0.59,0.32,1.11,1.01,1.11c0.48,0,0.77-0.21,0.92-0.63h0.79c-0.18,0.82-0.88,1.28-1.7,1.28c-1.18,0-1.84-0.82-1.84-1.98
			c0-1.07,0.7-1.99,1.82-1.99c1.19,0,1.92,1.07,1.78,2.2H235.83L235.83,21.77z"/>
		<path d="M239.23,19.68h0.78v0.73h0.01c0.09-0.4,0.59-0.83,1.1-0.83c0.19,0,0.24,0.01,0.31,0.02v0.8
			c-0.12-0.01-0.24-0.04-0.36-0.04c-0.57,0-1.02,0.46-1.02,1.29v1.79h-0.83V19.68L239.23,19.68z"/>
		<path d="M241.93,19.68h0.79v0.55l0.01,0.01c0.25-0.42,0.68-0.67,1.17-0.67c0.82,0,1.33,0.44,1.33,1.28v2.59h-0.83v-2.37
			c-0.01-0.59-0.25-0.84-0.74-0.84c-0.55,0-0.91,0.44-0.91,0.99v2.22h-0.83V19.68L241.93,19.68z"/>
		<path d="M248.69,21.23c-0.03-0.52-0.39-1-0.95-1c-0.58,0-0.97,0.44-0.99,1H248.69L248.69,21.23z M246.75,21.77
			c0,0.59,0.32,1.11,1.01,1.11c0.48,0,0.77-0.21,0.92-0.63h0.79c-0.18,0.82-0.88,1.28-1.7,1.28c-1.18,0-1.84-0.82-1.84-1.98
			c0-1.07,0.7-1.99,1.82-1.99c1.19,0,1.92,1.07,1.78,2.2H246.75L246.75,21.77z"/>
		<path d="M250.16,19.68h0.79v0.53h0.02c0.25-0.37,0.56-0.63,1.16-0.63c0.46,0,0.89,0.2,1.06,0.63c0.28-0.39,0.63-0.63,1.18-0.63
			c0.79,0,1.26,0.35,1.26,1.27v2.6h-0.83v-2.2c0-0.6-0.04-1.01-0.68-1.01c-0.56,0-0.8,0.37-0.8,1v2.21h-0.83v-2.42
			c0-0.52-0.16-0.79-0.66-0.79c-0.43,0-0.82,0.35-0.82,0.98v2.24h-0.83V19.68L250.16,19.68z"/>
		<path d="M259.08,21.23c-0.03-0.52-0.39-1-0.95-1c-0.58,0-0.97,0.44-0.99,1H259.08L259.08,21.23z M257.14,21.77
			c0,0.59,0.32,1.11,1.01,1.11c0.48,0,0.77-0.21,0.92-0.63h0.79c-0.18,0.82-0.88,1.28-1.7,1.28c-1.18,0-1.84-0.82-1.84-1.98
			c0-1.07,0.7-1.99,1.82-1.99c1.19,0,1.92,1.07,1.78,2.2H257.14L257.14,21.77z"/>
		<path d="M260.54,19.68h0.79v0.55l0.01,0.01c0.25-0.42,0.68-0.67,1.17-0.67c0.82,0,1.33,0.44,1.33,1.28v2.59h-0.83v-2.37
			c-0.01-0.59-0.25-0.84-0.74-0.84c-0.55,0-0.91,0.44-0.91,0.99v2.22h-0.83V19.68L260.54,19.68z"/>
		<path d="M264.35,19.68h0.63v-1.13h0.83v1.13h0.75v0.62h-0.75v2.01c0,0.34,0.03,0.52,0.4,0.52c0.12,0,0.23,0,0.35-0.03v0.64
			c-0.18,0.01-0.36,0.04-0.54,0.04c-0.87,0-1.03-0.33-1.04-0.96v-2.22h-0.63V19.68L264.35,19.68z"/>
		<path d="M232.14,30.17c0.74,0,1.06-0.68,1.06-1.33c0-0.83-0.4-1.33-1.04-1.33c-0.78,0-1.06,0.69-1.06,1.37
			C231.1,29.53,231.42,30.17,232.14,30.17L232.14,30.17z M234,30.73h-0.79v-0.51h-0.01c-0.22,0.43-0.69,0.61-1.17,0.61
			c-1.19,0-1.76-0.88-1.76-2.01c0-1.36,0.81-1.96,1.63-1.96c0.47,0,1,0.17,1.25,0.59h0.01v-1.92H234V30.73L234,30.73z"/>
		<path d="M238.21,30.73h-0.82V30.2h-0.01c-0.2,0.38-0.66,0.63-1.07,0.63c-0.98,0-1.41-0.5-1.41-1.48v-2.39h0.83v2.31
			c0,0.66,0.27,0.9,0.72,0.9c0.69,0,0.93-0.44,0.93-1.03v-2.19h0.83V30.73L238.21,30.73z"/>
		<path d="M244.74,27.18c-0.15-0.6-0.54-1.03-1.3-1.03c-1.11,0-1.58,0.98-1.58,1.98c0,1,0.47,1.98,1.58,1.98
			c0.81,0,1.25-0.6,1.33-1.36h0.89c-0.07,1.25-0.95,2.11-2.21,2.11c-1.56,0-2.49-1.24-2.49-2.73c0-1.49,0.93-2.72,2.49-2.72
			c1.17,0.01,2.1,0.66,2.21,1.78H244.74L244.74,27.18z"/>
		<path d="M248.69,28.84c-0.25,0.17-0.66,0.16-1.02,0.23c-0.36,0.06-0.68,0.19-0.68,0.63c0,0.37,0.47,0.48,0.76,0.48
			c0.36,0,0.93-0.19,0.93-0.71V28.84L248.69,28.84z M249.52,29.89c0,0.2,0.04,0.28,0.2,0.28c0.05,0,0.12,0,0.2-0.01v0.58
			c-0.12,0.04-0.39,0.1-0.52,0.1c-0.34,0-0.58-0.12-0.64-0.46c-0.33,0.32-0.86,0.46-1.3,0.46c-0.68,0-1.29-0.36-1.29-1.1
			c0-0.94,0.75-1.09,1.45-1.17c0.6-0.11,1.13-0.04,1.13-0.53c0-0.43-0.44-0.51-0.78-0.51c-0.47,0-0.79,0.19-0.83,0.6h-0.83
			c0.06-0.97,0.88-1.25,1.71-1.25c0.74,0,1.51,0.3,1.51,1.09V29.89L249.52,29.89z"/>
		<path d="M250.42,26.96h0.79v0.55l0.01,0.01c0.25-0.42,0.68-0.67,1.17-0.67c0.82,0,1.33,0.44,1.33,1.28v2.59h-0.83v-2.37
			c-0.01-0.59-0.25-0.85-0.74-0.85c-0.55,0-0.91,0.44-0.91,0.99v2.22h-0.83V26.96L250.42,26.96z"/>
		<path d="M256.92,28.84c-0.25,0.17-0.66,0.16-1.02,0.23c-0.36,0.06-0.68,0.19-0.68,0.63c0,0.37,0.47,0.48,0.76,0.48
			c0.36,0,0.93-0.19,0.93-0.71V28.84L256.92,28.84z M257.75,29.89c0,0.2,0.04,0.28,0.2,0.28c0.05,0,0.12,0,0.2-0.01v0.58
			c-0.12,0.04-0.39,0.1-0.52,0.1c-0.34,0-0.58-0.12-0.64-0.46c-0.33,0.32-0.86,0.46-1.3,0.46c-0.68,0-1.29-0.36-1.29-1.1
			c0-0.94,0.75-1.09,1.45-1.17c0.6-0.11,1.13-0.04,1.13-0.53c0-0.43-0.44-0.51-0.78-0.51c-0.47,0-0.79,0.19-0.83,0.6h-0.83
			c0.06-0.97,0.88-1.25,1.71-1.25c0.74,0,1.51,0.3,1.51,1.09V29.89L257.75,29.89z"/>
		<path d="M260.34,30.17c0.74,0,1.06-0.68,1.06-1.33c0-0.83-0.4-1.33-1.04-1.33c-0.78,0-1.06,0.69-1.06,1.37
			C259.3,29.53,259.62,30.17,260.34,30.17L260.34,30.17z M262.2,30.73h-0.79v-0.51h-0.01c-0.22,0.43-0.69,0.61-1.17,0.61
			c-1.19,0-1.76-0.88-1.76-2.01c0-1.36,0.81-1.96,1.63-1.96c0.47,0,1,0.17,1.25,0.59h0.01v-1.92h0.83V30.73L262.2,30.73z"/>
		<path d="M265.42,28.84c-0.25,0.17-0.66,0.16-1.02,0.23c-0.36,0.06-0.68,0.19-0.68,0.63c0,0.37,0.47,0.48,0.76,0.48
			c0.36,0,0.93-0.19,0.93-0.71V28.84L265.42,28.84z M266.26,29.89c0,0.2,0.04,0.28,0.2,0.28c0.05,0,0.12,0,0.2-0.01v0.58
			c-0.12,0.04-0.39,0.1-0.52,0.1c-0.34,0-0.58-0.12-0.64-0.46c-0.33,0.32-0.86,0.46-1.3,0.46c-0.68,0-1.29-0.36-1.29-1.1
			c0-0.94,0.75-1.09,1.45-1.17c0.6-0.11,1.13-0.04,1.13-0.53c0-0.43-0.44-0.51-0.78-0.51c-0.47,0-0.79,0.19-0.83,0.6h-0.83
			c0.06-0.97,0.88-1.25,1.71-1.25c0.74,0,1.51,0.3,1.51,1.09V29.89L266.26,29.89z"/>
	</g>
</g>
<g>
	<polygon fill="#2F3F84" points="41.78,14.7 38.08,9.9 38.08,14.7 36.78,14.7 36.78,7.4 37.78,7.4 41.58,12.2 41.58,7.4 42.88,7.4 
		42.88,14.7 	"/>
	<path fill="#2F3F84" d="M47.68,11.3L47.68,11.3h-2.2c0.1-0.8,0.6-1.1,1.2-1.1C47.38,10.2,47.78,10.7,47.68,11.3 M48.98,11.4
		L48.98,11.4c0-1.2-1-2.1-2.3-2.1s-2.6,1.1-2.6,2.7s1.1,2.8,2.7,2.8c0.9,0,1.6-0.3,2.1-0.6v-1c-0.4,0.4-1.1,0.6-1.7,0.6
		c-1.4,0-1.8-0.9-1.8-1.7h3.5C48.88,11.9,48.98,11.6,48.98,11.4"/>
	<polygon fill="#2F3F84" points="57.68,9.4 57.68,9.4 56.48,9.4 55.18,12.9 53.98,9.4 53.08,9.4 51.88,12.9 50.58,9.4 49.18,9.4 
		51.28,14.7 52.18,14.7 53.48,11.5 54.68,14.7 55.68,14.7 	"/>
	<path fill="#2F3F84" d="M62.18,13L62.18,13c0-0.7-0.6-1.3-1.9-1.6c-0.6-0.1-0.9-0.3-0.9-0.6s0.3-0.5,0.8-0.5s1.1,0.2,1.5,0.4
		l0.2-0.9c-0.2-0.1-0.9-0.5-1.8-0.5c-1.4,0-2,0.8-2,1.6c0,0.7,0.4,1.4,1.7,1.7c0.7,0.2,1.1,0.3,1.1,0.7s-0.4,0.6-0.9,0.6
		c-0.7,0-1.4-0.3-1.8-0.6l-0.2,0.9c0.2,0.1,1,0.6,2.1,0.6C61.38,14.8,62.18,14.1,62.18,13"/>
	<path fill="#2F3F84" d="M73.48,14.7L73.48,14.7V7.4h-1.5l-2.4,5.3l-2.4-5.3h-1.6v7.2h1.3v-4.4c0-0.2-0.1-0.7-0.1-0.7
		c0,0.1,0.2,0.5,0.2,0.7l1.9,4.4h0.9l1.9-4.4l0.2-0.7c0,0.1,0,0.5,0,0.7v4.4C72.08,14.7,73.48,14.7,73.48,14.7z"/>
	<path fill="#2F3F84" d="M78.28,11.3L78.28,11.3h-2.2c0.1-0.8,0.6-1.1,1.2-1.1C77.98,10.2,78.38,10.7,78.28,11.3 M79.48,11.4
		L79.48,11.4c0-1.2-1-2.1-2.3-2.1c-1.4,0-2.6,1.1-2.6,2.7s1.1,2.8,2.7,2.8c0.9,0,1.6-0.3,2.1-0.6v-1c-0.4,0.4-1.1,0.6-1.7,0.6
		c-1.4,0-1.8-0.9-1.8-1.7h3.5C79.48,11.9,79.48,11.6,79.48,11.4"/>
	<path fill="#2F3F84" d="M84.68,12L84.68,12c0,1.1-0.6,1.7-1.5,1.7c-0.8,0-1.5-0.6-1.5-1.7s0.7-1.7,1.5-1.7
		C84.08,10.3,84.68,11,84.68,12 M85.98,14.7L85.98,14.7V7.4h-1.4v2.8c-0.4-0.6-1.1-0.9-1.9-0.9c-1.4,0-2.4,1.2-2.4,2.8
		s1.1,2.8,2.4,2.8c0.7,0,1.5-0.3,1.9-1l0.1,0.8L85.98,14.7L85.98,14.7z"/>
	<path fill="#2F3F84" d="M88.68,14.7L88.68,14.7V9.4h-1.4v5.2C87.28,14.7,88.68,14.7,88.68,14.7z M88.68,8.5L88.68,8.5V7.4h-1.4v1.2
		h1.4V8.5z"/>
	<path fill="#2F3F84" d="M94.08,12L94.08,12c0,1.1-0.7,1.7-1.5,1.7s-1.5-0.6-1.5-1.7s0.6-1.7,1.5-1.7C93.38,10.3,94.08,11,94.08,12
		 M95.38,14.7L95.38,14.7V9.4h-1.3l-0.1,0.8c-0.4-0.6-1.2-1-1.9-1c-1.4,0-2.4,1.2-2.4,2.8s1.1,2.8,2.4,2.8c0.7,0,1.5-0.3,1.9-1
		l0.1,0.8L95.38,14.7L95.38,14.7z"/>
	<path fill="#2F3F84" d="M98.88,11L98.88,11c0,2.4,1.7,3.8,3.7,3.8c0.9,0,1.8-0.3,2.4-0.7v-0.7c-0.6,0.4-1.3,0.8-2.4,0.8
		c-1.8,0-3-1.3-3-3.2s1.3-3.2,3-3.2c1,0,1.8,0.3,2.4,0.8V7.9c-0.6-0.4-1.5-0.7-2.4-0.7C100.58,7.2,98.88,8.7,98.88,11"/>
	<path fill="#2F3F84" d="M106.28,12L106.28,12c0-1.4,0.9-2.2,2-2.2s2,0.8,2,2.2s-0.9,2.2-2,2.2C107.28,14.2,106.28,13.4,106.28,12
		 M105.68,12L105.68,12c0,1.6,1.1,2.8,2.6,2.8c0.7,0,1.7-0.4,2.1-1.2v1.1h0.6V9.4h-0.6v1.1c-0.4-0.8-1.4-1.2-2.1-1.2
		C106.78,9.3,105.68,10.5,105.68,12"/>
	<path fill="#2F3F84" d="M116.98,14.7L116.98,14.7v-3.1c0-1.5-0.7-2.3-1.9-2.3c-0.9,0-1.7,0.5-2,1.2V9.4h-0.6v5.2h0.6v-3
		c0-0.9,0.9-1.8,1.9-1.8c0.9,0,1.4,0.4,1.4,1.8v3C116.28,14.7,116.98,14.7,116.98,14.7z"/>
	<path fill="#2F3F84" d="M118.68,12L118.68,12c0-1.4,0.9-2.2,2-2.2s2,0.8,2,2.2s-0.9,2.2-2,2.2S118.68,13.4,118.68,12 M117.98,12
		L117.98,12c0,1.6,1.1,2.8,2.6,2.8c0.7,0,1.7-0.4,2.1-1.2v1.1h0.6V9.4h-0.6v1.1c-0.4-0.8-1.4-1.2-2.1-1.2
		C119.08,9.3,117.98,10.5,117.98,12"/>
	<path fill="#2F3F84" d="M125.08,12L125.08,12c0-1.4,0.9-2.2,2-2.2c1.1,0,2,0.8,2,2.2s-0.9,2.2-2,2.2
		C125.98,14.2,125.08,13.4,125.08,12 M124.38,12L124.38,12c0,1.6,1.1,2.8,2.6,2.8c0.8,0,1.7-0.4,2.1-1.2v1.1h0.6V7.4h-0.6v3
		c-0.4-0.7-1.3-1.1-2-1.1C125.48,9.3,124.38,10.5,124.38,12"/>
	<path fill="#2F3F84" d="M131.48,12L131.48,12c0-1.4,0.9-2.2,2-2.2s2,0.8,2,2.2s-0.9,2.2-2,2.2S131.48,13.4,131.48,12 M130.78,12
		L130.78,12c0,1.6,1.1,2.8,2.6,2.8c0.7,0,1.7-0.4,2.1-1.2v1.1h0.5V9.4h-0.5v1.1c-0.4-0.8-1.4-1.2-2.1-1.2
		C131.88,9.3,130.78,10.5,130.78,12"/>
	<path fill="#2F3F84" d="M44.58,30L44.58,30v-7.3h-1.5l-2.4,5.3l-2.4-5.3h-1.6V30h1.3v-4.5c0-0.2,0-0.7,0-0.7c0,0.1,0.2,0.5,0.2,0.7
		l1.9,4.5h0.9l1.9-4.5l0.3-0.7c0,0.1-0.1,0.5-0.1,0.7V30C43.18,30,44.58,30,44.58,30z"/>
	<path fill="#2F3F84" d="M49.58,23L49.58,23l-0.5-0.8l-1.8,1.5l0.2,0.3L49.58,23z M49.38,26.6L49.38,26.6h-2.2
		c0.1-0.8,0.6-1.1,1.2-1.1C49.08,25.5,49.48,26,49.38,26.6 M50.58,26.7L50.58,26.7c0-1.2-1-2.1-2.3-2.1c-1.4,0-2.6,1.1-2.6,2.7
		s1.1,2.8,2.7,2.8c0.9,0,1.6-0.2,2.1-0.6v-1c-0.4,0.4-1.1,0.6-1.7,0.6c-1.4,0-1.8-0.9-1.8-1.7h3.5C50.58,27.2,50.58,26.9,50.58,26.7
		"/>
	<path fill="#2F3F84" d="M55.78,27.4L55.78,27.4c0,1.1-0.6,1.7-1.5,1.7c-0.8,0-1.5-0.6-1.5-1.7s0.7-1.7,1.5-1.7
		C55.18,25.6,55.78,26.3,55.78,27.4 M57.18,30L57.18,30v-7.3h-1.4v2.8c-0.4-0.6-1.1-0.9-1.9-0.9c-1.4,0-2.4,1.2-2.4,2.8
		c0,1.6,1.1,2.8,2.4,2.8c0.7,0,1.5-0.3,1.9-1l0.1,0.8L57.18,30L57.18,30z"/>
	<path fill="#2F3F84" d="M59.88,30L59.88,30v-5.2h-1.4V30H59.88z M59.88,23.8L59.88,23.8v-1.1h-1.4v1.1H59.88z"/>
	<path fill="#2F3F84" d="M65.18,27.4L65.18,27.4c0,1.1-0.6,1.7-1.5,1.7c-0.8,0-1.5-0.6-1.5-1.7s0.7-1.7,1.5-1.7
		C64.58,25.6,65.18,26.3,65.18,27.4 M66.58,30L66.58,30v-5.2h-1.3l-0.1,0.8c-0.4-0.6-1.2-1-1.9-1c-1.4,0-2.4,1.2-2.4,2.8
		c0,1.6,1.1,2.8,2.4,2.8c0.7,0,1.5-0.3,1.9-1l0.1,0.8L66.58,30L66.58,30z"/>
	<path fill="#2F3F84" d="M71.78,28.3L71.78,28.3c0-0.7-0.6-1.4-1.9-1.6c-0.6-0.1-0.9-0.3-0.9-0.6c0-0.3,0.3-0.5,0.8-0.5
		s1.1,0.2,1.5,0.4l0.2-0.9c-0.2-0.1-0.9-0.5-1.8-0.5c-1.4,0-2,0.8-2,1.6c0,0.7,0.4,1.4,1.7,1.7c0.7,0.2,1.1,0.3,1.1,0.7
		c0,0.4-0.4,0.6-0.9,0.6c-0.8,0-1.4-0.3-1.8-0.6l-0.2,0.9c0.2,0.1,1,0.6,2.1,0.6C70.98,30.1,71.78,29.5,71.78,28.3"/>
	<path fill="#2F3F84" d="M79.18,27.4L79.18,27.4c0,1.1-0.7,1.7-1.5,1.7s-1.5-0.6-1.5-1.7s0.7-1.7,1.5-1.7
		C78.48,25.6,79.18,26.3,79.18,27.4 M80.48,30L80.48,30v-7.3h-1.4v2.8c-0.4-0.6-1.1-0.9-1.8-0.9c-1.4,0-2.4,1.2-2.4,2.8
		c0,1.6,1,2.8,2.4,2.8c0.7,0,1.5-0.3,1.9-1V30H80.48L80.48,30z"/>
	<path fill="#2F3F84" d="M83.08,23.8L83.08,23.8v-1.1h-1.4v1.4h0.6c0,0.5-0.2,1-0.7,1.2l0.2,0.4C82.68,25.4,83.08,24.7,83.08,23.8"
		/>
	<polygon fill="#2F3F84" points="85.98,30 85.98,30 85.98,22.7 84.58,22.7 84.58,30 	"/>
	<path fill="#2F3F84" d="M92.58,30L92.58,30v-3.1c0-1.3-0.5-2.3-1.9-2.3c-0.8,0-1.6,0.4-1.9,1.1l-0.1-1h-1.3V30h1.4v-2.9
		c0-0.7,0.7-1.3,1.4-1.3c0.6,0,1,0.3,1,1.4V30H92.58L92.58,30z"/>
	<path fill="#2F3F84" d="M96.88,25.7L96.88,25.7v-0.9h-1.3v-0.1c0-0.9,0.2-1.1,0.8-1.1c0.1,0,0.4,0.1,0.5,0.1v-0.9
		c-0.2,0-0.5-0.1-0.7-0.1c-1.2,0-2,0.6-2,2.1v0.1h-1v0.9h1V30h1.4v-4.3H96.88L96.88,25.7z"/>
	<path fill="#2F3F84" d="M101.58,27.4L101.58,27.4c0,1.1-0.6,1.8-1.6,1.8c-0.9,0-1.6-0.7-1.6-1.8c0-1.1,0.6-1.8,1.6-1.8
		C100.88,25.6,101.58,26.3,101.58,27.4 M102.88,27.4L102.88,27.4c0-1.6-1.2-2.8-2.9-2.8c-1.7,0-2.9,1.2-2.9,2.8
		c0,1.6,1.2,2.8,2.9,2.8C101.68,30.1,102.88,28.9,102.88,27.4"/>
	<path fill="#2F3F84" d="M106.08,26.3L106.08,26.3c0,2.4,1.7,3.8,3.7,3.8c0.9,0,1.8-0.3,2.4-0.7v-0.7c-0.6,0.4-1.3,0.8-2.4,0.8
		c-1.8,0-3-1.3-3-3.2s1.3-3.2,3-3.2c1,0,1.8,0.3,2.4,0.8v-0.7c-0.6-0.4-1.5-0.7-2.4-0.7C107.68,22.5,106.08,24,106.08,26.3"/>
	<path fill="#2F3F84" d="M113.48,27.4L113.48,27.4c0-1.4,0.9-2.2,2-2.2s2,0.8,2,2.2c0,1.4-0.9,2.2-2,2.2
		C114.38,29.5,113.48,28.7,113.48,27.4 M112.88,27.4L112.88,27.4c0,1.6,1.1,2.8,2.6,2.8c0.7,0,1.7-0.4,2.1-1.2v1.1h0.6v-5.2h-0.6V26
		c-0.4-0.8-1.4-1.2-2.1-1.2C113.88,24.6,112.88,25.8,112.88,27.4"/>
	<path fill="#2F3F84" d="M124.08,30L124.08,30v-3.1c0-1.5-0.7-2.3-1.9-2.3c-0.9,0-1.7,0.5-2,1.2v-1.1h-0.6V30h0.6v-3
		c0-0.9,0.9-1.8,1.9-1.8c0.9,0,1.4,0.4,1.4,1.8v3H124.08z"/>
	<path fill="#2F3F84" d="M125.78,27.4L125.78,27.4c0-1.4,0.9-2.2,2-2.2c1.1,0,2,0.8,2,2.2c0,1.4-0.9,2.2-2,2.2
		C126.78,29.5,125.78,28.7,125.78,27.4 M125.18,27.4L125.18,27.4c0,1.6,1.1,2.8,2.6,2.8c0.7,0,1.7-0.4,2.1-1.2v1.1h0.6v-5.2h-0.6V26
		c-0.4-0.8-1.4-1.2-2.1-1.2C126.28,24.6,125.18,25.8,125.18,27.4"/>
	<path fill="#2F3F84" d="M132.18,27.4L132.18,27.4c0-1.4,0.9-2.2,2-2.2s2,0.8,2,2.2c0,1.4-0.9,2.2-2,2.2S132.18,28.7,132.18,27.4
		 M131.58,27.4L131.58,27.4c0,1.6,1.1,2.8,2.6,2.8c0.8,0,1.7-0.4,2.1-1.2v1.1h0.6v-7.3h-0.6v3c-0.4-0.7-1.3-1.1-2-1.1
		C132.68,24.6,131.58,25.8,131.58,27.4"/>
	<path fill="#2F3F84" d="M138.58,27.4L138.58,27.4c0-1.4,0.9-2.2,2-2.2s2,0.8,2,2.2c0,1.4-0.9,2.2-2,2.2S138.58,28.7,138.58,27.4
		 M137.98,27.4L137.98,27.4c0,1.6,1.1,2.8,2.6,2.8c0.7,0,1.7-0.4,2.1-1.2v1.1h0.6v-5.2h-0.6V26c-0.4-0.8-1.4-1.2-2.1-1.2
		C139.08,24.6,137.98,25.8,137.98,27.4"/>
	<polygon fill="#2F3F84" points="35.98,18.8 35.98,18.8 144.28,18.8 144.28,19 35.98,19 	"/>
	<path fill="#2F3F84" d="M18.78,14.3L18.78,14.3h6.3V8.7l-0.3-0.2c-2.4-1.7-4.4-1.1-6.3-0.4c-1.7,0.6-3.5,1.2-5.9,0.3l-1-0.4v16.1
		l0.3,0.2c1.1,0.8,2.2,1.1,3.2,1.1c0.5,0,1.1-0.1,1.6-0.2c0.2-0.1,0.3-0.1,0.5-0.1V16C17.08,15,17.78,14.3,18.78,14.3"/>
	<path fill="#47B982" d="M29.38,14.3L29.38,14.3h-4.3v10.1c0,0.2-0.2,0.3-0.4,0.3l-0.6-0.3c-2.4-0.9-4.2-0.3-5.9,0.3
		c-0.3,0.1-0.6,0.2-0.9,0.3c-0.1,0-0.2,0.1-0.2,0.3v4c0,0.7,0.6,1.2,1.2,1.2h11.1c0.7,0,1.2-0.5,1.2-1.2V15.5
		C30.58,14.8,30.08,14.3,29.38,14.3"/>
	<path fill="#2F3F84" d="M24.08,24.4L24.08,24.4l1,0.4V14.3h-6.4c-0.9,0-1.7,0.8-1.7,1.7v9.1c0.4-0.1,0.7-0.2,1.1-0.4
		C19.88,24.1,21.68,23.5,24.08,24.4"/>
	<path fill="#1E2E49" d="M24.08,24.4L24.08,24.4l1,0.4V14.3h-6.8c-0.7,0-1.2,0.6-1.2,1.2v9.6c0.4-0.1,0.7-0.2,1.1-0.4
		C19.88,24.1,21.68,23.5,24.08,24.4"/>
</g>
<g>
	<path d="M559.8,18.49h1.77v7.28h4.29v1.51h-6.06V18.49z"/>
	<path d="M568.51,27.28h-1.77l3.41-8.86h1.62l3.41,8.86h-1.86l-0.59-1.59h-3.64L568.51,27.28z M570.92,20.8c0,0-1.29,3.46-1.3,3.46
		h2.58L570.92,20.8z"/>
	<path d="M579.42,18.49h3.63c2.17,0,3.24,0.58,3.24,3.04c0,2.48-1.11,3.08-3.27,3.08h-1.85v2.68h-1.75V18.49z M583.05,23.17
		c0.79,0,1.48-0.12,1.48-1.62c0-1.5-0.71-1.61-1.5-1.61h-1.85v3.23H583.05z"/>
	<path d="M595.01,27.28h-2.02l-1.89-2.8h-1.67v2.8h-1.75v-8.79h3.51c2.17,0,3.25,0.52,3.25,2.98c0,1.72-0.54,2.38-1.56,2.63
		L595.01,27.28z M591.18,23.05c0.95,0,1.48-0.22,1.48-1.56c0-1.36-0.59-1.55-1.5-1.55h-1.73v3.11H591.18z"/>
	<path d="M596.3,18.49h5.85v1.55h-4.09v1.96h3.22v1.55h-3.22v2.22h4.09v1.51h-5.85V18.49z"/>
	<path d="M603.61,27.03l0.28-1.48c0.36,0.08,1.96,0.32,2.8,0.32c1.25,0,1.63-0.17,1.63-1.08c0-0.82-0.25-0.9-1.69-1.19
		c-2.4-0.48-2.99-0.85-2.99-2.76c0-1.84,1.18-2.46,3.18-2.46c1.07,0,2.55,0.18,2.93,0.3l-0.28,1.49c-0.55-0.09-1.66-0.25-2.67-0.25
		c-1.02,0-1.38,0.23-1.38,0.95c0,0.83,0.28,0.92,1.66,1.2c2.31,0.46,3.05,0.75,3.05,2.74c0,1.97-1.11,2.57-3.46,2.57
		C605.34,27.38,604.02,27.15,603.61,27.03z"/>
	<path d="M611.12,27.03l0.28-1.48c0.36,0.08,1.96,0.32,2.8,0.32c1.25,0,1.63-0.17,1.63-1.08c0-0.82-0.25-0.9-1.69-1.19
		c-2.4-0.48-2.99-0.85-2.99-2.76c0-1.84,1.18-2.46,3.18-2.46c1.07,0,2.55,0.18,2.93,0.3l-0.28,1.49c-0.55-0.09-1.66-0.25-2.67-0.25
		c-1.02,0-1.38,0.23-1.38,0.95c0,0.83,0.28,0.92,1.66,1.2c2.31,0.46,3.05,0.75,3.05,2.74c0,1.97-1.11,2.57-3.46,2.57
		C612.85,27.38,611.53,27.15,611.12,27.03z"/>
	<path d="M619.14,18.49h5.85v1.55h-4.08v1.96h3.22v1.55h-3.22v2.22h4.08v1.51h-5.85V18.49z"/>
	<path d="M629.62,22.88c0-3.81,1.54-4.53,3.94-4.53c1.44,0,2.1,0.18,2.51,0.26l-0.3,1.5c-0.65-0.11-1.3-0.22-2.23-0.22
		c-1.54,0-2.07,0.62-2.07,2.63v0.65c0,1.96,0.54,2.7,2.09,2.7c1.15,0,1.96-0.21,2.22-0.25l0.29,1.48c-0.47,0.13-1.13,0.29-2.53,0.29
		C631.11,27.4,629.62,26.69,629.62,22.88z"/>
	<path d="M638.68,27.28h-1.77l3.41-8.86h1.62l3.41,8.86h-1.86l-0.59-1.59h-3.64L638.68,27.28z M641.09,20.8c0,0-1.29,3.46-1.3,3.46
		h2.58L641.09,20.8z"/>
	<path d="M646.31,18.49h1.75l3.87,5.6v-5.6h1.69v8.79h-1.51L648,21.31v5.97h-1.69V18.49z"/>
	<path d="M656.34,27.28h-1.77l3.41-8.86h1.62l3.41,8.86h-1.86l-0.59-1.59h-3.64L656.34,27.28z M658.76,20.8c0,0-1.29,3.46-1.3,3.46
		h2.58L658.76,20.8z"/>
	<path d="M663.97,18.49h3.29c2.61,0,3.98,0.61,3.98,4.4c0,3.79-1.37,4.4-3.98,4.4h-3.29V18.49z M667.25,25.87
		c1.54,0,2.13-0.68,2.13-2.7V22.6c0-2.03-0.59-2.67-2.13-2.67h-1.51v5.95H667.25z"/>
	<path d="M672.89,18.49h1.78v8.79h-1.78V18.49z"/>
	<path d="M676.78,18.49h5.85v1.55h-4.09v1.96h3.22v1.55h-3.22v2.22h4.09v1.51h-5.85V18.49z"/>
	<path d="M684.12,18.49h1.75l3.87,5.6v-5.6h1.69v8.79h-1.51l-4.11-5.97v5.97h-1.69V18.49z"/>
	<path d="M693.48,18.49h1.75l3.87,5.6v-5.6h1.69v8.79h-1.51l-4.11-5.97v5.97h-1.69V18.49z"/>
	<path d="M702.84,18.49h5.85v1.55h-4.09v1.96h3.22v1.55h-3.22v2.22h4.09v1.51h-5.85V18.49z"/>
</g>
</svg>
