<?xml version="1.0" encoding="utf-8"?>
<!-- Generator: Adobe Illustrator 21.0.0, SVG Export Plug-In . SVG Version: 6.00 Build 0)  -->
<svg version="1.1" id="Layer_1" xmlns="http://www.w3.org/2000/svg" xmlns:xlink="http://www.w3.org/1999/xlink" x="0px" y="0px"
	 width="378.6px" height="36.5px" viewBox="0 0 378.6 36.5" style="enable-background:new 0 0 378.6 36.5;" xml:space="preserve">
<style type="text/css">
	.st0{fill:#1A1818;}
	.st1{fill:#CC0000;}
</style>
<g>
	<polygon class="st0" points="6.6,19.6 0,19.6 0,16 17.2,16 17.2,19.6 10.7,19.6 10.7,36.3 6.6,36.3 	"/>
	<polygon class="st0" points="20.8,16 24.8,16 24.8,23.9 33.9,23.9 33.9,16 38,16 38,36.3 33.9,36.3 33.9,27.6 24.8,27.6 24.8,36.3 
		20.8,36.3 	"/>
	<polygon class="st0" points="42.8,16 56.3,16 56.3,19.6 46.8,19.6 46.8,24.1 54.3,24.1 54.3,27.7 46.8,27.7 46.8,32.8 56.3,32.8 
		56.3,36.3 42.8,36.3 	"/>
	<path class="st0" d="M66.9,26.1c0-8.8,3.5-10.4,9.1-10.4c3.3,0,4.8,0.4,5.8,0.6l-0.7,3.5c-1.5-0.3-3-0.5-5.2-0.5
		c-3.5,0-4.8,1.4-4.8,6.1v1.5c0,4.5,1.2,6.2,4.8,6.2c2.7,0,4.5-0.5,5.1-0.6l0.7,3.4c-1.1,0.3-2.6,0.7-5.8,0.7
		C70.3,36.5,66.9,34.9,66.9,26.1"/>
	<path class="st0" d="M88.4,36.3h-4.1l7.9-20.4H96l7.9,20.4h-4.3l-1.4-3.7h-8.4L88.4,36.3z M94,21.3c0,0-3,8-3,8h5.9L94,21.3z"/>
	<polygon class="st0" points="106.7,16 110.7,16 119.6,28.9 119.6,16 123.5,16 123.5,36.3 120,36.3 110.6,22.5 110.6,36.3 
		106.7,36.3 	"/>
	<path class="st0" d="M130.4,36.3h-4.1l7.9-20.4h3.7l7.9,20.4h-4.3l-1.4-3.7h-8.4L130.4,36.3z M136,21.3c0,0-3,8-3,8h5.9L136,21.3z"
		/>
	<path class="st0" d="M148.6,16h7.6c6,0,9.2,1.4,9.2,10.1s-3.2,10.1-9.2,10.1h-7.6V16z M156.2,33c3.5,0,4.9-1.6,4.9-6.2v-1.3
		c0-4.7-1.4-6.1-4.9-6.1h-3.5V33L156.2,33L156.2,33z"/>
	<rect x="169.1" y="16" class="st0" width="4.1" height="20.3"/>
	<path class="st0" d="M180.2,36.3h-4.1l7.9-20.4h3.7l7.9,20.4h-4.3l-1.4-3.7h-8.4L180.2,36.3z M185.7,21.3c0,0-3,8-3,8h5.9
		L185.7,21.3z"/>
	<polygon class="st0" points="198.3,16 202.3,16 211.3,28.9 211.3,16 215.1,16 215.1,36.3 211.7,36.3 202.2,22.5 202.2,36.3 
		198.3,36.3 	"/>
	<path class="st0" d="M227.3,16h8.4c5,0,7.5,1.3,7.5,7c0,5.7-2.6,7.1-7.5,7.1h-4.3v6.2h-4L227.3,16L227.3,16z M235.7,26.8
		c1.8,0,3.4-0.3,3.4-3.7s-1.6-3.7-3.5-3.7h-4.3v7.5H235.7z"/>
	<path class="st0" d="M263.9,36.3h-4.6l-4.4-6.5H251v6.5h-4V16h8.1c5,0,7.5,1.2,7.5,6.9c0,4-1.3,5.5-3.6,6.1L263.9,36.3z
		 M255.1,26.5c2.2,0,3.4-0.5,3.4-3.6c0-3.1-1.4-3.6-3.5-3.6h-4v7.2H255.1z"/>
	<polygon class="st0" points="267.5,16 281,16 281,19.6 271.5,19.6 271.5,24.1 279,24.1 279,27.7 271.5,27.7 271.5,32.8 281,32.8 
		281,36.3 267.5,36.3 	"/>
	<path class="st0" d="M284.8,35.7l0.6-3.4c0.8,0.2,4.5,0.8,6.5,0.8c2.9,0,3.8-0.4,3.8-2.5c0-1.9-0.6-2.1-3.9-2.7
		c-5.5-1.1-6.9-2-6.9-6.4c0-4.2,2.7-5.7,7.3-5.7c2.5,0,5.9,0.4,6.8,0.7l-0.6,3.4c-1.3-0.2-3.8-0.6-6.1-0.6c-2.4,0-3.2,0.5-3.2,2.2
		c0,1.9,0.6,2.1,3.8,2.8c5.3,1,7,1.7,7,6.3c0,4.5-2.5,5.9-8,5.9C288.8,36.5,285.7,36,284.8,35.7"/>
	<path class="st0" d="M303,35.7l0.6-3.4c0.8,0.2,4.5,0.8,6.5,0.8c2.9,0,3.8-0.4,3.8-2.5c0-1.9-0.6-2.1-3.9-2.7
		c-5.5-1.1-6.9-2-6.9-6.4c0-4.2,2.7-5.7,7.3-5.7c2.5,0,5.9,0.4,6.8,0.7l-0.6,3.4c-1.3-0.2-3.8-0.6-6.1-0.6c-2.4,0-3.2,0.5-3.2,2.2
		c0,1.9,0.6,2.1,3.8,2.8c5.3,1,7,1.7,7,6.3c0,4.5-2.5,5.9-8,5.9C307,36.5,303.9,36,303,35.7"/>
	<path class="st1" d="M328.8,14.9V0h10.4v16h-5.9c0.8,4,5.9,5.5,5.9,5.5v2.2C339.2,23.7,330,22,328.8,14.9"/>
	<path class="st1" d="M378.6,14.9V0h-10.4v16h5.9c-0.8,4-5.9,5.5-5.9,5.5v2.2C368.1,23.7,377.4,22,378.6,14.9"/>
	<g>
		<g>
			<g>
				<path class="st1" d="M358,16.2c0,0,0-0.1,0-0.1c0,0,0,0,0.1-0.1l5.4-3.9l-1.2-1c0,0,0,0,0-0.1c0,0,0-0.1,0-0.1l0,0l1-2.7
					l-2.7,0.6c0,0-0.1,0-0.1,0c0,0,0,0-0.1-0.1l0,0l-0.9-1.4l-2.7,2.6c0,0-0.1,0.1-0.1,0s-0.1-0.1-0.1-0.1l1.2-5.8L356,5.2
					c0,0-0.1,0-0.1,0c0,0-0.1,0-0.1-0.1l0,0l-2-4.2l-2,4.2c0,0,0,0.1-0.1,0.1s-0.1,0-0.1,0L349.7,4l1.2,5.8c0,0.1,0,0.1-0.1,0.1
					s-0.1,0-0.1,0L348,7.3l-0.9,1.4l0,0c0,0,0,0.1-0.1,0.1c0,0-0.1,0-0.1,0l-2.7-0.6l1,2.7l0,0c0,0,0,0,0,0.1s0,0.1,0,0.1l-1.2,1
					l5.4,3.9c0,0,0,0,0.1,0.1c0,0,0,0.1,0,0.1l0,0l-1.2,1.9l4.7-0.7c0.1,0,0.2,0,0.2,0.1v4h1.1v-4c0-0.1,0.1-0.1,0.2-0.1l4.7,0.7
					L358,16.2L358,16.2z"/>
			</g>
		</g>
	</g>
</g>
</svg>
