<?xml version="1.0" encoding="utf-8"?>
<!-- Generator: Adobe Illustrator 21.0.0, SVG Export Plug-In . SVG Version: 6.00 Build 0)  -->
<svg version="1.1" id="Layer_1" xmlns="http://www.w3.org/2000/svg" xmlns:xlink="http://www.w3.org/1999/xlink" x="0px" y="0px"
	 width="185px" height="50px" viewBox="0 0 185 50" style="enable-background:new 0 0 185 50;" xml:space="preserve">
<style type="text/css">
	.st0{fill:#0089cf;}
</style>
<g>
	<polygon class="st0" points="165.6,4.8 150.4,10 169.2,17.1 162.3,35.8 175.1,28.5 183.4,11.5 	"/>
	<polygon class="st0" points="20.9,36.2 20.8,36.2 10.2,17.9 4.9,17.9 4.9,44.8 9.7,44.8 9.7,25.6 9.8,25.6 20.8,44.8 25.8,44.8 
		25.8,17.9 20.9,17.9 	"/>
	<path class="st0" d="M38.1,25c-5.3,0-8.4,3.9-8.4,10.1s3.2,10.1,8.2,10.1c3.7,0,6.3-1.2,8.1-4l-3.4-2.1c-1.2,1.3-2.2,2.3-4.3,2.3
		s-4-1.6-4-5.6H46V34C46,29.3,43.2,25,38.1,25z M34.3,32.7c0.1-2.7,1.5-4.3,3.7-4.3s3.7,1.6,3.7,4.3H34.3z"/>
	<polygon class="st0" points="64.8,37.5 64.7,37.5 62.1,25.4 57.8,25.4 55,37.5 54.9,37.5 52.2,25.4 47.8,25.4 52.8,44.8 57,44.8 
		59.9,32.7 59.9,32.7 62.8,44.8 67,44.8 72,25.4 67.6,25.4 	"/>
	<path class="st0" d="M78,30.4c0-1.2,0.8-1.9,2.6-1.9c1.5,0,2.7,1,3.6,2.1l2.9-2.5c-1.7-2-4.3-2.9-6.8-2.9c-3.4,0-6.4,2-6.4,5.6
		c0,6.8,9.7,5.6,9.7,8.9c0,1.3-1.1,2.2-2.8,2.2c-2,0-3.4-1.3-4.5-2.8l-3.1,2.3c1.7,2.5,4.3,3.9,7.4,3.9c4.1,0,7.1-1.8,7.1-5.8
		C87.7,32.3,78,33.7,78,30.4z"/>
	<path class="st0" d="M100.6,25c-2.3,0-4.2,1.3-5.6,2.5v-9.6h-4.6v27H95v-14c0.8-0.9,2.3-2.1,4.3-2.1c1.6,0,2.4,0.8,2.4,3.4v12.6
		h4.6V31.5C106.3,27.6,104.4,25,100.6,25z"/>
	<path class="st0" d="M121.4,39.4c-0.8,0.9-2.3,2.1-4.3,2.1c-1.6,0-2.4-0.8-2.4-3.4V25.4h-4.6v13.3c0,4,1.9,6.5,5.8,6.5
		c2.3,0,4.3-1.3,6-2.5v2.1h4.3V25.4h-4.6V39.4z"/>
	<path class="st0" d="M139.3,25c-1.6,0-3.8,0.9-4.7,2.2h-0.1v-9.3h-4.6v27h3.6l0.5-2.1c1.6,1.6,3.2,2.5,5.3,2.5
		c5.2,0,7.8-4.6,7.8-10.6C147,29.8,144.3,25,139.3,25z M138.1,41.5c-2,0-2.6-1-3.6-1.7v-9.3c0.9-0.9,2.1-1.6,3.6-1.6
		c2.8,0,4.3,2.2,4.3,6.3S140.8,41.5,138.1,41.5z"/>
</g>
</svg>
