<?xml version="1.0" encoding="utf-8"?>
<!-- Generator: Adobe Illustrator 21.0.0, SVG Export Plug-In . SVG Version: 6.00 Build 0)  -->
<svg version="1.1" id="Layer_1" xmlns="http://www.w3.org/2000/svg" xmlns:xlink="http://www.w3.org/1999/xlink" x="0px" y="0px"
	 width="200px" height="70px" viewBox="0 0 200 70" style="enable-background:new 0 0 200 70;" xml:space="preserve">
<style type="text/css">
	.st0{fill:#00ADEE;}
	.st1{fill:#2A364B;}
</style>
<g>
	<g>
		<g id="XMLID_1018_">
			<polygon id="XMLID_1022_" class="st0" points="5.2,47.5 35.3,47.5 38.5,42 2,42 			"/>
			<polygon id="XMLID_1021_" class="st0" points="29.9,23.3 10.6,23.3 7.4,28.8 33.1,28.8 			"/>
			<polygon id="XMLID_1020_" class="st0" points="10.6,56.9 29.9,56.9 33.1,51.4 7.4,51.4 			"/>
			<polygon id="XMLID_1019_" class="st0" points="5.2,32.6 2,38.2 38.5,38.2 35.3,32.6 			"/>
		</g>
		<g id="XMLID_935_">
			<g>
				<path id="XMLID_16_" class="st1" d="M24.1,23.3h5.8L39.6,40l-9.7,16.8h-5.8L33.4,40L24.1,23.3z"/>
			</g>
		</g>
	</g>
	<g>
		<path class="st1" d="M128.6,20.7v47.1h-9.4V20.7h-17.5v-8.4h44.5v8.4H128.6z"/>
		<path class="st1" d="M180.4,20.7v47.1h-9.4V20.7h-17.5v-8.4H198v8.4H180.4z"/>
		<path class="st1" d="M84.3,38.8c-2.4-1.1-5.4-2.2-9.2-3.3c-2.9-0.8-5.1-1.6-6.7-2.2c-1.6-0.7-2.9-1.6-3.9-2.7
			c-1-1.1-1.6-2.5-1.6-4.1c0-1.9,0.8-3.3,2.4-4.3c1.6-1,3.8-1.5,6.6-1.5c2.3,0,4.8,0.4,7.7,1.3c2.7,0.8,5.4,2,8.1,3.6l4.4-7.9
			c-2.6-1.8-5.6-3.1-9-4.2c-3.4-1-6.8-1.5-10.4-1.5c-4,0-7.5,0.6-10.6,1.9c-3,1.3-5.4,3.1-7.1,5.4c-1.7,2.3-2.5,5.1-2.5,8.2
			c0,3.4,0.8,6.2,2.5,8.2c1.7,2.1,3.7,3.6,6,4.7c2.3,1.1,5.4,2.1,9.2,3.3c2.8,0.9,5.1,1.6,6.7,2.2c1.6,0.6,3,1.5,4,2.6
			c1.1,1.1,1.6,2.5,1.6,4.2c0,2.1-0.9,3.8-2.7,5c-1.8,1.2-4.4,1.8-7.6,1.8c-3,0-6.2-0.7-9.5-2.1c-3.2-1.3-6.1-3.2-8.8-5.6l-4.4,7.7
			c3,2.7,6.4,4.8,10.4,6.4c4,1.6,8.1,2.4,12.3,2.4c4.1,0,7.7-0.7,10.9-2c3.2-1.3,5.6-3.2,7.4-5.6c1.8-2.4,2.7-5.3,2.7-8.5
			c0-3.4-0.8-6.2-2.5-8.4C88.7,41.5,86.7,39.9,84.3,38.8z"/>
	</g>
</g>
</svg>
