<?xml version="1.0" encoding="utf-8"?>
<!-- Generator: Adobe Illustrator 16.0.3, SVG Export Plug-In . SVG Version: 6.00 Build 0)  -->
<!DOCTYPE svg PUBLIC "-//W3C//DTD SVG 1.1//EN" "http://www.w3.org/Graphics/SVG/1.1/DTD/svg11.dtd">
<svg version="1.1" id="Layer_1" xmlns="http://www.w3.org/2000/svg" xmlns:xlink="http://www.w3.org/1999/xlink" x="0px" y="0px"
	 width="739.52px" height="739.52px" viewBox="110.24 -89.76 739.52 739.52" enable-background="new 110.24 -89.76 739.52 739.52"
	 xml:space="preserve">
<g>
	<title>logo</title>
	<rect x="110.24" y="-89.76" fill="#29AC57" width="739.52" height="739.52"/>
	<path fill="#FFFFFF" d="M242.874,518.26L242.874,518.26l13.671,39.732h-30.187L242.874,518.26 M186.621,590.698
		c-1.534,0.91-3.362,1.298-5.672,1.298h-6.974v13.047h27.859h27.877v-13.047h-6.706c-3.478,0-5.939-0.388-6.983-1.19
		c-1.132-0.758-1.409-2.033-0.775-3.853l5.823-16.007h40.129l4.914,16.007c0.75,1.819,0.366,3.095-0.802,3.853
		c-1.284,0.803-3.754,1.19-7.206,1.19h-6.733v13.047h36.669h36.5v-13.047h-6.831c-3.085,0-5.172-0.388-6.064-0.896
		c-1.043-0.535-1.944-1.793-2.979-5.453l-36.367-94.622h-41.574l-40.763,94.622C189.313,588.495,188.163,589.78,186.621,590.698
		L186.621,590.698z"/>
	<path fill="#FFFFFF" d="M382.989,586.952c0,1.819,0.508,3.095,1.953,3.853c1.409,0.803,3.728,1.19,7.09,1.19h6.189v13.047h-27.868
		h-27.993v-13.047h6.046c3.504,0,5.939-0.388,7.223-1.19c1.427-0.758,2.069-2.033,2.069-3.853v-76.55
		c0-1.841-0.642-3.125-2.069-3.893c-1.284-0.718-3.719-1.105-7.223-1.105h-6.046v-13.078h29.277h29.402l53.176,74.744v-56.668
		c0-1.841-0.767-3.125-2.069-3.893c-1.561-0.718-3.87-1.105-7.223-1.105h-6.198v-13.078h27.877h28.118v13.078h-6.296
		c-3.362,0-5.823,0.388-7.125,1.105c-1.285,0.768-2.051,2.052-2.051,3.893v94.64h-18.594h-18.575l-59.089-78.556V586.952
		L382.989,586.952z"/>
	<path fill="#FFFFFF" d="M710.706,518.26L710.706,518.26l13.162,39.732h-29.401L710.706,518.26 M655.996,590.698
		c-1.418,0.91-3.318,1.298-5.298,1.298h-6.956v13.047h26.985h27.092v-13.047h-6.456c-3.354,0-5.689-0.388-6.724-1.19
		c-1.258-0.758-1.418-2.033-0.785-3.853l5.716-16.007h38.828l4.771,16.007c0.758,1.819,0.517,3.095-0.776,3.853
		c-1.293,0.803-3.603,1.19-7.224,1.19h-6.215v13.047h35.492h35.225v-13.047h-6.438c-2.961,0-4.896-0.388-5.939-0.896
		c-1.017-0.535-2.068-1.793-2.845-5.453l-35.1-94.622h-40.38l-39.604,94.622C658.591,588.495,657.547,589.78,655.996,590.698
		L655.996,590.698z"/>
	<path fill="#FFFFFF" d="M611.113,497.236l4.637-7.219h15.989v41.904h-18.316c0,0-2.56-14.059-12.887-19.913
		c-10.335-5.738-14.331-7.433-33.29-7.014c-18.834,0.473-19.352,17.265-12.396,20.368c7.224,3.144,19.103,5.841,27.36,7.031
		c8.258,1.213,25.799,5.578,36.366,10.64c10.603,5.092,20.011,15.529,20.011,28.821c0,13.31-9.666,38.088-56.128,38.088
		c-30.713,0-44.134-10.612-44.134-10.612l-5.413,8.784h-15.989v-44.964h17.675c0,0,5.547,20.203,20.645,25.211
		c15.08,5.078,28.769,6.871,39.604,1.178c10.844-5.694,10.585-17.791-2.318-21.555c-12.896-3.736-34.057-6.8-51.099-11.78
		c-16.783-5.173-27.101-14.406-26.066-37.883c1.168-23.931,36.643-30.017,46.443-30.017
		C571.634,488.305,593.313,486.838,611.113,497.236L611.113,497.236z"/>
</g>
</svg>
