<?xml version="1.0" encoding="utf-8"?>
<!-- Generator: Adobe Illustrator 16.0.3, SVG Export Plug-In . SVG Version: 6.00 Build 0)  -->
<!DOCTYPE svg PUBLIC "-//W3C//DTD SVG 1.1//EN" "http://www.w3.org/Graphics/SVG/1.1/DTD/svg11.dtd">
<svg version="1.1" id="Livello_1" xmlns="http://www.w3.org/2000/svg" xmlns:xlink="http://www.w3.org/1999/xlink" x="0px" y="0px"
	 width="960px" height="560px" viewBox="0 0 960 560" enable-background="new 0 0 960 560" xml:space="preserve">
<g>
	<rect x="23.09" y="160.676" fill="#29AC57" width="285.191" height="285.19"/>
	<path fill="#FFFFFF" d="M74.239,395.155L74.239,395.155l5.274,15.322H67.87L74.239,395.155 M52.545,423.089
		c-0.591,0.352-1.297,0.501-2.187,0.501h-2.689v5.031h10.744h10.75v-5.031h-2.586c-1.341,0-2.291-0.149-2.691-0.459
		c-0.438-0.292-0.545-0.784-0.301-1.485l2.246-6.173h15.476l1.895,6.173c0.289,0.701,0.141,1.193-0.308,1.485
		c-0.496,0.31-1.45,0.459-2.779,0.459h-2.597v5.031h14.14h14.076v-5.031h-2.634c-1.188,0-1.993-0.149-2.336-0.346
		c-0.404-0.206-0.75-0.691-1.149-2.104l-14.026-36.489H69.557l-15.722,36.489C53.584,422.24,53.142,422.736,52.545,423.089
		L52.545,423.089z"/>
	<path fill="#FFFFFF" d="M128.273,421.646c0,0.701,0.198,1.193,0.753,1.485c0.545,0.31,1.439,0.459,2.735,0.459h2.386v5.031h-10.745
		h-10.797v-5.031h2.332c1.352,0,2.292-0.149,2.788-0.459c0.55-0.292,0.796-0.784,0.796-1.485v-29.521c0-0.71-0.246-1.205-0.796-1.5
		c-0.495-0.278-1.436-0.429-2.788-0.429h-2.332v-5.042h11.292h11.337l20.506,28.824v-21.854c0-0.71-0.295-1.205-0.798-1.5
		c-0.602-0.278-1.491-0.429-2.786-0.429h-2.39v-5.042h10.752h10.843v5.042h-2.43c-1.296,0-2.246,0.15-2.748,0.429
		c-0.495,0.295-0.792,0.79-0.792,1.5v36.497h-7.168h-7.165l-22.788-30.295V421.646L128.273,421.646z"/>
	<path fill="#FFFFFF" d="M254.656,395.155L254.656,395.155l5.076,15.322h-11.339L254.656,395.155 M233.557,423.089
		c-0.546,0.352-1.279,0.501-2.042,0.501h-2.682v5.031h10.406h10.448v-5.031h-2.49c-1.293,0-2.195-0.149-2.593-0.459
		c-0.485-0.292-0.547-0.784-0.304-1.485l2.206-6.173h14.973l1.841,6.173c0.292,0.701,0.199,1.193-0.299,1.485
		c-0.499,0.31-1.39,0.459-2.786,0.459h-2.397v5.031h13.688h13.585v-5.031h-2.483c-1.143,0-1.888-0.149-2.291-0.346
		c-0.392-0.206-0.798-0.691-1.096-2.104l-13.537-36.489H250.13l-15.273,36.489C234.559,422.24,234.155,422.736,233.557,423.089
		L233.557,423.089z"/>
	<path fill="#FFFFFF" d="M216.249,387.046l1.788-2.783h6.167v16.159h-7.064c0,0-0.987-5.421-4.97-7.679
		c-3.986-2.214-5.526-2.866-12.837-2.704c-7.264,0.182-7.463,6.657-4.781,7.854c2.785,1.212,7.367,2.254,10.551,2.712
		c3.185,0.468,9.949,2.151,14.024,4.104c4.09,1.963,7.718,5.989,7.718,11.115c0,5.132-3.729,14.688-21.646,14.688
		c-11.844,0-17.019-4.093-17.019-4.093l-2.089,3.387h-6.167v-17.34h6.818c0,0,2.139,7.791,7.96,9.723
		c5.816,1.958,11.095,2.65,15.273,0.454c4.182-2.196,4.082-6.861-0.894-8.313c-4.973-1.44-13.135-2.622-19.706-4.543
		c-6.473-1.995-10.451-5.556-10.054-14.609c0.452-9.228,14.132-11.575,17.912-11.575
		C201.024,383.603,209.385,383.036,216.249,387.046L216.249,387.046z"/>
</g>
<g>
	<path fill="#29AC57" d="M398.768,338.718L398.768,338.718l13.692,39.778h-30.228L398.768,338.718 M342.447,411.24
		c-1.535,0.913-3.367,1.302-5.678,1.302h-6.982v13.062h27.893h27.909v-13.062h-6.713c-3.482,0-5.947-0.389-6.986-1.192
		c-1.138-0.758-1.415-2.036-0.782-3.856l5.832-16.025h40.177l4.92,16.025c0.75,1.82,0.365,3.099-0.798,3.856
		c-1.287,0.804-3.764,1.192-7.214,1.192h-6.742v13.062h36.709h36.542v-13.062h-6.838c-3.085,0-5.174-0.389-6.066-0.898
		c-1.049-0.534-1.948-1.795-2.983-5.461l-36.414-94.732h-41.621l-40.816,94.732C345.144,409.037,343.997,410.323,342.447,411.24
		L342.447,411.24z"/>
	<path fill="#29AC57" d="M539.051,407.493c0,1.82,0.513,3.099,1.954,3.856c1.416,0.804,3.737,1.192,7.101,1.192h6.193v13.062
		h-27.895h-28.031v-13.062h6.054c3.509,0,5.951-0.389,7.237-1.192c1.428-0.758,2.067-2.036,2.067-3.856v-76.643
		c0-1.844-0.64-3.129-2.067-3.896c-1.286-0.722-3.729-1.112-7.237-1.112h-6.054v-13.091h29.317h29.433l53.24,74.834v-56.735
		c0-1.844-0.766-3.129-2.074-3.896c-1.562-0.722-3.868-1.112-7.23-1.112h-6.203v-13.091h27.913h28.152v13.091h-6.308
		c-3.367,0-5.831,0.391-7.134,1.112c-1.286,0.767-2.057,2.052-2.057,3.896v94.753h-18.61h-18.602l-59.16-78.651V407.493
		L539.051,407.493z"/>
	<path fill="#29AC57" d="M867.165,338.718L867.165,338.718l13.18,39.778h-29.438L867.165,338.718 M812.388,411.24
		c-1.417,0.913-3.319,1.302-5.303,1.302h-6.964v13.062h27.017h27.126v-13.062H847.8c-3.356,0-5.699-0.389-6.733-1.192
		c-1.257-0.758-1.419-2.036-0.786-3.856l5.726-16.025h38.871l4.779,16.025c0.758,1.82,0.516,3.099-0.778,3.856
		c-1.292,0.804-3.604,1.192-7.23,1.192h-6.225v13.062h35.535h35.27v-13.062h-6.446c-2.967,0-4.901-0.389-5.949-0.898
		c-1.017-0.534-2.07-1.795-2.847-5.461l-35.142-94.732h-40.427l-39.652,94.732C814.988,409.037,813.941,410.323,812.388,411.24
		L812.388,411.24z"/>
	<path fill="#29AC57" d="M767.451,317.666l4.645-7.226h16.009v41.953h-18.339c0,0-2.563-14.074-12.902-19.937
		c-10.35-5.748-14.348-7.44-33.33-7.021c-18.857,0.472-19.375,17.284-12.411,20.39c7.231,3.146,19.125,5.852,27.393,7.04
		c8.268,1.216,25.831,5.586,36.41,10.654c10.618,5.096,20.034,15.549,20.034,28.856c0,13.324-9.681,38.135-56.193,38.135
		c-30.749,0-44.186-10.625-44.186-10.625l-5.423,8.792h-16.012v-45.018h17.702c0,0,5.553,20.227,20.669,25.241
		c15.097,5.084,28.801,6.882,39.651,1.179c10.857-5.701,10.598-17.812-2.322-21.58c-12.909-3.739-34.1-6.808-51.157-11.794
		c-16.805-5.181-27.133-14.424-26.104-37.929c1.175-23.957,36.692-30.052,46.504-30.052
		C727.927,308.727,749.632,307.256,767.451,317.666L767.451,317.666z"/>
</g>
<g>
	<path fill="#29AC57" d="M343.166,254.737l28.644-66.932h9.644h9.702l27.084,66.527c1,2.425,1.963,4.042,2.887,4.851
		c0.924,0.809,2.252,1.213,3.985,1.213h2.83v9.586h-22.818h-22.817v-9.586h6.063c3.812,0,6.198-0.376,7.161-1.126
		c0.962-0.751,1-2.262,0.115-4.533l-3.865-10.106h-31.667l-4.01,10.106c-0.963,2.271-0.953,3.782,0.029,4.533
		c0.982,0.75,3.436,1.126,7.363,1.126h6.179v9.586h-18.771h-18.828v-9.586h3.35c2.079,0,3.638-0.385,4.678-1.155
		C341.144,258.51,342.164,257.008,343.166,254.737z M364.392,234.639h23.759l-11.524-29.683h0.027L364.392,234.639z"/>
	<path fill="#29AC57" d="M446.999,255.429c0,1.694,1.029,2.907,3.089,3.639c2.059,0.731,5.515,1.097,10.366,1.097h15.997
		c8.7,0,15.409,1.637,20.126,4.909c4.715,3.272,7.074,7.931,7.074,13.976c0,5.774-3.234,10.365-9.702,13.772
		s-15.227,5.111-26.276,5.111c-12.012,0-21.012-1.165-26.998-3.494c-5.987-2.33-8.98-5.824-8.98-10.481c0-2.465,1-4.745,3.003-6.844
		c2.001-2.099,4.331-3.32,6.988-3.667l-1.617-0.809c-4.543-2.425-6.814-6.102-6.814-11.029c0-2.657,1.155-5.294,3.465-7.912
		c2.31-2.617,5.14-4.504,8.489-5.659l-0.635-0.462c-5.391-3.503-8.085-8.259-8.085-14.265c0-6.775,2.694-12.146,8.085-16.111
		c5.39-3.966,12.685-5.948,21.887-5.948c8.393,0,15.496,2.137,21.309,6.41l0.347,0.288c0.77-1.771,1.732-3.35,2.888-4.735
		c2.579-3.041,5.794-4.563,9.645-4.563c3.349,0,6.015,0.896,7.998,2.686c1.982,1.79,2.974,4.226,2.974,7.306
		c0,2.388-0.655,4.283-1.963,5.688c-1.31,1.405-3.081,2.107-5.313,2.107c-1.771,0-3.186-0.404-4.244-1.213
		c-1.06-0.809-1.588-1.886-1.588-3.233c0-1.771,0.538-3.195,1.616-4.273c0.347-0.347,0.712-0.615,1.098-0.809
		c-0.462-0.115-0.963-0.153-1.502-0.115c-1.848,0-3.33,0.731-4.446,2.194c-0.462,0.616-0.809,1.309-1.039,2.079
		c-0.116,0.462-0.059,1.29,0.173,2.482c0.23,1.194,0.577,2.426,1.039,3.696c0.693,1.887,1.04,3.908,1.04,6.063
		c0,6.507-2.503,11.387-7.508,14.64c-5.005,3.254-12.513,4.88-22.522,4.88c-6.314-0.038-11.743-0.866-16.286-2.483
		c-0.886,0.578-1.637,1.367-2.252,2.368C447.307,253.678,446.999,254.582,446.999,255.429z M445.959,282.687
		c0,2.271,1.77,3.975,5.313,5.11c3.542,1.136,8.874,1.704,15.997,1.704c7.392,0,12.792-0.501,16.199-1.502s5.11-2.599,5.11-4.793
		c0-1.926-1.165-3.552-3.493-4.88c-2.33-1.328-5.189-1.992-8.576-1.992h-15.997c-3.234,0-6.199-0.154-8.894-0.462
		c-1.579,0.693-2.916,1.693-4.014,3.003C446.508,280.184,445.959,281.454,445.959,282.687z M466.46,219.856
		c-3.812,0-6.604,0.981-8.374,2.945c-1.771,1.963-2.657,5.063-2.657,9.297c0,4.197,0.885,7.268,2.657,9.212
		c1.77,1.944,4.562,2.916,8.374,2.916s6.612-0.972,8.402-2.916c1.791-1.944,2.686-5.015,2.686-9.212
		c0-4.234-0.905-7.334-2.714-9.297C473.063,220.837,470.272,219.856,466.46,219.856z"/>
	<path fill="#29AC57" d="M546.328,271.599c-9.856,0-17.672-2.607-23.446-7.825c-5.775-5.216-8.663-12.252-8.663-21.107
		c0-9.624,2.896-17.267,8.691-22.927c5.794-5.659,13.601-8.488,23.418-8.488c9.124,0,16.352,2.714,21.685,8.143
		c5.332,5.428,7.998,12.782,7.998,22.06v1.617h-42.965c0.308,5.544,1.654,10.011,4.042,13.398c2.733,3.927,6.525,5.89,11.377,5.89
		c3.35,0,6.13-0.885,8.345-2.656c2.213-1.771,3.859-4.427,4.938-7.97h14.264c-1.386,6.623-4.543,11.589-9.471,14.899
		C561.611,269.944,554.875,271.599,546.328,271.599z M559.495,234.177c-0.501-3.503-1.444-6.274-2.83-8.315
		c-2.156-3.234-5.563-4.852-10.222-4.852c-4.659,0-8.085,1.541-10.279,4.62c-1.464,2.003-2.426,4.852-2.888,8.547H559.495z"/>
	<path fill="#29AC57" d="M591.604,253.928v-25.006c0-2.579-0.404-4.303-1.213-5.169s-2.406-1.299-4.793-1.299h-3.87v-9.587h11.724
		h11.723h4.563v7.45c1.424-1.424,2.983-2.715,4.678-3.869c4.967-3.465,10.299-5.197,15.997-5.197c6.274,0,11.106,1.867,14.495,5.602
		c3.387,3.734,5.082,9.048,5.082,15.938v21.137c0,2.579,0.413,4.302,1.241,5.168c0.827,0.866,2.492,1.3,4.995,1.3h3.984v9.586
		h-18.133h-18.191v-9.586h3.119c1.925,0,3.214-0.434,3.869-1.3c0.654-0.866,0.981-2.589,0.981-5.168v-15.593
		c0-4.928-0.693-8.537-2.079-10.828c-1.386-2.29-3.562-3.436-6.525-3.436c-2.734,0-5.255,0.789-7.565,2.367
		c-2.118,1.425-4.101,3.562-5.948,6.41v21.079c0,2.579,0.327,4.302,0.981,5.168s1.982,1.3,3.985,1.3h3.176v9.586h-18.133h-18.134
		v-9.586h3.869c2.464,0,4.101-0.442,4.909-1.328C591.199,258.221,591.604,256.507,591.604,253.928z"/>
	<path fill="#29AC57" d="M664.887,259.991l38.261-36.036l1.962-1.79h-16.025c-4.081,0-6.834,0.598-8.258,1.79
		c-1.425,1.194-2.253,3.581-2.483,7.161v4.852h-10.511v-11.551v-11.55h33.264h26.045v5.544v5.544l-38.299,36.036l-0.75,0.692h18.837
		c3.733,0,6.256-0.673,7.565-2.021c1.308-1.348,2.098-4.043,2.367-8.085v-6.699h10.511v13.052v13.051h-36.44h-26.045v-4.966V259.991
		z"/>
	<path fill="#29AC57" d="M745.102,253.928v-25.006c0-2.579-0.396-4.303-1.184-5.169c-0.79-0.866-2.359-1.299-4.707-1.299h-3.754
		v-9.587h11.608h11.607h4.563v41.061c0,2.579,0.326,4.302,0.981,5.168c0.654,0.866,1.982,1.3,3.984,1.3h3.177v9.586h-18.134h-18.133
		v-9.586h3.869c2.463,0,4.1-0.442,4.908-1.328C744.697,258.221,745.102,256.507,745.102,253.928z M751.714,187.458
		c3.666,0,6.483,0.828,8.452,2.483s2.953,4.023,2.953,7.103c0,3.081-0.984,5.448-2.953,7.104s-4.786,2.483-8.452,2.483
		c-3.667,0-6.484-0.828-8.453-2.483s-2.952-4.022-2.952-7.104c0-3.079,0.983-5.447,2.952-7.103S748.047,187.458,751.714,187.458z"/>
	<path fill="#29AC57" d="M796.209,271.599c-6.083,0-10.905-1.406-14.466-4.216c-3.562-2.81-5.342-6.621-5.342-11.435
		c0-4.735,1.511-8.383,4.533-10.943c3.021-2.56,8.229-4.609,15.621-6.15l10.973-2.31c2.502-0.539,4.369-1.626,5.602-3.263
		c1.231-1.636,1.636-3.59,1.213-5.862c-0.462-2.617-1.464-4.6-3.003-5.947c-2.157-1.849-5.68-2.772-10.568-2.772
		c-4.005,0-7.161,0.713-9.471,2.137l-0.462,0.231c2.194,0.115,3.849,0.692,4.966,1.732c1.271,1.193,1.906,2.983,1.906,5.37
		c0,2.003-0.896,3.688-2.686,5.054s-3.976,2.05-6.555,2.05c-2.618,0-4.822-0.827-6.612-2.483c-1.79-1.655-2.686-3.696-2.686-6.121
		c0-4.735,2.166-8.489,6.497-11.262c4.331-2.771,10.192-4.157,17.585-4.157c9.739,0,17.084,1.887,22.031,5.659
		c4.946,3.773,7.421,9.394,7.421,16.862v21.945c0,2.233,0.221,3.86,0.664,4.88c0.442,1.021,1.126,1.53,2.05,1.53
		c1.309,0,2.262-0.654,2.858-1.964c0.597-1.309,0.896-3.368,0.896-6.179V250h6.987v3.985c0,5.274-1.366,9.452-4.1,12.531
		c-2.734,3.081-6.431,4.62-11.088,4.62c-5.044,0-9.048-1.655-12.012-4.967c-1.387-1.578-2.465-3.407-3.234-5.486l-0.231,0.404
		C811.224,268.096,804.794,271.599,796.209,271.599z M814.573,244.688v-3.35l-6.236,2.426c-5.391,2.117-8.903,3.879-10.54,5.284
		s-2.454,3.32-2.454,5.746c0,2.156,0.674,3.889,2.021,5.197c1.347,1.31,3.138,1.963,5.371,1.963c4.35,0,7.642-2.482,9.875-7.449
		l1.039-2.656c0.269-0.654,0.481-1.675,0.636-3.061C814.477,247.402,814.573,246.035,814.573,244.688z"/>
</g>
</svg>
