<?xml version="1.0" encoding="utf-8"?>
<!-- Generator: Adobe Illustrator 21.0.0, SVG Export Plug-In . SVG Version: 6.00 Build 0)  -->
<svg version="1.1" id="svg" xmlns="http://www.w3.org/2000/svg" xmlns:xlink="http://www.w3.org/1999/xlink" x="0px" y="0px"
	 width="312px" height="91.5px" viewBox="0 0 312 91.5" style="enable-background:new 0 0 312 91.5;" xml:space="preserve">
<style type="text/css">
	.st0{fill:#FFFFFF;}
</style>
<g id="svgg">
	<path id="path0" class="st0" d="M6.4,8.5C6.2,8.9,8.2,10.2,28.7,23c12.4,7.7,22.4,14.1,22.4,14.2s-9.2,6.4-20.3,14.1
		c-21,14.5-20.5,14.2-20.1,14.8c0.2,0.3,42.3-28.2,42.5-28.9C53.3,37,7.2,8.1,6.8,8.1C6.7,8.1,6.5,8.3,6.4,8.5 M44.8,8.5
		c-0.4,0.4-0.3,0.6,8.2,16.1c4.7,8.7,8.7,15.8,8.7,15.9c0.1,0.1,2.2-3.8,4.7-8.5c2.6-4.8,6.2-11.5,8.1-15c2.9-5.4,3.4-6.4,3.2-6.7
		c-0.6-0.6-0.6-0.6-7.2,11.7c-5.4,10.1-8.6,15.9-8.7,15.9s-3.8-6.7-8.2-14.8C44.4,6.4,45.4,8,44.8,8.5 M65.3,42.4
		C56.6,47,49.4,50.9,49.4,51c0,0.2,27,19.5,27.2,19.5c0.1,0,0.7-0.9,0.6-0.9c0,0-1.3-0.9-2.8-2s-3-2.1-3.3-2.3
		c-0.3-0.2-4.8-3.4-10-7.2c-5.2-3.7-9.5-6.9-9.6-7c0-0.1,3.8-2.2,8.6-4.7c4.7-2.5,9.7-5.1,11-5.8s4.1-2.2,6.1-3.2
		c4.5-2.3,4.6-2.4,4.4-3S82.9,33.1,65.3,42.4 M232.6,38.1c-6.8,2.1-7.5,11.7-1.1,14.7c3.1,1.5,10.5,0,8.9-1.8
		c-0.4-0.4-0.4-0.4-1.4,0.3c-3.6,2.5-8.7,0.9-10.2-3.1c-2.4-6.4,4.7-12,10.3-8.1c0.6,0.4,0.9,0.5,1.1,0.3
		C242.4,39.1,235.8,37.1,232.6,38.1 M110.8,45.6l0.1,7.6h0.5h0.5l0.1-6.5l0.1-6.5l2.5,3.8c1.7,2.6,2.6,3.8,2.9,3.8
		c0.3,0,1.2-1.2,2.8-3.7c1.3-2,2.5-3.7,2.6-3.7s0.2,2.7,0.2,6.5v6.5h0.5h0.5v-7.6v-7.6h-0.6c-0.5,0-0.9,0.4-3.2,4.1
		c-1.5,2.3-2.7,4.1-2.8,4.1s-1.4-1.9-2.8-4.1c-2.4-3.7-2.7-4.1-3.3-4.1h-0.6L110.8,45.6 M136.6,45.7v7.6h4.9h4.9v-0.5v-0.5h-4.2
		c-5,0-4.5,0.4-4.4-3.6l0.1-2.7l3.9-0.1l3.9-0.1v-0.5v-0.5l-3.9-0.1l-3.9-0.1v-2.8V39l4.2-0.1l4.2-0.1v-0.5v-0.5h-4.8h-4.8
		L136.6,45.7 M160.3,38.3c0,0.1-0.1,2-0.2,4.2c-0.1,5.7-1.3,9.6-2.9,9.7l-0.7,0.1l0.1,2.2c0.1,2.1,0.1,2.2,0.5,2.2
		c0.5,0.1,0.5,0,0.5-1.6v-1.7h6.2h6.1v1.7c0,1.7,0,1.7,0.5,1.6s0.5-0.2,0.5-2.2l0.1-2.2l-0.9-0.1l-0.9-0.1l-0.1-7.1l-0.1-7.1h-4.4
		C161.4,38,160.3,38.1,160.3,38.3 M182.3,38.3c-0.1,0.1-0.1,3.6,0,7.6l0.1,7.3l0.5,0.1c0.5,0.1,0.9-0.5,4.8-6.3
		c2.4-3.5,4.4-6.4,4.5-6.5s0.2,2.5,0.2,6.4v6.5l0.6-0.1l0.6-0.1v-7.5v-7.6H193c-0.6,0-0.9,0.5-5,6.5l-4.4,6.5l-0.1-6.5l-0.1-6.5
		h-0.5C182.7,38,182.4,38.2,182.3,38.3 M210.4,38.6c-0.5,1-5.7,14.2-5.7,14.4c0,0.3,0.8,0.3,1,0c0.1-0.1,0.5-1.1,0.9-2.2l0.8-1.9
		l3.8-0.1l3.8-0.1l0.9,2.2c0.8,1.9,0.9,2.2,1.4,2.2c0.8,0.1,0.9,0.6-2.4-7.8c-3-7.4-3-7.5-3.6-7.5C210.8,38,210.6,38.2,210.4,38.6
		 M252,45.7v7.6h4.9h4.9v-0.5v-0.5l-4.3-0.1l-4.3-0.1v-3V46l3.9-0.1l3.9-0.1v-0.5v-0.5l-3.9-0.1l-3.9-0.1v-2.8V39l4.2-0.1l4.1,0.2
		v-0.5v-0.5h-4.8h-4.8L252,45.7 M272.2,38.6c0,0.5,0,0.5,2.4,0.6l2.4,0.1l0.1,7.1l0.1,7.1l0.6-0.1l0.6-0.1l0.1-7.1l0.1-7.1h2.4h2.4
		v-0.5v-0.5h-5.5h-5.5v0.5 M294.4,45.7v7.7l3.3-0.1c5.1-0.1,6.5-1.1,6.5-4.4c0-3.2-1.4-4.3-5.9-4.4l-2.9-0.1v-3.2V38h-0.5h-0.5V45.7
		 M167.9,45.7v6.4l-4,0.1c-4.9,0.1-4.7,0.2-4-1.4c0.8-1.9,1.3-4.7,1.5-8.1c0.1-1.7,0.2-3.2,0.2-3.3c0.1-0.2,0.8-0.3,3.2-0.2l3.1,0.1
		V45.7 M213,43.7c0.8,2.1,1.5,3.9,1.5,4c0,0.2-6.2,0.2-6.4,0c-0.1-0.1,0.6-1.9,1.5-4.1c0.9-2.2,1.7-3.9,1.8-3.9
		C211.4,39.8,212.1,41.6,213,43.7 M301.8,46c1.5,1.1,1.9,2.7,1.1,4.3c-0.8,1.5-1.4,1.8-4.6,1.8h-2.7l-0.1-3.4l-0.1-3.4l2.9,0.1
		C300.8,45.6,301.3,45.6,301.8,46 M45.5,57.1c-15.5,24.4-15,23.6-14.6,24c0.2,0.2,0.5,0.3,0.5,0.3c0.1,0,3.6-5.5,7.9-12.2
		C46.4,58,47,57,47.2,57.6c0.1,0.3,0.4,6.2,0.7,12.9c0.7,15.7,0.7,15.2,1.3,15.2c0.4,0,0.5-0.1,0.5-0.8c0-1.5-1.5-31.5-1.6-31.6
		C48.1,53.1,46.9,54.9,45.5,57.1"/>
</g>
</svg>
