<?xml version="1.0" encoding="utf-8"?>
<!-- Generator: Adobe Illustrator 21.0.0, SVG Export Plug-In . SVG Version: 6.00 Build 0)  -->
<svg version="1.1" id="Layer_1" xmlns="http://www.w3.org/2000/svg" xmlns:xlink="http://www.w3.org/1999/xlink" x="0px" y="0px"
	 width="240px" height="80px" viewBox="0 0 240 80" style="enable-background:new 0 0 240 80;" xml:space="preserve">
<style type="text/css">
	.st0{fill:#FFFFFF;}
	.st1{opacity:0.45;}
</style>
<g>
	<g id="XMLID_1_">
		<path id="XMLID_2_" class="st0" d="M27.7,19.7h7.1l11.7,20.3L34.8,60.5h-7.1l11.2-20.4L27.7,19.7z"/>
	</g>
	<g>
		<g id="XMLID_4_" class="st1">
			<polygon id="XMLID_8_" class="st0" points="4.7,49.2 41.3,49.2 45.2,42.5 0.8,42.5 			"/>
			<polygon id="XMLID_7_" class="st0" points="34.8,19.7 11.2,19.7 7.4,26.4 38.6,26.4 			"/>
			<polygon id="XMLID_6_" class="st0" points="11.2,60.5 34.8,60.5 38.6,53.9 7.4,53.9 			"/>
			<polygon id="XMLID_5_" class="st0" points="4.7,31.1 0.8,37.8 45.2,37.8 41.3,31.1 			"/>
		</g>
		<g>
			<path class="st0" d="M154.7,16.5v57.2h-11.4V16.5H122V6.3h54v10.2H154.7z"/>
			<path class="st0" d="M217.7,16.5v57.2h-11.4V16.5H185V6.3h54v10.2H217.7z"/>
			<path class="st0" d="M100.8,38.5c-2.9-1.3-6.6-2.6-11.1-4c-3.5-1-6.2-1.9-8.1-2.7c-1.9-0.8-3.5-1.9-4.8-3.2c-1.3-1.3-1.9-3-1.9-5
				c0-2.3,1-4,2.9-5.2c1.9-1.2,4.6-1.8,8-1.8c2.8,0,5.9,0.5,9.3,1.6c3.3,1,6.5,2.4,9.8,4.4l5.3-9.7c-3.2-2.1-6.8-3.8-10.9-5.1
				C95.3,6.5,91,5.9,86.7,5.9c-4.9,0-9.1,0.8-12.8,2.3c-3.7,1.5-6.6,3.7-8.6,6.6c-2.1,2.8-3.1,6.2-3.1,9.9c0,4.2,1,7.5,3,10
				c2,2.5,4.4,4.4,7.2,5.7c2.8,1.3,6.5,2.6,11.1,4c3.4,1,6.2,1.9,8.1,2.7c2,0.8,3.6,1.8,4.9,3.2c1.3,1.3,2,3.1,2,5.1
				c0,2.6-1.1,4.6-3.3,6c-2.2,1.4-5.3,2.2-9.3,2.2c-3.7,0-7.5-0.9-11.6-2.6c-3.9-1.6-7.5-3.9-10.7-6.8l-5.4,9.4
				c3.6,3.3,7.8,5.8,12.6,7.8c4.8,1.9,9.8,2.9,14.9,2.9c5,0,9.4-0.8,13.2-2.4c3.8-1.6,6.8-3.9,9-6.8c2.2-3,3.2-6.4,3.2-10.3
				c0-4.2-1-7.6-3-10.2C106.2,41.8,103.7,39.9,100.8,38.5z"/>
		</g>
	</g>
</g>
</svg>
