<?xml version="1.0" encoding="utf-8"?>
<!-- Generator: Adobe Illustrator 21.0.0, SVG Export Plug-In . SVG Version: 6.00 Build 0)  -->
<svg version="1.1" id="Layer_1" xmlns="http://www.w3.org/2000/svg" xmlns:xlink="http://www.w3.org/1999/xlink" x="0px" y="0px"
	 width="380px" height="37px" viewBox="0 0 380 37" style="enable-background:new 0 0 380 37;" xml:space="preserve">
<style type="text/css">
	.st0{fill:#FFFFFF;}
</style>
<g>
	<polygon class="st0" points="7.3,19.8 0.7,19.8 0.7,16.2 17.9,16.2 17.9,19.8 11.4,19.8 11.4,36.5 7.3,36.5 	"/>
	<polygon class="st0" points="21.5,16.2 25.5,16.2 25.5,24.1 34.6,24.1 34.6,16.2 38.7,16.2 38.7,36.5 34.6,36.5 34.6,27.8 
		25.5,27.8 25.5,36.5 21.5,36.5 	"/>
	<polygon class="st0" points="43.5,16.2 57,16.2 57,19.8 47.6,19.8 47.6,24.3 55,24.3 55,27.9 47.6,27.9 47.6,33 57,33 57,36.5 
		43.5,36.5 	"/>
	<path class="st0" d="M67.6,26.4c0-8.8,3.5-10.4,9.1-10.4c3.3,0,4.8,0.4,5.8,0.6L81.8,20c-1.5-0.3-3-0.5-5.2-0.5
		c-3.5,0-4.8,1.4-4.8,6.1V27c0,4.5,1.2,6.2,4.8,6.2c2.7,0,4.5-0.5,5.1-0.6l0.7,3.4c-1.1,0.3-2.6,0.7-5.8,0.7
		C71.1,36.8,67.6,35.1,67.6,26.4"/>
	<path class="st0" d="M89.1,36.5h-4.1l7.9-20.4h3.7l7.9,20.4h-4.3l-1.4-3.7h-8.4L89.1,36.5z M94.7,21.6c0,0-3,8-3,8h5.9L94.7,21.6z"
		/>
	<polygon class="st0" points="107.4,16.2 111.4,16.2 120.3,29.1 120.3,16.2 124.2,16.2 124.2,36.5 120.7,36.5 111.3,22.7 
		111.3,36.5 107.4,36.5 	"/>
	<path class="st0" d="M131.1,36.5H127l7.9-20.4h3.7l7.9,20.4h-4.3l-1.4-3.7h-8.4L131.1,36.5z M136.7,21.6c0,0-3,8-3,8h5.9
		L136.7,21.6z"/>
	<path class="st0" d="M149.3,16.2h7.6c6,0,9.2,1.4,9.2,10.1s-3.2,10.1-9.2,10.1h-7.6V16.2z M156.9,33.3c3.5,0,4.9-1.6,4.9-6.2v-1.3
		c0-4.7-1.4-6.1-4.9-6.1h-3.5v13.7L156.9,33.3L156.9,33.3z"/>
	<rect x="169.8" y="16.2" class="st0" width="4.1" height="20.3"/>
	<path class="st0" d="M180.9,36.5h-4.1l7.9-20.4h3.7l7.9,20.4H192l-1.4-3.7h-8.4L180.9,36.5z M186.4,21.6c0,0-3,8-3,8h5.9
		L186.4,21.6z"/>
	<polygon class="st0" points="199,16.2 203,16.2 212,29.1 212,16.2 215.9,16.2 215.9,36.5 212.4,36.5 202.9,22.7 202.9,36.5 
		199,36.5 	"/>
	<path class="st0" d="M228,16.2h8.4c5,0,7.5,1.3,7.5,7c0,5.7-2.6,7.1-7.5,7.1h-4.3v6.2h-4L228,16.2L228,16.2z M236.4,27
		c1.8,0,3.4-0.3,3.4-3.7s-1.6-3.7-3.5-3.7h-4.3V27H236.4z"/>
	<path class="st0" d="M264.6,36.5h-4.6l-4.4-6.5h-3.9v6.5h-4V16.2h8.1c5,0,7.5,1.2,7.5,6.9c0,4-1.3,5.5-3.6,6.1L264.6,36.5z
		 M255.8,26.8c2.2,0,3.4-0.5,3.4-3.6c0-3.1-1.4-3.6-3.5-3.6h-4v7.2H255.8z"/>
	<polygon class="st0" points="268.2,16.2 281.7,16.2 281.7,19.8 272.3,19.8 272.3,24.3 279.7,24.3 279.7,27.9 272.3,27.9 272.3,33 
		281.7,33 281.7,36.5 268.2,36.5 	"/>
	<path class="st0" d="M285.5,35.9l0.6-3.4c0.8,0.2,4.5,0.8,6.5,0.8c2.9,0,3.8-0.4,3.8-2.5c0-1.9-0.6-2.1-3.9-2.7
		c-5.5-1.1-6.9-2-6.9-6.4c0-4.2,2.7-5.7,7.3-5.7c2.5,0,5.9,0.4,6.8,0.7l-0.6,3.4c-1.3-0.2-3.8-0.6-6.1-0.6c-2.4,0-3.2,0.5-3.2,2.2
		c0,1.9,0.6,2.1,3.8,2.8c5.3,1,7,1.7,7,6.3c0,4.5-2.5,5.9-8,5.9C289.5,36.7,286.4,36.2,285.5,35.9"/>
	<path class="st0" d="M303.7,35.9l0.6-3.4c0.8,0.2,4.5,0.8,6.5,0.8c2.9,0,3.8-0.4,3.8-2.5c0-1.9-0.6-2.1-3.9-2.7
		c-5.5-1.1-6.9-2-6.9-6.4c0-4.2,2.7-5.7,7.3-5.7c2.5,0,5.9,0.4,6.8,0.7l-0.6,3.4c-1.3-0.2-3.8-0.6-6.1-0.6c-2.3,0-3.2,0.5-3.2,2.2
		c0,1.9,0.6,2.1,3.8,2.8c5.3,1,7,1.7,7,6.3c0,4.5-2.5,5.9-8,5.9C307.7,36.7,304.6,36.2,303.7,35.9"/>
	<path class="st0" d="M329.5,15.1V0.2h10.4v16H334c0.8,4,5.9,5.5,5.9,5.5V24C339.9,23.9,330.7,22.2,329.5,15.1"/>
	<path class="st0" d="M379.3,15.1V0.2h-10.4v16h5.9c-0.8,4-5.9,5.5-5.9,5.5V24C368.9,23.9,378.1,22.2,379.3,15.1"/>
	<g>
		<g>
			<g>
				<path class="st0" d="M358.8,16.4c0,0,0-0.1,0-0.1c0,0,0,0,0.1-0.1l5.4-3.9l-1.2-1c0,0,0,0,0-0.1c0,0,0-0.1,0-0.1l0,0l1-2.7
					L361.2,9c0,0-0.1,0-0.1,0c0,0,0,0-0.1-0.1l0,0l-0.9-1.4l-2.7,2.6c0,0-0.1,0.1-0.2,0s-0.1-0.1-0.1-0.1l1.2-5.8l-1.8,1.2
					c0,0-0.1,0-0.1,0c0,0-0.1,0-0.1-0.1l0,0l-2-4.2l-2,4.2c0,0,0,0.1-0.1,0.1s-0.1,0-0.1,0l-1.8-1.2l1.2,5.8c0,0.1,0,0.1-0.1,0.1
					s-0.1,0-0.1,0l-2.7-2.6l-0.9,1.4l0,0c0,0,0,0.1-0.1,0.1c0,0-0.1,0-0.1,0L345,8.4l1,2.7l0,0c0,0,0,0,0,0.1s0,0.1,0,0.1l-1.2,1
					l5.4,3.9c0,0,0,0,0.1,0.1c0,0,0,0.1,0,0.1l0,0l-1.2,1.9l4.7-0.7c0.1,0,0.2,0,0.2,0.1v4h1.1v-4c0-0.1,0.1-0.1,0.2-0.1l4.7,0.7
					L358.8,16.4L358.8,16.4z"/>
			</g>
		</g>
	</g>
</g>
</svg>
