<?xml version="1.0" encoding="utf-8"?>
<!-- Generator: Adobe Illustrator 21.0.0, SVG Export Plug-In . SVG Version: 6.00 Build 0)  -->
<svg version="1.1" id="Layer_1" xmlns="http://www.w3.org/2000/svg" xmlns:xlink="http://www.w3.org/1999/xlink" x="0px" y="0px"
	 width="210px" height="20px" viewBox="0 0 210 20" style="enable-background:new 0 0 210 20;" xml:space="preserve">
<style type="text/css">
	.st0{fill:#1A1818;}
	.st1{fill:#CC0000;}
</style>
<g>
	<polygon class="st0" points="5.2,10.8 1.6,10.8 1.6,8.8 11,8.8 11,10.8 7.4,10.8 7.4,19.9 5.2,19.9 	"/>
	<polygon class="st0" points="12.9,8.8 15.1,8.8 15.1,13.1 20.1,13.1 20.1,8.8 22.3,8.8 22.3,19.9 20.1,19.9 20.1,15.1 15.1,15.1 
		15.1,19.9 12.9,19.9 	"/>
	<polygon class="st0" points="24.9,8.8 32.3,8.8 32.3,10.8 27.1,10.8 27.1,13.2 31.2,13.2 31.2,15.2 27.1,15.2 27.1,18 32.3,18 
		32.3,19.9 24.9,19.9 	"/>
	<path class="st0" d="M38.1,14.3c0-4.8,1.9-5.7,5-5.7c1.8,0,2.6,0.2,3.2,0.3l-0.4,1.9c-0.8-0.2-1.6-0.3-2.8-0.3
		c-1.9,0-2.6,0.8-2.6,3.3v0.8c0,2.5,0.7,3.4,2.6,3.4c1.5,0,2.5-0.3,2.8-0.3l0.4,1.9c-0.6,0.2-1.4,0.4-3.2,0.4
		C40,20,38.1,19.1,38.1,14.3"/>
	<path class="st0" d="M49.9,19.9h-2.2l4.3-11.1H54l4.3,11.1H56l-0.8-2h-4.6L49.9,19.9z M52.9,11.7l-1.6,4.4h3.2L52.9,11.7z"/>
	<polygon class="st0" points="59.9,8.8 62,8.8 66.9,15.8 66.9,8.8 69,8.8 69,19.9 67.1,19.9 62,12.3 62,19.9 59.9,19.9 	"/>
	<path class="st0" d="M72.8,19.9h-2.2l4.3-11.1h2l4.3,11.1h-2.3l-0.8-2h-4.6L72.8,19.9z M75.9,11.7l-1.6,4.4h3.2L75.9,11.7z"/>
	<path class="st0" d="M82.8,8.8h4.2c3.3,0,5,0.8,5,5.5s-1.7,5.5-5,5.5h-4.2V8.8z M86.9,18.1c1.9,0,2.7-0.9,2.7-3.4V14
		c0-2.6-0.8-3.3-2.7-3.3H85v7.4H86.9L86.9,18.1z"/>
	<rect x="94" y="8.8" class="st0" width="2.2" height="11.1"/>
	<path class="st0" d="M100,19.9h-2.2l4.3-11.1h2l4.3,11.1h-2.3l-0.8-2h-4.6L100,19.9z M103,11.7l-1.6,4.4h3.2L103,11.7z"/>
	<polygon class="st0" points="109.9,8.8 112.1,8.8 117,15.8 117,8.8 119.1,8.8 119.1,19.9 117.2,19.9 112,12.3 112,19.9 109.9,19.9 
			"/>
	<path class="st0" d="M125.8,8.8h4.6c2.7,0,4.1,0.7,4.1,3.8s-1.4,3.9-4.1,3.9H128v3.4h-2.2L125.8,8.8L125.8,8.8z M130.4,14.7
		c1,0,1.9-0.2,1.9-2s-0.9-2-1.9-2H128v4.1L130.4,14.7L130.4,14.7z"/>
	<path class="st0" d="M145.8,19.9h-2.5l-2.4-3.6h-2.1v3.6h-2.2V8.8h4.4c2.7,0,4.1,0.7,4.1,3.8c0,2.2-0.7,3-2,3.3L145.8,19.9z
		 M141,14.5c1.2,0,1.9-0.3,1.9-2s-0.8-2-1.9-2h-2.2v3.9H141z"/>
	<polygon class="st0" points="147.7,8.8 155.1,8.8 155.1,10.8 149.9,10.8 149.9,13.2 154,13.2 154,15.2 149.9,15.2 149.9,18 
		155.1,18 155.1,19.9 147.7,19.9 	"/>
	<path class="st0" d="M157.2,19.6l0.3-1.9c0.4,0.1,2.5,0.4,3.6,0.4c1.6,0,2.1-0.2,2.1-1.4c0-1-0.3-1.1-2.1-1.5
		c-3-0.6-3.8-1.1-3.8-3.5c0-2.3,1.5-3.1,4-3.1c1.4,0,3.2,0.2,3.7,0.4l-0.3,1.9c-0.7-0.1-2.1-0.3-3.3-0.3c-1.3,0-1.7,0.3-1.7,1.2
		c0,1,0.3,1.1,2.1,1.5c2.9,0.5,3.8,0.9,3.8,3.4c0,2.5-1.4,3.2-4.4,3.2C159.4,20,157.7,19.7,157.2,19.6"/>
	<path class="st0" d="M167.1,19.6l0.3-1.9c0.4,0.1,2.5,0.4,3.6,0.4c1.6,0,2.1-0.2,2.1-1.4c0-1-0.3-1.1-2.1-1.5
		c-3-0.6-3.8-1.1-3.8-3.5c0-2.3,1.5-3.1,4-3.1c1.4,0,3.2,0.2,3.7,0.4l-0.3,1.9c-0.7-0.1-2.1-0.3-3.3-0.3c-1.3,0-1.7,0.3-1.7,1.2
		c0,1,0.3,1.1,2.1,1.5c2.9,0.5,3.8,0.9,3.8,3.4c0,2.5-1.4,3.2-4.4,3.2C169.3,20,167.6,19.7,167.1,19.6"/>
	<path class="st1" d="M181.2,8.2V0.1h5.7v8.7h-3.2c0.4,2.2,3.2,3,3.2,3V13C186.9,13,181.9,12.1,181.2,8.2"/>
	<path class="st1" d="M208.4,8.2V0.1h-5.7v8.7h3.2c-0.4,2.2-3.2,3-3.2,3V13C202.7,13,207.8,12.1,208.4,8.2"/>
	<g>
		<g>
			<g>
				<path class="st1" d="M197.2,8.9L197.2,8.9c0-0.1,0-0.1,0.1-0.1l3-2.1l-0.7-0.5c0,0,0,0,0-0.1V6l0,0l0.5-1.5l-1.5,0.3h-0.1
					c0,0,0,0-0.1-0.1l0,0L198,4l-1.5,1.4c0,0-0.1,0.1-0.1,0s-0.1-0.1-0.1-0.1l0.7-3.2l-1,0.7H196c0,0-0.1,0-0.1-0.1l0,0l-1.1-2.3
					l-1.1,2.3c0,0,0,0.1-0.1,0.1c-0.1,0-0.1,0-0.1,0l-1-0.7l0.7,3.2c0,0.1,0,0.1-0.1,0.1c-0.1,0-0.1,0-0.1,0L191.7,4l-0.5,0.8l0,0
					c0,0,0,0.1-0.1,0.1h-0.1l-1.5-0.3l0.5,1.5l0,0c0,0,0,0,0,0.1c0,0.1,0,0.1,0,0.1l-0.7,0.5l3,2.1c0,0,0,0,0.1,0.1v0.1l0,0l-0.7,1
					l2.6-0.4c0.1,0,0.1,0,0.1,0.1v2.2h0.6V9.6c0-0.1,0.1-0.1,0.1-0.1l2.6,0.4L197.2,8.9L197.2,8.9z"/>
			</g>
		</g>
	</g>
</g>
</svg>
